<?xml version="1.0" standalone="no"?>
<!DOCTYPE svg PUBLIC "-//W3C//DTD SVG 20010904//EN"
 "http://www.w3.org/TR/2001/REC-SVG-20010904/DTD/svg10.dtd">
<svg version="1.0" xmlns="http://www.w3.org/2000/svg"
 width="672.000000pt" height="672.000000pt" viewBox="0 0 672.000000 672.000000"
 preserveAspectRatio="xMidYMid meet">
<metadata>
Created by potrace 1.14, written by Peter Selinger 2001-2017
</metadata>
<g transform="translate(0.000000,672.000000) scale(0.100000,-0.100000)"
fill="#000000" stroke="none">
<path d="M210 6379 c-69 -25 -139 -87 -176 -159 l-29 -55 0 -2690 c0 -1479 3
-2702 7 -2716 22 -90 129 -201 206 -215 14 -3 31 -9 37 -13 5 -4 49 -6 96 -5
70 1 96 7 145 30 75 35 127 86 162 160 l27 59 0 2690 0 2690 -29 58 c-35 72
-85 122 -157 156 -74 36 -205 40 -289 10z"/>
<path d="M6265 6394 c-96 -24 -196 -113 -230 -205 -19 -53 -19 -93 -20 -2704
0 -1457 3 -2672 8 -2699 18 -101 85 -186 185 -232 49 -23 70 -27 150 -27 51 0
103 5 115 11 12 5 38 17 57 26 80 36 151 131 166 223 12 73 7 5335 -5 5379
-12 45 -57 118 -93 150 -13 12 -45 34 -73 49 -43 23 -64 28 -145 31 -52 1
-104 1 -115 -2z"/>
<path d="M1223 5411 c-57 -19 -139 -77 -148 -103 -4 -10 -10 -18 -14 -18 -5 0
-19 -24 -32 -52 l-24 -53 0 -2210 0 -2210 25 -50 c72 -147 237 -218 413 -178
98 22 177 87 221 182 l21 46 2 2195 c2 2004 1 2199 -14 2245 -9 28 -22 57 -30
66 -7 8 -13 19 -13 24 0 17 -78 80 -129 103 -72 33 -203 39 -278 13z"/>
<path d="M5235 5413 c-105 -36 -187 -126 -210 -230 -20 -88 -15 -4392 5 -4443
35 -91 116 -170 203 -198 52 -16 149 -21 202 -9 22 5 45 10 50 11 62 13 153
97 189 175 l21 46 2 2200 c3 2038 2 2204 -14 2245 -33 88 -88 148 -173 188
-46 22 -70 26 -145 27 -53 1 -106 -4 -130 -12z"/>
<path d="M2250 4027 c-96 -18 -203 -120 -232 -220 -9 -32 -12 -407 -11 -1532
l0 -1490 22 -56 c26 -69 89 -137 156 -169 59 -29 63 -30 135 -33 114 -6 201
22 271 85 42 38 88 123 95 176 8 58 7 2955 -1 2993 -24 113 -125 221 -229 246
-39 9 -161 9 -206 0z"/>
<path d="M4288 4034 c-2 -1 -19 -6 -38 -9 -43 -7 -109 -45 -141 -80 -13 -15
-31 -34 -40 -43 -9 -9 -26 -43 -38 -75 l-21 -58 1 -1492 c0 -1464 1 -1493 20
-1544 29 -75 95 -144 171 -178 51 -23 76 -28 143 -28 44 0 99 5 122 12 99 28
191 121 216 221 11 44 14 316 12 1544 -1 1457 -1 1492 -20 1531 -67 136 -153
194 -301 200 -46 1 -84 1 -86 -1z"/>
<path d="M3255 2633 c-118 -29 -221 -138 -240 -255 -10 -57 -10 -1577 0 -1608
49 -162 176 -250 353 -244 136 5 247 76 300 194 l25 55 2 790 c1 435 -1 794
-4 800 -3 5 -6 18 -7 30 -9 72 -88 171 -171 211 -45 23 -70 28 -146 30 -51 1
-101 0 -112 -3z"/>
</g>
</svg>
