<svg width="165" height="34" viewBox="0 0 165 34" fill="none" xmlns="http://www.w3.org/2000/svg">
<path d="M15.1319 33.6533C1.10845 26.3479 1 16.4427 1 1.00153L29.2588 1C29.2588 16.453 29.212 26.3479 15.1319 33.6533Z" fill="white"/>
<path d="M15.1319 33.6533C1.10845 26.3479 1 16.4427 1 1.00153L29.2588 1C29.2588 16.453 29.212 26.3479 15.1319 33.6533V33.6533Z" stroke="#048CA7" stroke-width="0.7226" stroke-miterlimit="3.864"/>
<path d="M15.1408 32.4168C1.48476 25.4643 2.00654 13.877 2.00654 2.10835L28.2196 2.10547C28.2196 14.0021 28.6574 25.4643 15.1408 32.4168Z" fill="#068CBC"/>
<path d="M15.1408 32.4168C1.48476 25.4643 2.00654 13.877 2.00654 2.10835L28.2196 2.10547C28.2196 14.0021 28.6574 25.4643 15.1408 32.4168V32.4168Z" stroke="#068CBC" stroke-width="0.7226" stroke-miterlimit="3.864"/>
<path d="M10.4656 20.7672C10.5511 20.7307 10.5445 20.8499 10.5445 20.9586V23.2581C10.5445 23.4345 10.4136 23.4921 10.2449 23.5023L9.86872 23.5155V23.7082C10.482 23.7038 10.7058 23.6937 10.9333 23.6937C11.1629 23.6937 11.3838 23.7038 11.8602 23.7082V23.5155L11.5347 23.5023C11.3682 23.4921 11.2358 23.4345 11.2358 23.2581V21.5856C11.2358 20.963 11.2722 20.5173 11.2893 20.2682L11.2253 20.2185C10.7749 20.3919 10.0405 20.6541 9.65828 20.7421C9.65382 20.8499 9.67535 20.963 9.73183 21.1042" fill="white"/>
<path d="M13.7604 22.2673C14.0586 22.3953 14.3053 22.5572 14.3053 22.9211C14.3053 23.2375 14.0757 23.5112 13.7448 23.5112C13.3522 23.5112 13.0795 23.2006 13.0795 22.8221C13.0795 22.5058 13.2044 22.3232 13.4409 22.126L13.7604 22.2673ZM13.7448 21.5562C13.4988 21.4519 13.2422 21.312 13.2422 21.0001C13.2422 20.7039 13.4557 20.5394 13.7448 20.5394C14.086 20.5394 14.2837 20.7761 14.2837 21.1043C14.2837 21.312 14.1804 21.4933 13.9746 21.6566L13.7448 21.5562ZM13.8133 20.2683C13.0995 20.2683 12.7004 20.6644 12.7004 21.2341C12.7004 21.6082 12.9018 21.8625 13.226 22.0332C12.8907 22.1793 12.6111 22.4956 12.6111 22.8754C12.6111 23.3198 12.9322 23.7805 13.666 23.7805C14.3373 23.7805 14.8822 23.3141 14.8822 22.6356C14.8822 22.1071 14.5157 21.8405 14.2324 21.7432C14.5261 21.5562 14.7252 21.327 14.7252 21.0326C14.7252 20.5011 14.2964 20.2683 13.8133 20.2683Z" fill="white"/>
<path d="M16.3832 20.7672C16.4672 20.7307 16.4627 20.8499 16.4627 20.9586V23.2581C16.4627 23.4345 16.3318 23.4921 16.1645 23.5023L15.787 23.5155V23.7082C16.4003 23.7038 16.6254 23.6937 16.8507 23.6937C17.0805 23.6937 17.3012 23.7038 17.7778 23.7082V23.5155L17.4536 23.5023C17.285 23.4921 17.1541 23.4345 17.1541 23.2581V21.5856C17.1541 20.963 17.1918 20.5173 17.2067 20.2682L17.1443 20.2185C16.6923 20.3919 15.9601 20.6541 15.5765 20.7421C15.5721 20.8499 15.5921 20.963 15.6507 21.1042" fill="white"/>
<path d="M19.1483 20.7672C19.2317 20.7307 19.2257 20.8499 19.2257 20.9586V23.2581C19.2257 23.4345 19.095 23.4921 18.9277 23.5023L18.5499 23.5155V23.7082C19.1632 23.7038 19.3885 23.6937 19.6139 23.6937C19.8443 23.6937 20.0643 23.7038 20.5416 23.7082V23.5155L20.2167 23.5023C20.0494 23.4921 19.9185 23.4345 19.9185 23.2581V21.5856C19.9185 20.963 19.955 20.5173 19.9705 20.2682L19.9068 20.2185C19.457 20.3919 18.7232 20.6541 18.3397 20.7421C18.3353 20.8499 18.3568 20.963 18.4126 21.1042" fill="white"/>
<path d="M18.2846 15.686C18.2846 15.4874 18.4237 15.4564 18.6957 15.4004V15.1312C18.3032 15.1384 17.8357 15.1532 17.443 15.1532C17.0497 15.1532 16.6573 15.1384 16.2633 15.1312V15.4564L16.6893 15.4711C16.9451 15.4799 17.1457 15.5197 17.1457 15.7654V16.8136C16.8097 16.9402 16.4811 17.0137 16.1273 17.0137C14.6829 17.0137 13.97 15.8128 13.97 14.4408C13.97 13.185 14.6769 12.2474 16.0075 12.2474C16.6648 12.2474 17.3791 12.43 17.6915 12.7949L17.7324 13.478H18.0446C18.0855 13.1366 18.1493 12.5507 18.2304 12.2636L18.1813 12.1754C17.4186 11.8663 16.7064 11.803 15.9755 11.803C14.2658 11.803 12.7656 12.7156 12.7656 14.5422C12.7656 16.4398 14.1134 17.4568 15.9438 17.4568C16.7704 17.4568 17.5479 17.267 18.2846 16.9799" fill="white"/>
<path d="M18.2846 15.686C18.2846 15.4874 18.4237 15.4564 18.6957 15.4004V15.1312C18.3032 15.1384 17.8357 15.1532 17.443 15.1532C17.0497 15.1532 16.6573 15.1384 16.2633 15.1312V15.4564L16.6893 15.4711C16.9451 15.4799 17.1457 15.5197 17.1457 15.7654V16.8136C16.8097 16.9402 16.4811 17.0137 16.1273 17.0137C14.6829 17.0137 13.97 15.8128 13.97 14.4408C13.97 13.185 14.6769 12.2474 16.0075 12.2474C16.6648 12.2474 17.3791 12.43 17.6915 12.7949L17.7324 13.478H18.0446C18.0855 13.1366 18.1493 12.5507 18.2304 12.2636L18.1813 12.1754C17.4186 11.8663 16.7064 11.803 15.9755 11.803C14.2658 11.803 12.7656 12.7156 12.7656 14.5422C12.7656 16.4398 14.1134 17.4568 15.9438 17.4568C16.7704 17.4568 17.5479 17.267 18.2846 16.9799V15.686Z" stroke="white" stroke-width="0.7226" stroke-miterlimit="3.864"/>
<path d="M11.9316 7.51659C11.9316 6.15214 13.4327 5.04663 15.2829 5.04663C17.1355 5.04663 18.6372 6.15214 18.6372 7.51659C18.6372 8.88104 17.1355 9.98809 15.2829 9.98809C13.4327 9.98809 11.9316 8.88127 11.9316 7.51659Z" fill="white"/>
<path d="M11.9316 7.51659C11.9316 6.15214 13.4327 5.04663 15.2829 5.04663C17.1355 5.04663 18.6372 6.15214 18.6372 7.51659C18.6372 8.88104 17.1355 9.98809 15.2829 9.98809C13.4327 9.98809 11.9316 8.88127 11.9316 7.51659V7.51659Z" stroke="#048CA7" stroke-width="0.7226" stroke-miterlimit="3.864"/>
<path d="M19.2794 6.68652H11.3154V8.83992H19.2794V6.68652Z" fill="white"/>
<path d="M19.2794 6.68652H11.3154V8.83992H19.2794V6.68652Z" stroke="#048CA7" stroke-width="0.7226" stroke-miterlimit="3.864"/>
<path d="M7.43555 10.0248L15.2611 7.60938L23.116 10.0248" fill="white"/>
<path d="M7.43555 10.0248L15.2611 7.60938L23.116 10.0248H7.43555Z" stroke="#048CA7" stroke-width="1.1977" stroke-miterlimit="3.864"/>
<path d="M14.2776 5.15554L16.2649 5.15419C16.2753 4.47856 15.7274 3.96465 15.2582 3.55103C14.7936 3.97213 14.2776 4.4623 14.2776 5.15554Z" fill="white"/>
<path d="M14.2776 5.15554L16.2649 5.15419C16.2753 4.47856 15.7274 3.96465 15.2582 3.55103C14.7936 3.97213 14.2776 4.4623 14.2776 5.15554Z" stroke="#048CA7" stroke-width="0.7226" stroke-miterlimit="3.864"/>
<path d="M11.676 13.01C11.676 12.6773 11.685 12.4611 11.7325 12.3682C11.7718 12.2857 11.8529 12.2474 12.0611 12.2314L12.3585 12.2078V11.9148C11.9563 11.9207 11.6672 11.9384 11.4276 11.9384C11.195 11.9384 10.8983 11.9207 10.5052 11.9148C10.3847 12.1916 10.2568 12.5185 10.1125 12.8113L8.64435 15.8128L7.37617 13.1926C7.20883 12.8349 6.91975 12.2402 6.7733 11.9148C6.45354 11.9207 6.13243 11.9384 5.81131 11.9384C5.49156 11.9384 5.17044 11.9207 4.84937 11.9148V12.2078L5.14732 12.2314C5.35489 12.2474 5.43512 12.2857 5.47444 12.3682C5.52223 12.4611 5.5311 12.6773 5.5311 13.01V16.25C5.5311 16.5839 5.52223 16.7975 5.47444 16.8932C5.43512 16.9727 5.35489 17.0138 5.14732 17.0285L4.84937 17.0521V17.3465C5.15487 17.3377 5.46712 17.3229 5.77199 17.3229C6.07663 17.3229 6.38219 17.3377 6.68706 17.3465V17.0521L6.38974 17.0285C6.18153 17.0138 6.10043 16.9727 6.06111 16.8932C6.01196 16.7975 6.00463 16.5839 6.00463 16.25V12.9689H6.0202L7.8497 16.743C7.95369 16.9652 8.05859 17.1788 8.13882 17.401H8.4117C8.53949 17.0844 8.7239 16.6931 8.89279 16.3529L10.5281 12.9776H10.5445V16.25C10.5445 16.5839 10.5372 16.7975 10.4888 16.8932C10.4567 16.9579 10.3683 16.9887 10.1594 17.005L9.86278 17.0285V17.3465C10.193 17.3377 10.633 17.3229 11.1154 17.3229C11.5876 17.3229 12.0291 17.3377 12.3585 17.3465V17.0285L12.0611 17.005C11.8529 16.9887 11.7645 16.9579 11.7325 16.8932C11.685 16.7975 11.676 16.5839 11.676 16.25" fill="white"/>
<path d="M11.676 13.01C11.676 12.6773 11.685 12.4611 11.7325 12.3682C11.7718 12.2857 11.8529 12.2474 12.0611 12.2314L12.3585 12.2078V11.9148C11.9563 11.9207 11.6672 11.9384 11.4276 11.9384C11.195 11.9384 10.8983 11.9207 10.5052 11.9148C10.3847 12.1916 10.2568 12.5185 10.1125 12.8113L8.64435 15.8128L7.37617 13.1926C7.20883 12.8349 6.91975 12.2402 6.7733 11.9148C6.45354 11.9207 6.13243 11.9384 5.81131 11.9384C5.49156 11.9384 5.17044 11.9207 4.84937 11.9148V12.2078L5.14732 12.2314C5.35489 12.2474 5.43512 12.2857 5.47444 12.3682C5.52223 12.4611 5.5311 12.6773 5.5311 13.01V16.25C5.5311 16.5839 5.52223 16.7975 5.47444 16.8932C5.43512 16.9727 5.35489 17.0138 5.14732 17.0285L4.84937 17.0521V17.3465C5.15487 17.3377 5.46712 17.3229 5.77199 17.3229C6.07663 17.3229 6.38219 17.3377 6.68706 17.3465V17.0521L6.38974 17.0285C6.18153 17.0138 6.10043 16.9727 6.06111 16.8932C6.01196 16.7975 6.00463 16.5839 6.00463 16.25V12.9689H6.0202L7.8497 16.743C7.95369 16.9652 8.05859 17.1788 8.13882 17.401H8.4117C8.53949 17.0844 8.7239 16.6931 8.89279 16.3529L10.5281 12.9776H10.5445V16.25C10.5445 16.5839 10.5372 16.7975 10.4888 16.8932C10.4567 16.9579 10.3683 16.9887 10.1594 17.005L9.86278 17.0285V17.3465C10.193 17.3377 10.633 17.3229 11.1154 17.3229C11.5876 17.3229 12.0291 17.3377 12.3585 17.3465V17.0285L12.0611 17.005C11.8529 16.9887 11.7645 16.9579 11.7325 16.8932C11.685 16.7975 11.676 16.5839 11.676 16.25V13.01V13.01Z" stroke="white" stroke-width="0.7226" stroke-miterlimit="3.864"/>
<path d="M21.0695 13.01C21.0695 12.6773 21.0768 12.4624 21.126 12.3682C21.1579 12.3049 21.248 12.2712 21.4575 12.2549L21.758 12.2314V11.9148C21.4255 11.9207 20.9795 11.9384 20.5015 11.9384C20.0162 11.9384 19.57 11.9207 19.2378 11.9148V12.2314L19.538 12.2549C19.75 12.2712 19.8378 12.3049 19.8697 12.3682C19.9187 12.4624 19.9262 12.6773 19.9262 13.01V16.2528C19.9262 16.587 19.9187 16.8004 19.8697 16.8961C19.8378 16.9595 19.75 16.9918 19.538 17.0079L19.2378 17.0314V17.3495C19.57 17.3421 20.0162 17.326 20.5015 17.326C20.9795 17.326 21.4255 17.3421 21.758 17.3495V17.0314L21.4575 17.0079C21.248 16.9918 21.1579 16.9595 21.126 16.8961C21.0768 16.8004 21.0695 16.587 21.0695 16.2528V14.7425C21.1915 14.7353 21.3437 14.7264 21.726 14.7264H22.9086C23.2892 14.7264 23.4432 14.7353 23.565 14.7425V16.2528C23.565 16.587 23.5577 16.8004 23.5085 16.8961C23.4752 16.9595 23.3868 16.9918 23.1754 17.0079L22.8752 17.0314V17.3495C23.2074 17.3421 23.6537 17.326 24.1405 17.326C24.617 17.326 25.063 17.3421 25.3967 17.3495V17.0314L25.0965 17.0079C24.8845 16.9918 24.7954 16.9595 24.7634 16.8961C24.7143 16.8004 24.7069 16.587 24.7069 16.2528V13.01C24.7069 12.6773 24.7143 12.4624 24.7634 12.3682C24.7954 12.3049 24.8845 12.2712 25.0965 12.2549L25.3967 12.2314V11.9148C25.063 11.9207 24.617 11.9384 24.1405 11.9384C23.6537 11.9384 23.2074 11.9207 22.8752 11.9148V12.2314L23.1754 12.2549C23.3868 12.2712 23.4752 12.3049 23.5085 12.3682C23.5577 12.4624 23.565 12.6773 23.565 13.01V14.2671C23.4432 14.2745 23.2892 14.2818 22.9086 14.2818H21.726C21.3437 14.2818 21.1915 14.2745 21.0695 14.2671" fill="white"/>
<path d="M21.0695 13.01C21.0695 12.6773 21.0768 12.4624 21.126 12.3682C21.1579 12.3049 21.248 12.2712 21.4575 12.2549L21.758 12.2314V11.9148C21.4255 11.9207 20.9795 11.9384 20.5015 11.9384C20.0162 11.9384 19.57 11.9207 19.2378 11.9148V12.2314L19.538 12.2549C19.75 12.2712 19.8378 12.3049 19.8697 12.3682C19.9187 12.4624 19.9262 12.6773 19.9262 13.01V16.2528C19.9262 16.587 19.9187 16.8004 19.8697 16.8961C19.8378 16.9595 19.75 16.9918 19.538 17.0079L19.2378 17.0314V17.3495C19.57 17.3421 20.0162 17.326 20.5015 17.326C20.9795 17.326 21.4255 17.3421 21.758 17.3495V17.0314L21.4575 17.0079C21.248 16.9918 21.1579 16.9595 21.126 16.8961C21.0768 16.8004 21.0695 16.587 21.0695 16.2528V14.7425C21.1915 14.7353 21.3437 14.7264 21.726 14.7264H22.9086C23.2892 14.7264 23.4432 14.7353 23.565 14.7425V16.2528C23.565 16.587 23.5577 16.8004 23.5085 16.8961C23.4752 16.9595 23.3868 16.9918 23.1754 17.0079L22.8752 17.0314V17.3495C23.2074 17.3421 23.6537 17.326 24.1405 17.326C24.617 17.326 25.063 17.3421 25.3967 17.3495V17.0314L25.0965 17.0079C24.8845 16.9918 24.7954 16.9595 24.7634 16.8961C24.7143 16.8004 24.7069 16.587 24.7069 16.2528V13.01C24.7069 12.6773 24.7143 12.4624 24.7634 12.3682C24.7954 12.3049 24.8845 12.2712 25.0965 12.2549L25.3967 12.2314V11.9148C25.063 11.9207 24.617 11.9384 24.1405 11.9384C23.6537 11.9384 23.2074 11.9207 22.8752 11.9148V12.2314L23.1754 12.2549C23.3868 12.2712 23.4752 12.3049 23.5085 12.3682C23.5577 12.4624 23.565 12.6773 23.565 13.01V14.2671C23.4432 14.2745 23.2892 14.2818 22.9086 14.2818H21.726C21.3437 14.2818 21.1915 14.2745 21.0695 14.2671V13.01Z" stroke="white" stroke-width="0.7226" stroke-miterlimit="3.864"/>
<path d="M43.0757 22.5101C43.0757 22.8177 43.0639 22.881 43.0132 23.0166C42.9375 23.2405 42.2245 23.4508 41.2595 23.4508C38.6816 23.4508 37.228 21.6785 37.228 19.2113C37.228 17.005 38.4689 15.4564 40.8471 15.4564C41.6595 15.4564 42.1999 15.5417 42.6006 15.6772C43.1888 15.8891 43.6392 16.088 43.6392 16.6694V17.3288H44.0272C44.0272 16.6826 44.1276 16.0261 44.2785 15.4432C43.7017 15.2812 42.7241 14.9338 41.1726 14.9338C38.1551 14.9338 35.8892 16.6958 35.8892 19.4221C35.8892 22.5339 38.1424 23.9704 40.9346 23.9704C41.7986 23.9704 43.1515 23.6497 44.2281 23.3391V21.2561C44.2281 20.897 44.2281 20.8468 44.3654 20.7985L44.729 20.6748L44.6785 20.3642C44.1654 20.3756 43.651 20.3875 43.1381 20.3875C42.637 20.3875 42.1241 20.3756 41.6113 20.3642V20.7364L42.6512 20.8218C42.9754 20.8468 43.0757 20.9718 43.0757 21.2561" fill="#363636"/>
<path d="M46.8789 22.2365C46.8789 22.7077 46.8545 23.0285 46.766 23.1667C46.6901 23.2903 46.5407 23.3273 46.2396 23.3523L45.7892 23.3888V23.7602C46.2396 23.7484 46.6538 23.7233 47.1287 23.7233C47.9062 23.7233 48.8942 23.7484 49.8584 23.7602C50.7855 23.7734 51.775 23.7365 52.325 23.7233C52.325 23.0549 52.3995 22.2866 52.5259 21.6904H52.0872C52.0003 22.4354 51.8375 22.9814 51.6486 23.0787C51.4235 23.2023 50.1462 23.2406 49.1217 23.2406C48.782 23.2406 48.4178 23.2287 48.0676 23.1403V19.6708C48.4564 19.6325 48.9204 19.6325 49.5202 19.6325C50.2844 19.6325 50.7097 19.6809 50.8479 19.7812C50.9104 19.8182 50.935 19.9313 50.9484 20.0932L51.0108 20.8219H51.3871C51.3735 20.3757 51.3491 19.9062 51.3491 19.4473C51.3491 18.9892 51.3735 18.5184 51.3871 18.0089H51.0108L50.9484 18.6535C50.935 18.8141 50.9104 18.9259 50.8479 18.976C50.7097 19.0627 50.2844 19.1129 49.5202 19.1129C48.9204 19.1129 48.4685 19.101 48.0676 19.0746V15.7655C48.4178 15.6773 48.782 15.6654 49.1217 15.6654C49.9209 15.6654 50.9104 15.6773 51.5744 15.9261C51.6746 15.9644 51.6866 16.0997 51.6866 16.2616V17.0653H52.1252C52.1252 16.4339 52.189 15.7272 52.325 15.1827C51.8375 15.1577 51.2739 15.146 50.7097 15.146C49.9969 15.146 48.8444 15.1827 47.7547 15.1827C47.0418 15.1827 46.3274 15.1577 45.6396 15.146V15.5183L46.2396 15.5537C46.5407 15.5669 46.6901 15.6155 46.766 15.7407C46.8545 15.876 46.8789 16.1998 46.8789 16.6695" fill="#363636"/>
<path d="M54.8459 22.2365C54.8459 22.7077 54.82 23.0285 54.7338 23.1667C54.6586 23.2903 54.5078 23.3273 54.2067 23.3523L53.6558 23.3888V23.7602C54.1575 23.7484 54.6586 23.7233 55.1091 23.7233C55.6086 23.7233 56.0606 23.7484 56.6108 23.7602V23.3888L56.0606 23.3523C55.7595 23.3273 55.6086 23.2903 55.5344 23.1667C55.4473 23.0285 55.4213 22.7077 55.4213 22.2365V16.5221H55.4473L61.3453 23.7734L62.4725 23.9705C62.4598 23.8231 62.4353 23.6612 62.4353 23.5112V16.6695C62.4353 16.1998 62.4598 15.876 62.5469 15.7407C62.6211 15.6155 62.772 15.5801 63.0731 15.5537L63.6233 15.5183V15.146C63.0731 15.1577 62.6211 15.1827 62.1216 15.1827C61.6711 15.1827 61.17 15.1577 60.6683 15.146V15.5183L61.2191 15.5537C61.5209 15.5801 61.6711 15.6155 61.7462 15.7407C61.8338 15.876 61.8584 16.1998 61.8584 16.6695V22.4587H61.8204L55.8353 15.146C55.6086 15.1577 55.3848 15.1827 55.1582 15.1827C54.7075 15.1827 54.2067 15.1577 53.6558 15.146V15.5183L54.2067 15.5537C54.5078 15.5801 54.6586 15.6155 54.7338 15.7407C54.82 15.876 54.8459 16.1998 54.8459 16.6695" fill="#363636"/>
<path d="M65.8186 22.2365C65.8186 22.7077 65.794 23.0285 65.7055 23.1667C65.6313 23.2903 65.4818 23.3273 65.1806 23.3523L64.7302 23.3888V23.7602C65.1806 23.7484 65.5933 23.7233 66.0698 23.7233C66.8459 23.7233 67.8346 23.7484 68.7997 23.7602C69.7265 23.7734 70.7145 23.7365 71.2663 23.7233C71.2663 23.0549 71.3405 22.2866 71.4654 21.6904H71.0267C70.9398 22.4354 70.7769 22.9814 70.5896 23.0787C70.3645 23.2023 69.0872 23.2406 68.0599 23.2406C67.7217 23.2406 67.3581 23.2287 67.0073 23.1403V19.6708C67.3975 19.6325 67.8599 19.6325 68.4612 19.6325C69.2241 19.6325 69.6507 19.6809 69.7876 19.7812C69.8501 19.8182 69.8761 19.9313 69.8879 20.0932L69.9503 20.8219H70.3265C70.3132 20.3757 70.2885 19.9062 70.2885 19.4473C70.2885 18.9892 70.3132 18.5184 70.3265 18.0089H69.9503L69.8879 18.6535C69.8761 18.8141 69.8501 18.9259 69.7876 18.976C69.6507 19.0627 69.2241 19.1129 68.4612 19.1129C67.8599 19.1129 67.4079 19.101 67.0073 19.0746V15.7655C67.3581 15.6773 67.7217 15.6654 68.0599 15.6654C68.8621 15.6654 69.8501 15.6773 70.5138 15.9261C70.6143 15.9644 70.6269 16.0997 70.6269 16.2616V17.0653H71.0663C71.0663 16.4339 71.1287 15.7272 71.2663 15.1827C70.7769 15.1577 70.2143 15.146 69.6507 15.146C68.9363 15.146 67.7841 15.1827 66.6941 15.1827C65.9813 15.1827 65.2677 15.1577 64.5793 15.146V15.5183L65.1806 15.5537C65.4818 15.5669 65.6313 15.6155 65.7055 15.7407C65.794 15.876 65.8186 16.1998 65.8186 16.6695" fill="#363636"/>
<path d="M75.1607 15.7656C75.511 15.6774 75.8745 15.6156 76.4378 15.6156C77.414 15.6156 78.4153 15.988 78.4153 17.3289C78.4153 18.2444 77.6645 18.9141 76.788 19.0628C76.4118 19.1249 76.0238 19.1367 75.6856 19.113L75.6112 19.2603C75.8239 19.5222 76.0618 19.7562 76.2625 20.03L78.5662 23.092C78.7291 23.3141 78.9164 23.5245 79.0793 23.7603C79.3668 23.7484 79.6426 23.7233 79.9319 23.7233C80.2182 23.7233 80.5073 23.7484 80.8328 23.7603V23.3889C80.5319 23.3643 80.2559 23.3141 80.0686 23.0669L77.2267 19.3985C78.44 19.1618 79.6673 18.3566 79.6673 17.0051C79.6673 16.113 79.1431 15.1078 77.1382 15.1461C76.4118 15.1578 75.6856 15.1828 74.9474 15.1828C74.2093 15.1828 73.483 15.1578 72.819 15.1461V15.5183L73.3319 15.5538C73.633 15.5802 73.7826 15.6156 73.8583 15.7407C73.9452 15.876 73.9712 16.1999 73.9712 16.6696V22.2366C73.9712 22.7078 73.9452 23.0286 73.8583 23.1668C73.7826 23.2904 73.633 23.3392 73.3319 23.3524L72.7306 23.3889V23.7603C73.3819 23.7365 73.9712 23.7233 74.5845 23.7233C75.1607 23.7233 75.7481 23.7365 76.4001 23.7603V23.3889L75.7985 23.3524C75.4983 23.3392 75.3496 23.2904 75.273 23.1668C75.1845 23.0286 75.1607 22.7078 75.1607 22.2366" fill="#363636"/>
<path d="M85.65 15.0459H85.2487C84.9114 15.9393 84.4843 16.8563 84.0963 17.7233L81.8686 22.7443C81.7301 23.0668 81.4937 23.3273 81.1928 23.3524L80.7281 23.3889V23.7602C81.2061 23.7484 81.681 23.7233 82.1681 23.7233C82.5323 23.7233 83.0074 23.7484 83.6087 23.7602V23.3889L83.1456 23.3524C82.7577 23.3141 82.5441 23.2639 82.5441 23.0048C82.5441 22.8063 82.8705 21.976 82.9828 21.7155L83.3323 20.8852H86.9393L87.5162 22.3117C87.6411 22.6087 87.7776 22.9313 87.7776 23.105C87.7776 23.2538 87.5277 23.3392 87.2664 23.3524L86.6776 23.3889V23.7602C87.354 23.7484 87.9029 23.7233 88.3429 23.7233C88.9046 23.7233 89.4561 23.7484 90.0064 23.7602V23.3889L89.5811 23.3524C89.3566 23.3273 89.2202 23.1667 89.0802 22.9313C88.9317 22.6708 88.7917 22.3351 88.6802 22.0878L85.65 15.0459ZM83.5465 20.3876L85.1372 16.6959L86.7131 20.3876H83.5465Z" fill="#363636"/>
<path d="M93.1244 16.6695C93.1244 16.1998 93.1511 15.876 93.2387 15.7407C93.3129 15.6155 93.4617 15.5669 93.7635 15.5537L94.3644 15.5183V15.146C93.7129 15.1695 93.1244 15.1827 92.5489 15.1827C91.9364 15.1827 91.3458 15.1695 90.6947 15.146V15.5183L91.2969 15.5537C91.5973 15.5669 91.7476 15.6155 91.8218 15.7407C91.9111 15.876 91.9364 16.1998 91.9364 16.6695V22.5458C91.9364 22.8811 91.8338 23.1667 91.6209 23.2771L91.2329 23.476V23.7602C91.5587 23.7484 91.8725 23.7233 92.2991 23.7233C93.0751 23.7233 93.9004 23.7484 95.0275 23.7602C95.955 23.7734 96.9439 23.7365 97.4941 23.7233C97.5963 23.105 97.6825 22.2734 97.7585 21.5918H97.3585L97.207 22.2114C97.1443 22.4705 97.0688 22.893 96.9439 23.0047C96.731 23.2023 95.2026 23.2406 94.1768 23.2406C93.8378 23.2406 93.4751 23.2287 93.1244 23.1403" fill="#363636"/>
<path d="M110.026 16.6695C110.026 16.1998 110.05 15.876 110.136 15.7407C110.211 15.6155 110.362 15.5669 110.663 15.5537L111.263 15.5183V15.146C110.612 15.1695 110.026 15.1827 109.448 15.1827C108.834 15.1827 108.245 15.1695 107.594 15.146V15.5183L108.194 15.5537C108.496 15.5669 108.646 15.6155 108.721 15.7407C108.81 15.876 108.834 16.1998 108.834 16.6695V18.8775C108.684 18.8876 108.346 18.9026 107.796 18.9026H104.865C104.314 18.9026 103.976 18.8876 103.826 18.8775V16.6695C103.826 16.1998 103.852 15.876 103.939 15.7407C104.014 15.6155 104.164 15.5669 104.466 15.5537L105.065 15.5183V15.146C104.414 15.1695 103.826 15.1827 103.25 15.1827C102.637 15.1827 102.048 15.1695 101.397 15.146V15.5183L101.998 15.5537C102.298 15.5669 102.45 15.6155 102.524 15.7407C102.61 15.876 102.637 16.1998 102.637 16.6695V22.2365C102.637 22.7077 102.61 23.0285 102.524 23.1667C102.45 23.2903 102.298 23.3391 101.998 23.3523L101.397 23.3888V23.7602C102.048 23.7365 102.637 23.7233 103.25 23.7233C103.826 23.7233 104.414 23.7365 105.065 23.7602V23.3888L104.466 23.3523C104.164 23.3391 104.014 23.2903 103.939 23.1667C103.852 23.0285 103.826 22.7077 103.826 22.2365V19.4737C103.976 19.4605 104.314 19.4473 104.865 19.4473H107.796C108.346 19.4473 108.684 19.4605 108.834 19.4737V22.2365C108.834 22.7077 108.81 23.0285 108.721 23.1667C108.646 23.2903 108.496 23.3391 108.194 23.3523L107.594 23.3888V23.7602C108.245 23.7365 108.834 23.7233 109.448 23.7233C110.026 23.7233 110.612 23.7365 111.263 23.7602V23.3888L110.663 23.3523C110.362 23.3391 110.211 23.2903 110.136 23.1667C110.05 23.0285 110.026 22.7077 110.026 22.2365" fill="#363636"/>
<path d="M116.265 23.9704C119.006 23.9704 121.109 21.8391 121.109 19.1748C121.109 16.4221 119.206 14.9338 116.527 14.9338C113.621 14.9338 111.819 16.9064 111.819 19.4604C111.819 22.2364 113.723 23.9704 116.265 23.9704ZM116.327 15.4564C118.656 15.4564 119.769 17.105 119.769 19.559C119.769 21.8391 118.755 23.4508 116.665 23.4508C114.186 23.4508 113.159 21.1707 113.159 18.9997C113.159 16.9682 114.147 15.4564 116.327 15.4564Z" fill="#363636"/>
<path d="M127.575 17.2036C127.575 16.6208 127.625 16.088 127.752 15.4564C127.237 15.2577 126.487 14.9338 125.486 14.9338C123.981 14.9338 122.281 15.8156 122.281 17.7365C122.281 19.0261 123.055 19.6324 125.022 19.8564C126.299 20.0047 127.225 20.3404 127.225 21.5166C127.225 22.7442 126.11 23.4258 124.985 23.4258C123.996 23.4258 123.006 22.9549 122.944 22.4353L122.842 21.6037H122.442C122.456 22.1863 122.456 22.8559 122.355 23.501C122.768 23.6994 123.618 23.9704 124.496 23.9704C126.362 23.9704 128.278 22.9549 128.278 20.835C128.278 19.4221 127.163 18.9892 125.397 18.8008C123.833 18.6283 123.332 18.1092 123.332 17.2654C123.332 16.0378 124.309 15.4564 125.185 15.4564C125.673 15.4564 126.2 15.5417 126.549 15.7538C127.013 16.0378 127.064 16.163 127.101 16.4956L127.175 17.2036" fill="#363636"/>
<path d="M131.872 15.7655C132.221 15.6773 132.585 15.6155 133.149 15.6155C134.389 15.6155 135.177 16.1747 135.177 17.4644C135.177 18.5184 134.389 19.31 133.375 19.31C133.099 19.31 132.823 19.2748 132.548 19.1864L132.673 19.6325C132.923 19.6809 133.173 19.706 133.424 19.706C135.079 19.706 136.429 18.5919 136.429 17.0417C136.429 15.6419 135.052 15.1194 133.836 15.146C133.162 15.1577 132.436 15.1827 131.71 15.1827C130.995 15.1827 130.282 15.1577 129.456 15.146V15.5182L130.018 15.5537C130.33 15.5801 130.47 15.6419 130.557 15.7655C130.645 15.8891 130.682 16.2352 130.682 16.6695V22.2365C130.682 22.7077 130.657 23.0285 130.569 23.1667C130.494 23.2903 130.345 23.3391 130.043 23.3523L129.441 23.3888V23.7602C130.092 23.7364 130.682 23.7232 131.296 23.7232C131.872 23.7232 132.46 23.7364 133.11 23.7602V23.3888L132.511 23.3523C132.209 23.3391 132.061 23.2903 131.986 23.1667C131.897 23.0285 131.872 22.7077 131.872 22.2365" fill="#363636"/>
<path d="M139.612 16.6695C139.612 16.1998 139.637 15.876 139.726 15.7407C139.801 15.6155 139.951 15.5669 140.251 15.5537L140.853 15.5183V15.146C140.202 15.1695 139.612 15.1827 139.037 15.1827C138.422 15.1827 137.835 15.1695 137.184 15.146V15.5183L137.785 15.5537C138.085 15.5669 138.235 15.6155 138.309 15.7407C138.397 15.876 138.422 16.1998 138.422 16.6695V22.2365C138.422 22.7077 138.397 23.0285 138.309 23.1667C138.235 23.2903 138.085 23.3391 137.785 23.3523L137.184 23.3888V23.7602C137.835 23.7365 138.422 23.7233 139.037 23.7233C139.612 23.7233 140.202 23.7365 140.853 23.7602V23.3888L140.251 23.3523C139.951 23.3391 139.801 23.2903 139.726 23.1667C139.637 23.0285 139.612 22.7077 139.612 22.2365" fill="#363636"/>
<path d="M144.646 22.2365C144.646 22.7077 144.623 23.0285 144.535 23.1667C144.457 23.2903 144.309 23.3391 144.009 23.3523L143.408 23.3888V23.7602C144.059 23.7365 144.646 23.7233 145.261 23.7233C145.836 23.7233 146.424 23.7365 147.077 23.7602V23.3888L146.475 23.3523C146.173 23.3391 146.023 23.2903 145.95 23.1667C145.861 23.0285 145.836 22.7077 145.836 22.2365V16.9918C145.836 16.5221 145.849 16.1232 145.888 15.7539H147.827C148.201 15.7539 148.303 15.8643 148.328 16.1631L148.377 17.1419H148.766C148.766 16.4722 148.793 15.789 148.852 15.146C147.952 15.146 147.051 15.1827 146.149 15.1827H144.333C143.432 15.1827 142.531 15.146 141.63 15.146C141.692 15.789 141.717 16.4722 141.717 17.1419H142.104L142.154 16.1631C142.18 15.8643 142.279 15.7539 142.657 15.7539H144.597C144.635 16.1232 144.646 16.5221 144.646 16.9918" fill="#363636"/>
<path d="M153.051 15.0459H152.65C152.312 15.9393 151.886 16.8563 151.499 17.7233L149.272 22.7443C149.134 23.0668 148.893 23.3273 148.594 23.3524L148.13 23.3889V23.7602C148.606 23.7484 149.083 23.7233 149.571 23.7233C149.935 23.7233 150.411 23.7484 151.011 23.7602V23.3889L150.547 23.3524C150.159 23.3141 149.947 23.2639 149.947 23.0048C149.947 22.8063 150.271 21.976 150.384 21.7155L150.735 20.8852H154.34L154.919 22.3117C155.042 22.6087 155.18 22.9313 155.18 23.105C155.18 23.2538 154.929 23.3392 154.666 23.3524L154.078 23.3889V23.7602C154.755 23.7484 155.307 23.7233 155.744 23.7233C156.306 23.7233 156.858 23.7484 157.408 23.7602V23.3889L156.982 23.3524C156.758 23.3273 156.621 23.1667 156.483 22.9313C156.331 22.6708 156.194 22.3351 156.082 22.0878L153.051 15.0459ZM150.949 20.3876L152.54 16.6959L154.116 20.3876H150.949Z" fill="#363636"/>
<path d="M160.204 16.6695C160.204 16.1998 160.229 15.876 160.317 15.7407C160.39 15.6155 160.543 15.5669 160.842 15.5537L161.443 15.5183V15.146C160.793 15.1695 160.204 15.1827 159.627 15.1827C159.015 15.1827 158.425 15.1695 157.776 15.146V15.5183L158.377 15.5537C158.676 15.5669 158.828 15.6155 158.902 15.7407C158.991 15.876 159.015 16.1998 159.015 16.6695V22.5458C159.015 22.8811 158.914 23.1667 158.701 23.2771L158.314 23.476V23.7602C158.64 23.7484 158.953 23.7233 159.377 23.7233C160.155 23.7233 160.981 23.7484 162.107 23.7602C163.034 23.7734 164.022 23.7365 164.574 23.7233C164.675 23.105 164.763 22.2734 164.836 21.5918H164.437L164.287 22.2114C164.224 22.4705 164.149 22.893 164.022 23.0047C163.811 23.2023 162.283 23.2406 161.256 23.2406C160.918 23.2406 160.555 23.2287 160.204 23.1403" fill="#363636"/>
<path d="M45.9681 3.62018C45.9681 3.15051 45.9925 2.82817 46.0796 2.69287C46.1554 2.5677 46.3063 2.53098 46.6059 2.50588L47.133 2.46912V2.09668C46.7687 2.10835 46.3688 2.13493 45.9681 2.13493C45.5659 2.13493 45.1795 2.10835 44.7779 2.09668L41.498 8.99004L38.1929 2.09668C37.8047 2.10835 37.4041 2.13493 37.0041 2.13493C36.6019 2.13493 36.2013 2.10835 35.8132 2.09668V2.46912L36.3641 2.50588C36.6645 2.53098 36.8155 2.5677 36.8897 2.69287C36.9781 2.82817 37.0041 3.15051 37.0041 3.62018V9.18716C37.0041 9.65818 36.9781 9.9807 36.8897 10.1175C36.8155 10.2412 36.6645 10.2779 36.3641 10.303L35.8132 10.3398V10.7122C36.3143 10.699 36.8155 10.6755 37.2659 10.6755C37.767 10.6755 38.2174 10.699 38.7683 10.7122V10.3398L38.2174 10.303C37.917 10.2779 37.767 10.2412 37.6919 10.1175C37.6034 9.9807 37.5797 9.65818 37.5797 9.18716V3.5599H37.6034L41.072 10.8359H41.3218C41.5471 10.3162 41.762 9.77015 41.9991 9.2624L44.2279 4.577C44.3906 4.24124 44.5646 3.8939 44.7535 3.5599H44.7779V9.18716C44.7779 9.65818 44.7535 9.9807 44.6664 10.1175C44.5906 10.2412 44.4412 10.2779 44.1401 10.303L43.7133 10.3398V10.7122C44.1899 10.6887 44.7779 10.6755 45.3912 10.6755C45.9681 10.6755 46.5561 10.6887 47.2074 10.7122V10.3398L46.6059 10.303C46.3063 10.2911 46.1554 10.2412 46.0796 10.1175C45.9925 9.9807 45.9681 9.65818 45.9681 9.18716" fill="#363636"/>
<path d="M52.1295 1.99951H51.7295C51.3897 2.89006 50.9638 3.80728 50.5764 4.67408L48.3478 9.69519C48.2094 10.0175 47.9732 10.278 47.6721 10.3031L47.2087 10.3398V10.7123C47.6854 10.6991 48.1605 10.6755 48.648 10.6755C49.0116 10.6755 49.488 10.6991 50.088 10.7123V10.3398L49.6249 10.3031C49.2369 10.2663 49.0243 10.2162 49.0243 9.95571C49.0243 9.75701 49.3498 8.92828 49.462 8.66758L49.8122 7.83597H53.4193L53.9945 9.26247C54.1195 9.55971 54.2577 9.882 54.2577 10.0558C54.2577 10.2045 54.0072 10.2912 53.7448 10.3031L53.1562 10.3398V10.7123C53.8319 10.6991 54.3826 10.6755 54.8212 10.6755C55.3847 10.6755 55.9356 10.6991 56.4872 10.7123V10.3398L56.0605 10.3031C55.8352 10.278 55.697 10.1176 55.5603 9.882C55.4092 9.62152 55.2719 9.28734 55.1594 9.04002L52.1295 1.99951ZM50.0255 7.33985L51.6164 3.64665L53.1939 7.33985H50.0255Z" fill="#363636"/>
<path d="M62.1922 4.15601C62.1922 3.5732 62.242 3.03883 62.3684 2.4074C61.854 2.20852 61.1032 1.88623 60.1019 1.88623C58.5985 1.88623 56.8955 2.76646 56.8955 4.68754C56.8955 5.97697 57.673 6.5833 59.6372 6.80858C60.9158 6.95578 61.842 7.2915 61.842 8.4705C61.842 9.69523 60.7269 10.3782 59.6008 10.3782C58.6112 10.3782 57.6217 9.90555 57.5593 9.38614L57.4581 8.55583H57.0584C57.0717 9.13734 57.0717 9.80855 56.9713 10.4518C57.3839 10.6505 58.2365 10.9229 59.1123 10.9229C60.9767 10.9229 62.894 9.90555 62.894 7.78739C62.894 6.37428 61.7796 5.94002 60.0132 5.75322C58.4484 5.58097 57.9475 5.0598 57.9475 4.21652C57.9475 2.98868 58.9234 2.4074 59.8014 2.4074C60.2892 2.4074 60.8154 2.49409 61.1656 2.70464C61.6287 2.98868 61.6785 3.11384 61.7172 3.44956L61.7916 4.15601" fill="#363636"/>
<path d="M69.3141 4.15601C69.3141 3.5732 69.363 3.03883 69.4894 2.4074C68.9765 2.20852 68.2241 1.88623 67.2221 1.88623C65.7197 1.88623 64.0173 2.76646 64.0173 4.68754C64.0173 5.97697 64.7942 6.5833 66.7597 6.80858C68.0368 6.95578 68.9639 7.2915 68.9639 8.4705C68.9639 9.69523 67.8479 10.3782 66.721 10.3782C65.7331 10.3782 64.7435 9.90555 64.6811 9.38614L64.5809 8.55583H64.18C64.1926 9.13734 64.1926 9.80855 64.0924 10.4518C64.5064 10.6505 65.3568 10.9229 66.2326 10.9229C68.0979 10.9229 70.0159 9.90555 70.0159 7.78739C70.0159 6.37428 68.8999 5.94002 67.1337 5.75322C65.5689 5.58097 65.0691 5.0598 65.0691 4.21652C65.0691 2.98868 66.0453 2.4074 66.9226 2.4074C67.4108 2.4074 67.9366 2.49409 68.2865 2.70464C68.7505 2.98868 68.801 3.11384 68.8374 3.44956L68.9141 4.15601" fill="#363636"/>
<path d="M74.9912 1.99951H74.5899C74.2517 2.89006 73.827 3.80728 73.4384 4.67408L71.2095 9.69519C71.0713 10.0175 70.8335 10.278 70.5338 10.3031L70.0693 10.3398V10.7123C70.5458 10.6991 71.0222 10.6755 71.5106 10.6755C71.8735 10.6755 72.3484 10.6991 72.9499 10.7123V10.3398L72.4853 10.3031C72.0986 10.2663 71.8853 10.2162 71.8853 9.95571C71.8853 9.75701 72.2095 8.92828 72.3224 8.66758L72.6742 7.83597H76.2796L76.8565 9.26247C76.9814 9.55971 77.1183 9.882 77.1183 10.0558C77.1183 10.2045 76.8683 10.2912 76.6052 10.3031L76.0156 10.3398V10.7123C76.6936 10.6991 77.2445 10.6755 77.6816 10.6755C78.2467 10.6755 78.7975 10.6991 79.3475 10.7123V10.3398L78.9225 10.3031C78.6971 10.278 78.5589 10.1176 78.4214 9.882C78.2711 9.62152 78.1336 9.28734 78.0214 9.04002L74.9912 1.99951ZM72.8875 7.33985L74.4768 3.64665L76.0543 7.33985H72.8875Z" fill="#363636"/>
<path d="M87.4478 9.63476L87.3348 9.50977C86.7606 9.93218 85.6962 10.2545 84.7953 10.2545C82.3159 10.2545 80.6746 8.66762 80.6746 6.21239C80.6746 4.10451 81.9139 2.4074 84.2687 2.4074C84.7327 2.4074 85.2709 2.48089 85.6695 2.61773C86.2464 2.82828 86.7491 3.03883 86.7491 3.38774V4.27833H87.1353C87.1353 3.63502 87.2486 2.97701 87.3735 2.39402C86.7727 2.18369 85.6456 1.88623 84.4829 1.88623C83.0785 1.88623 81.8014 2.30733 80.8635 3.07712C79.8984 3.85723 79.3348 4.98631 79.3348 6.41127C79.3348 9.22556 81.3643 10.9229 84.3687 10.9229C85.1327 10.9229 86.3713 10.6888 87.0984 10.2545" fill="#363636"/>
<path d="M97.0288 3.62018C97.0288 3.15051 97.0537 2.82817 97.1399 2.69287C97.2159 2.5677 97.3674 2.51909 97.6679 2.50588L98.2688 2.46912V2.09668C97.6172 2.12173 97.0288 2.13493 96.4519 2.13493C95.839 2.13493 95.2502 2.12173 94.5991 2.09668V2.46912L95.1999 2.50588C95.4999 2.51909 95.6519 2.5677 95.7262 2.69287C95.8155 2.82817 95.839 3.15051 95.839 3.62018V5.82967C95.6906 5.84134 95.3515 5.85324 94.8013 5.85324H91.8694C91.3192 5.85324 90.9801 5.84134 90.8303 5.82967V3.62018C90.8303 3.15051 90.8552 2.82817 90.9445 2.69287C91.0187 2.5677 91.1689 2.51909 91.4694 2.50588L92.0716 2.46912V2.09668C91.4187 2.12173 90.8303 2.13493 90.2547 2.13493C89.6423 2.13493 89.0535 2.12173 88.4023 2.09668V2.46912L89.0028 2.50588C89.3032 2.51909 89.4534 2.5677 89.5277 2.69287C89.6152 2.82817 89.6423 3.15051 89.6423 3.62018V9.18716C89.6423 9.65818 89.6152 9.9807 89.5277 10.1175C89.4534 10.2412 89.3032 10.2911 89.0028 10.303L88.4023 10.3398V10.7122C89.0535 10.6887 89.6423 10.6755 90.2547 10.6755C90.8303 10.6755 91.4187 10.6887 92.0716 10.7122V10.3398L91.4694 10.303C91.1689 10.2911 91.0187 10.2412 90.9445 10.1175C90.8552 9.9807 90.8303 9.65818 90.8303 9.18716V6.42437C90.9801 6.41117 91.3192 6.39928 91.8694 6.39928H94.8013C95.3515 6.39928 95.6906 6.41117 95.839 6.42437V9.18716C95.839 9.65818 95.8155 9.9807 95.7262 10.1175C95.6519 10.2412 95.4999 10.2911 95.1999 10.303L94.5991 10.3398V10.7122C95.2502 10.6887 95.839 10.6755 96.4519 10.6755C97.0288 10.6755 97.6172 10.6887 98.2688 10.7122V10.3398L97.6679 10.303C97.3674 10.2911 97.2159 10.2412 97.1399 10.1175C97.0537 9.9807 97.0288 9.65818 97.0288 9.18716" fill="#363636"/>
<path d="M100.389 8.02136C100.389 10.2911 101.641 10.9228 103.77 10.9228C106.298 10.9228 107.311 9.85706 107.311 7.20295V3.62018C107.311 3.15051 107.338 2.82817 107.424 2.69287C107.501 2.5677 107.65 2.53098 107.951 2.50588L108.501 2.46912V2.09668C107.951 2.10835 107.501 2.13493 106.999 2.13493C106.55 2.13493 106.048 2.10835 105.548 2.09668V2.46912L106.098 2.50588C106.398 2.53098 106.55 2.5677 106.625 2.69287C106.712 2.82817 106.737 3.15051 106.737 3.62018V7.58706C106.737 9.64498 105.51 10.1543 104.156 10.1543C102.505 10.1543 101.577 9.64498 101.577 7.88452V3.62018C101.577 3.15051 101.602 2.82817 101.69 2.69287C101.766 2.5677 101.914 2.51909 102.216 2.50588L102.818 2.46912V2.09668C102.167 2.12173 101.577 2.13493 101.001 2.13493C100.389 2.13493 99.7999 2.12173 99.1488 2.09668V2.46912L99.7497 2.50588C100.05 2.51909 100.202 2.5677 100.276 2.69287C100.363 2.82817 100.389 3.15051 100.389 3.62018" fill="#363636"/>
<path d="M114.622 4.15601C114.622 3.5732 114.674 3.03883 114.796 2.4074C114.284 2.20852 113.532 1.88623 112.532 1.88623C111.028 1.88623 109.328 2.76646 109.328 4.68754C109.328 5.97697 110.104 6.5833 112.069 6.80858C113.345 6.95578 114.272 7.2915 114.272 8.4705C114.272 9.69523 113.157 10.3782 112.03 10.3782C111.04 10.3782 110.052 9.90555 109.989 9.38614L109.888 8.55583H109.489C109.501 9.13734 109.501 9.80855 109.402 10.4518C109.815 10.6505 110.665 10.9229 111.543 10.9229C113.407 10.9229 115.323 9.90555 115.323 7.78739C115.323 6.37428 114.21 5.94002 112.444 5.75322C110.878 5.58097 110.377 5.0598 110.377 4.21652C110.377 2.98868 111.356 2.4074 112.231 2.4074C112.719 2.4074 113.245 2.49409 113.595 2.70464C114.059 2.98868 114.109 3.11384 114.147 3.44956L114.222 4.15601" fill="#363636"/>
<path d="M117.5 9.18716C117.5 9.65818 117.477 9.98069 117.389 10.1175C117.311 10.2412 117.163 10.2779 116.863 10.303L116.411 10.3398V10.7122C116.863 10.699 117.276 10.6755 117.75 10.6755C118.528 10.6755 119.516 10.699 120.48 10.7122C121.408 10.7241 122.397 10.6887 122.948 10.6755C122.948 10.0056 123.021 9.23731 123.147 8.64265H122.709C122.622 9.38604 122.459 9.93208 122.272 10.0291C122.045 10.1543 120.767 10.191 119.741 10.191C119.403 10.191 119.042 10.1793 118.69 10.0925V6.6215C119.078 6.5832 119.542 6.5832 120.142 6.5832C120.906 6.5832 121.332 6.63335 121.47 6.73346C121.533 6.77176 121.558 6.88066 121.569 7.04255L121.632 7.77409H122.007C121.997 7.32812 121.971 6.8571 121.971 6.39928C121.971 5.93992 121.997 5.4689 122.007 4.96111H121.632L121.569 5.60596C121.558 5.76479 121.533 5.87675 121.47 5.92672C121.332 6.01359 120.906 6.06225 120.142 6.06225C119.542 6.06225 119.09 6.05189 118.69 6.02679V2.71643C119.042 2.63105 119.403 2.61762 119.741 2.61762C120.542 2.61762 121.533 2.63105 122.196 2.87967C122.295 2.91509 122.309 3.05039 122.309 3.21233V4.01754H122.746C122.746 3.38764 122.81 2.67944 122.948 2.13493C122.459 2.10835 121.894 2.09668 121.332 2.09668C120.618 2.09668 119.466 2.13493 118.378 2.13493C117.664 2.13493 116.949 2.10835 116.262 2.09668V2.46912L116.863 2.50588C117.163 2.51909 117.311 2.5677 117.389 2.69287C117.477 2.82817 117.5 3.15051 117.5 3.62018" fill="#363636"/>
<path d="M127.056 9.18716C127.056 9.65818 127.029 9.9807 126.943 10.1175C126.867 10.2412 126.717 10.2911 126.417 10.303L125.816 10.3398V10.7122C126.467 10.6887 127.056 10.6755 127.669 10.6755C128.245 10.6755 128.834 10.6887 129.485 10.7122V10.3398L128.885 10.303C128.584 10.2911 128.433 10.2412 128.359 10.1175C128.271 9.9807 128.245 9.65818 128.245 9.18716V3.94535C128.245 3.47303 128.257 3.07702 128.296 2.70454H130.236C130.611 2.70454 130.714 2.81497 130.736 3.11374L130.788 4.09409H131.175C131.175 3.42283 131.2 2.74126 131.264 2.09668C130.361 2.09668 129.462 2.13493 128.558 2.13493H126.742C125.843 2.13493 124.939 2.09668 124.038 2.09668C124.1 2.74126 124.124 3.42283 124.124 4.09409H124.515L124.564 3.11374C124.589 2.81497 124.689 2.70454 125.067 2.70454H127.005C127.044 3.07702 127.056 3.47303 127.056 3.94535" fill="#363636"/>
<path d="M135.034 9.18716C135.034 9.65818 135.009 9.9807 134.921 10.1175C134.847 10.2412 134.695 10.2911 134.395 10.303L133.794 10.3398V10.7122C134.446 10.6887 135.034 10.6755 135.647 10.6755C136.224 10.6755 136.812 10.6887 137.464 10.7122V10.3398L136.863 10.303C136.562 10.2911 136.411 10.2412 136.337 10.1175C136.249 9.9807 136.224 9.65818 136.224 9.18716V3.94535C136.224 3.47303 136.235 3.07702 136.274 2.70454H138.216C138.588 2.70454 138.69 2.81497 138.716 3.11374L138.766 4.09409H139.153C139.153 3.42283 139.179 2.74126 139.242 2.09668C138.338 2.09668 137.437 2.13493 136.536 2.13493H134.722C133.818 2.13493 132.917 2.09668 132.016 2.09668C132.08 2.74126 132.105 3.42283 132.105 4.09409H132.492L132.542 3.11374C132.566 2.81497 132.667 2.70454 133.043 2.70454H134.984C135.022 3.07702 135.034 3.47303 135.034 3.94535" fill="#363636"/>
<path d="M145.368 4.15601C145.368 3.5732 145.415 3.03883 145.54 2.4074C145.028 2.20852 144.276 1.88623 143.274 1.88623C141.774 1.88623 140.07 2.76646 140.07 4.68754C140.07 5.97697 140.846 6.5833 142.812 6.80858C144.089 6.95578 145.015 7.2915 145.015 8.4705C145.015 9.69523 143.901 10.3782 142.774 10.3782C141.784 10.3782 140.797 9.90555 140.735 9.38614L140.632 8.55583H140.232C140.245 9.13734 140.245 9.80855 140.146 10.4518C140.559 10.6505 141.409 10.9229 142.287 10.9229C144.151 10.9229 146.066 9.90555 146.066 7.78739C146.066 6.37428 144.952 5.94002 143.188 5.75322C141.624 5.58097 141.121 5.0598 141.121 4.21652C141.121 2.98868 142.098 2.4074 142.975 2.4074C143.465 2.4074 143.989 2.49409 144.339 2.70464C144.803 2.98868 144.85 3.11384 144.89 3.44956L144.966 4.15601" fill="#363636"/>
</svg>
