<svg width="212" height="23" viewBox="0 0 212 23" fill="none" xmlns="http://www.w3.org/2000/svg">
<path d="M26.6897 6.38462V16.6538H24.8596V12.0385H20.1482V16.6538H18.3182V6.38462H20.1482V10.4615H24.8986V6.38462H26.6897ZM16.4882 16.6538H14.6581V6.38462H16.4882V16.6538ZM12.867 16.6538H10.9591L6.20877 9.11539H6.16983V16.6538H4.4566V6.38462H6.36451L11.1148 13.9615H11.1538V6.38462H12.9059V16.6538H12.867ZM33.1143 11.5L26.6897 0H2.97699C1.80888 0 0.835449 0.961538 0.835449 2.11538V20.8846C0.835449 22.0385 1.80888 23 2.97699 23H26.6507L33.1143 11.5Z" fill="#646569"/>
<path d="M28.2472 23L34.7107 11.5L28.2861 0H29.8825C30.7781 0 31.8294 0.615385 32.2577 1.38462L37.9036 11.5L32.2577 21.6154C31.8294 22.3846 30.7781 23 29.8825 23H28.2472Z" fill="#346094"/>
<path d="M43.822 6.69238H45.691L50.3245 14.077H50.3634V6.69238H52.0767V16.7308H50.2077L45.5742 9.34623H45.5353V16.7308H43.861V6.69238H43.822Z" fill="#646569"/>
<path d="M59.8641 15.1153C59.8641 15.3076 59.903 15.4615 59.9419 15.5384C59.9809 15.6153 60.0977 15.6538 60.2534 15.6538H60.4092C60.4871 15.6538 60.5649 15.6538 60.6428 15.6153V16.7307C60.6039 16.7307 60.526 16.7692 60.4092 16.8076C60.3313 16.8461 60.2145 16.8461 60.1366 16.8845C60.0587 16.8845 59.9419 16.923 59.8641 16.923H59.6304C59.28 16.923 59.0074 16.8461 58.8128 16.7307C58.5791 16.6153 58.4623 16.3845 58.3845 16.0384C58.073 16.3461 57.6836 16.5768 57.1774 16.7307C56.7102 16.8845 56.2429 16.923 55.8146 16.923C55.4642 16.923 55.1527 16.8845 54.8801 16.8076C54.5686 16.7307 54.2961 16.5768 54.0624 16.423C53.8288 16.2307 53.6341 16.0384 53.5173 15.7692C53.3616 15.4999 53.3226 15.1922 53.3226 14.8461C53.3226 14.3845 53.4005 14.0384 53.5563 13.7307C53.712 13.4615 53.9456 13.2307 54.2182 13.0768C54.4907 12.923 54.8022 12.8076 55.1137 12.7307C55.4252 12.6538 55.7757 12.6153 56.1261 12.5768C56.4376 12.5384 56.7102 12.4999 56.9827 12.4615C57.2553 12.423 57.4889 12.3845 57.6836 12.3461C57.8783 12.3076 58.034 12.1922 58.1508 12.0768C58.2676 11.9615 58.3455 11.7692 58.3455 11.5384C58.3455 11.3461 58.3066 11.1538 58.1898 11.0384C58.073 10.923 57.9561 10.8076 57.8004 10.7307C57.6446 10.6538 57.4889 10.6153 57.2942 10.5768C57.0995 10.5384 56.9438 10.5384 56.788 10.5384C56.3208 10.5384 55.9704 10.6153 55.6589 10.8076C55.3474 10.9999 55.1916 11.2692 55.1527 11.6922H53.5173C53.5563 11.2307 53.6731 10.8461 53.8677 10.5384C54.0624 10.2307 54.335 9.99992 54.6465 9.80762C54.958 9.61531 55.3084 9.49992 55.6978 9.423C56.0872 9.34608 56.4765 9.30762 56.9048 9.30762C57.2553 9.30762 57.6057 9.34608 57.9561 9.423C58.3066 9.49992 58.6181 9.61531 58.8906 9.80762C59.1632 9.99992 59.3968 10.1922 59.5526 10.4615C59.7083 10.7307 59.8251 11.0384 59.8251 11.423V15.1153H59.8641ZM58.2287 13.0768C57.9951 13.2307 57.6836 13.3461 57.3332 13.3461C56.9827 13.3845 56.5933 13.423 56.2429 13.4999C56.0872 13.5384 55.8925 13.5768 55.7367 13.6153C55.581 13.6538 55.4252 13.7307 55.3084 13.8076C55.1916 13.8845 55.0748 13.9999 55.0359 14.1538C54.9969 14.3076 54.919 14.4615 54.919 14.6922C54.919 14.8845 54.958 15.0384 55.0748 15.1538C55.1916 15.2692 55.3084 15.3845 55.4642 15.4615C55.6199 15.5384 55.7757 15.5768 55.9314 15.6153C56.0872 15.6538 56.2818 15.6538 56.3987 15.6538C56.5933 15.6538 56.788 15.6153 56.9827 15.5768C57.1774 15.5384 57.3721 15.4615 57.5668 15.3461C57.7615 15.2307 57.9172 15.0768 58.034 14.923C58.1508 14.7307 58.2287 14.5384 58.2287 14.2692V13.0768Z" fill="#646569"/>
<path d="M60.6428 9.4616H61.8499V7.26929H63.4852V9.4616H64.9648V10.6539H63.4852V14.5385C63.4852 14.6924 63.4852 14.8462 63.5242 14.9616C63.5242 15.077 63.5631 15.1924 63.641 15.2693C63.6799 15.3462 63.7578 15.4231 63.8746 15.4616C63.9914 15.5001 64.1082 15.5385 64.3029 15.5385H64.6533C64.7701 15.5385 64.887 15.5001 65.0038 15.5001V16.7308C64.8091 16.7308 64.6533 16.7693 64.4587 16.7693C64.3029 16.7693 64.1082 16.8077 63.9135 16.8077C63.4852 16.8077 63.1348 16.7693 62.9012 16.6924C62.6286 16.6154 62.4339 16.5001 62.2782 16.3462C62.1224 16.1924 62.0446 16.0001 61.9667 15.7693C61.9277 15.5385 61.8888 15.2693 61.8888 14.9616V10.6539H60.6818V9.4616H60.6428Z" fill="#646569"/>
<path d="M65.8993 6.69238H67.5346V8.19238H65.8993V6.69238ZM65.8993 9.46161H67.5346V16.7308H65.8993V9.46161Z" fill="#646569"/>
<path d="M72.4407 16.923C71.8567 16.923 71.3115 16.8461 70.8832 16.6538C70.416 16.4615 70.0266 16.1922 69.7151 15.8461C69.4036 15.4999 69.17 15.1153 68.9753 14.6538C68.8196 14.1922 68.7417 13.6538 68.7417 13.1153C68.7417 12.5768 68.8196 12.0384 68.9753 11.5768C69.1311 11.1153 69.3647 10.6922 69.7151 10.3845C70.0266 10.0384 70.416 9.76916 70.8832 9.57685C71.3505 9.38454 71.8567 9.30762 72.4407 9.30762C73.0248 9.30762 73.5699 9.38454 73.9982 9.57685C74.4654 9.76916 74.8548 10.0384 75.1663 10.3845C75.4778 10.7307 75.7114 11.1153 75.9061 11.5768C76.0619 12.0384 76.1397 12.5384 76.1397 13.1153C76.1397 13.6922 76.0619 14.1922 75.9061 14.6538C75.7504 15.1153 75.5167 15.5384 75.1663 15.8461C74.8548 16.1922 74.4654 16.4615 73.9982 16.6538C73.531 16.8461 73.0248 16.923 72.4407 16.923ZM72.4407 15.6538C72.7912 15.6538 73.1027 15.5768 73.3752 15.423C73.6478 15.2692 73.8425 15.0768 74.0371 14.8461C74.2318 14.6153 74.3486 14.3461 74.4265 14.0384C74.5044 13.7307 74.5433 13.423 74.5433 13.1153C74.5433 12.8076 74.5044 12.4999 74.4265 12.1922C74.3486 11.8845 74.2318 11.6153 74.0371 11.3845C73.8814 11.1538 73.6478 10.9615 73.3752 10.8076C73.1027 10.6538 72.7912 10.5768 72.4407 10.5768C72.0903 10.5768 71.7788 10.6538 71.5062 10.8076C71.2337 10.9615 71.039 11.1538 70.8443 11.3845C70.6886 11.6153 70.5328 11.8845 70.4549 12.1922C70.3771 12.4999 70.3381 12.8076 70.3381 13.1153C70.3381 13.423 70.3771 13.7307 70.4549 14.0384C70.5328 14.3461 70.6496 14.6153 70.8443 14.8461C71.039 15.0768 71.2337 15.2692 71.5062 15.423C71.7399 15.5768 72.0514 15.6538 72.4407 15.6538Z" fill="#646569"/>
<path d="M77.23 9.46159H78.7485V10.5385L78.7875 10.577C79.0211 10.1924 79.3715 9.84621 79.7609 9.61544C80.1503 9.38467 80.6175 9.26929 81.0848 9.26929C81.9024 9.26929 82.5254 9.46159 82.9927 9.88467C83.4599 10.3077 83.6935 10.9231 83.6935 11.7308V16.7308H82.0582V12.1539C82.0582 11.577 81.9024 11.1539 81.6688 10.9231C81.4352 10.6924 81.0847 10.5385 80.6175 10.5385C80.3449 10.5385 80.1113 10.577 79.8777 10.6924C79.6441 10.8077 79.4883 10.9231 79.3326 11.1154C79.1768 11.3077 79.06 11.5001 78.9821 11.7308C78.9043 11.9616 78.8653 12.2308 78.8653 12.4616V16.7308H77.23V9.46159Z" fill="#646569"/>
<path d="M91.3252 15.1153C91.3252 15.3076 91.3642 15.4615 91.4031 15.5384C91.4421 15.6153 91.5589 15.6538 91.7146 15.6538H91.8704C91.9482 15.6538 92.0261 15.6538 92.104 15.6153V16.7307C92.065 16.7307 91.9872 16.7692 91.8704 16.8076C91.7925 16.8461 91.6757 16.8461 91.5978 16.8845C91.5199 16.8845 91.4031 16.923 91.3252 16.923H91.0916C90.7412 16.923 90.4686 16.8461 90.2739 16.7307C90.0403 16.6153 89.9235 16.3845 89.8456 16.0384C89.5341 16.3461 89.1448 16.5768 88.6386 16.7307C88.1713 16.8845 87.7041 16.923 87.2758 16.923C86.9253 16.923 86.6139 16.8845 86.3413 16.8076C86.0298 16.7307 85.7572 16.5768 85.5236 16.423C85.29 16.2307 85.0953 16.0384 84.9785 15.7692C84.8228 15.4999 84.7838 15.1922 84.7838 14.8461C84.7838 14.3845 84.8617 14.0384 85.0174 13.7307C85.1732 13.4615 85.4068 13.2307 85.6794 13.0768C85.9519 12.923 86.2634 12.8076 86.5749 12.7307C86.8864 12.6538 87.2368 12.6153 87.5873 12.5768C87.8988 12.5384 88.1713 12.4999 88.4439 12.4615C88.7165 12.423 88.9501 12.3845 89.1448 12.3461C89.3394 12.3076 89.4952 12.1922 89.612 12.0768C89.7288 11.9615 89.8067 11.7692 89.8067 11.5384C89.8067 11.3461 89.7678 11.1538 89.6509 11.0384C89.5341 10.923 89.4173 10.8076 89.2616 10.7307C89.1058 10.6538 88.9501 10.6153 88.7554 10.5768C88.5607 10.5384 88.405 10.5384 88.2492 10.5384C87.782 10.5384 87.4315 10.6153 87.12 10.8076C86.8085 10.9999 86.6528 11.2692 86.6139 11.6922H84.9785C85.0174 11.2307 85.1342 10.8461 85.3289 10.5384C85.5236 10.2307 85.7962 9.99992 86.1077 9.80762C86.4192 9.61531 86.7696 9.49992 87.159 9.423C87.5483 9.34608 87.9377 9.30762 88.366 9.30762C88.7165 9.30762 89.0669 9.34608 89.4173 9.423C89.7678 9.49992 90.0793 9.61531 90.3518 9.80762C90.6244 9.99992 90.858 10.1922 91.0137 10.4615C91.1695 10.7307 91.2863 11.0384 91.2863 11.423V15.1153H91.3252ZM89.7288 13.0768C89.4952 13.2307 89.1837 13.3461 88.8333 13.3461C88.4828 13.3845 88.0935 13.423 87.743 13.4999C87.5873 13.5384 87.3926 13.5768 87.2368 13.6153C87.0811 13.6538 86.9254 13.7307 86.8085 13.8076C86.6917 13.8845 86.5749 13.9999 86.536 14.1538C86.497 14.3076 86.4192 14.4615 86.4192 14.6922C86.4192 14.8845 86.4581 15.0384 86.5749 15.1538C86.6917 15.2692 86.8085 15.3845 86.9643 15.4615C87.12 15.5384 87.2758 15.5768 87.4315 15.6153C87.5873 15.6538 87.782 15.6538 87.8988 15.6538C88.0935 15.6538 88.2881 15.6153 88.4828 15.5768C88.6775 15.5384 88.8722 15.4615 89.0669 15.3461C89.2616 15.2307 89.4173 15.0768 89.5341 14.923C89.6509 14.7307 89.7288 14.5384 89.7288 14.2692V13.0768Z" fill="#646569"/>
<path d="M92.8827 6.69238H94.5181V16.7308H92.8827V6.69238Z" fill="#646569"/>
<path d="M99.9692 6.69238H101.76V16.7308H99.9692V6.69238Z" fill="#646569"/>
<path d="M103.435 9.46159H104.953V10.5385L104.992 10.577C105.226 10.1924 105.576 9.84621 105.965 9.61544C106.355 9.38467 106.822 9.26929 107.289 9.26929C108.107 9.26929 108.73 9.46159 109.197 9.88467C109.664 10.3077 109.898 10.9231 109.898 11.7308V16.7308H108.263V12.1539C108.263 11.577 108.107 11.1539 107.873 10.9231C107.64 10.6924 107.289 10.5385 106.822 10.5385C106.55 10.5385 106.316 10.577 106.082 10.6924C105.849 10.8077 105.693 10.9231 105.537 11.1154C105.381 11.3077 105.265 11.5001 105.187 11.7308C105.109 11.9616 105.07 12.2308 105.07 12.4616V16.7308H103.435V9.46159Z" fill="#646569"/>
<path d="M112.585 14.3847C112.624 14.8462 112.818 15.1924 113.13 15.3847C113.441 15.577 113.831 15.6539 114.259 15.6539C114.415 15.6539 114.571 15.6539 114.765 15.6154C114.96 15.577 115.155 15.5385 115.31 15.5001C115.466 15.4231 115.622 15.3462 115.739 15.2308C115.856 15.1154 115.894 14.9231 115.894 14.7308C115.894 14.5385 115.817 14.3462 115.661 14.2308C115.505 14.1154 115.349 14.0001 115.116 13.9231C114.882 13.8462 114.648 13.7693 114.337 13.7308C114.064 13.6924 113.753 13.6154 113.48 13.5385C113.169 13.4616 112.896 13.3847 112.624 13.3077C112.351 13.2308 112.079 13.077 111.884 12.9231C111.689 12.7693 111.495 12.577 111.339 12.3077C111.222 12.077 111.144 11.7693 111.144 11.3847C111.144 11.0001 111.222 10.6539 111.417 10.3847C111.611 10.1154 111.845 9.88467 112.157 9.73083C112.468 9.57698 112.78 9.46159 113.169 9.38467C113.519 9.30775 113.87 9.26929 114.22 9.26929C114.61 9.26929 114.96 9.30775 115.31 9.38467C115.661 9.46159 115.972 9.57698 116.245 9.76929C116.517 9.96159 116.751 10.1924 116.946 10.4616C117.14 10.7308 117.257 11.077 117.296 11.5001H115.622C115.544 11.1154 115.349 10.8462 115.077 10.7308C114.804 10.6154 114.493 10.5385 114.103 10.5385C113.987 10.5385 113.87 10.5385 113.714 10.577C113.558 10.577 113.402 10.6154 113.286 10.6924C113.169 10.7693 113.013 10.8077 112.935 10.9231C112.857 11.0385 112.78 11.1539 112.78 11.3077C112.78 11.5001 112.857 11.6539 112.974 11.7693C113.13 11.8847 113.286 12.0001 113.519 12.077C113.753 12.1539 113.987 12.2308 114.298 12.2693C114.571 12.3077 114.882 12.3847 115.194 12.4616C115.505 12.5385 115.778 12.6154 116.05 12.6924C116.323 12.7693 116.595 12.9231 116.829 13.077C117.063 13.2308 117.218 13.4231 117.374 13.6924C117.53 13.9231 117.569 14.2308 117.569 14.577C117.569 15.0001 117.452 15.3847 117.257 15.6924C117.063 16.0001 116.79 16.2308 116.479 16.4231C116.167 16.6154 115.817 16.7308 115.427 16.8462C115.038 16.9231 114.648 16.9616 114.259 16.9616C113.792 16.9616 113.364 16.9231 112.974 16.8077C112.585 16.6924 112.234 16.5385 111.962 16.3462C111.689 16.1539 111.456 15.8847 111.261 15.577C111.066 15.2693 110.988 14.8847 110.988 14.4616H112.585V14.3847Z" fill="#646569"/>
<path d="M117.725 9.4616H118.932V7.26929H120.567V9.4616H122.047V10.6539H120.567V14.5385C120.567 14.6924 120.567 14.8462 120.606 14.9616C120.606 15.077 120.645 15.1924 120.723 15.2693C120.762 15.3462 120.84 15.4231 120.956 15.4616C121.073 15.5001 121.19 15.5385 121.385 15.5385H121.735C121.852 15.5385 121.969 15.5001 122.086 15.5001V16.7308C121.891 16.7308 121.735 16.7693 121.54 16.7693C121.385 16.7693 121.19 16.8077 120.995 16.8077C120.567 16.8077 120.217 16.7693 119.983 16.6924C119.71 16.6154 119.516 16.5001 119.36 16.3462C119.204 16.1924 119.126 16.0001 119.048 15.7693C119.01 15.5385 118.971 15.2693 118.971 14.9616V10.6539H117.764V9.4616H117.725Z" fill="#646569"/>
<path d="M123.02 6.69238H124.655V8.19238H123.02V6.69238ZM123.02 9.46161H124.655V16.7308H123.02V9.46161Z" fill="#646569"/>
<path d="M125.395 9.4616H126.602V7.26929H128.238V9.4616H129.717V10.6539H128.238V14.5385C128.238 14.6924 128.238 14.8462 128.276 14.9616C128.276 15.077 128.315 15.1924 128.393 15.2693C128.432 15.3462 128.51 15.4231 128.627 15.4616C128.744 15.5001 128.861 15.5385 129.055 15.5385H129.406C129.522 15.5385 129.639 15.5001 129.756 15.5001V16.7308C129.561 16.7308 129.406 16.7693 129.211 16.7693C129.055 16.7693 128.861 16.8077 128.666 16.8077C128.238 16.8077 127.887 16.7693 127.653 16.6924C127.381 16.6154 127.186 16.5001 127.031 16.3462C126.875 16.1924 126.797 16.0001 126.719 15.7693C126.68 15.5385 126.641 15.2693 126.641 14.9616V10.6539H125.434V9.4616H125.395Z" fill="#646569"/>
<path d="M137.115 16.7308H135.519V15.7308H135.48C135.285 16.1154 134.974 16.3846 134.584 16.6154C134.195 16.8462 133.806 16.9615 133.377 16.9615C132.404 16.9615 131.703 16.7308 131.275 16.2692C130.846 15.8077 130.613 15.0769 130.613 14.1154V9.5H132.248V13.9615C132.248 14.6154 132.365 15.0385 132.637 15.3077C132.871 15.5769 133.221 15.6923 133.689 15.6923C134.039 15.6923 134.312 15.6538 134.545 15.5385C134.779 15.4231 134.974 15.3077 135.09 15.1154C135.246 14.9231 135.324 14.7308 135.402 14.5C135.48 14.2692 135.48 14 135.48 13.7308V9.5H137.115V16.7308Z" fill="#646569"/>
<path d="M137.816 9.4616H139.023V7.26929H140.658V9.4616H142.138V10.6539H140.658V14.5385C140.658 14.6924 140.658 14.8462 140.697 14.9616C140.697 15.077 140.736 15.1924 140.814 15.2693C140.853 15.3462 140.931 15.4231 141.048 15.4616C141.165 15.5001 141.281 15.5385 141.476 15.5385H141.827C141.943 15.5385 142.06 15.5001 142.177 15.5001V16.7308C141.982 16.7308 141.827 16.7693 141.632 16.7693C141.476 16.7693 141.281 16.8077 141.087 16.8077C140.658 16.8077 140.308 16.7693 140.074 16.6924C139.802 16.6154 139.607 16.5001 139.451 16.3462C139.296 16.1924 139.218 16.0001 139.14 15.7693C139.101 15.5385 139.062 15.2693 139.062 14.9616V10.6539H137.855V9.4616H137.816Z" fill="#646569"/>
<path d="M144.319 13.4999C144.319 13.7692 144.358 14.0384 144.435 14.3076C144.513 14.5769 144.63 14.8076 144.786 14.9999C144.942 15.1923 145.136 15.3461 145.409 15.4615C145.642 15.5769 145.954 15.6538 146.304 15.6538C146.772 15.6538 147.161 15.5384 147.434 15.3461C147.706 15.1538 147.94 14.8461 148.095 14.423H149.614C149.536 14.8076 149.38 15.1538 149.186 15.4615C148.991 15.7692 148.718 16.0384 148.446 16.2307C148.134 16.423 147.823 16.6153 147.472 16.6923C147.122 16.8076 146.733 16.8461 146.343 16.8461C145.759 16.8461 145.253 16.7692 144.825 16.5769C144.396 16.3846 144.007 16.1153 143.696 15.8076C143.384 15.4615 143.15 15.0769 142.995 14.6153C142.839 14.1538 142.761 13.6153 142.761 13.0769C142.761 12.5769 142.839 12.0769 142.995 11.6153C143.15 11.1538 143.384 10.7307 143.696 10.3846C144.007 10.0384 144.358 9.76917 144.825 9.5384C145.292 9.30764 145.759 9.23071 146.304 9.23071C146.888 9.23071 147.395 9.3461 147.862 9.57687C148.329 9.80764 148.718 10.1153 148.991 10.5384C149.264 10.9615 149.497 11.3846 149.653 11.8846C149.809 12.3846 149.809 12.923 149.77 13.4615H144.319V13.4999ZM148.095 12.4615C148.095 12.1923 148.018 11.9615 147.94 11.7307C147.862 11.4999 147.745 11.3076 147.55 11.1153C147.395 10.923 147.2 10.8076 146.966 10.6923C146.733 10.5769 146.499 10.5384 146.227 10.5384C145.954 10.5384 145.681 10.5769 145.448 10.6923C145.214 10.8076 145.019 10.923 144.864 11.1153C144.708 11.3076 144.552 11.4999 144.474 11.7307C144.358 11.9615 144.319 12.2307 144.319 12.4999H148.095V12.4615Z" fill="#646569"/>
<path d="M158.297 16.923C157.713 16.923 157.168 16.8461 156.739 16.6538C156.272 16.4615 155.883 16.1922 155.571 15.8461C155.26 15.4999 155.026 15.1153 154.832 14.6538C154.676 14.1922 154.598 13.6538 154.598 13.1153C154.598 12.5768 154.676 12.0384 154.832 11.5768C154.987 11.1153 155.221 10.6922 155.571 10.3845C155.883 10.0384 156.272 9.76916 156.739 9.57685C157.207 9.38454 157.713 9.30762 158.297 9.30762C158.881 9.30762 159.426 9.38454 159.854 9.57685C160.322 9.76916 160.711 10.0384 161.023 10.3845C161.334 10.7307 161.568 11.1153 161.762 11.5768C161.918 12.0384 161.996 12.5384 161.996 13.1153C161.996 13.6922 161.918 14.1922 161.762 14.6538C161.607 15.1153 161.373 15.5384 161.023 15.8461C160.711 16.1922 160.322 16.4615 159.854 16.6538C159.387 16.8461 158.881 16.923 158.297 16.923ZM158.297 15.6538C158.647 15.6538 158.959 15.5768 159.231 15.423C159.504 15.2692 159.699 15.0768 159.893 14.8461C160.088 14.6153 160.205 14.3461 160.283 14.0384C160.361 13.7307 160.4 13.423 160.4 13.1153C160.4 12.8076 160.361 12.4999 160.283 12.1922C160.205 11.8845 160.088 11.6153 159.893 11.3845C159.738 11.1538 159.504 10.9615 159.231 10.8076C158.959 10.6538 158.647 10.5768 158.297 10.5768C157.946 10.5768 157.635 10.6538 157.362 10.8076C157.09 10.9615 156.895 11.1538 156.7 11.3845C156.545 11.6153 156.389 11.8845 156.311 12.1922C156.233 12.4999 156.194 12.8076 156.194 13.1153C156.194 13.423 156.233 13.7307 156.311 14.0384C156.389 14.3461 156.506 14.6153 156.7 14.8461C156.895 15.0768 157.09 15.2692 157.362 15.423C157.635 15.5768 157.946 15.6538 158.297 15.6538Z" fill="#646569"/>
<path d="M163.359 9.46159H164.877V10.5385L164.916 10.577C165.15 10.1924 165.5 9.84621 165.89 9.61544C166.279 9.38467 166.746 9.26929 167.214 9.26929C168.031 9.26929 168.654 9.46159 169.121 9.88467C169.589 10.3077 169.822 10.9231 169.822 11.7308V16.7308H168.187V12.1539C168.187 11.577 168.031 11.1539 167.798 10.9231C167.564 10.6924 167.214 10.5385 166.746 10.5385C166.474 10.5385 166.24 10.577 166.006 10.6924C165.773 10.8077 165.617 10.9231 165.461 11.1154C165.306 11.3077 165.189 11.5001 165.111 11.7308C165.033 11.9616 164.994 12.2308 164.994 12.4616V16.7308H163.359V9.46159Z" fill="#646569"/>
<path d="M178.427 6.69238H180.335L184.229 16.7308H182.321L181.387 14.077H177.337L176.403 16.7308H174.573L178.427 6.69238ZM177.804 12.7308H180.919L179.401 8.42315H179.362L177.804 12.7308Z" fill="#646569"/>
<path d="M191.783 16.3461C191.783 17.4615 191.471 18.2692 190.848 18.8076C190.225 19.3461 189.33 19.6153 188.162 19.6153C187.772 19.6153 187.422 19.5769 187.033 19.4999C186.643 19.423 186.332 19.3076 186.02 19.1153C185.709 18.923 185.436 18.6923 185.241 18.423C185.047 18.1153 184.891 17.7692 184.852 17.3461H186.487C186.526 17.5769 186.604 17.7692 186.721 17.8846C186.838 18.0384 186.955 18.1538 187.11 18.2307C187.266 18.3076 187.422 18.3461 187.617 18.3846C187.811 18.423 188.006 18.423 188.201 18.423C188.863 18.423 189.33 18.2692 189.641 17.9615C189.953 17.6538 190.109 17.1923 190.109 16.5769V15.4615H190.07C189.836 15.8461 189.524 16.1923 189.135 16.3846C188.746 16.6153 188.317 16.7307 187.85 16.7307C187.266 16.7307 186.76 16.6153 186.332 16.423C185.903 16.2307 185.592 15.9615 185.319 15.5769C185.047 15.1923 184.852 14.8076 184.735 14.3461C184.618 13.8846 184.541 13.3846 184.541 12.8846C184.541 12.3846 184.618 11.923 184.774 11.4999C184.93 11.0769 185.164 10.6538 185.436 10.3461C185.709 10.0384 186.059 9.73071 186.487 9.5384C186.916 9.3461 187.383 9.23071 187.889 9.23071C188.356 9.23071 188.785 9.30764 189.174 9.49994C189.563 9.69225 189.875 9.99994 190.07 10.423H190.109V9.42302H191.744V16.3461H191.783ZM188.201 15.4615C188.551 15.4615 188.863 15.3846 189.135 15.2307C189.369 15.0769 189.602 14.8846 189.758 14.6538C189.914 14.423 190.031 14.1538 190.109 13.8461C190.186 13.5384 190.225 13.2307 190.225 12.923C190.225 12.6153 190.186 12.3076 190.109 12.0384C190.031 11.7307 189.914 11.4999 189.758 11.2692C189.602 11.0384 189.408 10.8846 189.135 10.7307C188.901 10.6153 188.59 10.5384 188.24 10.5384C187.889 10.5384 187.578 10.6153 187.344 10.7692C187.11 10.923 186.916 11.1153 186.76 11.3461C186.604 11.5769 186.487 11.8461 186.448 12.1538C186.371 12.4615 186.332 12.7692 186.332 13.0769C186.332 13.3846 186.371 13.6538 186.448 13.9615C186.526 14.2307 186.643 14.4999 186.799 14.7307C186.955 14.9615 187.149 15.1538 187.383 15.2692C187.539 15.3846 187.85 15.4615 188.201 15.4615Z" fill="#646569"/>
<path d="M193.457 6.69238H195.093V8.19238H193.457V6.69238ZM193.457 9.46161H195.093V16.7308H193.457V9.46161Z" fill="#646569"/>
<path d="M196.845 9.46159H198.363V10.5385L198.402 10.577C198.636 10.1924 198.986 9.84621 199.376 9.61544C199.765 9.38467 200.232 9.26929 200.699 9.26929C201.517 9.26929 202.14 9.46159 202.607 9.88467C203.075 10.3077 203.308 10.9231 203.308 11.7308V16.7308H201.673V12.1539C201.673 11.577 201.517 11.1539 201.284 10.9231C201.05 10.6924 200.699 10.5385 200.232 10.5385C199.96 10.5385 199.726 10.577 199.492 10.6924C199.259 10.8077 199.103 10.9231 198.947 11.1154C198.792 11.3077 198.675 11.5001 198.597 11.7308C198.519 11.9616 198.48 12.2308 198.48 12.4616V16.7308H196.845V9.46159Z" fill="#646569"/>
<path d="M211.835 16.3461C211.835 17.4615 211.524 18.2692 210.901 18.8076C210.278 19.3461 209.382 19.6153 208.214 19.6153C207.825 19.6153 207.474 19.5769 207.085 19.4999C206.696 19.423 206.384 19.3076 206.073 19.1153C205.761 18.923 205.489 18.6923 205.294 18.423C205.099 18.1153 204.944 17.7692 204.905 17.3461H206.54C206.579 17.5769 206.657 17.7692 206.774 17.8846C206.89 18.0384 207.007 18.1538 207.163 18.2307C207.319 18.3076 207.474 18.3461 207.669 18.3846C207.864 18.423 208.059 18.423 208.253 18.423C208.915 18.423 209.382 18.2692 209.694 17.9615C210.005 17.6538 210.161 17.1923 210.161 16.5769V15.4615H210.122C209.889 15.8461 209.577 16.1923 209.188 16.3846C208.798 16.6153 208.37 16.7307 207.903 16.7307C207.319 16.7307 206.813 16.6153 206.384 16.423C205.956 16.2307 205.644 15.9615 205.372 15.5769C205.099 15.1923 204.905 14.8076 204.788 14.3461C204.671 13.8846 204.593 13.3846 204.593 12.8846C204.593 12.3846 204.671 11.923 204.827 11.4999C204.983 11.0769 205.216 10.6538 205.489 10.3461C205.761 10.0384 206.112 9.73071 206.54 9.5384C206.968 9.3461 207.436 9.23071 207.942 9.23071C208.409 9.23071 208.837 9.30764 209.227 9.49994C209.616 9.69225 209.928 9.99994 210.122 10.423H210.161V9.42302H211.796V16.3461H211.835ZM208.214 15.4615C208.565 15.4615 208.876 15.3846 209.149 15.2307C209.382 15.0769 209.616 14.8846 209.772 14.6538C209.928 14.423 210.044 14.1538 210.122 13.8461C210.2 13.5384 210.239 13.2307 210.239 12.923C210.239 12.6153 210.2 12.3076 210.122 12.0384C210.044 11.7307 209.928 11.4999 209.772 11.2692C209.616 11.0384 209.421 10.8846 209.149 10.7307C208.915 10.6153 208.604 10.5384 208.253 10.5384C207.903 10.5384 207.591 10.6153 207.358 10.7692C207.124 10.923 206.929 11.1153 206.774 11.3461C206.618 11.5769 206.501 11.8461 206.462 12.1538C206.384 12.4615 206.345 12.7692 206.345 13.0769C206.345 13.3846 206.384 13.6538 206.462 13.9615C206.54 14.2307 206.657 14.4999 206.813 14.7307C206.968 14.9615 207.163 15.1538 207.397 15.2692C207.591 15.3846 207.864 15.4615 208.214 15.4615Z" fill="#646569"/>
</svg>
