<svg width="257" height="83" viewBox="0 0 257 83" fill="none" xmlns="http://www.w3.org/2000/svg">
<path d="M37.2652 82.2307C20.7847 72.4306 0 58.1849 0 33.0335V6.47503C7.60391 3.601 19.35 0 37.263 0C55.3858 0 67.8224 3.91959 74.5282 6.47503V33.0335C74.5282 58.3987 52.9393 73.0145 37.2652 82.2307" fill="white"/>
<path d="M48.4753 47.8391C48.4753 47.2745 48.9394 46.3979 48.9394 45.6173C48.9394 44.6872 47.7996 44.392 46.9144 44.268C45.0498 44.0114 44.4296 44.0947 44.4296 43.6842C44.4296 43.3999 44.6797 43.1026 45.0199 42.615C45.5201 41.8943 46.7134 41.6228 47.3484 41.5352C48.1845 41.4196 49.1125 41.3085 50.2224 41.3085C51.4669 41.3085 52.5232 41.4945 53.0108 41.5802C54.1504 41.7769 54.3302 42.2559 54.3302 42.7904V43.3271C54.3302 43.8681 53.8874 44.144 53.0898 44.3193C52.8909 44.3621 52.6109 44.4133 52.4783 44.4411C51.9009 44.5608 51.1845 44.6742 50.9322 45.4034C50.3869 46.9707 49.4395 48.1982 48.7382 48.1661C48.6099 48.1618 48.4751 48.0634 48.4751 47.8389L48.4753 47.8391ZM50.1196 22.6061C50.0511 22.5654 49.8096 22.48 49.8096 22.2404C49.8096 21.9646 50.0085 21.6779 50.4147 21.1348C51.347 19.8839 52.63 18.3507 53.1006 18.3507C53.3294 18.3507 53.4728 18.5089 53.7548 19.0458C53.9238 19.3644 54.0669 19.8948 54.0669 20.3994C54.0669 22.063 53.4939 23.2328 52.6066 24.5521C52.164 24.1287 51.3384 23.3034 50.1196 22.6061ZM22.7401 25.7068C23.1612 25.7068 23.48 25.4289 24.1129 24.7295C25.5285 23.1643 26.8969 22.9546 26.8969 22.2854C26.8969 21.9859 26.7066 21.6951 26.5056 21.383C24.9981 19.0243 24.3523 17.7499 23.4542 16.0392C23.127 15.419 22.7035 14.9956 22.3806 14.9956C21.8567 14.9956 21.3071 15.6028 20.9865 16.1268C20.5375 16.8624 20.0884 17.6922 20.0884 18.4469C20.0884 19.5887 20.3685 21.6695 20.8432 23.0016C21.3542 24.4406 22.0963 25.7066 22.7399 25.7066L22.7401 25.7068ZM39.7549 31.1574C39.7549 30.1844 38.66 28.7559 36.7482 28.7559C35.0483 28.7559 33.7502 30.0389 33.4103 31.0418C33.8187 31.8288 34.21 32.6606 35.8417 33.1545C36.0555 33.2208 36.2716 33.2251 36.2716 33.4089C36.2716 33.6698 35.9957 33.8024 35.4162 33.8024C33.5685 33.8024 32.4715 33.0477 31.9841 32.4103C31.5073 32.4766 30.9534 32.6604 30.2628 32.6861C29.6982 32.7074 29.4395 32.3289 29.4395 31.8243C29.4395 31.4993 29.5357 31.1422 29.7303 30.7445C29.8373 30.5265 29.9505 30.2976 30.034 30.1351C30.3205 29.5748 30.7588 28.3239 32.4439 27.3638C32.6407 27.2525 33.1496 26.9446 33.4105 26.7907C34.3665 26.2282 35.087 26.098 36.2225 26.098H37.0543C38.4144 26.098 39.1114 26.4786 39.7101 26.9832C40.9289 28.0096 41.5982 28.5677 41.5982 29.3268C41.5982 30.1715 41.5532 30.8194 40.8777 31.7111C40.2982 32.4723 39.4492 32.9769 38.8998 32.9769C38.7459 32.9769 38.7009 32.8936 38.7009 32.8057C38.7009 32.6902 38.8292 32.6325 38.9618 32.5257C39.4108 32.1621 39.6141 31.5165 39.7551 31.1572L39.7549 31.1574ZM47.9406 57.2773C47.622 57.3542 46.9954 57.5105 44.2049 57.5105C39.9774 57.5105 39.2589 56.4712 39.2589 55.648C39.2589 54.2709 45.3232 53.3022 47.7118 53.3022C49.9999 53.3022 51.0114 54.0356 51.0114 54.596C51.0114 55.2461 49.9807 56.7857 47.9406 57.2775V57.2773ZM23.5463 69.6587C27.9448 73.0928 32.6556 76.1294 37.2659 78.8835C37.3088 74.7394 37.174 72.2974 39.9796 69.3614C41.1149 68.1746 42.2847 66.9665 43.3432 65.8695C44.1386 65.044 44.7844 64.4304 45.1607 64.4304C45.428 64.4304 45.5477 64.5715 45.5477 64.9307C45.5477 65.3008 45.7146 66.6606 46.5571 68.2859C47.6048 70.3088 49.153 70.5697 49.6492 70.6829C61.6583 61.6419 71.7021 49.8103 71.7021 32.9751V8.43976C68.7404 7.43272 56.5731 2.7668 37.2638 2.7668C17.9545 2.7668 5.78518 7.43272 2.82568 8.43976V32.9753C2.82568 40.3741 4.76504 46.8084 7.96197 52.4622C8.28057 49.0536 10.5857 47.437 10.5857 44.0885C10.5857 41.7533 9.92285 40.2778 9.92285 38.3213C9.92285 34.7844 14.6979 27.5077 17.1763 24.5439C17.249 24.4563 17.4092 24.2488 17.6081 24.2488C17.7857 24.2488 17.9203 24.3728 18.0294 24.5396C18.2795 24.9267 18.3885 25.1299 18.6582 25.1299C18.9296 25.1299 19.0366 24.9781 19.0366 24.7364C19.0366 24.1205 18.3224 23.0919 18.3224 19.074C18.3224 16.2619 18.9768 15.6654 20.7239 13.9547C21.0425 13.6425 22.0196 12.7038 22.9541 12.7038C23.9912 12.7038 24.5044 13.3175 25.1438 13.9676C26.2236 15.0667 27.7313 17.0126 27.975 17.3206C28.0434 17.4061 28.1054 17.4853 28.2529 17.4853C28.751 17.4853 29.168 17.3357 31.3385 17.3357C35.2796 17.3357 41.2221 17.9537 44.2735 18.9545C45.8473 19.4698 46.1746 19.8226 46.5915 19.8226C46.7945 19.8226 46.8117 19.69 46.8117 19.5831C46.8117 19.3842 46.3991 19.0656 46.3991 18.7941C46.3991 18.6145 46.5444 18.4841 46.6877 18.4049C48.9651 17.1839 50.9089 16.258 52.6881 16.258C53.7253 16.258 54.2363 17.154 54.6703 18.0415C55.0102 18.7323 55.3759 19.6625 55.3759 20.6139C55.3759 23.026 54.4544 24.495 53.721 25.5257C54.0716 25.8871 54.57 26.4324 54.8735 26.7958C55.4145 27.4416 56.0624 28.2842 56.0624 29.1588C56.0624 29.5372 55.8786 30.1318 55.7738 30.6022C55.7266 30.8138 55.5406 31.2372 55.1729 31.2309C54.8414 31.2223 54.756 30.8609 54.7431 30.5423C54.7409 30.476 54.7431 30.3307 54.7431 30.2986C54.7431 29.6035 54.5506 28.6628 53.907 28.0041C53.1649 27.2449 52.4871 26.6955 51.6273 26.6955H51.3345C49.9254 26.6955 49.2837 27.3092 48.8968 27.6876C48.4734 28.1003 48.1462 28.6499 48.1462 29.3919C48.1462 29.8175 48.4349 30.3221 48.8219 31.094C49.0486 31.5495 49.6324 32.6336 49.9531 33.1918C50.2311 33.6794 50.5882 33.8505 50.9879 33.8505C51.9674 33.8505 52.8227 33.7136 52.8227 33.4185C52.8227 33.3395 52.7798 33.271 52.6451 33.271C52.5895 33.271 52.4526 33.2882 52.3329 33.2882C51.0499 33.2882 50.3656 31.6567 49.722 30.177C50.2117 29.7001 50.7677 29.2083 51.7726 29.2083C53.0493 29.2083 53.8874 30.0657 53.8874 31.182C53.8874 31.7359 53.7163 32.1998 53.6157 32.4074C53.5665 32.5122 53.5387 32.5763 53.5387 32.6362C53.5387 32.8116 53.7589 32.8458 54.1076 32.927C54.2316 32.9548 54.469 33.0125 54.6122 33.0532C54.9887 33.1623 55.3863 33.4873 55.5553 33.9383C55.6685 34.2399 55.9232 34.9305 55.9807 35.0973C56.1903 35.7304 56.5324 36.6477 56.5324 37.751C56.5324 38.8714 56.4553 39.2115 56.1475 40.3512C55.754 41.8075 55.5807 42.3592 55.5144 43.1589C55.6513 43.4112 55.6621 43.4818 55.7241 43.6271C55.9443 44.0891 56.2308 44.9357 56.2308 45.8532V46.606C56.2308 48.0664 55.6492 49.2019 55.0184 50.0531C54.5267 50.7159 53.8232 51.6503 53.4211 52.1678C53.1604 52.48 52.8074 52.7067 52.4141 52.7067C52.226 52.7067 52.0055 52.6447 51.7832 52.5891C51.5393 52.5271 51.0155 52.3945 50.7931 52.339C49.9357 52.1231 49.6193 51.5606 49.3414 50.8058C49.2985 50.6946 49.1681 50.3717 49.1297 50.2713C48.9244 49.7452 48.809 49.4074 48.4818 49.4074C48.2381 49.4074 48.005 49.5678 47.7632 49.9314C46.9058 51.223 46.4398 51.6912 44.9301 52.0613C44.404 52.1917 43.3328 52.4141 42.7339 52.5467C41.8294 52.7477 40.2151 53.171 39.3062 53.171C39.1138 53.171 38.9106 53.1604 38.7031 53.1367C37.4629 52.9635 36.584 52.8801 35.0401 51.039C32.9188 48.505 33.1369 48.1479 33.0086 44.7265C32.9957 44.3459 32.8695 43.8691 32.4741 43.8691C32.1169 43.8691 31.963 44.596 31.8326 45.6224C31.6806 46.8305 31.4027 48.0836 30.8083 48.0836C30.3935 48.0836 30.1154 48.0194 29.476 47.8121C28.7041 47.5598 26.7817 46.9119 25.7724 46.5782C24.3974 46.1227 23.0781 45.7634 22.5477 44.5424C22.2997 43.9694 21.8377 42.9023 21.6048 42.3463C21.4401 41.9571 21.3182 41.7517 21.0616 41.7517C20.6961 41.7517 20.6148 42.1881 20.5743 42.5301C20.5271 42.9193 20.429 43.8153 20.3818 44.3734C20.1745 46.7556 19.6975 47.7712 18.6903 49.0992C18.2283 49.7086 17.7879 50.3288 17.277 51.0067C16.2207 52.4072 15.5833 53.8422 15.6177 56.5578C15.6177 56.7354 15.6048 57.7446 15.6177 58.2108C15.7118 62.2523 16.736 64.2325 23.5469 69.6596" fill="#002F87"/>
<path d="M55.557 33.9382C55.6683 34.2398 55.9249 34.9303 55.9805 35.0972C56.1921 35.7281 56.5341 36.6475 56.5341 37.7508C56.5341 38.8713 56.4571 39.2114 56.1492 40.3489C55.7557 41.8051 55.5805 42.359 55.5161 43.1587C55.4072 42.9321 53.3351 39.3567 53.1768 39.0659C53.0186 38.775 52.886 38.4928 52.886 38.157C52.886 37.7913 53.0421 37.571 53.4849 37.2931C53.7499 37.1263 54.0943 36.9296 54.3253 36.812C55.3922 36.2646 55.6487 35.5889 55.6487 34.8681C55.6487 34.5644 55.6061 34.2523 55.5568 33.938L55.557 33.9382ZM46.5309 39.6559C46.6441 39.9381 46.7382 40.2567 46.7382 40.4963C46.7382 41.0351 46.6056 41.1998 46.3083 41.5163C46.1329 41.6745 45.9342 41.8413 45.7546 42.0081C45.4595 42.1621 45.1964 42.361 45.0189 42.6154C44.6811 43.103 44.4286 43.4003 44.4286 43.6846C44.4286 43.7723 44.4585 43.8386 44.5227 43.89C44.1121 43.5841 43.9475 43.1138 43.9475 42.6946C43.9475 42.3203 44.0693 42.1216 44.0693 41.7688C44.0693 41.4693 43.986 41.1763 43.9346 41.0076C43.3592 39.0852 42.3928 36.7971 41.7961 35.2425C41.1888 33.6579 40.7099 32.7897 40.0234 32.7897C39.6428 32.7897 39.3029 32.9779 38.9029 32.9779C39.4503 32.9779 40.2993 32.4711 40.8788 31.7119C41.5546 30.8203 41.5993 30.1723 41.5993 29.3276C41.5993 28.9683 41.4497 28.6562 41.1652 28.3182C42.0355 29.2034 42.5915 30.3327 43.1818 31.5814C44.4732 34.3186 45.5917 37.3166 46.5305 39.6559H46.5309ZM15.6165 58.2107C15.6058 57.7446 15.6187 56.7331 15.6165 56.5578C15.5846 53.842 16.2197 52.4073 17.2782 51.0067C17.7892 50.3289 18.2275 49.7087 18.6894 49.0992C19.6986 47.7691 20.1757 46.7556 20.381 44.3735C20.4303 43.8131 20.5285 42.9172 20.5756 42.5301C20.6163 42.1859 20.6975 41.7517 21.063 41.7517C21.3198 41.7517 21.4395 41.9571 21.6042 42.3461C21.8394 42.9021 22.299 43.9692 22.5492 44.5423C23.0796 45.7611 24.3968 46.1225 25.7739 46.5759C26.7833 46.9115 28.7056 47.5595 29.4776 47.8118C30.1148 48.0193 30.3948 48.0834 30.8097 48.0834C31.404 48.0834 31.6819 46.8282 31.8339 45.6222C31.9644 44.5937 32.1183 43.8687 32.4733 43.8687C32.8711 43.8687 32.9951 44.3455 33.0101 44.7261C33.1384 48.1476 32.9182 48.5045 35.0416 51.0365C36.5855 52.8798 37.4644 52.9609 38.7046 53.1364C38.2428 52.9995 37.6526 52.4671 37.6526 51.3466V50.117C37.6526 49.5012 37.7253 48.8769 38.031 48.1691C38.1742 47.8354 38.341 47.2346 38.4992 46.8667C38.7685 46.2379 38.6402 46.0797 38.6402 45.6371C38.6402 45.171 38.4863 44.7091 38.1184 43.5886C37.9281 43.0156 37.6715 42.1773 37.4257 41.4908C36.6559 39.3461 36.3459 38.8394 33.7797 38.4993C32.9544 38.3901 29.3555 37.8791 28.6028 37.7723C25.7225 37.3639 23.4665 37.227 22.2924 35.2982C20.8919 32.9931 21.0329 30.1833 19.6836 30.1833C19.0442 30.1833 18.7063 30.8997 18.7063 31.9431C18.7063 33.0401 19.1189 34.8128 19.1189 37.9006C19.1189 40.5693 18.8709 41.3134 17.3141 43.2786C16.9122 43.7875 16.3691 44.5382 16.0204 44.9743C14.8635 46.4263 14.3503 47.2454 14.4209 48.9389C14.6026 53.3204 15.2975 56.5408 15.6161 58.2109L15.6165 58.2107ZM44.9801 68.5136C45.0783 67.4443 45.5489 65.6589 45.5489 64.9319C45.5489 64.5727 45.429 64.4314 45.1597 64.4314C44.7832 64.4314 44.1397 65.0452 43.342 65.8705C42.2856 66.9654 41.1161 68.1756 39.9805 69.3624C37.175 72.2984 37.3076 74.7404 37.2669 78.8845C40.3846 77.0048 43.2352 75.1981 45.3478 73.7588C45.0333 72.0311 44.7724 70.7928 44.9799 68.5134" fill="#B6B9DA"/>
<path d="M89.5169 21.033H87.2695V17.7077H97.7455C103.256 17.7077 106.132 20.6009 106.132 24.7173C106.132 29.6056 102.279 31.7268 97.7455 31.7268H94.2771V37.2032H96.5267V40.5285H87.2695V37.2032H89.5169V21.033ZM97.2558 28.4018C99.6358 28.4018 101.19 27.0331 101.19 24.7173C101.19 22.6174 99.8323 21.033 97.1895 21.033H94.2771V28.4018H97.2558ZM111.953 33.0292C112.083 35.7364 114.168 37.3978 117.363 37.3978C120.177 37.3978 121.902 36.6216 122.647 36.3202V39.8441C121.952 40.1221 120.051 40.9198 116.353 40.9198C109.767 40.9198 106.996 36.8121 106.996 32.0842C106.996 26.7703 110.225 23.086 115.571 23.086C121.438 23.086 123.818 27.5209 123.818 33.0294H111.953L111.953 33.0292ZM118.864 29.9007C118.864 27.5528 117.528 26.2164 115.408 26.2164C113.321 26.2164 112.115 27.5849 111.919 29.9007H118.864V29.9007ZM238.321 33.0292C238.452 35.7364 240.539 37.3978 243.734 37.3978C246.548 37.3978 248.271 36.6216 249.015 36.3202V39.8441C248.32 40.1221 246.419 40.9198 242.724 40.9198C236.138 40.9198 233.366 36.8121 233.366 32.0842C233.366 26.7703 236.593 23.086 241.941 23.086C247.809 23.086 250.189 27.5209 250.189 33.0294H238.321L238.321 33.0292ZM245.232 29.9007C245.232 27.5528 243.896 26.2164 241.777 26.2164C239.692 26.2164 238.486 27.5849 238.289 29.9007H245.232V29.9007ZM128.05 26.8022H125.833V23.4769H132.094L132.22 25.7095H132.284C132.588 25.2369 134.074 23.0856 137.523 23.0856C141.851 23.0856 144.122 26.1348 144.122 29.8857V37.203H146.079V40.5283H137.701V37.203H139.559V30.6725C139.559 28.2946 138.24 26.9987 136.073 26.9987C134.119 26.9987 132.613 28.0957 132.613 30.6725V37.203H134.57V40.5283H126.19V37.203H128.05V26.802V26.8022ZM150.278 26.8022H148.063V23.4769H154.324L154.448 25.7095H154.515C154.816 25.2369 156.302 23.0856 159.754 23.0856C164.082 23.0856 166.353 26.1348 166.353 29.8857V37.203H168.307V40.5283H159.929V37.203H161.787V30.6725C161.787 28.2946 160.47 26.9987 158.304 26.9987C156.347 26.9987 154.844 28.0957 154.844 30.6725V37.203H156.8V40.5283H148.42V37.203H150.278V26.802V26.8022ZM223.045 19.8268H227.61V23.4771H232.173V26.8024H227.61V34.4C227.61 36.6859 228.41 37.398 230.3 37.398C231.008 37.398 231.977 37.2099 232.334 37.1393V40.3767C231.959 40.4901 230.3 40.9198 228.579 40.9198C225.219 40.9198 223.045 39.115 223.045 36.1148V26.8022H220.731V23.4769H223.045V19.8266V19.8268ZM192.288 19.8268H196.852V23.4771H201.417V26.8024H196.852V34.4C196.852 36.6859 197.651 37.398 199.542 37.398C200.25 37.398 201.22 37.2099 201.575 37.1393V40.3767C201.201 40.4901 199.542 40.9198 197.82 40.9198C194.461 40.9198 192.288 39.115 192.288 36.1148V26.8022H189.973V23.4769H192.288V19.8266V19.8268ZM213.961 29.6719C213.961 27.3175 212.817 26.4108 210.514 26.4108C209.043 26.4108 207.986 26.7936 207.685 26.9005V29.1822H203.985V24.8477C204.595 24.5014 207.334 23.0858 210.456 23.0858C215.205 23.0858 218.261 25.0189 218.261 29.7959V37.2032H220.025V40.5285H214.504L214.369 38.2083H214.305C213.965 38.683 212.72 40.9198 208.876 40.9198C205.029 40.9198 203.17 38.6382 203.17 35.9631C203.17 32.7214 205.66 30.4888 211.912 30.4888H213.961V29.6721L213.961 29.6719ZM212.624 33.2899C208.908 33.2899 207.734 34.0726 207.734 35.5394C207.734 36.551 208.45 37.5944 210.244 37.5944C212.07 37.5944 213.897 36.1618 213.897 33.2899H212.624V33.2899ZM183.096 21.1953C182.749 21.0735 181.413 20.6416 180.192 20.6416C177.536 20.6416 176.476 22.0828 176.476 23.3529C176.476 25.0165 177.709 25.7863 179.133 26.1434L181.398 26.7378C184.589 27.5847 188.119 28.9402 188.119 33.666C188.119 38.0026 185.333 40.9194 179.17 40.9194C176.784 40.9194 174.307 40.6585 171.395 39.6472V33.6169H175.492V36.5613C176.142 36.7411 178.002 37.2028 179.572 37.2028C181.992 37.2028 183.164 36.1935 183.164 34.4657C183.164 33.0351 182.356 32.0024 179.446 31.2197L177.495 30.683C173.037 29.4771 171.519 27.33 171.519 23.8104C171.519 20.1902 173.935 17.3162 180.068 17.3162C182.7 17.3162 185.333 17.7717 187.191 18.5221V23.9665H183.096V21.1951V21.1953Z" fill="#002F87"/>
<path d="M252.073 38.4557C252.073 38.1071 252.14 37.7821 252.27 37.4784C252.4 37.1768 252.578 36.9159 252.802 36.6978C253.027 36.4797 253.29 36.3064 253.587 36.1803C253.885 36.0563 254.201 35.9922 254.537 35.9922C254.873 35.9922 255.189 36.0563 255.488 36.1803C255.786 36.3064 256.046 36.4797 256.273 36.6978C256.498 36.9159 256.675 37.1768 256.805 37.4784C256.936 37.7821 257 38.1071 257 38.4557C257 38.8106 256.936 39.1357 256.805 39.4373C256.675 39.7367 256.498 39.9953 256.273 40.2135C256.046 40.4337 255.786 40.6049 255.488 40.731C255.189 40.8572 254.872 40.9192 254.537 40.9192C254.201 40.9192 253.885 40.8572 253.587 40.731C253.29 40.6049 253.027 40.4337 252.802 40.2135C252.578 39.9955 252.4 39.7367 252.27 39.4373C252.14 39.1357 252.073 38.8106 252.073 38.4557ZM252.512 38.4557C252.512 38.7572 252.563 39.0352 252.67 39.2918C252.775 39.5462 252.92 39.7686 253.1 39.9567C253.282 40.1427 253.495 40.2925 253.743 40.3993C253.989 40.5085 254.255 40.5619 254.537 40.5619C254.819 40.5619 255.084 40.5085 255.328 40.3993C255.574 40.2923 255.788 40.1427 255.972 39.9567C256.154 39.7686 256.299 39.5462 256.406 39.2918C256.511 39.0352 256.564 38.7572 256.564 38.4557C256.564 38.1605 256.511 37.8826 256.406 37.626C256.299 37.3673 256.154 37.1449 255.972 36.9567C255.788 36.7686 255.574 36.6209 255.328 36.512C255.084 36.405 254.819 36.3495 254.537 36.3495C254.255 36.3495 253.99 36.405 253.743 36.512C253.495 36.6211 253.282 36.7686 253.1 36.9567C252.92 37.1449 252.775 37.3673 252.67 37.626C252.563 37.8826 252.512 38.1605 252.512 38.4557ZM253.598 37.0123H254.682C255.354 37.0123 255.689 37.2859 255.689 37.8333C255.689 38.0942 255.617 38.2845 255.471 38.4064C255.326 38.5282 255.144 38.5988 254.928 38.6223L255.756 39.8924H255.285L254.505 38.6544H254.034V39.8924H253.598V37.0121V37.0123ZM254.034 38.2974H254.486C254.582 38.2974 254.676 38.2931 254.77 38.2869C254.862 38.2804 254.943 38.2613 255.014 38.2313C255.084 38.1993 255.142 38.1521 255.187 38.0858C255.232 38.0195 255.253 37.9298 255.253 37.8144C255.253 37.716 255.232 37.6389 255.193 37.5791C255.153 37.5192 255.104 37.4742 255.041 37.4422C254.979 37.4123 254.911 37.3931 254.836 37.3823C254.761 37.3737 254.687 37.3694 254.61 37.3694H254.034V38.2974V38.2974Z" fill="#002F87"/>
</svg>
