<?xml version="1.0" encoding="UTF-8"?><svg id="Layer_2" xmlns="http://www.w3.org/2000/svg" viewBox="0 0 131.405 42.0448"><g id="_层_1"><g><path d="M19.0538,42.0448C10.6273,37.034,0,29.7501,0,16.8901V3.3107C3.8879,1.8412,9.8937,0,19.0527,0c9.2662,0,15.6251,2.0041,19.0538,3.3107v13.5794c0,12.9693-11.0385,20.4424-19.0527,25.1547" fill="#fff"/><path d="M24.7858,24.4603c0-.2887,.2373-.7369,.2373-1.136,0-.4756-.5828-.6265-1.0354-.6899-.9534-.1312-1.2705-.0886-1.2705-.2985,0-.1454,.1279-.2974,.3018-.5467,.2558-.3685,.8659-.5073,1.1906-.5521,.4275-.0591,.902-.1159,1.4695-.1159,.6363,0,1.1764,.0951,1.4257,.1389,.5827,.1006,.6746,.3455,.6746,.6188v.2744c0,.2766-.2264,.4177-.6342,.5073-.1017,.0219-.2449,.0481-.3127,.0623-.2952,.0612-.6615,.1192-.7905,.492-.2788,.8014-.7632,1.429-1.1218,1.4126-.0656-.0022-.1345-.0525-.1345-.1673m.8408-12.9016c-.035-.0208-.1585-.0645-.1585-.187,0-.141,.1017-.2876,.3094-.5653,.4767-.6396,1.1327-1.4235,1.3733-1.4235,.117,0,.1903,.0809,.3345,.3554,.0864,.1629,.1596,.4341,.1596,.6921,0,.8506-.293,1.4487-.7467,2.1233-.2263-.2165-.6484-.6385-1.2716-.995m-13.9992,1.5854c.2153,0,.3783-.1421,.7019-.4997,.7238-.8003,1.4235-.9075,1.4235-1.2497,0-.1531-.0973-.3018-.2001-.4614-.7708-1.206-1.101-1.8576-1.5602-2.7323-.1673-.3171-.3838-.5336-.5489-.5336-.2679,0-.5489,.3105-.7128,.5784-.2296,.3761-.4592,.8004-.4592,1.1863,0,.5838,.1432,1.6477,.3859,2.3288,.2613,.7358,.6407,1.3831,.9698,1.3831m8.6998,2.787c0-.4975-.5598-1.2279-1.5373-1.2279-.8692,0-1.5329,.656-1.7067,1.1688,.2088,.4024,.4089,.8277,1.2432,1.0802,.1093,.0339,.2198,.0361,.2198,.1301,0,.1334-.1411,.2012-.4374,.2012-.9447,0-1.5056-.3859-1.7548-.7118-.2438,.0339-.527,.1279-.8801,.141-.2887,.0109-.421-.1826-.421-.4406,0-.1662,.0492-.3488,.1487-.5521,.0547-.1115,.1126-.2285,.1553-.3116,.1465-.2865,.3706-.9261,1.2322-1.417,.1006-.0569,.3608-.2143,.4942-.293,.4888-.2876,.8572-.3542,1.4378-.3542h.4253c.6954,0,1.0518,.1946,1.3579,.4526,.6232,.5248,.9654,.8102,.9654,1.1983,0,.4319-.023,.7632-.3684,1.2191-.2963,.3892-.7304,.6472-1.0113,.6472-.0787,0-.1017-.0426-.1017-.0875,0-.0591,.0656-.0886,.1334-.1432,.2296-.1859,.3335-.516,.4056-.6997m4.1853,13.3553c-.1629,.0393-.4833,.1192-1.9101,.1192-2.1615,0-2.5289-.5314-2.5289-.9523,0-.7041,3.1007-1.1994,4.322-1.1994,1.1699,0,1.6871,.375,1.6871,.6615,0,.3324-.527,1.1196-1.5701,1.3711m-12.4729,6.3305c2.249,1.7559,4.6576,3.3085,7.0149,4.7167,.0219-2.1189-.047-3.3675,1.3875-4.8687,.5805-.6068,1.1786-1.2245,1.7198-1.7854,.4067-.4221,.7369-.7358,.9293-.7358,.1367,0,.1979,.0721,.1979,.2558,0,.1892,.0853,.8845,.5161,1.7155,.5357,1.0343,1.3273,1.1677,1.581,1.2256,6.1403-4.6227,11.2757-10.6722,11.2757-19.2801V4.3153c-1.5143-.5149-7.7355-2.9006-17.6084-2.9006S2.9582,3.8004,1.445,4.3153v12.5451c0,3.783,.9916,7.0729,2.6262,9.9637,.1629-1.7428,1.3415-2.5694,1.3415-4.2815,0-1.194-.3389-1.9484-.3389-2.9488,0-1.8084,2.4415-5.529,3.7087-7.0444,.0372-.0448,.1191-.1509,.2208-.1509,.0908,0,.1596,.0634,.2154,.1487,.1279,.1979,.1836,.3018,.3215,.3018,.1388,0,.1935-.0776,.1935-.2012,0-.3149-.3652-.8408-.3652-2.8952,0-1.4378,.3346-1.7428,1.2279-2.6175,.1629-.1596,.6625-.6396,1.1403-.6396,.5303,0,.7927,.3138,1.1196,.6462,.5521,.562,1.323,1.5569,1.4476,1.7144,.035,.0437,.0667,.0842,.1421,.0842,.2547,0,.4679-.0765,1.5777-.0765,2.0151,0,5.0535,.316,6.6137,.8277,.8047,.2635,.972,.4439,1.1852,.4439,.1038,0,.1126-.0678,.1126-.1225,0-.1017-.211-.2646-.211-.4034,0-.0918,.0743-.1585,.1476-.199,1.1644-.6243,2.1583-1.0977,3.068-1.0977,.5303,0,.7916,.4581,1.0135,.9119,.1738,.3532,.3608,.8288,.3608,1.3153,0,1.2333-.4712,1.9844-.8462,2.5114,.1793,.1848,.4341,.4636,.5893,.6494,.2766,.3302,.6079,.761,.6079,1.2082,0,.1935-.094,.4975-.1476,.738-.0241,.1082-.1192,.3247-.3072,.3215-.1695-.0044-.2132-.1892-.2198-.3521-.0011-.0339,0-.1082,0-.1246,0-.3554-.0984-.8364-.4275-1.1732-.3794-.3882-.726-.6691-1.1656-.6691h-.1497c-.7205,0-1.0486,.3138-1.2464,.5073-.2165,.211-.3838,.492-.3838,.8714,0,.2176,.1476,.4756,.3455,.8703,.1159,.2329,.4144,.7872,.5784,1.0726,.1421,.2493,.3247,.3368,.5291,.3368,.5008,0,.9381-.07,.9381-.2209,0-.0404-.0219-.0754-.0908-.0754-.0284,0-.0984,.0088-.1596,.0088-.656,0-1.0059-.8342-1.335-1.5908,.2504-.2438,.5347-.4953,1.0485-.4953,.6528,0,1.0813,.4384,1.0813,1.0092,0,.2832-.0875,.5204-.1389,.6265-.0252,.0536-.0394,.0864-.0394,.117,0,.0897,.1126,.1072,.2909,.1487,.0634,.0142,.1848,.0437,.258,.0645,.1925,.0558,.3958,.222,.4822,.4526,.0579,.1542,.1881,.5073,.2175,.5926,.1072,.3237,.2821,.7927,.2821,1.3568,0,.5729-.0394,.7468-.1968,1.3295-.2012,.7446-.2898,1.0267-.3237,1.4356,.07,.129,.0755,.1651,.1072,.2394,.1126,.2362,.2591,.6691,.2591,1.1382v.3849c0,.7467-.2974,1.3273-.6199,1.7625-.2514,.3389-.6111,.8167-.8167,1.0813-.1333,.1596-.3138,.2755-.5149,.2755-.0962,0-.2089-.0317-.3226-.0601-.1247-.0317-.3925-.0995-.5062-.1279-.4384-.1104-.6002-.398-.7423-.7839-.0219-.0569-.0886-.222-.1082-.2733-.105-.269-.164-.4417-.3313-.4417-.1246,0-.2438,.082-.3674,.2679-.4384,.6604-.6767,.8998-1.4486,1.089-.269,.0667-.8167,.1804-1.1229,.2482-.4625,.1028-1.2879,.3192-1.7526,.3192-.0984,0-.2023-.0054-.3084-.0175-.6341-.0886-1.0835-.1312-1.8729-1.0726-1.0846-1.2956-.9731-1.4782-1.0387-3.2276-.0066-.1946-.0711-.4384-.2733-.4384-.1826,0-.2613,.3717-.328,.8965-.0777,.6177-.2198,1.2584-.5237,1.2584-.2121,0-.3543-.0328-.6812-.1388-.3947-.129-1.3776-.4603-1.8937-.6309-.703-.2329-1.3776-.4166-1.6488-1.0409-.1268-.293-.363-.8386-.4821-1.1229-.0842-.199-.1465-.304-.2777-.304-.1869,0-.2285,.2231-.2492,.398-.0241,.199-.0743,.6571-.0984,.9425-.106,1.218-.3499,1.7373-.8649,2.4163-.2362,.3116-.4614,.6287-.7226,.9753-.5401,.7161-.866,1.4498-.8484,2.8383,0,.0908-.0066,.6068,0,.8452,.0481,2.0664,.5718,3.0789,4.0542,5.8538" fill="#002f87"/><path d="M28.4063,17.3527h0c.0569,.1542,.1881,.5073,.2165,.5926,.1082,.3226,.2831,.7927,.2831,1.3568,0,.5729-.0394,.7468-.1968,1.3284-.2012,.7446-.2908,1.0278-.3237,1.4367-.0557-.1159-1.1152-1.944-1.1961-2.0927-.0809-.1487-.1487-.293-.1487-.4647,0-.187,.0798-.2996,.3062-.4417,.1355-.0853,.3116-.1859,.4297-.246,.5455-.2799,.6767-.6254,.6767-.9939,0-.1553-.0218-.3149-.047-.4756m-4.615,2.9236c.0579,.1443,.106,.3072,.106,.4297,0,.2755-.0678,.3597-.2198,.5215-.0897,.0809-.1913,.1662-.2831,.2515-.1509,.0787-.2854,.1804-.3762,.3105-.1727,.2493-.3018,.4013-.3018,.5467,0,.0448,.0153,.0787,.0481,.105-.2099-.1564-.2941-.3969-.2941-.6112,0-.1914,.0623-.293,.0623-.4734,0-.1531-.0426-.3029-.0689-.3892-.2942-.9829-.7883-2.1528-1.0934-2.9477-.3105-.8102-.5554-1.2541-.9064-1.2541-.1946,0-.3684,.0962-.5729,.0962,.2799,0,.714-.2591,1.0103-.6473,.3455-.4559,.3684-.7872,.3684-1.2191,0-.1837-.0765-.3433-.222-.5161,.445,.4526,.7293,1.03,1.0311,1.6685,.6603,1.3995,1.2322,2.9324,1.7122,4.1285M7.9846,29.7633c-.0055-.2383,.0011-.7555,0-.8451-.0163-1.3886,.3084-2.1222,.8496-2.8383,.2613-.3466,.4854-.6637,.7216-.9753,.516-.6801,.7599-1.1983,.8649-2.4163,.0252-.2865,.0754-.7446,.0995-.9425,.0208-.176,.0623-.398,.2492-.398,.1313,0,.1925,.105,.2767,.3039,.1203,.2843,.3553,.8299,.4832,1.1229,.2712,.6232,.9447,.808,1.6488,1.0398,.5161,.1716,1.499,.5029,1.8937,.6319,.3258,.1061,.469,.1389,.6811,.1389,.3039,0,.446-.6418,.5237-1.2584,.0667-.5259,.1454-.8966,.3269-.8966,.2034,0,.2668,.2438,.2745,.4384,.0656,1.7494-.047,1.9319,1.0387,3.2265,.7894,.9425,1.2388,.984,1.8729,1.0737-.2361-.07-.5379-.3422-.5379-.9151v-.6287c0-.3149,.0372-.6341,.1935-.996,.0732-.1706,.1585-.4778,.2394-.6659,.1377-.3215,.0721-.4024,.0721-.6287,0-.2383-.0787-.4745-.2668-1.0474-.0973-.293-.2285-.7216-.3542-1.0726-.3936-1.0966-.5521-1.3557-1.8642-1.5296-.422-.0558-2.2621-.3171-2.647-.3717-1.4727-.2088-2.6262-.2788-3.2265-1.265-.7161-1.1786-.644-2.6153-1.3339-2.6153-.3269,0-.4997,.3663-.4997,.8998,0,.5609,.211,1.4673,.211,3.0461,0,1.3645-.1268,1.745-.9228,2.7498-.2055,.2602-.4832,.644-.6615,.867-.5915,.7424-.8539,1.1612-.8178,2.0271,.0929,2.2403,.4482,3.8869,.6111,4.7408m15.0139,5.2678c.0502-.5467,.2908-1.4596,.2908-1.8313,0-.1837-.0613-.2559-.199-.2559-.1925,0-.5215,.3138-.9294,.7358-.5401,.5598-1.1381,1.1786-1.7187,1.7854-1.4345,1.5012-1.3667,2.7498-1.3875,4.8687,1.5941-.9611,3.0516-1.8849,4.1318-2.6208-.1608-.8834-.2942-1.5165-.1881-2.682" fill="#b6b9da"/><path d="M45.7703,10.7542h-1.1491v-1.7002h5.3564c2.8175,0,4.2881,1.4793,4.2881,3.584,0,2.4994-1.9702,3.584-4.2881,3.584h-1.7734v2.8001h1.1502v1.7002h-4.7332v-1.7002h1.1491V10.7542Zm3.9569,3.7677c1.2169,0,2.0117-.6998,2.0117-1.8839,0-1.0737-.6943-1.8838-2.0456-1.8838h-1.4891v3.7677h1.523Zm7.5146,2.366c.0667,1.3842,1.1327,2.2337,2.7661,2.2337,1.4389,0,2.3212-.3969,2.7017-.551v1.8018c-.3554,.1421-1.3273,.55-3.2177,.55-3.3675,0-4.7845-2.1003-4.7845-4.5177,0-2.717,1.651-4.6008,4.3843-4.6008,3.0001,0,4.217,2.2676,4.217,5.0841h-6.067Zm3.5337-1.5996c0-1.2005-.6833-1.8838-1.7669-1.8838-1.0671,0-1.6837,.6997-1.7843,1.8838h3.5512Zm61.0789,1.5996c.0667,1.3842,1.1338,2.2337,2.7673,2.2337,1.4388,0,2.32-.3969,2.7005-.551v1.8018c-.3554,.1421-1.3273,.55-3.2167,.55-3.3675,0-4.7845-2.1003-4.7845-4.5177,0-2.717,1.6498-4.6008,4.3843-4.6008,3.0002,0,4.217,2.2676,4.217,5.0841h-6.0681Zm3.5337-1.5996c0-1.2005-.6833-1.8838-1.7669-1.8838-1.066,0-1.6827,.6997-1.7832,1.8838h3.5501Zm-59.9156-1.5843h-1.1339v-1.7002h3.2014l.0645,1.1415h.0328c.1552-.2416,.9151-1.3416,2.6787-1.3416,2.2129,0,3.3741,1.5591,3.3741,3.4769v3.7414h1.0004v1.7002h-4.2837v-1.7002h.9501v-3.3391c0-1.2158-.6746-1.8784-1.7822-1.8784-.9993,0-1.769,.5609-1.769,1.8784v3.3391h1.0004v1.7002h-4.2848v-1.7002h.9512v-5.3181Zm11.3653,0h-1.1327v-1.7002h3.2014l.0634,1.1415h.0339c.1542-.2416,.914-1.3416,2.6787-1.3416,2.2129,0,3.3741,1.5591,3.3741,3.4769v3.7414h.9993v1.7002h-4.2838v-1.7002h.9501v-3.3391c0-1.2158-.6735-1.8784-1.7811-1.8784-1.0004,0-1.769,.5609-1.769,1.8784v3.3391h1.0004v1.7002h-4.2848v-1.7002h.9501v-5.3181Zm37.2056-3.5665h2.3343v1.8664h2.3332v1.7002h-2.3332v3.8847c0,1.1688,.4089,1.5329,1.3754,1.5329,.3619,0,.8572-.0962,1.0398-.1323v1.6553c-.1913,.058-1.0398,.2777-1.9199,.2777-1.7176,0-2.8296-.9228-2.8296-2.4568v-4.7616h-1.183v-1.7002h1.183v-1.8664Zm-15.7257,0h2.3332v1.8664h2.3343v1.7002h-2.3343v3.8847c0,1.1688,.4089,1.5329,1.3754,1.5329,.3619,0,.8583-.0962,1.0398-.1323v1.6553c-.1913,.058-1.0398,.2777-1.9199,.2777-1.7177,0-2.8285-.9228-2.8285-2.4568v-4.7616h-1.1841v-1.7002h1.1841v-1.8664Zm11.0811,5.0338c0-1.2038-.5849-1.6674-1.7625-1.6674-.7522,0-1.2923,.1957-1.4465,.2504v1.1666h-1.8915v-2.2162c.3116-.1771,1.7122-.9009,3.3085-.9009,2.4283,0,3.9907,.9884,3.9907,3.4309v3.7874h.902v1.7002h-2.823l-.0689-1.1863h-.0328c-.1738,.2427-.8102,1.3864-2.776,1.3864-1.9669,0-2.9171-1.1666-2.9171-2.5344,0-1.6575,1.2727-2.799,4.4696-2.799h1.0474v-.4176Zm-.6833,1.8499c-1.9002,0-2.5005,.4002-2.5005,1.1502,0,.5172,.3663,1.0507,1.2836,1.0507,.9337,0,1.8675-.7325,1.8675-2.2009h-.6506Zm-15.098-6.184c-.1772-.0623-.8605-.2831-1.4848-.2831-1.3579,0-1.9002,.7369-1.9002,1.3863,0,.8506,.6308,1.2442,1.359,1.4268l1.1579,.3039c1.6313,.433,3.4364,1.1261,3.4364,3.5424,0,2.2173-1.4247,3.7087-4.5757,3.7087-1.2201,0-2.4863-.1334-3.9754-.6505v-3.0833h2.0949v1.5055c.3324,.0919,1.2836,.328,2.0861,.328,1.2376,0,1.8368-.5161,1.8368-1.3995,0-.7315-.4133-1.2595-1.9014-1.6597l-.9971-.2744c-2.2797-.6166-3.0559-1.7144-3.0559-3.514,0-1.851,1.2354-3.3205,4.3712-3.3205,1.3459,0,2.6918,.2329,3.6419,.6166v2.7837h-2.0937v-1.417Z" fill="#002f87"/><path d="M128.8859,19.6625c0-.1782,.0339-.3444,.1006-.4997,.0667-.1542,.1574-.2876,.2722-.3991,.1148-.1115,.2493-.2001,.4013-.2646,.152-.0634,.3138-.0962,.4855-.0962s.3335,.0328,.4865,.0962c.152,.0645,.2853,.1531,.4013,.2646,.1148,.1115,.2055,.2449,.2722,.3991,.0667,.1553,.0995,.3215,.0995,.4997,0,.1815-.0328,.3477-.0995,.5019-.0667,.1531-.1574,.2853-.2722,.3969-.1159,.1126-.2493,.2001-.4013,.2646-.1531,.0645-.3149,.0962-.4865,.0962s-.3335-.0317-.4855-.0962c-.152-.0645-.2864-.152-.4013-.2646-.1148-.1115-.2055-.2438-.2722-.3969-.0667-.1542-.1006-.3204-.1006-.5019m.2242,0c0,.1542,.0262,.2963,.0809,.4275,.0535,.1301,.1279,.2438,.2198,.34,.0929,.0951,.2023,.1717,.3291,.2263,.1257,.0558,.2613,.0831,.4057,.0831s.2799-.0273,.4045-.0831c.1257-.0547,.235-.1312,.3291-.2263,.093-.0962,.1673-.2099,.222-.34,.0536-.1312,.0809-.2733,.0809-.4275,0-.1509-.0274-.293-.0809-.4242-.0547-.1323-.129-.246-.222-.3422-.094-.0962-.2033-.1717-.3291-.2274-.1247-.0547-.2603-.0831-.4045-.0831s-.2799,.0284-.4057,.0831c-.1268,.0558-.2362,.1312-.3291,.2274-.0919,.0962-.1662,.2099-.2198,.3422-.0547,.1312-.0809,.2733-.0809,.4242m.5554-.738h.5543c.3433,0,.515,.1399,.515,.4198,0,.1334-.0372,.2307-.1115,.293-.0744,.0623-.1673,.0984-.2777,.1104l.4232,.6494h-.2406l-.3991-.633h-.2405v.633h-.2231v-1.4727Zm.2231,.6571h.2307c.0492,0,.0973-.0022,.1454-.0054,.047-.0033,.0886-.0131,.1246-.0284,.0361-.0164,.0656-.0405,.0886-.0744,.023-.0339,.0339-.0798,.0339-.1388,0-.0503-.0109-.0897-.0306-.1203-.0208-.0306-.0459-.0536-.0777-.07-.0317-.0153-.0667-.0251-.1049-.0306-.0383-.0044-.0765-.0066-.1159-.0066h-.2941v.4745Z" fill="#002f87"/></g></g></svg>