<svg width="105" height="67" viewBox="0 0 105 67" fill="none" xmlns="http://www.w3.org/2000/svg">
<path d="M1.12561 49.03H1.79835V53.3853C1.78853 55.0211 2.56943 55.6418 3.86515 55.6418C5.1705 55.6418 5.95178 55.0211 5.94187 53.3853V49.03H6.61422V53.5331C6.61422 54.9816 5.83303 56.2133 3.86515 56.2133C1.90689 56.2133 1.12561 54.9816 1.12561 53.5331V49.03Z" fill="#052049"/>
<path d="M8.30396 50.9807H8.92704V51.8578H8.94676C9.17406 51.2468 9.85661 50.833 10.5783 50.833C12.0123 50.833 12.4475 51.5819 12.4475 52.7939V56.0653H11.8245V52.8925C11.8245 52.0155 11.5376 51.3552 10.5291 51.3552C9.54021 51.3552 8.94676 52.1041 8.92704 53.0993V56.0653H8.30396V50.9807Z" fill="#052049"/>
<path d="M14.0981 49.03H14.7211V50.0251H14.0981V49.03ZM14.0981 50.9809H14.7211V56.0655H14.0981V50.9809Z" fill="#052049"/>
<path d="M15.8083 50.9807H16.5004L18.1024 55.4445H18.1226L19.7049 50.9807H20.3476L18.4391 56.0654H17.7761L15.8083 50.9807Z" fill="#052049"/>
<path d="M21.7903 53.6906C21.8003 54.597 22.275 55.6908 23.4717 55.6908C24.3816 55.6908 24.876 55.1589 25.0737 54.3902H25.6968C25.4296 55.543 24.7572 56.2131 23.4717 56.2131C21.8499 56.2131 21.1674 54.9715 21.1674 53.5231C21.1674 52.1829 21.8499 50.833 23.4717 50.833C25.1131 50.833 25.7658 52.2619 25.7165 53.6906H21.7903ZM25.0934 53.1682C25.0639 52.2321 24.4802 51.3552 23.4717 51.3552C22.4533 51.3552 21.8894 52.242 21.7903 53.1682H25.0934Z" fill="#052049"/>
<path d="M27.021 50.9807H27.5943V52.1732H27.6141C27.9306 51.3552 28.623 50.8724 29.5424 50.9119V51.5327C28.4151 51.4735 27.6437 52.3012 27.6437 53.3556V56.0653H27.021V50.9807Z" fill="#052049"/>
<path d="M33.6556 52.4687C33.6261 51.7002 33.0326 51.3552 32.3207 51.3552C31.7667 51.3552 31.1141 51.572 31.1141 52.2321C31.1141 52.7839 31.747 52.9811 32.1724 53.0894L33.003 53.2768C33.7152 53.3851 34.4566 53.7989 34.4566 54.6859C34.4566 55.7895 33.3589 56.2131 32.4096 56.2131C31.2231 56.2131 30.4121 55.6613 30.3131 54.4197H30.9362C30.9856 55.2573 31.6085 55.6908 32.4395 55.6908C33.0227 55.6908 33.8336 55.4346 33.8336 54.7252C33.8336 54.1339 33.28 53.9369 32.7161 53.7989L31.9151 53.6216C31.1043 53.4048 30.4911 53.1289 30.4911 52.2619C30.4911 51.2272 31.5099 50.833 32.4096 50.833C33.4283 50.833 34.2392 51.3651 34.2787 52.4687H33.6556Z" fill="#052049"/>
<path d="M35.8303 49.03H36.4534V50.0251H35.8303V49.03ZM35.8303 50.9809H36.4534V56.0655H35.8303V50.9809Z" fill="#052049"/>
<path d="M39.1034 50.9808H40.1416V51.5032H39.1034V54.9324C39.1034 55.3363 39.1626 55.5729 39.6076 55.6023C39.7857 55.6023 39.9636 55.5925 40.1416 55.5729V56.1049C39.9538 56.1049 39.7758 56.1247 39.5879 56.1247C38.7574 56.1247 38.4705 55.8486 38.4803 54.9816V51.5032H37.5902V50.9808H38.4803V49.4536H39.1034V50.9808Z" fill="#052049"/>
<path d="M40.9321 50.9807H41.5946L43.2759 55.3165L44.8484 50.9807H45.4713L43.2562 56.8438C42.8999 57.701 42.6923 57.9474 41.9111 57.9474C41.664 57.9376 41.5354 57.9376 41.4364 57.8981V57.3759C41.5848 57.4054 41.7232 57.4251 41.8617 57.4251C42.4153 57.4251 42.544 57.1 42.7515 56.627L42.9693 56.0456L40.9321 50.9807Z" fill="#052049"/>
<path d="M54.3307 53.5231C54.3307 54.9814 53.4803 56.2131 51.9177 56.2131C50.3552 56.2131 49.5045 54.9814 49.5045 53.5231C49.5045 52.0648 50.3552 50.833 51.9177 50.833C53.4803 50.833 54.3307 52.0646 54.3307 53.5231ZM50.1276 53.5231C50.1276 54.6069 50.721 55.6908 51.9177 55.6908C53.1145 55.6908 53.7076 54.6069 53.7076 53.5231C53.7076 52.4393 53.1142 51.3552 51.9177 51.3552C50.7213 51.3552 50.1276 52.4391 50.1276 53.5231Z" fill="#052049"/>
<path d="M57.6919 51.5032H56.6833V56.0655H56.0602V51.5032H55.1898V50.9809H56.0602V50.5179C56.0504 49.641 56.2974 49.03 57.2961 49.03C57.4744 49.03 57.6228 49.0398 57.8205 49.0693V49.6015C57.6524 49.572 57.5139 49.5521 57.3656 49.5521C56.6734 49.5521 56.6931 49.9858 56.6833 50.5376V50.9809H57.6919V51.5032Z" fill="#052049"/>
<path d="M67.2436 51.1583C67.0061 50.0744 66.1065 49.4535 65.0778 49.4535C63.2087 49.4535 62.4176 51.0105 62.4176 52.5476C62.4176 54.0847 63.2087 55.6417 65.0778 55.6417C66.3831 55.6417 67.2141 54.6366 67.3427 53.3852H68.0151C67.8273 55.1096 66.7295 56.2132 65.0778 56.2132C62.8527 56.2132 61.7451 54.4692 61.7451 52.5476C61.7451 50.626 62.8527 48.8821 65.0778 48.8821C66.4131 48.8821 67.7381 49.6802 67.9161 51.1583H67.2436Z" fill="#052049"/>
<path d="M69.3288 52.5376C69.3884 51.3453 70.2289 50.833 71.3956 50.833C72.2957 50.833 73.2747 51.1089 73.2747 52.4687V55.1686C73.2747 55.4052 73.3934 55.543 73.6405 55.543C73.7099 55.543 73.7888 55.5233 73.8385 55.5037V56.0258C73.7 56.0555 73.601 56.0653 73.4329 56.0653C72.8 56.0653 72.701 55.7105 72.701 55.1785H72.6813C72.2464 55.8387 71.8012 56.2131 70.8223 56.2131C69.8828 56.2131 69.1115 55.75 69.1115 54.7252C69.1115 53.2964 70.5059 53.2471 71.8506 53.0894C72.3648 53.0303 72.6516 52.9614 72.6516 52.3996C72.6516 51.5622 72.0484 51.3552 71.3167 51.3552C70.5454 51.3552 69.9716 51.71 69.9519 52.5376H69.3288ZM72.6516 53.2866H72.6319C72.553 53.4344 72.2759 53.4836 72.1078 53.5132C71.0496 53.7004 69.7344 53.6906 69.7344 54.6859C69.7344 55.3065 70.288 55.6908 70.8717 55.6908C71.8211 55.6908 72.6615 55.0898 72.6516 54.0946V53.2866Z" fill="#052049"/>
<path d="M74.9944 49.03H75.6174V56.0655H74.9944V49.03Z" fill="#052049"/>
<path d="M77.2886 49.03H77.9117V50.0251H77.2886V49.03ZM77.2886 50.9809H77.9117V56.0655H77.2886V50.9809Z" fill="#052049"/>
<path d="M81.5403 51.5032H80.5318V56.0655H79.9087V51.5032H79.0383V50.9809H79.9087V50.5179C79.8988 49.641 80.1459 49.03 81.1446 49.03C81.3229 49.03 81.4713 49.0398 81.6689 49.0693V49.6015C81.5008 49.572 81.3624 49.5521 81.214 49.5521C80.5219 49.5521 80.5416 49.9858 80.5318 50.5376V50.9809H81.5403V51.5032Z" fill="#052049"/>
<path d="M87.1667 53.5231C87.1667 54.9814 86.3164 56.2131 84.7538 56.2131C83.1912 56.2131 82.3406 54.9814 82.3406 53.5231C82.3406 52.0648 83.1912 50.833 84.7538 50.833C86.3164 50.833 87.1667 52.0646 87.1667 53.5231ZM82.9637 53.5231C82.9637 54.6069 83.5571 55.6908 84.7538 55.6908C85.9505 55.6908 86.5437 54.6069 86.5437 53.5231C86.5437 52.4393 85.9502 51.3552 84.7538 51.3552C83.5574 51.3552 82.9637 52.4391 82.9637 53.5231Z" fill="#052049"/>
<path d="M88.5602 50.9807H89.1335V52.1732H89.1532C89.4697 51.3552 90.1622 50.8724 91.0816 50.9119V51.5327C89.9543 51.4735 89.1829 52.3012 89.1829 53.3556V56.0653H88.5602V50.9807Z" fill="#052049"/>
<path d="M92.3071 50.9807H92.9302V51.8578H92.9499C93.1772 51.2468 93.8598 50.833 94.5815 50.833C96.0154 50.833 96.4507 51.5819 96.4507 52.7939V56.0653H95.8276V52.8925C95.8276 52.0155 95.5407 51.3552 94.5321 51.3552C93.5434 51.3552 92.9499 52.1041 92.9302 53.0993V56.0653H92.3071V50.9807Z" fill="#052049"/>
<path d="M98.1011 49.03H98.7241V50.0251H98.1011V49.03ZM98.1011 50.9809H98.7241V56.0655H98.1011V50.9809Z" fill="#052049"/>
<path d="M100.326 52.5376C100.385 51.3453 101.226 50.833 102.393 50.833C103.293 50.833 104.272 51.1089 104.272 52.4687V55.1686C104.272 55.4052 104.39 55.543 104.637 55.543C104.707 55.543 104.786 55.5233 104.835 55.5037V56.0258C104.697 56.0555 104.598 56.0653 104.43 56.0653C103.797 56.0653 103.698 55.7105 103.698 55.1785H103.678C103.243 55.8387 102.798 56.2131 101.819 56.2131C100.88 56.2131 100.108 55.75 100.108 54.7252C100.108 53.2964 101.503 53.2471 102.848 53.0894C103.362 53.0303 103.649 52.9614 103.649 52.3996C103.649 51.5622 103.045 51.3552 102.314 51.3552C101.542 51.3552 100.968 51.71 100.949 52.5376H100.326ZM103.649 53.2866H103.629C103.55 53.4344 103.273 53.4836 103.105 53.5132C102.047 53.7004 100.731 53.6906 100.731 54.6859C100.731 55.3065 101.285 55.6908 101.868 55.6908C102.818 55.6908 103.658 55.0898 103.649 54.0946V53.2866Z" fill="#052049"/>
<path d="M1.51144 64.5367C1.4818 65.9851 2.52992 66.4286 3.81545 66.4286C4.55728 66.4286 5.6846 66.0245 5.6846 64.9998C5.6846 64.2015 4.88359 63.8863 4.23096 63.7285L2.65849 63.3442C1.82793 63.1374 1.06638 62.7433 1.06638 61.6495C1.06638 60.9597 1.51144 59.6689 3.49895 59.6689C4.8934 59.6689 6.11974 60.4177 6.10993 61.8565H5.43758C5.39774 60.7823 4.50791 60.2404 3.50886 60.2404C2.58939 60.2404 1.73873 60.5953 1.73873 61.6396C1.73873 62.2998 2.23315 62.5758 2.80687 62.7136L4.52764 63.1374C5.5263 63.4034 6.35695 63.8371 6.35695 64.9899C6.35695 65.4728 6.15929 67.0001 3.65725 67.0001C1.98613 67.0001 0.759793 66.2511 0.839085 64.5367H1.51144Z" fill="#052049"/>
<path d="M7.71054 63.3245C7.77011 62.1322 8.61057 61.6199 9.77745 61.6199C10.6775 61.6199 11.6564 61.8957 11.6564 63.2555V65.9555C11.6564 66.192 11.7752 66.3298 12.0222 66.3298C12.0917 66.3298 12.1706 66.3102 12.2202 66.2905V66.8127C12.0817 66.8423 11.9827 66.8522 11.8146 66.8522C11.1817 66.8522 11.0827 66.4973 11.0827 65.9654H11.063C10.6281 66.6255 10.1831 67 9.20402 67C8.26453 67 7.49316 66.5368 7.49316 65.5121C7.49316 64.0833 8.88762 64.0339 10.2323 63.8763C10.7465 63.8171 11.0333 63.7483 11.0333 63.1865C11.0333 62.3491 10.4301 62.1421 9.69844 62.1421C8.92707 62.1421 8.35335 62.4969 8.33363 63.3245H7.71054ZM11.0333 64.0734H11.0136C10.9347 64.2213 10.6577 64.2705 10.4896 64.3001C9.43131 64.4872 8.11615 64.4775 8.11615 65.4727C8.11615 66.0934 8.66985 66.4777 9.25338 66.4777C10.2028 66.4777 11.0432 65.8767 11.0333 64.8814V64.0734Z" fill="#052049"/>
<path d="M13.3563 61.7675H13.9794V62.6447H13.9991C14.2264 62.0337 14.909 61.6199 15.6307 61.6199C17.0646 61.6199 17.4998 62.3687 17.4998 63.5808V66.8522H16.8768V63.6793C16.8768 62.8024 16.5899 62.1421 15.5813 62.1421C14.5926 62.1421 13.9991 62.891 13.9794 63.8862V66.8522H13.3563V61.7675Z" fill="#052049"/>
<path d="M22.4727 59.8167H26.9524V60.3881H23.145V62.9303H26.5271V63.5017H23.145V66.8522H22.4727V59.8167Z" fill="#052049"/>
<path d="M28.1283 61.7675H28.7016V62.96H28.7215C29.0379 62.1421 29.7303 61.6593 30.6498 61.6988V62.3195C29.5225 62.2604 28.751 63.088 28.751 64.1425V66.8522H28.1283V61.7675Z" fill="#052049"/>
<path d="M31.6481 63.3245C31.7073 62.1322 32.5478 61.6199 33.715 61.6199C34.6146 61.6199 35.5939 61.8957 35.5939 63.2555V65.9555C35.5939 66.192 35.7123 66.3298 35.9597 66.3298C36.0288 66.3298 36.1081 66.3102 36.1574 66.2905V66.8127C36.0189 66.8423 35.9202 66.8522 35.7521 66.8522C35.1192 66.8522 35.0202 66.4973 35.0202 65.9654H35.0005C34.5652 66.6255 34.1202 67 33.1412 67C32.2018 67 31.4303 66.5368 31.4303 65.5121C31.4303 64.0833 32.8248 64.0339 34.1698 63.8763C34.684 63.8171 34.9708 63.7483 34.9708 63.1865C34.9708 62.3491 34.3676 62.1421 33.6357 62.1421C32.8642 62.1421 32.2909 62.4969 32.2711 63.3245H31.6481ZM34.9708 64.0734H34.9511C34.8718 64.2213 34.5949 64.2705 34.4268 64.3001C33.3688 64.4872 32.0534 64.4775 32.0534 65.4727C32.0534 66.0934 32.6074 66.4777 33.1905 66.4777C34.1399 66.4777 34.9808 65.8767 34.9708 64.8814V64.0734Z" fill="#052049"/>
<path d="M37.2935 61.7675H37.9165V62.6447H37.9367C38.1639 62.0337 38.8462 61.6199 39.5682 61.6199C41.0021 61.6199 41.4374 62.3687 41.4374 63.5808V66.8522H40.8143V63.6793C40.8143 62.8024 40.5275 62.1421 39.5189 62.1421C38.5297 62.1421 37.9367 62.891 37.9165 63.8862V66.8522H37.2935V61.7675Z" fill="#052049"/>
<path d="M46.6772 63.364C46.5091 62.6052 46.0443 62.1421 45.2334 62.1421C44.037 62.1421 43.4435 63.226 43.4435 64.31C43.4435 65.3939 44.037 66.4777 45.2334 66.4777C46.0049 66.4777 46.6378 65.8767 46.7171 65.0293H47.3398C47.1716 66.251 46.3706 67 45.2334 67C43.6709 67 42.8206 65.7682 42.8206 64.31C42.8206 62.8517 43.6709 61.6199 45.2334 61.6199C46.3213 61.6199 47.1617 62.2012 47.3003 63.364H46.6772Z" fill="#052049"/>
<path d="M48.6842 59.8167H49.3072V60.8117H48.6842V59.8167ZM48.6842 61.7675H49.3072V66.8522H48.6842V61.7675Z" fill="#052049"/>
<path d="M54.0238 63.2555C53.9942 62.487 53.4007 62.1421 52.6885 62.1421C52.1349 62.1421 51.4823 62.3588 51.4823 63.019C51.4823 63.5708 52.1152 63.7679 52.5402 63.8763L53.3712 64.0636C54.083 64.172 54.8248 64.5857 54.8248 65.4727C54.8248 66.5764 53.727 67 52.7777 67C51.5908 67 50.7799 66.4482 50.6813 65.2066H51.3043C51.3536 66.0442 51.9767 66.4777 52.8073 66.4777C53.3909 66.4777 54.2017 66.2215 54.2017 65.5121C54.2017 64.9207 53.6478 64.7238 53.0843 64.5857L52.2833 64.4084C51.4724 64.1916 50.8592 63.9158 50.8592 63.0487C50.8592 62.014 51.8777 61.6199 52.7777 61.6199C53.7961 61.6199 54.6073 62.1519 54.6469 63.2555H54.0238Z" fill="#052049"/>
<path d="M59.7879 63.364C59.6198 62.6052 59.155 62.1421 58.3441 62.1421C57.1478 62.1421 56.5544 63.226 56.5544 64.31C56.5544 65.3939 57.1478 66.4777 58.3441 66.4777C59.1156 66.4777 59.7485 65.8767 59.8278 65.0293H60.4505C60.2824 66.251 59.4814 67 58.3441 67C56.7816 67 55.9313 65.7682 55.9313 64.31C55.9313 62.8517 56.7816 61.6199 58.3441 61.6199C59.432 61.6199 60.2725 62.2012 60.411 63.364H59.7879Z" fill="#052049"/>
<path d="M66.3535 64.31C66.3535 65.7682 65.5031 67 63.9406 67C62.378 67 61.5273 65.7682 61.5273 64.31C61.5273 62.8517 62.3781 61.6199 63.9406 61.6199C65.503 61.6199 66.3535 62.8515 66.3535 64.31ZM62.1504 64.31C62.1504 65.3937 62.7439 66.4777 63.9406 66.4777C65.1373 66.4777 65.7304 65.3937 65.7304 64.31C65.7304 63.2262 65.137 62.1421 63.9406 62.1421C62.7442 62.1421 62.1504 63.226 62.1504 64.31Z" fill="#052049"/>
<path d="M46.0293 25.6074C46.1586 25.7112 46.2915 25.8123 46.4316 25.9078C47.5142 26.6557 49.5027 27.3486 52.3974 27.9858L55.3424 28.6295C57.0663 28.9972 58.3253 29.4202 59.1195 29.8983C59.9131 30.3887 60.3101 31.0816 60.3101 31.9763C60.3101 33.509 59.4999 34.5572 57.8792 35.1208C57.0249 35.415 55.913 35.5621 54.5438 35.5621C52.2575 35.5621 50.6432 35.0044 49.701 33.8887C49.1862 33.2758 48.8405 32.3504 48.6647 31.112H43.2389C43.2389 33.9319 44.2646 36.1478 46.3166 37.7595C48.3685 39.3717 51.1853 40.1777 54.7669 40.1777C58.2737 40.1777 60.9876 39.3594 62.9091 37.7227C64.6761 36.2175 65.6284 34.3561 65.7704 32.1405V39.7706H71.7902V28.5H83.2535V23.8393H71.7902V17.5353H85.0178V12.4935H65.7704V31.0708C65.6667 28.8943 64.8692 27.2058 63.3589 26.0181C62.2151 25.1189 60.5512 24.4955 58.6541 24.0505C57.5892 23.7918 54.7468 23.1351 53.88 22.9288C53.0133 22.7224 51.2325 22.319 50.266 21.807C49.3222 21.3071 48.9375 20.5017 48.9375 19.6351C48.9375 18.5054 49.4236 17.7516 50.3204 17.1472C51.2587 16.515 52.5026 16.2904 53.8798 16.2904C56.8045 16.2904 59.2878 17.3414 59.461 20.4464H64.9239C64.8241 17.5657 63.75 15.3682 61.7011 13.8539C59.6519 12.3399 57.1767 11.5828 54.2749 11.5828C50.8 11.5828 48.1655 12.3859 46.3719 13.9918C45.2692 14.9793 44.507 16.1225 44.0823 17.4202C44.0823 17.4202 44.0083 17.6537 43.9504 17.871C43.8924 18.0884 43.8519 18.2838 43.8519 18.2838C43.1869 21.4099 41.1668 23.5329 37.7892 23.5329C32.3815 23.5329 30.3503 18.9486 30.3503 14.4018C30.3503 9.62712 32.3815 5.04411 37.7892 5.04411C40.7784 5.04411 43.3866 7.10607 43.7695 9.81812H49.5978C48.8689 3.51516 43.8078 0 37.7892 0C29.7081 0 24.8046 5.73428 24.3668 13.2887V0.649798H18.3465V17.6117C18.3465 21.6611 16.9664 23.5328 12.6724 23.5328C7.80284 23.5328 7.03628 20.5912 7.03628 17.6117V0.649798H1.01697V17.6117C1.01697 25.023 5.31022 28.5759 12.6724 28.5759C19.9962 28.5759 24.3668 24.9855 24.3668 17.6117V15.4849C24.8046 22.8421 29.7081 28.5759 37.7892 28.5759C41.1097 28.5759 43.9412 27.5089 46.0294 25.6074H46.0293Z" fill="#052049"/>
</svg>
