<svg width="450" height="343" viewBox="0 0 450 343" fill="none" xmlns="http://www.w3.org/2000/svg">
<g clip-path="url(#clip0_104_29711)">
<path d="M227.19 307.602L395.939 213.092" stroke="url(#paint0_linear_104_29711)" stroke-width="8"/>
<path d="M218.289 306.465L49.5403 211.956" stroke="url(#paint1_linear_104_29711)" stroke-width="8"/>
<rect width="35.6853" height="63.1996" rx="8" transform="matrix(0.870623 0.491952 -2.25098e-08 1 50.9429 96.0445)" fill="#4F527D"/>
<rect width="35.6853" height="63.1996" rx="8" transform="matrix(0.870622 0.491952 -2.25098e-08 1 48.79 97.4491)" fill="#4F527D"/>
<rect width="35.6853" height="63.1996" rx="8" transform="matrix(0.870623 0.491952 -2.25098e-08 1 48.79 98.8537)" fill="#F6F6F9"/>
<rect width="24.9797" height="1.40444" rx="0.702218" transform="matrix(0.870622 0.491952 -2.25098e-08 1 53.4497 111.669)" fill="#DAE7EB"/>
<rect width="10.7056" height="1.40444" rx="0.70222" transform="matrix(0.870622 0.491953 -2.25097e-08 1 59.6641 112.371)" fill="#DAE7EB"/>
<rect width="28.5482" height="10.5333" rx="4" transform="matrix(0.870623 0.491952 -2.25098e-08 1 51.8965 119.92)" fill="white"/>
<rect width="7.13706" height="7.02218" rx="3.51109" transform="matrix(0.870622 0.491952 -2.25098e-08 1 68.9834 131.331)" fill="#9499C7"/>
<rect width="14.2741" height="1.40443" rx="0.702217" transform="matrix(0.870623 0.491951 -2.25098e-08 1 53.4497 122.554)" fill="#DAE7EB"/>
<rect width="10.7056" height="0.702219" rx="0.351109" transform="matrix(0.870622 0.491952 -2.25097e-08 1 53.4497 124.66)" fill="#DAE7EB"/>
<rect width="8.92133" height="0.702218" rx="0.351109" transform="matrix(0.870623 0.491951 -2.25098e-08 1 53.4497 126.065)" fill="#DAE7EB"/>
<rect width="7.13706" height="0.702221" rx="0.35111" transform="matrix(0.870621 0.491954 -2.25097e-08 1 53.4497 129.576)" fill="#DAE7EB"/>
<rect width="28.5482" height="10.5333" rx="4" transform="matrix(0.870623 0.491952 -2.25098e-08 1 51.8965 132.209)" fill="white"/>
<rect width="7.13706" height="7.0222" rx="3.5111" transform="matrix(0.870622 0.491953 -2.25097e-08 1 68.9834 143.62)" fill="#47A4DD"/>
<rect width="14.2741" height="1.40443" rx="0.702216" transform="matrix(0.870623 0.491951 -2.25099e-08 1 53.4497 134.842)" fill="#DAE7EB"/>
<rect width="10.7056" height="0.702219" rx="0.351109" transform="matrix(0.870622 0.491952 -2.25097e-08 1 53.4497 136.949)" fill="#DAE7EB"/>
<rect width="8.92132" height="0.702214" rx="0.351107" transform="matrix(0.870624 0.491949 -2.25099e-08 1 53.4497 138.353)" fill="#DAE7EB"/>
<rect width="7.13705" height="0.702214" rx="0.351107" transform="matrix(0.870623 0.49195 -2.25099e-08 1 53.4497 141.864)" fill="#DAE7EB"/>
<rect width="28.5482" height="10.5332" rx="4" transform="matrix(0.870623 0.491951 -2.25098e-08 1 51.8965 144.497)" fill="white"/>
<rect width="7.13706" height="7.02218" rx="3.51109" transform="matrix(0.870622 0.491952 -2.25098e-08 1 68.9834 155.908)" fill="#63A650"/>
<rect width="14.2741" height="1.40443" rx="0.702217" transform="matrix(0.870623 0.491951 -2.25098e-08 1 53.4497 147.131)" fill="#DAE7EB"/>
<rect width="10.7056" height="0.70222" rx="0.35111" transform="matrix(0.870622 0.491953 -2.25097e-08 1 53.4497 149.238)" fill="#DAE7EB"/>
<rect width="8.92133" height="0.70222" rx="0.35111" transform="matrix(0.870622 0.491952 -2.25097e-08 1 53.4497 150.642)" fill="#DAE7EB"/>
<rect width="7.13706" height="0.702221" rx="0.35111" transform="matrix(0.870621 0.491954 -2.25097e-08 1 53.4497 154.153)" fill="#DAE7EB"/>
<rect width="57.0965" height="57.0965" rx="8" transform="matrix(0.870622 -0.491952 0.870622 0.491952 0 212.261)" fill="#6D6D6D"/>
<path fill-rule="evenodd" clip-rule="evenodd" d="M6.96458 208.325C3.11793 210.499 3.11793 214.023 6.96458 216.196L42.7849 236.437C46.6316 238.611 52.8682 238.611 56.7149 236.437L92.5353 216.196C96.3819 214.023 96.3819 210.499 92.5353 208.325L84.0791 203.547L91.5244 202.323C95.8842 201.606 95.8842 200.444 91.5244 199.728L71.4929 196.435L56.7149 188.085C52.8683 185.911 46.6316 185.911 42.785 188.085L28.0406 196.416L7.89354 199.728C3.53377 200.444 3.53377 201.606 7.89354 202.323L15.4023 203.557L6.96458 208.325Z" fill="#D3D4DF"/>
<rect width="57.0547" height="57.0547" rx="8" transform="matrix(0.870623 -0.491952 0.870623 0.491952 0 201.025)" fill="#EDEEF2"/>
<path opacity="0.5" d="M49.4053 206.235C54.3025 206.235 58.2724 203.991 58.2724 201.224C58.2724 198.456 54.3025 196.212 49.4053 196.212C44.5081 196.212 40.5381 198.456 40.5381 201.224C40.5381 203.991 44.5081 206.235 49.4053 206.235Z" fill="#D3D4DF"/>
<path d="M43.087 164.069C42.9884 164.913 41.9593 168.553 42.1798 169.801C42.4003 171.049 45.916 173.135 45.916 173.135L46.4037 170.999L44.4567 169.14L44.982 165.604L43.087 164.069Z" fill="#FFCEA9"/>
<path d="M45.8069 160.48C45.3049 160.268 44.3726 160.221 43.8491 161.059C43.3257 161.898 42.795 164.772 42.7466 165.27C42.7466 165.27 43.4727 166.251 44.5609 166.088L45.8069 160.48Z" fill="#EDEDED"/>
<path d="M49.8222 201.073C50.5874 201.279 51.4047 201.182 52.0973 200.803C52.6441 200.819 55.6184 199.575 56.0235 200.619C56.3821 201.536 55.0895 202.384 54.4011 202.549C52.8987 202.9 51.7872 203.638 51.183 203.763C50.7348 203.856 50.1521 203.917 49.7936 203.572C49.3651 203.158 49.4009 201.622 49.8222 201.073Z" fill="#4F527D"/>
<path d="M51.1833 203.511C51.7875 203.388 52.899 202.655 54.4014 202.298C54.9787 202.162 55.9719 201.544 56.0723 200.807C56.2049 201.651 55.0432 202.4 54.4014 202.551C52.899 202.902 51.7875 203.641 51.1833 203.765C50.7351 203.858 50.1524 203.92 49.7939 203.574C49.7014 203.473 49.6339 203.353 49.5967 203.223C50.1202 203.648 50.7351 203.604 51.1833 203.511Z" fill="#4F527D"/>
<path d="M44.9981 198.956C45.7629 199.163 46.5807 199.067 47.2732 198.687C47.8218 198.703 50.7942 197.459 51.1994 198.512C51.558 199.429 50.2653 200.277 49.5769 200.442C48.0745 200.793 46.963 201.531 46.3606 201.656C45.9106 201.749 45.328 201.81 44.9712 201.463C44.5409 201.038 44.5786 199.503 44.9981 198.956Z" fill="#4F527D"/>
<path d="M46.3605 201.391C46.9629 201.266 48.0745 200.535 49.5768 200.179C50.1541 200.042 51.1473 199.422 51.2477 198.687C51.3822 199.531 50.2186 200.28 49.5768 200.431C48.0745 200.782 46.9629 201.521 46.3605 201.645C45.9106 201.738 45.3279 201.8 44.9711 201.452C44.8773 201.353 44.8096 201.232 44.7739 201.101C45.2956 201.526 45.9106 201.484 46.3605 201.391Z" fill="#4F527D"/>
<path d="M44.9391 191.048C45.0678 189.966 45.2977 188.899 45.6258 187.859C45.6258 187.859 45.4214 185.106 45.3192 182.499C45.2027 179.539 44.1539 176.933 44.9803 174.572L54.3137 176.603C54.3137 176.603 53.7489 188.405 53.6234 189.833C53.556 190.945 53.417 192.051 53.2075 193.146C52.7808 195.438 52.0888 200.887 52.0888 200.887C51.101 201.449 49.8066 201.138 49.8066 201.138C49.8066 201.138 49.8783 194.246 49.941 192.595C50.0181 190.579 50.0809 190.733 50.0809 190.733L49.7725 185.713L49.5717 183.215C49.5717 183.215 49.3135 185.048 49.145 186.686C48.998 188.114 48.6466 189.405 48.2486 192.062C47.908 194.367 47.3522 198.999 47.3522 198.999C46.3662 199.561 45.0216 199.096 45.0216 199.096C45.0216 199.096 44.672 193.048 44.9391 191.048Z" fill="#C22E49"/>
<path d="M46.2986 160.529C47.0157 160.564 47.5392 160.743 47.6289 160.529C47.7048 160.17 47.7587 159.807 47.7902 159.441C47.7077 159.24 47.6378 159.024 47.6378 159.024C46.7414 158.485 46.4635 157.541 46.3452 156.443C46.1462 154.563 47.1825 152.918 49.1025 152.721C50.9079 152.546 52.2364 153.774 52.5895 155.485C52.7814 156.325 53.1614 157.917 52.6469 159.301C52.3601 160.075 51.9907 160.689 51.6196 160.808C51.2626 160.798 50.9064 160.768 50.5529 160.717C50.5529 160.717 50.4579 161.243 50.3916 161.573C50.3252 161.903 50.3521 162.086 51.0334 162.498C51.7147 162.91 50.0025 163.752 48.882 163.67C47.7615 163.587 46.5066 162.926 46.1606 162.217C45.7787 161.436 45.811 160.506 46.2986 160.529Z" fill="#FFCEA9"/>
<path d="M47.3302 160.633C47.133 161.113 47.6332 161.701 48.9689 162.112C50.3045 162.522 50.4228 161.994 50.4228 161.994C50.4228 161.994 52.3806 162.871 53.017 163.301C53.8184 163.851 54.1733 165.437 54.2827 168.114C54.4064 171.213 54.4172 175.81 54.3132 176.603C54.3132 176.603 52.8162 178.063 50.9069 177.909C48.9975 177.754 45.7669 176.096 44.9906 174.813C45.0122 172.097 45.3366 171.655 44.8867 170.09C43.8576 166.507 43.3162 165.04 43.811 162.659C44.2233 160.696 44.8006 160.452 45.593 160.471C46.1746 160.495 46.7545 160.549 47.3302 160.633Z" fill="#F4F4F4"/>
<path d="M57.2957 170.676C55.7235 171.064 55.3541 170.094 55.1444 169.29C54.6442 167.344 54.3753 165.588 54.0024 164.484C53.5631 163.182 53.106 162.974 52.457 162.721C51.6968 162.423 51.0442 163.051 51.297 164.707C51.5964 166.669 51.9891 168.041 52.7313 170.366C52.9267 170.971 53.3641 172.048 54.0221 172.568C54.8324 173.21 56.0551 173.182 57.9035 172.733C58.6923 172.54 59.5565 172.078 61.0481 171.397C61.4479 171.222 61.7652 171.094 62.5271 170.743C63.2891 170.392 64.0958 169.808 64.4992 169.238C64.9026 168.667 64.9546 168.399 64.8721 168.269C64.7699 168.106 64.5871 168.141 64.3719 168.381C64.0615 168.787 63.6782 169.134 63.2407 169.406C63.2407 169.406 63.7373 168.904 64.0062 168.578C64.2475 168.289 64.4478 167.969 64.6014 167.627C64.743 167.293 64.4508 166.842 64.2285 167.079C64.0062 167.316 63.9004 167.558 63.4934 168.036C63.2785 168.289 63.0336 168.517 62.7638 168.715C63.016 168.382 63.2408 168.03 63.4361 167.662C63.6942 167.146 63.6907 166.881 63.6799 166.707C63.6691 166.534 63.4181 166.327 63.1833 166.655C62.9699 166.951 62.8247 167.414 62.3389 167.918C61.9803 168.283 61.6738 168.494 61.6648 168.392C61.6558 168.29 61.8817 168.09 62.0108 167.665C62.1399 167.241 62.0108 166.788 61.7706 166.742C61.5303 166.697 61.5769 166.707 61.3833 167.104C61.1897 167.5 60.8957 167.795 60.6662 168.376C60.4672 168.887 60.3776 169.094 60.019 169.466C59.6443 169.862 58.7909 170.308 57.2957 170.676Z" fill="#FFCEA9"/>
<path d="M51.8741 162.454C52.9247 162.303 53.6669 162.767 54.1295 164.323C54.592 165.879 54.9183 167.158 54.9183 167.158C54.5025 167.745 53.8733 168.154 53.1596 168.301C51.9046 168.599 51.451 168.011 51.451 168.011C51.451 168.011 51.0925 166.379 50.8845 165.269C50.6766 164.158 50.5744 162.647 51.8741 162.454Z" fill="#EDEDED"/>
<path d="M52.5305 155.244C52.5305 155.244 54.1907 152.775 50.5961 152.272C48.0037 151.91 46.3364 153.54 46.1446 155.309C45.9653 156.999 47.0249 158.753 47.7922 159.45C48.1669 159.581 48.9736 159.657 50.0332 159.185C50.0756 158.725 50.0917 158.263 50.0816 157.801C50.0816 157.801 48.8177 155.198 52.5305 155.244Z" fill="#4F527D"/>
<rect width="110.088" height="56.268" rx="8" transform="matrix(0.870623 -0.491952 2.25098e-08 1 314.289 148.309)" fill="#4F527D"/>
<rect width="110.089" height="56.7153" rx="8" transform="matrix(0.870615 -0.487885 2.2698e-08 1 320.039 152.434)" fill="#F6F6F9"/>
<rect width="0.357505" height="27.0818" transform="matrix(0.870595 -0.483995 2.28806e-08 1 326.262 170.814)" fill="#E1ECEF"/>
<rect width="0.357378" height="27.0818" transform="matrix(0.870596 -0.484169 2.28726e-08 1 339.332 163.428)" fill="#E1ECEF"/>
<rect width="0.357347" height="27.0818" transform="matrix(0.870596 -0.484213 2.28706e-08 1 352.402 156.043)" fill="#E1ECEF"/>
<rect width="0.357378" height="27.0818" transform="matrix(0.870596 -0.484169 2.28726e-08 1 365.47 148.658)" fill="#E1ECEF"/>
<rect width="0.35741" height="27.0818" transform="matrix(0.870596 -0.484126 2.28746e-08 1 378.543 141.273)" fill="#E1ECEF"/>
<path d="M326.264 195.082L334.387 181.371L338.76 183.859L345.842 171.906L352.09 168.409L360.213 154.698L365.316 157.599L368.336 152.502L374.376 155.936L378.854 148.378" stroke="#47A4DD" stroke-width="2" stroke-linecap="round" stroke-linejoin="round"/>
<path d="M326.264 195.082L334.387 185.922L338.76 185.941L345.842 177.955L352.09 174.446L360.213 165.285L365.316 165.308L368.336 161.902L374.376 161.929L378.854 156.879" stroke="#63A650" stroke-width="2" stroke-linecap="round" stroke-linejoin="round"/>
<path d="M326.264 195.082L334.387 188.813L338.76 187.259L345.842 181.793L352.09 178.272L360.213 172.002L365.316 170.19L368.336 167.859C368.336 167.859 372.017 166.551 374.376 165.713L378.854 162.257" stroke="#9499C7" stroke-width="2" stroke-linecap="round" stroke-linejoin="round"/>
<rect width="60.4055" height="4.28042" rx="2" transform="matrix(0.870622 -0.490952 2.25558e-08 1 326.262 156.337)" fill="#E1ECEF"/>
<rect width="45.3934" height="2.85419" rx="1.4271" transform="matrix(0.870622 -0.491053 2.25511e-08 1 326.264 162.687)" fill="#E1ECEF"/>
<rect width="22.8755" height="2.85008" rx="1.42504" transform="matrix(0.870621 -0.490346 2.25838e-08 1 388.189 124.182)" fill="#E1ECEF"/>
<rect width="10.008" height="1.42453" rx="0.712265" transform="matrix(0.870621 -0.490171 2.25919e-08 1 327.819 169.919)" fill="#E1ECEF"/>
<rect width="10.0081" height="1.42452" rx="0.712262" transform="matrix(0.870621 -0.490167 2.25921e-08 1 340.89 162.534)" fill="#E1ECEF"/>
<rect width="10.008" height="1.42453" rx="0.712265" transform="matrix(0.870621 -0.49017 2.25919e-08 1 353.96 155.148)" fill="#E1ECEF"/>
<rect width="10.0079" height="1.42452" rx="0.712261" transform="matrix(0.870621 -0.490172 2.25918e-08 1 367.028 147.764)" fill="#E1ECEF"/>
<rect width="5.71886" height="1.42193" rx="0.710966" transform="matrix(0.870619 -0.48928 2.26331e-08 1 327.819 171.681)" fill="#E1ECEF"/>
<rect width="5.71895" height="1.42196" rx="0.71098" transform="matrix(0.870619 -0.489281 2.26331e-08 1 340.89 164.295)" fill="#E1ECEF"/>
<rect width="5.71889" height="1.42195" rx="0.710976" transform="matrix(0.870619 -0.489283 2.2633e-08 1 353.96 156.91)" fill="#E1ECEF"/>
<rect width="5.71883" height="1.42193" rx="0.710966" transform="matrix(0.870619 -0.489282 2.2633e-08 1 367.028 149.525)" fill="#E1ECEF"/>
<rect width="19.3011" height="1.4267" rx="0.71335" transform="matrix(0.870622 -0.490917 2.25574e-08 1 388.189 129.123)" fill="#E1ECEF"/>
<rect width="12.8674" height="1.42547" rx="0.712736" transform="matrix(0.870622 -0.490497 2.25768e-08 1 390.99 155.324)" fill="#E1ECEF"/>
<path d="M404.37 135.552C404.37 140.451 400.887 146.356 396.59 148.74C392.294 151.124 388.811 149.085 388.811 144.186C388.811 139.287 392.294 133.382 396.59 130.998C400.887 128.614 404.37 130.653 404.37 135.552ZM391.144 142.891C391.144 146.32 393.583 147.748 396.59 146.079C399.598 144.41 402.036 140.277 402.036 136.847C402.036 133.418 399.598 131.99 396.59 133.659C393.583 135.328 391.144 139.461 391.144 142.891Z" fill="#47A4DD"/>
<path d="M404.37 135.552C404.37 137.306 403.914 139.275 403.059 141.208C402.204 143.141 400.989 144.952 399.567 146.412C398.146 147.873 396.582 148.916 395.072 149.412C393.563 149.907 392.177 149.831 391.089 149.194C390.001 148.557 389.26 147.388 388.96 145.834C388.66 144.279 388.814 142.41 389.403 140.463C389.992 138.515 390.989 136.576 392.268 134.892C393.547 133.207 395.052 131.852 396.59 130.998L396.59 133.659C395.513 134.257 394.46 135.206 393.565 136.385C392.669 137.564 391.971 138.921 391.559 140.285C391.147 141.648 391.039 142.956 391.249 144.044C391.459 145.132 391.978 145.951 392.739 146.397C393.501 146.842 394.471 146.895 395.528 146.549C396.584 146.202 397.679 145.472 398.674 144.449C399.669 143.427 400.52 142.159 401.118 140.806C401.717 139.453 402.036 138.075 402.036 136.847L404.37 135.552Z" fill="#63A650"/>
<path d="M404.37 135.552C404.37 136.913 404.095 138.407 403.568 139.921C403.04 141.434 402.273 142.925 401.326 144.279C400.379 145.632 399.278 146.812 398.108 147.727C396.938 148.642 395.729 149.267 394.577 149.555L395.181 146.649C395.988 146.448 396.833 146.01 397.653 145.37C398.472 144.729 399.243 143.903 399.905 142.956C400.568 142.008 401.105 140.964 401.474 139.905C401.844 138.846 402.036 137.8 402.036 136.847L404.37 135.552Z" fill="#9499C7"/>
<rect width="57.0961" height="57.0961" rx="8" transform="matrix(0.870623 -0.491951 0.870623 0.491952 350.582 213.27)" fill="#6D6D6D"/>
<path fill-rule="evenodd" clip-rule="evenodd" d="M357.544 209.335C353.697 211.509 353.697 215.033 357.544 217.207L393.323 237.424C397.169 239.597 403.406 239.597 407.253 237.424L443.032 217.207C446.879 215.033 446.879 211.509 443.032 209.335L434.594 204.567L442.103 203.333C446.463 202.616 446.463 201.454 442.103 200.738L421.956 197.426L407.253 189.118C403.406 186.944 397.169 186.944 393.323 189.118L378.62 197.426L358.473 200.738C354.113 201.454 354.113 202.616 358.473 203.333L365.982 204.567L357.544 209.335Z" fill="#D3D4DF"/>
<rect width="57.0961" height="57.0961" rx="8" transform="matrix(0.870623 -0.491952 0.870622 0.491952 350.582 202.035)" fill="#EDEEF2"/>
<path opacity="0.5" d="M401.167 206.543C405.947 206.543 409.821 204.354 409.821 201.652C409.821 198.951 405.947 196.761 401.167 196.761C396.388 196.761 392.514 198.951 392.514 201.652C392.514 204.354 396.388 206.543 401.167 206.543Z" fill="#B9BACB"/>
<path d="M408.32 164.405C408.42 165.25 409.451 168.901 409.23 170.151C409.009 171.401 405.496 173.493 405.496 173.493L405.021 171.35L406.971 169.492L406.444 165.944L408.32 164.405Z" fill="#FFCEA9"/>
<path d="M405.596 160.809C405.939 160.653 406.328 160.626 406.69 160.733C407.052 160.839 407.361 161.072 407.559 161.387C408.073 162.23 408.618 165.107 408.664 165.602C408.664 165.602 407.937 166.588 406.848 166.422L405.596 160.809Z" fill="#EDEDED"/>
<path d="M401.574 201.514C400.807 201.721 399.987 201.624 399.292 201.245C398.742 201.26 395.762 200.012 395.356 201.061C395.001 201.992 396.291 202.821 396.982 202.992C398.488 203.352 399.595 204.086 400.207 204.21C400.659 204.303 401.235 204.365 401.602 204.018C402.031 203.591 401.995 202.052 401.574 201.514Z" fill="#4F527D"/>
<path d="M400.206 203.945C399.602 203.819 398.487 203.085 396.981 202.728C396.403 202.592 395.406 201.974 395.306 201.234C395.172 202.079 396.334 202.831 396.981 202.982C398.487 203.342 399.594 204.076 400.206 204.199C400.658 204.292 401.234 204.355 401.601 204.008C401.694 203.906 401.762 203.785 401.799 203.654C401.575 203.82 401.314 203.933 401.037 203.983C400.761 204.034 400.476 204.021 400.206 203.945Z" fill="#4F527D"/>
<path d="M406.409 199.379C405.642 199.587 404.822 199.49 404.127 199.11C403.577 199.125 400.597 197.875 400.194 198.924C399.836 199.844 401.129 200.684 401.817 200.857C403.323 201.215 404.43 201.951 405.042 202.077C405.494 202.17 406.07 202.23 406.437 201.883C406.866 201.466 406.84 199.927 406.409 199.379Z" fill="#4F527D"/>
<path d="M405.042 201.821C404.438 201.695 403.323 200.961 401.818 200.604C401.239 200.468 400.242 199.849 400.155 199.11C400.022 199.955 401.183 200.707 401.818 200.858C403.323 201.215 404.431 201.952 405.042 202.077C405.494 202.171 406.07 202.231 406.437 201.884C406.529 201.781 406.597 201.66 406.635 201.529C406.411 201.695 406.15 201.808 405.874 201.859C405.597 201.91 405.313 201.897 405.042 201.821Z" fill="#4F527D"/>
<path d="M406.468 191.455C406.339 190.372 406.109 189.303 405.78 188.262C405.78 188.262 405.985 185.495 406.088 182.885C406.204 179.918 407.257 177.305 406.425 174.941L397.077 176.971C397.077 176.971 397.642 188.802 397.771 190.226C397.838 191.34 397.978 192.448 398.19 193.545C398.616 195.843 399.31 201.305 399.31 201.305C400.299 201.869 401.597 201.557 401.597 201.557C401.597 201.557 401.527 194.649 401.463 192.992C401.386 190.98 401.322 191.133 401.322 191.133L401.63 186.104L401.833 183.602C401.833 183.602 402.09 185.44 402.26 187.09C402.409 188.521 402.761 189.816 403.156 192.479C403.498 194.79 404.053 199.434 404.053 199.434C405.042 199.998 406.386 199.53 406.386 199.53C406.386 199.53 406.733 193.467 406.468 191.455Z" fill="#C22E49"/>
<path d="M405.101 160.856C404.389 160.892 403.857 161.07 403.767 160.856C403.693 160.496 403.639 160.131 403.605 159.765C403.688 159.564 403.759 159.348 403.759 159.348C404.654 158.807 404.947 157.861 405.044 156.76C405.245 154.874 404.204 153.239 402.28 153.038C400.468 152.855 399.14 154.099 398.785 155.804C398.592 156.649 398.212 158.241 398.729 159.632C399.014 160.406 399.386 161.025 399.756 161.141C400.115 161.131 400.473 161.1 400.828 161.05C400.828 161.05 400.925 161.573 400.99 161.908C401.054 162.242 401.031 162.41 400.347 162.838C399.664 163.265 401.375 164.095 402.5 164.015C403.626 163.934 404.877 163.26 405.232 162.559C405.625 161.767 405.591 160.834 405.101 160.856Z" fill="#FFCEA9"/>
<path d="M404.073 160.962C404.27 161.443 403.767 162.031 402.431 162.444C401.095 162.856 400.971 162.325 400.971 162.325C400.971 162.325 399.008 163.201 398.368 163.636C397.567 164.186 397.212 165.776 397.102 168.461C396.976 171.567 396.968 176.174 397.071 176.971C397.071 176.971 398.574 178.435 400.493 178.279C402.413 178.123 405.632 176.463 406.434 175.178C406.411 172.455 406.087 172.009 406.537 170.443C407.564 166.849 408.112 165.381 407.611 163.002C407.197 161.033 406.616 160.789 405.812 160.809C405.23 160.829 404.649 160.88 404.073 160.962Z" fill="#F4F4F4"/>
<path d="M394.092 171.549C395.669 171.939 396.037 170.966 396.247 170.154C396.761 168.205 397.018 166.434 397.391 165.338C397.83 164.03 398.293 163.829 398.932 163.578C399.703 163.281 400.358 163.91 400.094 165.572C399.796 167.536 399.4 168.919 398.65 171.242C398.454 171.851 398.015 172.93 397.365 173.45C396.553 174.094 395.33 174.066 393.475 173.616C392.684 173.423 391.813 172.962 390.322 172.278C389.921 172.095 389.611 171.974 388.84 171.622C388.066 171.283 387.388 170.765 386.864 170.113C386.458 169.54 386.407 169.271 386.489 169.14C386.571 169.009 386.774 169.012 387.003 169.256C387.315 169.661 387.7 170.008 388.138 170.279C388.138 170.279 387.64 169.776 387.367 169.449C387.125 169.16 386.925 168.839 386.771 168.496C386.627 168.164 386.92 167.712 387.144 167.948C387.367 168.185 387.475 168.429 387.884 168.906C388.093 169.158 388.333 169.383 388.598 169.578C388.345 169.242 388.12 168.887 387.925 168.517C387.756 168.225 387.673 167.893 387.686 167.558C387.686 167.385 387.943 167.176 388.2 167.508C388.457 167.84 388.549 168.263 389.048 168.765C389.405 169.133 389.713 169.341 389.721 169.241C389.729 169.14 389.503 168.939 389.374 168.514C389.246 168.089 389.374 167.636 389.613 167.584C389.852 167.531 389.808 167.546 390.001 167.946C390.194 168.346 390.489 168.645 390.713 169.221C390.834 169.631 391.057 170.005 391.36 170.312C391.728 170.732 392.583 171.18 394.092 171.549Z" fill="#FFCEA9"/>
<path d="M399.518 163.313C398.464 163.157 397.719 163.623 397.256 165.172C396.794 166.721 396.47 168.021 396.47 168.021C396.887 168.61 397.519 169.02 398.235 169.168C399.494 169.464 399.944 168.878 399.944 168.878C399.944 168.878 400.293 167.249 400.512 166.127C400.73 165.006 400.82 163.497 399.518 163.313Z" fill="#EDEDED"/>
<path d="M398.854 155.558C398.854 155.558 397.192 153.083 400.794 152.58C403.394 152.216 405.072 153.838 405.257 155.623C405.442 157.316 404.376 159.078 403.605 159.775C403.23 159.908 402.418 159.981 401.362 159.523C401.317 159.06 401.299 158.594 401.31 158.128C401.31 158.128 402.577 155.515 398.854 155.558Z" fill="#4F527D"/>
<path d="M407.374 166.525L397.079 175.92L396.478 193.985C396.478 193.985 399.366 195.366 402.644 194.619L403.245 187.683L404.155 193.97L404.047 194.161C405.602 193.479 406.935 192.392 407.901 191.018L407.374 166.525Z" fill="#F4F4F4"/>
<path d="M396.468 168.021L395.954 170.201C395.954 170.201 395.522 171.728 394.412 171.34C393.367 170.91 392.349 170.421 391.362 169.874L390.031 172.547L392.783 173.805C392.783 173.805 396.604 175.138 397.665 173.805C398.726 172.472 399.918 168.874 399.918 168.874L396.468 168.021Z" fill="#EDEDED"/>
<g opacity="0.2">
<rect width="57.0965" height="57.0965" rx="8" transform="matrix(0.870623 -0.491952 0.870623 0.491952 172.376 101.341)" fill="#6D6D6D"/>
<path fill-rule="evenodd" clip-rule="evenodd" d="M179.341 97.4037C175.494 99.5773 175.494 103.101 179.341 105.275L215.161 125.515C219.008 127.689 225.244 127.689 229.091 125.515L264.911 105.275C268.758 103.101 268.758 99.5773 264.911 97.4037L256.455 92.6256L263.901 91.4017C268.26 90.685 268.26 89.5231 263.901 88.8064L243.869 85.5136L229.091 77.1631C225.244 74.9895 219.008 74.9895 215.161 77.1631L200.416 85.4948L180.27 88.8064C175.91 89.5231 175.91 90.685 180.27 91.4017L187.778 92.6359L179.341 97.4037Z" fill="#D3D4DF"/>
<rect width="57.0547" height="57.0547" rx="8" transform="matrix(0.870622 -0.491952 0.870622 0.491952 172.376 90.1054)" fill="#EDEEF2"/>
<path d="M251.691 58.5891L222.024 41.9974L192.357 58.5891L222.024 75.1807L251.691 58.5891Z" fill="url(#paint2_linear_104_29711)"/>
<path d="M251.691 58.5891L222.024 41.9974L192.357 58.5891L222.024 75.1807L251.691 58.5891Z" fill="#D0566C"/>
<path d="M222.024 75.1805L192.357 58.5889V91.5129L222.024 108.105V75.1805Z" fill="#C22E49"/>
<path d="M222.022 75.1805L251.689 58.5889V91.5129L222.022 108.105V75.1805Z" fill="#C22E49"/>
<path d="M208.25 4.44419L200.303 0L192.357 4.44419L200.303 8.88839L208.25 4.44419Z" fill="#D0566C"/>
<path d="M200.303 8.88871L192.357 4.44452V13.2635L200.303 17.7076V8.88871Z" fill="#C22E49"/>
<path d="M200.303 8.88871L208.25 4.44452V13.2635L200.303 17.7076V8.88871Z" fill="#C22E49"/>
<path d="M247.04 43.3205L243.747 41.4789L240.454 43.3205L243.747 45.162L247.04 43.3205Z" fill="#D0566C"/>
<path d="M243.747 45.1616L240.454 43.3201V46.9744L243.747 48.816V45.1616Z" fill="#C22E49"/>
<path d="M243.749 45.1616L247.042 43.3201V46.9744L243.749 48.816V45.1616Z" fill="#C22E49"/>
<path d="M227.321 28.8872L222.023 25.9244L216.726 28.8872L222.023 31.85L227.321 28.8872Z" fill="#D0566C"/>
<path d="M222.023 31.8504L216.726 28.8876V34.7669L222.023 37.7297V31.8504Z" fill="#C22E49"/>
<path d="M222.023 31.8504L227.321 28.8876V34.7669L222.023 37.7297V31.8504Z" fill="#C22E49"/>
<path d="M243.743 14.8885L238.446 11.9257L233.148 14.8885L238.446 17.8513L243.743 14.8885Z" fill="#D0566C"/>
<path d="M238.446 17.8508L233.148 14.888V20.7673L238.446 23.7301V17.8508Z" fill="#C22E49"/>
<path d="M238.446 17.8508L243.743 14.888V20.7673L238.446 23.7301V17.8508Z" fill="#C22E49"/>
<path d="M216.727 41.6408L208.25 36.9003L199.774 41.6408L208.25 46.3813L216.727 41.6408Z" fill="#D0566C"/>
<path d="M208.25 46.3813L199.774 41.6409V51.0477L208.25 55.7882V46.3813Z" fill="#C22E49"/>
<path d="M208.25 46.3813L216.726 41.6409V51.0477L208.25 55.7882V46.3813Z" fill="#C22E49"/>
</g>
<rect width="57.0916" height="57.0916" rx="8" transform="matrix(0.870691 -0.49183 0.870691 0.49183 171.9 315.201)" fill="#4F527D"/>
<path fill-rule="evenodd" clip-rule="evenodd" d="M178.865 311.266C175.018 313.439 175.018 316.962 178.865 319.135L214.643 339.345C218.49 341.519 224.727 341.519 228.574 339.345L264.353 319.135C268.2 316.962 268.2 313.439 264.353 311.266L255.915 306.5L263.424 305.266C267.784 304.549 267.784 303.388 263.424 302.671L243.276 299.361L228.574 291.056C224.727 288.883 218.49 288.883 214.643 291.056L199.942 299.361L179.794 302.671C175.434 303.388 175.434 304.549 179.794 305.266L187.303 306.5L178.865 311.266Z" fill="#D3D4DF"/>
<rect width="57.0917" height="57.0917" rx="8" transform="matrix(0.870691 -0.491831 0.870691 0.491831 171.9 303.969)" fill="#EDEEF2"/>
<path opacity="0.5" d="M221.588 291.98C225.651 291.98 228.945 290.119 228.945 287.824C228.945 285.529 225.651 283.668 221.588 283.668C217.524 283.668 214.23 285.529 214.23 287.824C214.23 290.119 217.524 291.98 221.588 291.98Z" fill="#B9BACB"/>
<path d="M221.265 248.961C221.56 248.498 223.814 248.193 224.556 250.062C224.835 250.769 224.793 252.581 225.03 253.716C225.266 254.852 225.817 255.499 226.002 256.423C226.187 257.346 225.879 258.891 223.606 259.167C221.333 259.443 219.585 258.659 219.047 257.949C218.509 257.238 218.499 255.728 219.047 254.925C219.595 254.123 220.02 253.456 220.02 252.387L221.265 248.961Z" fill="#4F527D"/>
<path d="M218.565 256.778C218.565 256.778 218.03 260.48 219.042 263.085C220.054 265.689 219.771 262.409 219.771 262.409L219.528 261.629C219.528 261.629 219.327 258.615 219.412 257.876C219.496 257.136 219.476 256.502 219.528 256.442C219.58 256.381 219.33 256.264 219.223 256.248C219.116 256.232 218.565 256.778 218.565 256.778Z" fill="#FFCEA9"/>
<path d="M222.753 248.64C222.753 248.64 221.057 248.161 220.029 249.059C219.689 249.365 219.442 249.756 219.314 250.189C219.186 250.623 219.182 251.082 219.302 251.518C219.439 252.041 219.714 252.758 220.139 252.787C220.564 252.815 222.753 248.64 222.753 248.64Z" fill="#4F527D"/>
<path d="M223.401 253.184C223.401 253.184 223.29 255.033 223.326 255.17C223.362 255.306 224.065 255.436 224.266 255.598C224.467 255.76 223.238 257.635 222.613 257.914C221.987 258.193 220.057 257.482 219.925 256.54C219.801 255.677 220.476 255.005 220.738 254.77C220.916 254.758 221.093 254.758 221.27 254.77L221.325 253.875C222.172 253.58 223.401 253.184 223.401 253.184Z" fill="#FFCEA9"/>
<path d="M223.659 255.331C224.19 255.414 224.797 255.69 224.881 255.966C225.1 256.991 225.048 258.053 224.729 259.053C224.268 260.242 223.96 261.001 223.694 261.515C223.694 261.515 221.395 262.466 219.544 261.353C219.544 261.353 219.414 260.084 219.408 259.395C217.696 257.936 219.158 256.134 220.607 254.735C220.781 254.722 220.956 254.722 221.129 254.735C221.129 254.735 219.832 256.232 220.737 257.083C222.66 256.515 223.043 255.671 223.659 255.331Z" fill="#F4F4F4"/>
<path d="M219.87 250.874C220.061 249.685 220.937 248.787 222.192 248.86C222.7 248.883 223.187 249.064 223.584 249.375C223.981 249.686 224.267 250.112 224.401 250.592C224.536 251.072 224.511 251.581 224.331 252.047C224.152 252.512 223.826 252.91 223.401 253.184C223.358 253.363 223.294 253.536 223.21 253.701C222.766 254.209 221.589 254.529 221.196 254.532C220.872 254.532 220.57 254.231 220.256 253.72C219.598 252.641 219.766 251.461 219.87 250.874Z" fill="#FFCEA9"/>
<path d="M222.577 248.882C223.456 249.05 224.179 249.291 224.419 250.135C224.581 250.719 224.795 251.826 224.591 252.292L224.468 252.632L223.401 253.184C223.401 253.184 222.905 252.778 223.06 251.598C223.053 251.437 223.002 251.281 222.911 251.147C222.844 251.036 222.793 250.915 222.762 250.789C222.636 250.469 222.39 250.208 222.075 250.059C221.28 249.624 220.129 249.999 219.96 250.157C220.179 249.682 220.559 249.294 221.036 249.062C221.513 248.829 222.058 248.766 222.577 248.882Z" fill="#4F527D"/>
<path d="M224.943 263.97C225.14 262.764 225.51 261.984 225.338 261.321C224.955 259.98 224.454 258.675 223.84 257.419C223.451 256.67 223.571 256.15 223.973 255.852C224.427 255.534 224.858 255.664 225.27 256.486C225.786 257.53 226.363 258.602 226.645 260.157C226.826 261.162 226.813 262.192 226.606 263.193C226.431 264.274 226.081 264.884 225.663 265.899C225.546 266.191 224.774 264.998 224.943 263.97Z" fill="#FFCEA9"/>
<path d="M224.176 286.441C223.731 286.793 223.037 286.549 223.005 286.581C222.489 287.016 221.947 287.423 221.384 287.799C221.105 288.011 220.674 288.297 220.751 288.709C220.891 289.442 222.091 289.217 222.545 288.992C222.999 288.766 223.365 288.395 223.793 288.135C224.101 287.948 224.399 287.853 224.441 287.475C224.471 287.247 224.253 286.431 224.176 286.441Z" fill="#4F527D"/>
<path d="M224.436 287.323C224.377 287.684 224.082 287.786 223.787 287.957C223.353 288.22 222.97 288.591 222.516 288.826C222.062 289.061 221.054 289.239 220.762 288.715C220.921 289.423 222.101 289.201 222.548 288.979C222.996 288.756 223.369 288.382 223.797 288.122C224.105 287.935 224.403 287.84 224.445 287.462C224.446 287.415 224.442 287.369 224.436 287.323Z" fill="#4F527D"/>
<path d="M221.053 285.828C220.648 286.146 220.032 285.971 220.002 286.003C219.527 286.399 219.031 286.77 218.514 287.113C218.258 287.307 217.866 287.57 217.934 287.944C218.063 288.617 219.163 288.411 219.578 288.205C219.993 287.998 220.33 287.659 220.722 287.421C221.001 287.25 221.277 287.161 221.322 286.815C221.348 286.606 221.128 285.822 221.053 285.828Z" fill="#4F527D"/>
<path d="M221.312 286.675C221.257 287.009 220.988 287.097 220.709 287.269C220.31 287.51 219.96 287.859 219.545 288.065C219.13 288.271 218.205 288.443 217.923 287.963C218.069 288.598 219.149 288.408 219.545 288.205C219.94 288.002 220.297 287.659 220.689 287.421C220.968 287.25 221.244 287.161 221.289 286.815C221.301 286.769 221.309 286.723 221.312 286.675Z" fill="#4F527D"/>
<path d="M218.658 265.588C218.856 264.087 219.42 261.908 219.42 261.908C219.955 262.153 220.533 262.295 221.123 262.323C221.986 262.318 222.846 262.235 223.694 262.076C223.971 262.55 224.274 263.008 224.602 263.45C225.043 264.049 225.899 265.353 225.695 267.666C225.562 269.166 224.699 275.546 224.699 275.546C225.034 276.619 225.212 277.733 225.228 278.855C225.15 280.187 224.97 281.512 224.689 282.818L224.177 286.441C224.177 286.441 223.493 286.923 223.006 286.58L223.068 283.037C223.01 282.17 222.922 280.892 222.864 280.073C222.773 278.744 222.54 276.631 222.459 276.102C222.377 275.572 222.215 274.652 222.134 273.617C222.053 272.583 221.654 267.336 221.654 267.336L221.599 268.319C221.599 268.319 221.544 269.906 221.311 271.885C221.077 273.865 220.986 274.741 220.986 274.741C221.208 275.137 221.364 275.565 221.447 276.01C221.489 276.435 221.985 279.817 221.687 281.517L221.084 285.86C220.931 285.963 220.757 286.028 220.573 286.052C220.39 286.076 220.204 286.057 220.03 285.997L219.67 281.606C219.43 279.934 218.921 276.393 218.843 275.933C218.67 275.006 218.568 274.068 218.538 273.126C218.418 271.225 218.464 267.089 218.658 265.588Z" fill="#FFCEA9"/>
<path d="M223.696 261.524L225.015 264.119C225.015 264.119 227.032 267.006 224.944 274.424L225.336 276.711C225.336 276.711 221.384 279.195 218.738 276.711C218.738 276.711 217.82 269.855 218.31 266.695C218.58 264.877 218.992 263.081 219.542 261.324C219.542 261.324 220.191 262.026 223.521 261.562" fill="#C22E49"/>
<path d="M226.065 257.958C226.065 257.958 225.147 258.853 224.058 258.742L223.536 256.991C223.536 256.991 223.211 256.08 223.99 255.68C224.768 255.281 225.608 256.175 226.065 257.958Z" fill="#EDEDED"/>
<path d="M220.608 254.744C220.608 254.744 219.557 254.427 218.445 256.708L218.86 256.952C219.381 256.171 219.966 255.433 220.608 254.744Z" fill="#EDEDED"/>
<path opacity="0.5" d="M192.954 308.049C197.449 308.049 201.094 305.991 201.094 303.451C201.094 300.912 197.449 298.854 192.954 298.854C188.458 298.854 184.814 300.912 184.814 303.451C184.814 305.991 188.458 308.049 192.954 308.049Z" fill="#B9BACB"/>
<path opacity="0.5" d="M247.14 308.196C251.635 308.196 255.28 306.137 255.28 303.598C255.28 301.059 251.635 299 247.14 299C242.644 299 239 301.059 239 303.598C239 306.137 242.644 308.196 247.14 308.196Z" fill="#B9BACB"/>
<path d="M189.12 302.297C189.676 302.74 190.494 302.336 190.533 302.378C191.186 302.968 191.87 303.524 192.582 304.045C192.941 304.312 193.468 304.666 193.367 305.179C193.195 306.091 191.699 305.811 191.132 305.53C190.566 305.249 190.106 304.789 189.572 304.477C189.192 304.245 188.819 304.126 188.758 303.656C188.707 303.357 189.009 302.287 189.12 302.297Z" fill="#4F527D"/>
<path d="M188.761 303.452C188.836 303.901 189.205 304.027 189.582 304.256C190.127 304.586 190.604 305.063 191.168 305.34C191.731 305.617 192.99 305.856 193.356 305.203C193.159 306.084 191.688 305.807 191.128 305.53C190.569 305.252 190.102 304.789 189.568 304.477C189.187 304.245 188.814 304.126 188.753 303.655C188.75 303.587 188.753 303.519 188.761 303.452Z" fill="#4F527D"/>
<path d="M193.921 300.545C194.477 300.988 195.446 300.507 195.489 300.545C196.065 301.118 196.675 301.659 197.315 302.164C197.674 302.427 198.201 302.785 198.104 303.297C197.928 304.21 196.432 303.929 195.869 303.648C195.306 303.367 194.843 302.904 194.309 302.595C193.928 302.364 193.552 302.244 193.494 301.774C193.458 301.476 193.824 300.535 193.921 300.545Z" fill="#4F527D"/>
<path d="M193.507 301.634C193.582 302.083 193.951 302.209 194.328 302.437C194.873 302.767 195.351 303.245 195.914 303.526C196.477 303.806 197.736 304.038 198.102 303.385C197.905 304.266 196.434 303.992 195.874 303.715C195.315 303.438 194.852 302.971 194.317 302.644C193.934 302.413 193.56 302.293 193.499 301.823C193.497 301.76 193.499 301.697 193.507 301.634Z" fill="#4F527D"/>
<path d="M189.071 282.262C189.099 283.084 189.358 286.65 189.476 288.535C189.595 290.419 189.62 292.746 189.62 292.746C189.62 292.746 189.286 294.119 189.071 295.737C188.856 297.355 189.071 302.451 189.071 302.451C189.284 302.587 189.534 302.66 189.788 302.66C190.043 302.66 190.292 302.587 190.506 302.451C190.506 302.451 191.395 298.369 191.804 296.53C192.213 294.691 192.289 293.631 192.5 292.494C192.759 291.114 193.315 284.681 193.315 284.681H193.537L194.133 291.943C193.949 292.478 193.823 293.031 193.756 293.592C193.595 294.775 193.928 300.728 193.928 300.728C194.165 300.857 194.434 300.919 194.705 300.908C194.976 300.897 195.239 300.813 195.464 300.665C195.464 300.665 196.945 292.782 196.945 291.585C196.945 290.788 196.809 280.328 196.809 280.328L189.071 282.262Z" fill="#C22E49"/>
<path d="M191.086 266.401C191.086 266.401 191.179 268.191 191.14 268.349C191.1 268.507 190.3 269.03 190.064 269.219C189.827 269.409 191.33 270.841 192.058 271.192C192.786 271.543 195.093 270.659 195.133 269.549C195.172 268.44 194.738 267.51 194.386 267.461C194.035 267.412 191.086 266.401 191.086 266.401Z" fill="#FFCEA9"/>
<path d="M196.091 269.721C196.198 268.932 195.667 268.181 196.18 267.552C197.974 269.286 197.759 273.87 198.168 276.801C199.51 278.17 202.204 279.521 202.961 279.855C203.097 279.918 203.219 279.984 203.19 280.128C203.089 280.616 202.874 281.075 202.563 281.469C200.769 280.718 199.495 280.286 197.267 278.215C197.056 277.991 196.868 277.748 196.704 277.489C196.069 275.622 195.908 271.083 196.091 269.721Z" fill="#FFCEA9"/>
<path d="M190.881 268.658C190.881 268.658 192.208 270.592 194.059 270.764C194.644 270.203 194.694 268.198 193.887 267.556C193.887 267.556 194.63 266.97 195.139 267.082C195.691 267.408 196.102 267.92 196.294 268.521C196.763 269.852 196.985 271.255 196.947 272.663C196.915 274.562 196.947 280.364 196.947 280.364C196.947 280.364 196.689 281.589 195.013 282.501C193.338 283.414 192.093 283.505 190.956 283.245C190.02 283.031 189.245 282.708 188.922 282.045C189.008 280.711 189.614 277.24 189.388 275.566C189.162 273.891 188.8 272.645 188.707 271.291C188.613 269.936 188.886 269.964 189.582 269.483C189.994 269.177 190.428 268.902 190.881 268.658Z" fill="#F4F4F4"/>
<path d="M195.218 263.734C194.999 262.33 193.977 261.277 192.51 261.371C191.921 261.402 191.357 261.612 190.897 261.973C190.437 262.334 190.104 262.827 189.946 263.382C189.787 263.937 189.811 264.528 190.014 265.069C190.216 265.611 190.587 266.077 191.075 266.401C191.125 266.611 191.201 266.815 191.301 267.008C191.817 267.601 193.385 267.966 193.833 267.903C194.102 267.882 194.357 267.783 194.567 267.619C194.777 267.454 194.931 267.232 195.01 266.98C195.498 265.878 195.344 264.418 195.218 263.734Z" fill="#FFCEA9"/>
<path d="M191.086 266.401L191.218 265.187C191.218 265.187 190.196 262.624 192.6 263.119C194.178 263.446 194.573 263.586 195.053 262.551C195.534 261.515 193.841 260.582 191.825 260.841C191.132 260.912 190.492 261.235 190.031 261.746C189.57 262.257 189.321 262.919 189.335 263.6C189.392 264.358 189.6 265.903 191.086 266.401Z" fill="#4F527D"/>
<path d="M188.281 270.49C188.974 270.297 188.446 270.455 188.974 270.297C190.767 272.028 190.556 274.997 190.965 277.928C191.962 279.546 195.661 281.722 195.661 281.722C195.707 282.035 195.596 282.126 195.194 282.775C193.135 282.003 191.263 280.821 189.695 279.304C189.605 279.223 189.476 279.199 189.44 279.09C188.805 277.208 188.098 271.856 188.281 270.49Z" fill="#FFCEA9"/>
<path d="M204.741 274.109L202.054 283.101L196.152 285.407L198.305 276.647L204.741 274.109Z" fill="#F4F4F4"/>
<path d="M194.732 281.796C194.818 281.487 195.044 281.564 195.302 281.641C195.579 281.751 195.882 281.777 196.174 281.715C196.401 281.606 196.611 281.467 196.798 281.301C196.917 281.23 197.054 281.193 197.193 281.192C197.193 281.269 197.056 281.725 197.056 281.725C197.056 281.725 198.352 281.725 198.491 281.725C198.536 281.717 198.582 281.723 198.623 281.742C198.664 281.761 198.698 281.791 198.721 281.83C198.743 281.869 198.753 281.913 198.748 281.957C198.744 282.001 198.726 282.043 198.696 282.076H198.786C199.048 282.02 199.144 282.427 198.897 282.477L198.682 282.508C198.854 282.575 198.897 282.859 198.682 282.894H198.613C198.583 282.899 198.551 282.899 198.52 282.894H198.445C198.452 282.924 198.452 282.955 198.445 282.986C198.439 283.016 198.427 283.044 198.408 283.07C198.39 283.095 198.367 283.116 198.34 283.131C198.312 283.147 198.282 283.157 198.251 283.161C197.62 283.242 196.691 283.487 196.12 282.978C195.724 282.941 195.337 282.839 194.976 282.677C194.635 282.508 194.624 282.161 194.732 281.796Z" fill="#FFCEA9"/>
<path d="M201.184 281.059H201.274C201.236 281.033 201.208 280.996 201.194 280.953C201.179 280.911 201.179 280.865 201.193 280.822C201.207 280.78 201.234 280.742 201.272 280.716C201.309 280.69 201.353 280.676 201.399 280.676C201.532 280.676 202.863 280.402 202.863 280.402L203.024 279.869C203.024 279.837 203.254 279.974 203.261 279.981C203.374 280.052 203.469 280.148 203.538 280.26C203.608 280.373 203.65 280.499 203.662 280.63C203.669 280.815 203.639 280.999 203.573 281.171C203.507 281.344 203.407 281.503 203.279 281.638C203.042 281.867 202.726 282 202.393 282.01C202.231 282.01 202.077 282.027 201.937 282.041C201.906 282.043 201.874 282.039 201.844 282.028C201.815 282.018 201.787 282.002 201.764 281.981C201.741 281.96 201.723 281.934 201.71 281.906C201.697 281.878 201.69 281.847 201.69 281.817H201.647C201.616 281.825 201.584 281.825 201.553 281.817H201.485C201.259 281.817 201.241 281.543 201.396 281.445H201.177C200.89 281.469 200.915 281.055 201.184 281.059Z" fill="#FFCEA9"/>
<path d="M196.845 270.893C197.208 270.877 197.552 270.727 197.806 270.472C197.756 269.805 196.888 267.282 195.137 267.092C195.607 267.422 195.978 267.867 196.213 268.384C196.489 269.203 196.7 270.042 196.845 270.893Z" fill="#EDEDED"/>
<path d="M187.967 274.228C187.967 274.228 189.707 274.818 190.934 273.828C191.07 273.603 190.216 270.704 190.216 270.704C190.216 270.704 189.499 269.223 188.344 269.813C187.189 270.402 187.967 274.228 187.967 274.228Z" fill="#EDEDED"/>
<path opacity="0.5" d="M221.626 324.98C225.554 324.98 228.739 323.181 228.739 320.962C228.739 318.742 225.554 316.943 221.626 316.943C217.697 316.943 214.512 318.742 214.512 320.962C214.512 323.181 217.697 324.98 221.626 324.98Z" fill="#B9BACB"/>
<path d="M225.73 290.081C226.357 290.256 226.708 290.928 227.254 292.366C227.708 293.671 227.929 295.043 227.909 296.422C227.733 297.777 227.16 298.833 225.774 299.931L225.112 298.744C225.112 298.744 226.47 297.572 226.608 296.216C226.686 295.455 225.774 292.891 225.774 292.82C225.774 292.75 225.73 290.081 225.73 290.081Z" fill="#FFCEA9"/>
<path d="M220.301 321.326C220.093 321.388 219.872 321.406 219.656 321.377C219.44 321.348 219.232 321.274 219.047 321.16C218.709 321.16 216.718 320.397 216.467 321.044C216.248 321.611 217.047 322.139 217.47 322.24C218.411 322.458 219.088 322.912 219.464 322.989C219.607 323.038 219.759 323.053 219.908 323.033C220.058 323.013 220.2 322.957 220.323 322.872C220.584 322.614 220.562 321.663 220.301 321.326Z" fill="#4F527D"/>
<path d="M219.458 322.832C219.081 322.755 218.395 322.302 217.464 322.081C217.109 321.998 216.492 321.614 216.432 321.16C216.348 321.682 217.059 322.145 217.464 322.24C218.404 322.458 219.081 322.912 219.458 322.989C219.6 323.038 219.752 323.053 219.902 323.033C220.051 323.013 220.194 322.958 220.317 322.872C220.373 322.809 220.415 322.735 220.439 322.654C220.301 322.756 220.14 322.826 219.97 322.857C219.8 322.887 219.624 322.879 219.458 322.832Z" fill="#4F527D"/>
<path d="M225.358 318.756C225.176 318.817 224.981 318.834 224.791 318.806C224.6 318.777 224.419 318.704 224.264 318.593C223.95 318.593 221.903 317.863 221.662 318.486C221.452 319.032 222.22 319.535 222.627 319.633C223.524 319.845 224.195 320.283 224.546 320.357C224.683 320.404 224.83 320.418 224.974 320.399C225.118 320.379 225.255 320.326 225.374 320.243C225.631 319.995 225.609 319.081 225.358 318.756Z" fill="#4F527D"/>
<path d="M224.545 320.206C224.184 320.13 223.523 319.694 222.626 319.483C222.284 319.4 221.685 319.032 221.632 318.593C221.554 319.096 222.259 319.544 222.626 319.633C223.523 319.844 224.193 320.283 224.545 320.357C224.682 320.404 224.829 320.418 224.973 320.399C225.117 320.379 225.254 320.326 225.372 320.243C225.428 320.183 225.467 320.11 225.488 320.032C225.356 320.131 225.202 320.199 225.038 320.229C224.874 320.259 224.705 320.252 224.545 320.206Z" fill="#4F527D"/>
<path d="M226.025 313.814C226.026 313.067 225.895 312.325 225.637 311.621C225.637 311.621 225.894 308.618 226.091 306.646C226.38 303.738 226.837 303.449 226.718 301.682C226.599 300.044 225.646 298.983 225.398 297.873L220.548 298.247C220.548 298.247 220.125 299.594 219.579 302.274C219.034 304.955 218.996 308.143 219.04 312.363C219.04 313.452 218.852 314.397 218.915 317.109C218.959 318.931 219.065 321.164 219.065 321.164C219.774 321.759 220.266 321.32 220.266 321.32C220.266 321.32 221.52 315.922 221.692 314.682C221.824 313.997 221.766 313.289 221.523 312.633C221.523 312.633 221.887 310.937 222.15 309.603C222.464 307.974 223.295 304.459 223.295 304.459C223.295 304.459 223.153 309.86 223.395 310.925C223.636 311.989 223.677 312.916 223.884 314.363C224.132 316.112 224.245 318.673 224.245 318.673C224.984 319.133 225.314 318.781 225.314 318.781C225.314 318.781 226.025 315.345 226.025 313.814Z" fill="#FFCEA9"/>
<path d="M225.386 297.873C225.894 298.382 226.734 299.931 226.734 302.274C226.734 304.913 226.342 304.379 226.154 307.284L225.966 310.189C225.966 310.189 221.912 312.081 219.021 310.327C218.764 309.778 219.119 303.667 219.627 301.495C220.134 299.324 220.482 298.259 220.482 298.259C220.482 298.259 224.21 299.244 225.386 297.873Z" fill="#C22E49"/>
<path d="M225.446 290.053C224.411 289.992 224.311 290.161 224.229 289.802C224.201 289.673 224.141 288.783 224.141 288.783C224.237 288.665 224.324 288.54 224.402 288.409C224.749 288.204 225.043 287.923 225.26 287.589C225.478 287.254 225.613 286.874 225.656 286.48C225.728 285.795 225.52 285.11 225.077 284.575C224.634 284.04 223.992 283.699 223.292 283.627C221.922 283.489 220.912 284.431 220.642 285.725C220.498 286.363 220.348 287.667 220.755 288.713C220.984 289.305 221.197 289.719 221.743 289.697C221.925 289.682 222.105 289.651 222.282 289.605C222.311 289.851 222.322 290.098 222.314 290.345C222.314 290.605 222.345 290.734 221.824 291.047C221.304 291.36 222.608 291.998 223.458 291.937C224.308 291.875 225.261 291.372 225.524 290.835C225.812 290.234 225.932 290.081 225.446 290.053Z" fill="#FFCEA9"/>
<path d="M226.205 294.535C226.205 294.535 227.375 294.277 227.911 293.768C227.911 293.768 227.215 291.621 226.769 291.087C226.324 290.553 225.892 293.998 225.892 293.998L226.205 294.535Z" fill="#EDEDED"/>
<path d="M224.416 290.032C224.608 290.265 224.63 290.557 223.893 290.741C223.357 290.89 222.784 290.846 222.278 290.618C221.698 290.858 221.139 291.148 220.61 291.483C219.983 293.508 220.488 293.768 220.225 295.219C220.328 295.949 220.45 297.833 220.482 298.259C221.889 299.222 224.746 298.894 225.385 297.873C225.397 297.533 225.429 297.193 225.482 296.857C226.153 294.422 226.677 293.79 226.492 291.949C226.385 290.9 226.301 290.373 225.73 290.09C225.297 290.015 224.855 289.995 224.416 290.032Z" fill="#F4F4F4"/>
<path d="M211.493 297.952C211.812 298.019 212.127 298.107 212.434 298.216C212.722 298.364 213.032 298.468 213.352 298.523C213.697 298.575 214.236 298.4 215.167 297.971C216.187 297.459 217.11 296.781 217.895 295.964C218.788 294.926 219.585 293.812 220.278 292.636C220.682 291.915 221.193 291.734 221.639 291.876C222.172 292.047 222.237 292.566 221.639 293.535C220.874 294.801 219.958 295.974 218.911 297.029C218.085 297.837 217.123 298.501 216.067 298.992C215.314 299.375 214.509 299.649 213.675 299.805C213.384 299.866 213.186 299.986 212.647 300.17C212.111 300.361 211.535 300.423 210.969 300.351C210.502 300.262 210.342 300.158 210.324 300.044C210.305 299.931 210.399 299.851 210.618 299.866C210.964 299.92 211.317 299.912 211.659 299.842C211.659 299.842 211.176 299.826 210.891 299.793C210.635 299.765 210.384 299.703 210.145 299.609C209.916 299.513 209.831 299.161 210.063 299.173C210.295 299.185 210.452 299.253 210.879 299.296C211.103 299.322 211.331 299.322 211.556 299.296C211.274 299.25 210.996 299.183 210.725 299.093C210.501 299.035 210.299 298.913 210.145 298.744C210.066 298.655 210.088 298.437 210.361 298.492C210.69 298.604 211.031 298.677 211.377 298.71C211.725 298.71 211.973 298.682 211.929 298.63C211.885 298.578 211.678 298.584 211.415 298.44C211.151 298.296 210.995 298.017 211.101 297.882C211.208 297.747 211.208 297.848 211.493 297.952Z" fill="#FFCEA9"/>
<path d="M221.078 294.707C220.263 294.591 219.51 294.217 218.933 293.642L220.231 291.882C220.231 291.882 220.962 290.98 221.927 291.489C221.927 291.489 222.655 291.566 221.927 293.056C221.68 293.623 221.396 294.175 221.078 294.707Z" fill="#EDEDED"/>
<path d="M220.391 284.961C220.443 284.659 220.614 284.388 220.867 284.207C221.12 284.026 221.435 283.949 221.746 283.992C222.199 283.695 222.746 283.565 223.288 283.627C224.52 283.753 225.326 284.547 225.699 285.744C225.882 286.344 226.004 286.96 226.063 287.584C226.433 290.268 227.43 292.397 226.499 293.194C225.567 293.992 223.015 294.498 221.949 293.998C220.883 293.498 222.827 288.872 220.717 286.302C220.222 285.691 220.175 285.265 220.391 284.961Z" fill="#4F527D"/>
<path d="M251.561 303.797C251.006 304.239 250.186 303.834 250.145 303.874C249.492 304.468 248.807 305.025 248.093 305.545C247.746 305.813 247.216 306.169 247.304 306.682C247.479 307.6 248.978 307.325 249.544 307.036C250.109 306.746 250.572 306.291 251.107 305.963C251.488 305.732 251.865 305.612 251.925 305.14C251.96 304.857 251.659 303.784 251.561 303.797Z" fill="#4F527D"/>
<path d="M251.914 304.951C251.84 305.404 251.476 305.528 251.09 305.758C250.546 306.09 250.066 306.566 249.501 306.847C248.979 307.105 247.675 307.362 247.309 306.708C247.508 307.591 248.981 307.315 249.54 307.036C250.099 306.757 250.568 306.292 251.103 305.964C251.485 305.732 251.862 305.612 251.921 305.14C251.926 305.077 251.924 305.014 251.914 304.951Z" fill="#4F527D"/>
<path d="M246.736 302.04C246.179 302.484 245.201 301.999 245.166 302.04C244.588 302.614 243.976 303.155 243.334 303.659C242.987 303.927 242.446 304.284 242.545 304.796C242.718 305.712 244.219 305.44 244.785 305.15C245.35 304.86 245.811 304.406 246.348 304.078C246.729 303.846 247.104 303.726 247.163 303.254C247.201 302.971 246.835 302.029 246.736 302.04Z" fill="#4F527D"/>
<path d="M247.148 303.13C247.074 303.582 246.71 303.707 246.324 303.936C245.78 304.269 245.3 304.745 244.735 305.026C244.213 305.283 242.909 305.54 242.542 304.886C242.742 305.77 244.215 305.493 244.774 305.214C245.333 304.936 245.802 304.47 246.337 304.142C246.718 303.91 247.096 303.79 247.155 303.318C247.16 303.255 247.157 303.192 247.148 303.13Z" fill="#4F527D"/>
<path d="M251.593 283.72C251.567 284.541 251.304 288.115 251.187 290.004C251.071 291.894 251.045 294.212 251.045 294.212C251.045 294.212 251.378 295.589 251.593 297.215C251.808 298.84 251.593 303.943 251.593 303.943C251.381 304.076 251.134 304.147 250.882 304.147C250.629 304.147 250.382 304.076 250.17 303.943C250.17 303.943 249.28 299.853 248.868 298.01C248.456 296.168 248.384 295.106 248.171 293.963C247.912 292.582 247.356 286.135 247.356 286.135L247.136 286.148L246.54 293.425C246.724 293.961 246.851 294.515 246.917 295.076C247.077 296.262 246.746 302.227 246.746 302.227C246.509 302.355 246.241 302.417 245.97 302.406C245.699 302.395 245.437 302.312 245.212 302.165C245.212 302.165 243.728 294.266 243.728 293.063C243.728 292.269 243.866 281.783 243.866 281.783L251.593 283.72Z" fill="#C22E49"/>
<path d="M245.167 284.273C244.926 284.072 244.775 283.819 244.408 283.561C244.088 283.334 243.854 283.22 243.661 282.918C243.468 282.616 243.479 281.438 243.404 280.379C243.315 279.13 243.549 277.49 243.788 276.829C244.275 275.489 244.123 273.247 244.446 272.49C244.768 271.733 245.717 271.898 245.415 271.516C245.062 271.066 243.685 270.785 243.078 271.815C242.471 272.844 242.484 275.105 242.052 276.672C241.833 277.43 241.811 278.23 241.918 279.834C241.993 280.956 242.012 282.054 242.343 283.13C242.433 283.424 242.425 283.746 242.528 284.325C242.631 284.904 242.775 285.597 243.1 285.972C243.424 286.347 243.604 286.431 243.709 286.401C243.814 286.371 243.852 286.232 243.722 286.045C243.497 285.762 243.325 285.441 243.214 285.099C243.214 285.099 243.475 285.528 243.652 285.764C243.811 285.978 243.998 286.171 244.209 286.337C244.415 286.493 244.785 286.38 244.661 286.187C244.536 285.994 244.387 285.878 244.126 285.52C243.988 285.329 243.873 285.123 243.784 284.906C243.972 285.136 244.177 285.351 244.4 285.55C244.57 285.719 244.787 285.837 245.024 285.888C245.147 285.914 245.338 285.783 245.152 285.565C244.965 285.346 244.685 285.191 244.424 284.767C244.233 284.46 244.143 284.216 244.216 284.228C244.288 284.241 244.387 284.43 244.654 284.593C244.921 284.756 245.268 284.752 245.344 284.593C245.421 284.434 245.41 284.475 245.167 284.273Z" fill="#FFCEA9"/>
<path d="M249.577 267.822C249.577 267.822 249.482 269.615 249.522 269.774C249.561 269.933 250.364 270.458 250.598 270.647C250.833 270.836 249.329 272.283 248.601 272.612C247.873 272.94 245.559 272.075 245.519 270.964C245.48 269.853 245.914 268.923 246.269 268.873C246.624 268.824 249.577 267.822 249.577 267.822Z" fill="#FFCEA9"/>
<path d="M249.78 270.085C249.78 270.085 248.451 272.016 246.595 272.206C246.009 271.642 245.957 269.633 246.766 268.989C246.766 268.989 246.023 268.402 245.512 268.515C244.965 268.84 244.559 269.349 244.368 269.946C243.894 271.28 243.671 272.687 243.71 274.098C243.741 276.001 243.71 281.819 243.71 281.819C243.71 281.819 243.971 283.048 245.65 283.964C247.329 284.88 248.574 284.968 249.712 284.708C250.652 284.494 251.428 284.17 251.753 283.503C251.667 282.169 251.06 278.69 251.286 277.013C251.512 275.336 251.876 274.083 251.97 272.723C252.064 271.364 251.788 271.396 251.093 270.913C250.677 270.606 250.238 270.33 249.78 270.085Z" fill="#EDEDED"/>
<path d="M248.667 285.161C248.965 284.992 249.176 284.749 249.616 284.543C250.004 284.361 250.274 284.284 250.541 283.992C250.809 283.7 251.144 282.517 251.431 281.401C251.709 280.146 251.764 278.853 251.596 277.579C251.337 276.057 250.627 273.95 250.423 273.075C250.219 272.2 250.487 271.831 250.883 271.48C251.348 271.066 252.041 271.19 252.488 272.402C253.072 274.081 253.464 275.818 253.656 277.581C253.761 278.893 253.643 280.213 253.308 281.487C253.01 282.671 252.574 283.537 252.01 284.625C251.857 284.921 251.819 285.178 251.594 285.777C251.379 286.377 251.019 286.918 250.544 287.353C250.123 287.694 249.917 287.75 249.809 287.698C249.702 287.647 249.691 287.484 249.866 287.314C250.163 287.054 250.41 286.744 250.594 286.399C250.594 286.399 250.232 286.804 249.996 287.027C249.785 287.227 249.547 287.398 249.29 287.535C249.038 287.664 248.665 287.473 248.836 287.291C249.007 287.108 249.189 287.014 249.537 286.677C249.722 286.5 249.885 286.302 250.022 286.088C249.776 286.298 249.514 286.49 249.237 286.66C249.022 286.809 248.768 286.894 248.505 286.905C248.369 286.905 248.191 286.733 248.433 286.536C248.674 286.338 249.005 286.223 249.366 285.819C249.63 285.526 249.774 285.283 249.693 285.283C249.612 285.283 249.474 285.466 249.147 285.59C248.821 285.714 248.463 285.646 248.408 285.47C248.354 285.294 248.369 285.333 248.667 285.161Z" fill="#FFCEA9"/>
<path d="M245.43 265.15C245.649 263.758 246.675 262.703 248.141 262.791C248.731 262.821 249.297 263.031 249.758 263.393C250.219 263.754 250.553 264.248 250.712 264.805C250.871 265.362 250.847 265.954 250.644 266.497C250.44 267.039 250.068 267.506 249.579 267.831C249.53 268.041 249.456 268.246 249.36 268.44C248.843 269.034 247.273 269.401 246.822 269.337C246.243 269.255 245.929 269.019 245.653 268.401C245.151 267.299 245.311 265.838 245.43 265.15Z" fill="#FFCEA9"/>
<path d="M249.577 267.823L249.441 266.609C249.441 266.609 250.456 264.035 248.06 264.533C246.477 264.859 246.087 264.998 245.601 263.96C245.114 262.922 246.815 261.989 248.832 262.244C249.526 262.316 250.168 262.639 250.629 263.151C251.091 263.663 251.34 264.326 251.326 265.009C251.272 265.777 251.068 267.323 249.577 267.823Z" fill="#4F527D"/>
<path d="M253.678 274.793C253.678 274.793 252.362 276.067 250.828 275.7C250.609 275.553 250.074 272.578 250.074 272.578C250.074 272.578 250.074 270.931 251.367 270.973C252.66 271.016 253.678 274.793 253.678 274.793Z" fill="#D5D7E2"/>
<path d="M243.803 272.327C243.803 272.327 243.119 272.293 242.836 271.898C242.889 271.234 243.762 268.703 245.513 268.514C245.037 268.839 244.658 269.284 244.417 269.801C244.099 270.575 243.803 272.327 243.803 272.327Z" fill="#D5D7E2"/>
</g>
<defs>
<linearGradient id="paint0_linear_104_29711" x1="311.565" y1="307.602" x2="311.565" y2="213.092" gradientUnits="userSpaceOnUse">
<stop stop-color="#9499C7"/>
<stop offset="1" stop-color="#4F527D"/>
</linearGradient>
<linearGradient id="paint1_linear_104_29711" x1="133.914" y1="306.465" x2="133.914" y2="211.956" gradientUnits="userSpaceOnUse">
<stop stop-color="#9499C7"/>
<stop offset="1" stop-color="#4F527D"/>
</linearGradient>
<linearGradient id="paint2_linear_104_29711" x1="221.951" y1="47.1202" x2="221.951" y2="75.1807" gradientUnits="userSpaceOnUse">
<stop stop-color="#154078"/>
<stop offset="1" stop-color="#38E6E6" stop-opacity="0.4"/>
</linearGradient>
<clipPath id="clip0_104_29711">
<rect width="450" height="343" fill="white"/>
</clipPath>
</defs>
</svg>
