<svg width="450" height="345" viewBox="0 0 450 345" fill="none" xmlns="http://www.w3.org/2000/svg">
<path d="M227.19 307.602L395.939 213.092" stroke="url(#paint0_linear_92_30665)" stroke-width="8"/>
<path d="M218.289 306.465L49.5403 211.956" stroke="url(#paint1_linear_92_30665)" stroke-width="8"/>
<rect width="35.6853" height="63.1996" rx="8" transform="matrix(0.870623 0.491952 -2.25098e-08 1 50.9429 96.0439)" fill="#4F527D"/>
<rect width="35.6853" height="63.1996" rx="8" transform="matrix(0.870622 0.491952 -2.25098e-08 1 48.79 97.4484)" fill="#4F527D"/>
<rect width="35.6853" height="63.1996" rx="8" transform="matrix(0.870623 0.491952 -2.25098e-08 1 48.79 98.8528)" fill="white"/>
<rect width="24.9797" height="1.40444" rx="0.702218" transform="matrix(0.870622 0.491952 -2.25098e-08 1 53.4497 111.668)" fill="#DAE7EB"/>
<rect width="10.7056" height="1.40444" rx="0.70222" transform="matrix(0.870622 0.491953 -2.25097e-08 1 59.6646 112.37)" fill="#DAE7EB"/>
<rect width="28.5482" height="10.5333" rx="4" transform="matrix(0.870623 0.491952 -2.25098e-08 1 51.8965 119.919)" fill="white"/>
<rect width="7.13706" height="7.02218" rx="3.51109" transform="matrix(0.870622 0.491952 -2.25098e-08 1 68.9834 131.33)" fill="#9499C7"/>
<rect width="14.2741" height="1.40443" rx="0.702217" transform="matrix(0.870623 0.491951 -2.25098e-08 1 53.4497 122.553)" fill="#DAE7EB"/>
<rect width="10.7056" height="0.702219" rx="0.351109" transform="matrix(0.870622 0.491952 -2.25097e-08 1 53.4497 124.659)" fill="#DAE7EB"/>
<rect width="8.92133" height="0.702218" rx="0.351109" transform="matrix(0.870623 0.491951 -2.25098e-08 1 53.4497 126.064)" fill="#DAE7EB"/>
<rect width="7.13706" height="0.702221" rx="0.35111" transform="matrix(0.870621 0.491954 -2.25097e-08 1 53.4497 129.575)" fill="#DAE7EB"/>
<rect width="28.5482" height="10.5333" rx="4" transform="matrix(0.870623 0.491952 -2.25098e-08 1 51.8965 132.208)" fill="white"/>
<rect width="7.13706" height="7.0222" rx="3.5111" transform="matrix(0.870622 0.491953 -2.25097e-08 1 68.9834 143.619)" fill="#47A4DD"/>
<rect width="14.2741" height="1.40443" rx="0.702216" transform="matrix(0.870623 0.491951 -2.25099e-08 1 53.4497 134.841)" fill="#DAE7EB"/>
<rect width="10.7056" height="0.702219" rx="0.351109" transform="matrix(0.870622 0.491952 -2.25097e-08 1 53.4497 136.948)" fill="#DAE7EB"/>
<rect width="8.92132" height="0.702214" rx="0.351107" transform="matrix(0.870624 0.491949 -2.25099e-08 1 53.4497 138.352)" fill="#DAE7EB"/>
<rect width="7.13705" height="0.702214" rx="0.351107" transform="matrix(0.870623 0.49195 -2.25099e-08 1 53.4497 141.863)" fill="#DAE7EB"/>
<rect width="28.5482" height="10.5332" rx="4" transform="matrix(0.870623 0.491951 -2.25098e-08 1 51.8965 144.497)" fill="white"/>
<rect width="7.13706" height="7.02218" rx="3.51109" transform="matrix(0.870622 0.491952 -2.25098e-08 1 68.9834 155.908)" fill="#63A650"/>
<rect width="14.2741" height="1.40443" rx="0.702217" transform="matrix(0.870623 0.491951 -2.25098e-08 1 53.4497 147.13)" fill="#DAE7EB"/>
<rect width="10.7056" height="0.70222" rx="0.35111" transform="matrix(0.870622 0.491953 -2.25097e-08 1 53.4497 149.237)" fill="#DAE7EB"/>
<rect width="8.92133" height="0.70222" rx="0.35111" transform="matrix(0.870622 0.491952 -2.25097e-08 1 53.4497 150.642)" fill="#DAE7EB"/>
<rect width="7.13706" height="0.702221" rx="0.35111" transform="matrix(0.870621 0.491954 -2.25097e-08 1 53.4497 154.152)" fill="#DAE7EB"/>
<rect width="57.0965" height="57.0965" rx="8" transform="matrix(0.870622 -0.491952 0.870622 0.491952 0 212.261)" fill="#6D6D6D"/>
<path fill-rule="evenodd" clip-rule="evenodd" d="M6.96507 208.325C3.11842 210.498 3.11841 214.022 6.96507 216.196L42.7854 236.436C46.6321 238.61 52.8687 238.61 56.7154 236.436L92.5358 216.196C96.3824 214.022 96.3824 210.498 92.5358 208.325L84.0796 203.546L91.525 202.323C95.8847 201.606 95.8847 200.444 91.525 199.727L71.4933 196.434L56.7154 188.084C52.8687 185.911 46.6321 185.911 42.7854 188.084L28.041 196.416L7.89412 199.727C3.53436 200.444 3.53436 201.606 7.89413 202.323L15.4028 203.557L6.96507 208.325Z" fill="#EDEEF2"/>
<rect width="57.0547" height="57.0547" rx="8" transform="matrix(0.870623 -0.491952 0.870623 0.491952 0 201.025)" fill="white"/>
<path opacity="0.4" d="M49.4053 206.235C54.3025 206.235 58.2724 203.992 58.2724 201.224C58.2724 198.456 54.3025 196.213 49.4053 196.213C44.5081 196.213 40.5381 198.456 40.5381 201.224C40.5381 203.992 44.5081 206.235 49.4053 206.235Z" fill="#D6D8E5"/>
<path d="M43.087 164.069C42.9884 164.913 41.9593 168.553 42.1798 169.801C42.4003 171.048 45.916 173.135 45.916 173.135L46.4037 170.999L44.4567 169.139L44.982 165.604L43.087 164.069Z" fill="#FFCEA9"/>
<path d="M45.8064 160.48C45.3044 160.268 44.3722 160.22 43.8487 161.059C43.3252 161.898 42.7945 164.772 42.7461 165.27C42.7461 165.27 43.4722 166.251 44.5604 166.088L45.8064 160.48Z" fill="#EDEDED"/>
<path d="M49.8218 201.073C50.5869 201.28 51.4042 201.182 52.0968 200.803C52.6436 200.819 55.6179 199.575 56.023 200.619C56.3816 201.537 55.089 202.384 54.4006 202.549C52.8982 202.9 51.7867 203.639 51.1825 203.763C50.7343 203.856 50.1516 203.918 49.7931 203.572C49.3646 203.158 49.4004 201.623 49.8218 201.073Z" fill="#4F527D"/>
<path d="M51.1833 203.511C51.7875 203.388 52.899 202.654 54.4014 202.298C54.9787 202.161 55.9719 201.544 56.0723 200.807C56.2049 201.651 55.0432 202.4 54.4014 202.551C52.899 202.902 51.7875 203.641 51.1833 203.765C50.7351 203.858 50.1524 203.92 49.7939 203.574C49.7014 203.473 49.6339 203.353 49.5967 203.223C50.1202 203.648 50.7351 203.604 51.1833 203.511Z" fill="#4F527D"/>
<path d="M44.9976 198.956C45.7625 199.163 46.5802 199.067 47.2727 198.687C47.8213 198.703 50.7937 197.459 51.1989 198.512C51.5575 199.429 50.2649 200.277 49.5764 200.442C48.0741 200.793 46.9625 201.531 46.3601 201.656C45.9101 201.749 45.3275 201.81 44.9707 201.463C44.5404 201.038 44.5781 199.503 44.9976 198.956Z" fill="#4F527D"/>
<path d="M46.3601 201.391C46.9624 201.267 48.074 200.535 49.5763 200.179C50.1536 200.042 51.1468 199.423 51.2472 198.687C51.3817 199.531 50.2182 200.281 49.5763 200.431C48.074 200.782 46.9624 201.521 46.3601 201.646C45.9101 201.739 45.3274 201.8 44.9706 201.453C44.8768 201.353 44.8091 201.233 44.7734 201.102C45.2951 201.526 45.9101 201.484 46.3601 201.391Z" fill="#4F527D"/>
<path d="M44.9386 191.047C45.0673 189.966 45.2972 188.899 45.6253 187.859C45.6253 187.859 45.4209 185.106 45.3187 182.499C45.2022 179.539 44.1534 176.933 44.9799 174.571L54.3132 176.603C54.3132 176.603 53.7484 188.405 53.6229 189.833C53.5555 190.945 53.4165 192.051 53.207 193.146C52.7803 195.437 52.0883 200.887 52.0883 200.887C51.1005 201.449 49.8061 201.138 49.8061 201.138C49.8061 201.138 49.8778 194.246 49.9405 192.595C50.0176 190.579 50.0804 190.733 50.0804 190.733L49.772 185.713L49.5712 183.215C49.5712 183.215 49.3131 185.048 49.1445 186.685C48.9975 188.114 48.6461 189.405 48.2481 192.062C47.9075 194.367 47.3517 198.999 47.3517 198.999C46.3657 199.561 45.0211 199.096 45.0211 199.096C45.0211 199.096 44.6715 193.048 44.9386 191.047Z" fill="#C22E49"/>
<path d="M46.2986 160.53C47.0157 160.565 47.5392 160.744 47.6289 160.53C47.7048 160.17 47.7587 159.807 47.7902 159.442C47.7077 159.24 47.6378 159.024 47.6378 159.024C46.7414 158.485 46.4635 157.541 46.3452 156.443C46.1462 154.564 47.1825 152.918 49.1025 152.721C50.9079 152.546 52.2364 153.774 52.5895 155.485C52.7814 156.325 53.1614 157.917 52.6469 159.301C52.3601 160.075 51.9907 160.689 51.6196 160.809C51.2626 160.798 50.9064 160.768 50.5529 160.717C50.5529 160.717 50.4579 161.244 50.3916 161.574C50.3252 161.903 50.3521 162.086 51.0334 162.498C51.7147 162.911 50.0025 163.753 48.882 163.67C47.7615 163.588 46.5066 162.926 46.1606 162.217C45.7787 161.437 45.811 160.507 46.2986 160.53Z" fill="#FFCEA9"/>
<path d="M47.3298 160.633C47.1325 161.114 47.6327 161.701 48.9684 162.112C50.304 162.522 50.4223 161.994 50.4223 161.994C50.4223 161.994 52.3801 162.872 53.0165 163.302C53.8179 163.851 54.1729 165.437 54.2822 168.114C54.4059 171.213 54.4167 175.81 54.3127 176.603C54.3127 176.603 52.8157 178.063 50.9064 177.909C48.9971 177.754 45.7664 176.096 44.9901 174.814C45.0117 172.097 45.3362 171.655 44.8862 170.09C43.8571 166.507 43.3157 165.04 43.8105 162.659C44.2228 160.696 44.8001 160.452 45.5925 160.471C46.1741 160.495 46.754 160.549 47.3298 160.633Z" fill="#F4F4F4"/>
<path d="M57.2953 170.677C55.723 171.064 55.3537 170.094 55.1439 169.291C54.6437 167.345 54.3748 165.588 54.0019 164.485C53.5626 163.183 53.1055 162.974 52.4565 162.721C51.6963 162.423 51.0438 163.051 51.2965 164.707C51.5959 166.669 51.9886 168.041 52.7308 170.366C52.9262 170.971 53.3636 172.049 54.0216 172.568C54.8319 173.21 56.0546 173.182 57.903 172.733C58.6918 172.54 59.556 172.079 61.0476 171.398C61.4474 171.222 61.7647 171.094 62.5266 170.743C63.2886 170.392 64.0953 169.808 64.4987 169.238C64.9021 168.668 64.9541 168.399 64.8716 168.269C64.7694 168.106 64.5866 168.141 64.3714 168.382C64.061 168.788 63.6777 169.135 63.2402 169.406C63.2402 169.406 63.7368 168.905 64.0057 168.578C64.247 168.289 64.4473 167.969 64.6009 167.627C64.7425 167.294 64.4503 166.843 64.228 167.08C64.0057 167.317 63.8999 167.559 63.493 168.036C63.2781 168.29 63.0331 168.518 62.7633 168.715C63.0155 168.382 63.2403 168.03 63.4356 167.662C63.6938 167.146 63.6902 166.881 63.6794 166.708C63.6687 166.534 63.4177 166.327 63.1828 166.655C62.9695 166.952 62.8242 167.415 62.3384 167.918C61.9798 168.283 61.6733 168.494 61.6643 168.392C61.6553 168.29 61.8812 168.09 62.0103 167.666C62.1394 167.241 62.0103 166.788 61.7701 166.743C61.5298 166.697 61.5765 166.708 61.3828 167.104C61.1892 167.501 60.8952 167.796 60.6657 168.376C60.4667 168.887 60.3771 169.094 60.0185 169.466C59.6438 169.863 58.7904 170.308 57.2953 170.677Z" fill="#FFCEA9"/>
<path d="M51.8741 162.454C52.9247 162.303 53.6669 162.766 54.1295 164.323C54.592 165.879 54.9183 167.158 54.9183 167.158C54.5025 167.745 53.8733 168.153 53.1596 168.301C51.9046 168.599 51.451 168.011 51.451 168.011C51.451 168.011 51.0925 166.379 50.8845 165.269C50.6766 164.158 50.5744 162.647 51.8741 162.454Z" fill="#EDEDED"/>
<path d="M52.5305 155.244C52.5305 155.244 54.1907 152.776 50.5961 152.272C48.0037 151.911 46.3364 153.541 46.1446 155.309C45.9653 156.999 47.0249 158.754 47.7922 159.45C48.1669 159.582 48.9736 159.657 50.0332 159.185C50.0756 158.725 50.0917 158.263 50.0816 157.801C50.0816 157.801 48.8177 155.199 52.5305 155.244Z" fill="#4F527D"/>
<rect width="110.088" height="56.268" rx="8" transform="matrix(0.870623 -0.491952 2.25098e-08 1 314.289 148.309)" fill="#4F527D"/>
<rect width="110.089" height="56.7153" rx="8" transform="matrix(0.870615 -0.487885 2.2698e-08 1 320.039 152.434)" fill="white"/>
<rect width="0.357505" height="27.0818" transform="matrix(0.870595 -0.483995 2.28806e-08 1 326.261 170.814)" fill="#E1ECEF"/>
<rect width="0.357378" height="27.0818" transform="matrix(0.870596 -0.484169 2.28726e-08 1 339.332 163.428)" fill="#E1ECEF"/>
<rect width="0.357347" height="27.0818" transform="matrix(0.870596 -0.484213 2.28706e-08 1 352.402 156.043)" fill="#E1ECEF"/>
<rect width="0.357378" height="27.0818" transform="matrix(0.870596 -0.484169 2.28726e-08 1 365.47 148.658)" fill="#E1ECEF"/>
<rect width="0.35741" height="27.0818" transform="matrix(0.870596 -0.484126 2.28746e-08 1 378.542 141.272)" fill="#E1ECEF"/>
<path d="M326.264 195.082L334.387 181.371L338.76 183.858L345.842 171.905L352.09 168.408L360.213 154.698L365.316 157.599L368.336 152.502L374.376 155.936L378.854 148.378" stroke="#47A4DD" stroke-width="2" stroke-linecap="round" stroke-linejoin="round"/>
<path d="M326.264 195.082L334.387 185.922L338.76 185.941L345.842 177.955L352.09 174.446L360.213 165.285L365.316 165.308L368.336 161.902L374.376 161.929L378.854 156.879" stroke="#63A650" stroke-width="2" stroke-linecap="round" stroke-linejoin="round"/>
<path d="M326.264 195.082L334.387 188.813L338.76 187.259L345.842 181.793L352.09 178.272L360.213 172.003L365.316 170.19L368.336 167.859C368.336 167.859 372.017 166.551 374.376 165.713L378.854 162.257" stroke="#9499C7" stroke-width="2" stroke-linecap="round" stroke-linejoin="round"/>
<rect width="60.4055" height="4.28042" rx="2" transform="matrix(0.870622 -0.490952 2.25558e-08 1 326.261 156.337)" fill="#E1ECEF"/>
<rect width="45.3934" height="2.85419" rx="1.4271" transform="matrix(0.870622 -0.491053 2.25511e-08 1 326.264 162.687)" fill="#E1ECEF"/>
<rect width="22.8755" height="2.85008" rx="1.42504" transform="matrix(0.870621 -0.490346 2.25838e-08 1 388.189 124.182)" fill="#E1ECEF"/>
<rect width="10.008" height="1.42453" rx="0.712265" transform="matrix(0.870621 -0.49017 2.25919e-08 1 327.819 169.919)" fill="#E1ECEF"/>
<rect width="10.0081" height="1.42452" rx="0.712262" transform="matrix(0.870621 -0.490167 2.25921e-08 1 340.89 162.534)" fill="#E1ECEF"/>
<rect width="10.008" height="1.42453" rx="0.712265" transform="matrix(0.870621 -0.49017 2.25919e-08 1 353.96 155.149)" fill="#E1ECEF"/>
<rect width="10.0079" height="1.42452" rx="0.712261" transform="matrix(0.870621 -0.490172 2.25918e-08 1 367.028 147.764)" fill="#E1ECEF"/>
<rect width="5.71886" height="1.42193" rx="0.710966" transform="matrix(0.870619 -0.48928 2.26331e-08 1 327.819 171.68)" fill="#E1ECEF"/>
<rect width="5.71895" height="1.42196" rx="0.71098" transform="matrix(0.870619 -0.489281 2.26331e-08 1 340.89 164.295)" fill="#E1ECEF"/>
<rect width="5.71889" height="1.42195" rx="0.710976" transform="matrix(0.870619 -0.489283 2.2633e-08 1 353.96 156.91)" fill="#E1ECEF"/>
<rect width="5.71883" height="1.42193" rx="0.710966" transform="matrix(0.870619 -0.489282 2.2633e-08 1 367.028 149.525)" fill="#E1ECEF"/>
<rect width="19.3011" height="1.4267" rx="0.71335" transform="matrix(0.870622 -0.490917 2.25574e-08 1 388.189 129.123)" fill="#E1ECEF"/>
<rect width="12.8674" height="1.42547" rx="0.712736" transform="matrix(0.870622 -0.490497 2.25768e-08 1 390.99 155.324)" fill="#E1ECEF"/>
<path d="M404.369 135.552C404.369 140.451 400.886 146.355 396.59 148.74C392.293 151.124 388.81 149.085 388.81 144.186C388.81 139.287 392.293 133.382 396.59 130.998C400.886 128.614 404.369 130.653 404.369 135.552ZM391.144 142.891C391.144 146.32 393.582 147.747 396.59 146.078C399.597 144.409 402.035 140.276 402.035 136.847C402.035 133.418 399.597 131.99 396.59 133.659C393.582 135.328 391.144 139.461 391.144 142.891Z" fill="#47A4DD"/>
<path d="M404.369 135.552C404.369 137.306 403.913 139.275 403.058 141.208C402.203 143.141 400.988 144.952 399.567 146.412C398.145 147.873 396.581 148.916 395.072 149.411C393.563 149.907 392.177 149.831 391.089 149.194C390.001 148.557 389.26 147.388 388.96 145.834C388.659 144.279 388.813 142.41 389.402 140.463C389.991 138.515 390.988 136.576 392.268 134.892C393.547 133.207 395.051 131.852 396.59 130.998L396.59 133.659C395.513 134.257 394.46 135.205 393.564 136.385C392.669 137.564 391.971 138.921 391.558 140.284C391.146 141.648 391.038 142.956 391.249 144.044C391.459 145.132 391.977 145.951 392.739 146.397C393.501 146.842 394.471 146.895 395.527 146.549C396.584 146.202 397.679 145.471 398.674 144.449C399.669 143.427 400.519 142.159 401.118 140.806C401.716 139.453 402.035 138.075 402.035 136.847L404.369 135.552Z" fill="#63A650"/>
<path d="M404.369 135.552C404.369 136.913 404.095 138.407 403.567 139.92C403.039 141.434 402.272 142.925 401.326 144.278C400.379 145.632 399.278 146.812 398.107 147.727C396.937 148.642 395.729 149.267 394.576 149.555L395.18 146.649C395.987 146.448 396.833 146.01 397.652 145.37C398.471 144.729 399.242 143.903 399.905 142.956C400.568 142.008 401.104 140.964 401.474 139.905C401.843 138.846 402.035 137.799 402.035 136.847L404.369 135.552Z" fill="#9499C7"/>
<rect width="57.0961" height="57.0961" rx="8" transform="matrix(0.870623 -0.491951 0.870623 0.491952 350.582 213.27)" fill="#6D6D6D"/>
<path fill-rule="evenodd" clip-rule="evenodd" d="M357.544 209.335C353.698 211.508 353.698 215.032 357.544 217.206L393.323 237.423C397.17 239.597 403.407 239.597 407.253 237.423L443.032 217.206C446.879 215.032 446.879 211.508 443.032 209.335L434.594 204.566L442.104 203.332C446.463 202.615 446.463 201.453 442.104 200.736L421.955 197.424L407.253 189.117C403.407 186.944 397.17 186.944 393.323 189.117L378.622 197.424L358.473 200.736C354.114 201.453 354.114 202.615 358.473 203.332L365.983 204.566L357.544 209.335Z" fill="#EDEEF2"/>
<rect width="57.0961" height="57.0961" rx="8" transform="matrix(0.870623 -0.491952 0.870622 0.491952 350.582 202.035)" fill="#FDFDFD"/>
<path opacity="0.4" d="M401.167 206.544C405.947 206.544 409.821 204.354 409.821 201.653C409.821 198.951 405.947 196.762 401.167 196.762C396.388 196.762 392.514 198.951 392.514 201.653C392.514 204.354 396.388 206.544 401.167 206.544Z" fill="#D6D8E5"/>
<path d="M408.32 164.405C408.42 165.25 409.451 168.901 409.23 170.151C409.009 171.401 405.496 173.493 405.496 173.493L405.021 171.351L406.971 169.492L406.444 165.944L408.32 164.405Z" fill="#FFCEA9"/>
<path d="M405.596 160.809C405.939 160.654 406.328 160.626 406.69 160.733C407.052 160.84 407.361 161.073 407.559 161.388C408.073 162.23 408.618 165.107 408.664 165.602C408.664 165.602 407.937 166.588 406.848 166.422L405.596 160.809Z" fill="#EDEDED"/>
<path d="M401.573 201.514C400.806 201.721 399.987 201.624 399.292 201.245C398.742 201.26 395.761 200.013 395.355 201.062C395.001 201.992 396.291 202.822 396.982 202.993C398.488 203.352 399.595 204.087 400.206 204.21C400.659 204.303 401.234 204.366 401.602 204.019C402.031 203.591 401.995 202.052 401.573 201.514Z" fill="#4F527D"/>
<path d="M400.205 203.946C399.601 203.82 398.486 203.086 396.981 202.729C396.403 202.593 395.406 201.974 395.306 201.235C395.172 202.08 396.333 202.832 396.981 202.983C398.486 203.342 399.594 204.076 400.205 204.2C400.658 204.293 401.233 204.356 401.6 204.009C401.693 203.907 401.761 203.786 401.798 203.654C401.574 203.82 401.313 203.933 401.037 203.984C400.76 204.034 400.476 204.021 400.205 203.946Z" fill="#4F527D"/>
<path d="M406.409 199.38C405.642 199.588 404.822 199.491 404.128 199.111C403.578 199.126 400.597 197.876 400.194 198.924C399.837 199.845 401.129 200.685 401.818 200.858C403.324 201.215 404.431 201.952 405.042 202.078C405.495 202.171 406.07 202.231 406.438 201.884C406.867 201.467 406.841 199.928 406.409 199.38Z" fill="#4F527D"/>
<path d="M405.042 201.821C404.438 201.696 403.323 200.961 401.818 200.604C401.239 200.468 400.242 199.85 400.155 199.111C400.022 199.955 401.183 200.707 401.818 200.858C403.323 201.215 404.431 201.952 405.042 202.078C405.494 202.171 406.07 202.231 406.437 201.884C406.529 201.782 406.597 201.661 406.635 201.53C406.411 201.696 406.15 201.809 405.874 201.859C405.597 201.91 405.313 201.897 405.042 201.821Z" fill="#4F527D"/>
<path d="M406.468 191.456C406.339 190.373 406.109 189.304 405.78 188.262C405.78 188.262 405.985 185.496 406.088 182.886C406.204 179.919 407.257 177.306 406.425 174.942L397.077 176.971C397.077 176.971 397.642 188.803 397.771 190.226C397.838 191.34 397.978 192.449 398.19 193.546C398.616 195.844 399.31 201.306 399.31 201.306C400.299 201.869 401.597 201.557 401.597 201.557C401.597 201.557 401.527 194.649 401.463 192.992C401.386 190.981 401.322 191.134 401.322 191.134L401.63 186.105L401.833 183.602C401.833 183.602 402.09 185.441 402.26 187.09C402.409 188.521 402.761 189.816 403.156 192.479C403.498 194.79 404.053 199.435 404.053 199.435C405.042 199.998 406.386 199.53 406.386 199.53C406.386 199.53 406.733 193.468 406.468 191.456Z" fill="#C22E49"/>
<path d="M405.101 160.857C404.389 160.892 403.857 161.07 403.767 160.857C403.693 160.496 403.639 160.132 403.605 159.765C403.688 159.564 403.759 159.348 403.759 159.348C404.654 158.807 404.947 157.862 405.044 156.76C405.245 154.874 404.204 153.24 402.28 153.039C400.468 152.855 399.14 154.1 398.785 155.805C398.592 156.65 398.212 158.241 398.729 159.632C399.014 160.407 399.386 161.025 399.756 161.141C400.115 161.131 400.473 161.101 400.828 161.05C400.828 161.05 400.925 161.573 400.99 161.908C401.054 162.242 401.031 162.411 400.347 162.838C399.664 163.266 401.375 164.096 402.5 164.015C403.626 163.935 404.877 163.261 405.232 162.559C405.625 161.767 405.591 160.834 405.101 160.857Z" fill="#FFCEA9"/>
<path d="M404.073 160.963C404.27 161.443 403.767 162.031 402.431 162.444C401.095 162.856 400.971 162.326 400.971 162.326C400.971 162.326 399.008 163.201 398.368 163.636C397.567 164.187 397.212 165.776 397.102 168.461C396.976 171.567 396.968 176.174 397.071 176.971C397.071 176.971 398.574 178.435 400.493 178.279C402.413 178.123 405.632 176.463 406.434 175.178C406.411 172.455 406.087 172.01 406.537 170.443C407.564 166.85 408.112 165.381 407.611 163.002C407.197 161.033 406.616 160.789 405.812 160.809C405.23 160.829 404.649 160.881 404.073 160.963Z" fill="#F4F4F4"/>
<path d="M394.092 171.55C395.669 171.94 396.037 170.966 396.247 170.154C396.761 168.205 397.018 166.435 397.391 165.339C397.83 164.031 398.293 163.83 398.932 163.578C399.703 163.282 400.358 163.91 400.094 165.572C399.796 167.536 399.4 168.919 398.65 171.243C398.454 171.852 398.015 172.93 397.365 173.451C396.553 174.095 395.33 174.067 393.475 173.617C392.684 173.423 391.813 172.963 390.322 172.279C389.921 172.096 389.611 171.975 388.84 171.623C388.066 171.283 387.388 170.766 386.864 170.114C386.458 169.541 386.407 169.272 386.489 169.141C386.571 169.01 386.774 169.013 387.003 169.256C387.315 169.662 387.7 170.008 388.138 170.28C388.138 170.28 387.64 169.777 387.367 169.45C387.125 169.16 386.925 168.84 386.771 168.497C386.627 168.165 386.92 167.712 387.144 167.949C387.367 168.185 387.475 168.429 387.884 168.907C388.093 169.158 388.333 169.384 388.598 169.578C388.345 169.243 388.12 168.888 387.925 168.517C387.756 168.226 387.673 167.894 387.686 167.559C387.686 167.386 387.943 167.177 388.2 167.509C388.457 167.841 388.549 168.263 389.048 168.766C389.405 169.133 389.713 169.342 389.721 169.241C389.729 169.141 389.503 168.94 389.374 168.515C389.246 168.09 389.374 167.637 389.613 167.584C389.852 167.531 389.808 167.546 390.001 167.946C390.194 168.346 390.489 168.645 390.713 169.221C390.834 169.631 391.057 170.006 391.36 170.313C391.728 170.733 392.583 171.18 394.092 171.55Z" fill="#FFCEA9"/>
<path d="M399.518 163.314C398.464 163.158 397.719 163.623 397.256 165.172C396.794 166.721 396.47 168.021 396.47 168.021C396.887 168.61 397.519 169.02 398.235 169.168C399.494 169.465 399.944 168.879 399.944 168.879C399.944 168.879 400.293 167.249 400.512 166.128C400.73 165.006 400.82 163.498 399.518 163.314Z" fill="#EDEDED"/>
<path d="M398.854 155.559C398.854 155.559 397.192 153.084 400.794 152.581C403.394 152.216 405.072 153.838 405.257 155.624C405.442 157.316 404.376 159.079 403.605 159.776C403.23 159.909 402.418 159.982 401.362 159.524C401.317 159.06 401.299 158.594 401.31 158.129C401.31 158.129 402.577 155.516 398.854 155.559Z" fill="#4F527D"/>
<path d="M407.374 166.525L397.079 175.92L396.478 193.985C396.478 193.985 399.366 195.366 402.644 194.619L403.245 187.684L404.155 193.97L404.047 194.161C405.602 193.48 406.935 192.392 407.901 191.018L407.374 166.525Z" fill="#F4F4F4"/>
<path d="M396.468 168.021L395.954 170.202C395.954 170.202 395.522 171.728 394.412 171.341C393.367 170.911 392.349 170.421 391.362 169.875L390.031 172.548L392.783 173.805C392.783 173.805 396.604 175.138 397.665 173.805C398.726 172.472 399.918 168.874 399.918 168.874L396.468 168.021Z" fill="#EDEDED"/>
<g opacity="0.6">
<rect width="57.0965" height="57.0965" rx="8" transform="matrix(0.870623 -0.491952 0.870623 0.491952 172.376 101.341)" fill="#6D6D6D"/>
<path fill-rule="evenodd" clip-rule="evenodd" d="M179.341 97.4048C175.494 99.5783 175.494 103.102 179.341 105.276L215.161 125.517C219.008 127.69 225.244 127.69 229.091 125.517L264.911 105.276C268.758 103.102 268.758 99.5783 264.911 97.4048L256.455 92.6264L263.901 91.4025C268.26 90.6858 268.26 89.5239 263.901 88.8072L243.868 85.5143L229.091 77.1642C225.244 74.9906 219.008 74.9906 215.161 77.1642L200.417 85.4954L180.27 88.8072C175.91 89.5239 175.91 90.6858 180.27 91.4025L187.779 92.6368L179.341 97.4048Z" fill="#EDEEF2"/>
<rect width="57.0547" height="57.0547" rx="8" transform="matrix(0.870622 -0.491952 0.870622 0.491952 172.376 90.1052)" fill="white"/>
<path d="M251.692 58.5893L222.024 41.9977L192.357 58.5893L222.024 75.181L251.692 58.5893Z" fill="url(#paint2_linear_92_30665)"/>
<path d="M251.692 58.5888L222.025 41.9972L192.357 58.5888L222.025 75.1805L251.692 58.5888Z" fill="#D0566C"/>
<path d="M222.024 75.1805L192.357 58.5889V91.5129L222.024 108.105V75.1805Z" fill="#C22E49"/>
<path d="M222.022 75.1805L251.689 58.5889V91.5129L222.022 108.105V75.1805Z" fill="#C22E49"/>
<path d="M208.25 4.44419L200.304 0L192.357 4.44419L200.304 8.88839L208.25 4.44419Z" fill="#D0566C"/>
<path d="M200.304 8.88877L192.357 4.44458V13.2635L200.304 17.7077V8.88877Z" fill="#C22E49"/>
<path d="M200.303 8.88877L208.25 4.44458V13.2635L200.303 17.7077V8.88877Z" fill="#C22E49"/>
<path d="M247.039 43.3207L243.746 41.4791L240.454 43.3207L243.746 45.1623L247.039 43.3207Z" fill="#D0566C"/>
<path d="M243.747 45.1621L240.454 43.3206V46.9749L243.747 48.8165V45.1621Z" fill="#C22E49"/>
<path d="M243.749 45.1621L247.042 43.3206V46.9749L243.749 48.8165V45.1621Z" fill="#C22E49"/>
<path d="M227.321 28.8875L222.023 25.9247L216.726 28.8875L222.023 31.8503L227.321 28.8875Z" fill="#D0566C"/>
<path d="M222.023 31.8501L216.726 28.8873V34.7666L222.023 37.7294V31.8501Z" fill="#C22E49"/>
<path d="M222.023 31.8501L227.32 28.8873V34.7666L222.023 37.7294V31.8501Z" fill="#C22E49"/>
<path d="M243.743 14.8882L238.446 11.9254L233.148 14.8882L238.446 17.851L243.743 14.8882Z" fill="#D0566C"/>
<path d="M238.446 17.8511L233.148 14.8883V20.7676L238.446 23.7304V17.8511Z" fill="#C22E49"/>
<path d="M238.445 17.8511L243.743 14.8883V20.7676L238.445 23.7304V17.8511Z" fill="#C22E49"/>
<path d="M216.726 41.6409L208.25 36.9005L199.773 41.6409L208.25 46.3814L216.726 41.6409Z" fill="#D0566C"/>
<path d="M208.25 46.3813L199.773 41.6409V51.0477L208.25 55.7882V46.3813Z" fill="#C22E49"/>
<path d="M208.249 46.3813L216.725 41.6409V51.0477L208.249 55.7882V46.3813Z" fill="#C22E49"/>
</g>
<rect width="57.0916" height="57.0916" rx="8" transform="matrix(0.870691 -0.49183 0.870691 0.49183 172.8 315.988)" fill="#4F527D"/>
<path fill-rule="evenodd" clip-rule="evenodd" d="M179.766 312.054C175.919 314.227 175.919 317.75 179.766 319.923L215.544 340.133C219.391 342.306 225.628 342.306 229.475 340.133L265.253 319.923C269.1 317.75 269.1 314.227 265.253 312.054L256.816 307.288L264.324 306.054C268.684 305.337 268.684 304.176 264.324 303.459L244.178 300.149L229.475 291.843C225.628 289.67 219.391 289.67 215.544 291.843L200.841 300.149L180.694 303.459C176.334 304.176 176.334 305.337 180.694 306.054L188.203 307.288L179.766 312.054Z" fill="#EDEEF2"/>
<rect width="57.0917" height="57.0917" rx="8" transform="matrix(0.870691 -0.491831 0.870691 0.491831 172.8 304.756)" fill="#FDFDFD"/>
<path opacity="0.4" d="M222.488 292.767C226.551 292.767 229.845 290.907 229.845 288.611C229.845 286.316 226.551 284.455 222.488 284.455C218.424 284.455 215.13 286.316 215.13 288.611C215.13 290.907 218.424 292.767 222.488 292.767Z" fill="#D6D8E5"/>
<path d="M222.164 249.748C222.459 249.285 224.713 248.981 225.456 250.849C225.734 251.557 225.692 253.368 225.929 254.504C226.166 255.64 226.717 256.287 226.902 257.21C227.087 258.133 226.778 259.678 224.505 259.954C222.232 260.23 220.485 259.447 219.946 258.736C219.408 258.025 219.398 256.515 219.946 255.713C220.494 254.91 220.919 254.244 220.919 253.175L222.164 249.748Z" fill="#4F527D"/>
<path d="M219.465 257.565C219.465 257.565 218.93 261.268 219.941 263.872C220.953 266.477 220.671 263.196 220.671 263.196L220.428 262.416C220.428 262.416 220.227 259.402 220.311 258.663C220.395 257.924 220.376 257.289 220.428 257.229C220.48 257.169 220.23 257.051 220.123 257.035C220.016 257.02 219.465 257.565 219.465 257.565Z" fill="#FFCEA9"/>
<path d="M223.652 249.428C223.652 249.428 221.957 248.949 220.929 249.847C220.589 250.152 220.342 250.543 220.214 250.977C220.086 251.41 220.082 251.87 220.202 252.305C220.339 252.829 220.614 253.546 221.039 253.574C221.464 253.603 223.652 249.428 223.652 249.428Z" fill="#4F527D"/>
<path d="M224.3 253.971C224.3 253.971 224.19 255.821 224.226 255.957C224.262 256.094 224.965 256.224 225.166 256.386C225.367 256.547 224.138 258.422 223.513 258.702C222.887 258.981 220.957 258.27 220.824 257.328C220.701 256.465 221.376 255.792 221.638 255.558C221.815 255.546 221.993 255.546 222.17 255.558L222.225 254.663C223.072 254.368 224.3 253.971 224.3 253.971Z" fill="#FFCEA9"/>
<path d="M224.559 256.119C225.09 256.201 225.697 256.477 225.781 256.753C226 257.778 225.948 258.841 225.629 259.84C225.168 261.03 224.86 261.788 224.594 262.302C224.594 262.302 222.295 263.254 220.444 262.14C220.444 262.14 220.314 260.871 220.308 260.183C218.595 258.723 220.058 256.921 221.507 255.522C221.681 255.51 221.856 255.51 222.029 255.522C222.029 255.522 220.732 257.02 221.637 257.87C223.56 257.302 223.942 256.458 224.559 256.119Z" fill="#F4F4F4"/>
<path d="M220.77 251.662C220.961 250.472 221.837 249.574 223.092 249.647C223.6 249.671 224.087 249.851 224.484 250.162C224.881 250.473 225.167 250.9 225.301 251.38C225.435 251.86 225.411 252.369 225.231 252.834C225.052 253.3 224.726 253.698 224.301 253.971C224.258 254.15 224.194 254.324 224.11 254.489C223.665 254.996 222.488 255.317 222.096 255.32C221.772 255.32 221.47 255.018 221.156 254.508C220.498 253.429 220.666 252.249 220.77 251.662Z" fill="#FFCEA9"/>
<path d="M223.477 249.669C224.355 249.838 225.078 250.079 225.318 250.923C225.481 251.506 225.695 252.614 225.49 253.08L225.367 253.419L224.3 253.971C224.3 253.971 223.804 253.565 223.96 252.385C223.953 252.225 223.901 252.069 223.811 251.935C223.743 251.823 223.693 251.702 223.661 251.576C223.535 251.256 223.29 250.995 222.974 250.846C222.18 250.412 221.028 250.786 220.86 250.945C221.078 250.469 221.458 250.082 221.935 249.849C222.412 249.617 222.957 249.553 223.477 249.669Z" fill="#4F527D"/>
<path d="M225.842 264.757C226.04 263.552 226.41 262.771 226.238 262.108C225.855 260.768 225.353 259.462 224.74 258.206C224.351 257.457 224.471 256.937 224.873 256.639C225.327 256.322 225.758 256.452 226.17 257.273C226.685 258.317 227.262 259.389 227.544 260.944C227.725 261.949 227.712 262.979 227.506 263.98C227.33 265.062 226.98 265.671 226.562 266.686C226.445 266.978 225.674 265.785 225.842 264.757Z" fill="#FFCEA9"/>
<path d="M225.075 287.228C224.631 287.58 223.937 287.336 223.905 287.368C223.389 287.804 222.847 288.21 222.284 288.586C222.005 288.799 221.574 289.084 221.651 289.497C221.791 290.23 222.991 290.004 223.444 289.779C223.898 289.554 224.265 289.183 224.693 288.922C225.001 288.735 225.299 288.64 225.341 288.263C225.371 288.034 225.153 287.219 225.075 287.228Z" fill="#4F527D"/>
<path d="M225.335 288.11C225.277 288.472 224.982 288.573 224.687 288.745C224.252 289.008 223.87 289.379 223.416 289.614C222.962 289.849 221.953 290.026 221.662 289.503C221.821 290.21 223.001 289.988 223.448 289.766C223.896 289.544 224.269 289.17 224.697 288.91C225.005 288.723 225.303 288.627 225.345 288.25C225.346 288.203 225.342 288.156 225.335 288.11Z" fill="#4F527D"/>
<path d="M221.953 286.616C221.548 286.933 220.931 286.759 220.902 286.791C220.427 287.187 219.931 287.558 219.414 287.901C219.158 288.095 218.765 288.358 218.833 288.732C218.963 289.405 220.062 289.199 220.477 288.992C220.893 288.786 221.23 288.447 221.622 288.209C221.901 288.037 222.177 287.949 222.222 287.603C222.248 287.393 222.027 286.61 221.953 286.616Z" fill="#4F527D"/>
<path d="M222.212 287.463C222.157 287.796 221.887 287.885 221.609 288.056C221.21 288.297 220.86 288.646 220.445 288.852C220.029 289.059 219.105 289.23 218.823 288.751C218.969 289.385 220.049 289.195 220.445 288.992C220.84 288.789 221.197 288.446 221.589 288.208C221.868 288.037 222.144 287.948 222.189 287.602C222.201 287.557 222.209 287.51 222.212 287.463Z" fill="#4F527D"/>
<path d="M219.558 266.375C219.756 264.875 220.32 262.695 220.32 262.695C220.855 262.941 221.433 263.082 222.022 263.111C222.886 263.105 223.746 263.023 224.594 262.863C224.871 263.337 225.174 263.796 225.502 264.237C225.943 264.837 226.799 266.141 226.594 268.453C226.462 269.954 225.599 276.334 225.599 276.334C225.934 277.407 226.112 278.521 226.128 279.643C226.05 280.975 225.87 282.299 225.589 283.605L225.077 287.228C225.077 287.228 224.393 287.71 223.906 287.368L223.968 283.824C223.91 282.958 223.822 281.679 223.764 280.861C223.673 279.532 223.439 277.419 223.358 276.889C223.277 276.359 223.115 275.439 223.034 274.405C222.953 273.371 222.554 268.123 222.554 268.123L222.499 269.107C222.499 269.107 222.444 270.693 222.211 272.673C221.977 274.652 221.886 275.528 221.886 275.528C222.108 275.924 222.263 276.353 222.347 276.797C222.389 277.222 222.885 280.604 222.587 282.304L221.984 286.648C221.831 286.75 221.657 286.816 221.473 286.84C221.29 286.863 221.104 286.844 220.93 286.784L220.57 282.393C220.33 280.721 219.821 277.181 219.743 276.721C219.57 275.794 219.468 274.855 219.438 273.913C219.318 272.013 219.364 267.876 219.558 266.375Z" fill="#FFCEA9"/>
<path d="M224.596 262.312L225.915 264.907C225.915 264.907 227.932 267.794 225.844 275.211L226.236 277.498C226.236 277.498 222.284 279.982 219.638 277.498C219.638 277.498 218.72 270.643 219.21 267.483C219.479 265.664 219.891 263.869 220.442 262.112C220.442 262.112 221.09 262.813 224.421 262.35" fill="#C22E49"/>
<path d="M226.965 258.746C226.965 258.746 226.047 259.64 224.958 259.529L224.436 257.778C224.436 257.778 224.111 256.868 224.89 256.468C225.668 256.068 226.508 256.963 226.965 258.746Z" fill="#EDEDED"/>
<path d="M221.508 255.532C221.508 255.532 220.457 255.215 219.345 257.495L219.76 257.74C220.281 256.959 220.865 256.221 221.508 255.532Z" fill="#EDEDED"/>
<path opacity="0.4" d="M193.854 308.837C198.349 308.837 201.994 306.779 201.994 304.239C201.994 301.7 198.349 299.641 193.854 299.641C189.358 299.641 185.714 301.7 185.714 304.239C185.714 306.779 189.358 308.837 193.854 308.837Z" fill="#D6D8E5"/>
<path opacity="0.4" d="M248.14 309.196C252.635 309.196 256.28 307.137 256.28 304.598C256.28 302.059 252.635 300 248.14 300C243.644 300 240 302.059 240 304.598C240 307.137 243.644 309.196 248.14 309.196Z" fill="#D6D8E5"/>
<path d="M190.02 303.085C190.576 303.527 191.394 303.123 191.434 303.166C192.087 303.755 192.771 304.312 193.482 304.833C193.841 305.1 194.368 305.454 194.268 305.967C194.096 306.879 192.6 306.598 192.033 306.317C191.466 306.037 191.007 305.577 190.472 305.265C190.092 305.033 189.719 304.914 189.658 304.443C189.608 304.145 189.909 303.074 190.02 303.085Z" fill="#4F527D"/>
<path d="M189.661 304.239C189.736 304.689 190.106 304.815 190.482 305.043C191.028 305.373 191.505 305.85 192.068 306.128C192.631 306.405 193.891 306.644 194.256 305.991C194.059 306.872 192.588 306.594 192.029 306.317C191.469 306.04 191.003 305.577 190.468 305.264C190.088 305.032 189.715 304.913 189.654 304.443C189.651 304.375 189.653 304.307 189.661 304.239Z" fill="#4F527D"/>
<path d="M194.821 301.333C195.377 301.775 196.346 301.295 196.389 301.333C196.965 301.906 197.575 302.446 198.215 302.951C198.573 303.214 199.101 303.573 199.004 304.085C198.828 304.998 197.332 304.717 196.769 304.436C196.206 304.155 195.743 303.692 195.208 303.383C194.828 303.151 194.451 303.032 194.394 302.562C194.358 302.263 194.724 301.323 194.821 301.333Z" fill="#4F527D"/>
<path d="M194.407 302.421C194.482 302.87 194.851 302.997 195.228 303.225C195.773 303.555 196.251 304.032 196.814 304.313C197.377 304.594 198.636 304.826 199.002 304.173C198.805 305.054 197.334 304.78 196.774 304.503C196.215 304.225 195.752 303.759 195.217 303.432C194.833 303.2 194.46 303.081 194.399 302.611C194.397 302.547 194.399 302.484 194.407 302.421Z" fill="#4F527D"/>
<path d="M189.971 283.05C190 283.871 190.258 287.437 190.377 289.322C190.495 291.207 190.52 293.534 190.52 293.534C190.52 293.534 190.186 294.906 189.971 296.524C189.756 298.142 189.971 303.239 189.971 303.239C190.185 303.375 190.434 303.447 190.689 303.447C190.943 303.447 191.193 303.375 191.406 303.239C191.406 303.239 192.296 299.157 192.705 297.317C193.114 295.478 193.189 294.418 193.401 293.281C193.659 291.902 194.215 285.468 194.215 285.468H194.438L195.033 292.73C194.849 293.266 194.723 293.818 194.656 294.38C194.495 295.563 194.829 301.515 194.829 301.515C195.066 301.644 195.334 301.707 195.605 301.696C195.876 301.684 196.139 301.6 196.364 301.452C196.364 301.452 197.846 293.569 197.846 292.372C197.846 291.575 197.709 281.116 197.709 281.116L189.971 283.05Z" fill="#C22E49"/>
<path d="M191.986 267.188C191.986 267.188 192.08 268.979 192.04 269.136C192.001 269.294 191.201 269.817 190.964 270.007C190.727 270.196 192.23 271.629 192.959 271.98C193.687 272.331 195.994 271.446 196.033 270.337C196.073 269.228 195.638 268.298 195.287 268.248C194.935 268.199 191.986 267.188 191.986 267.188Z" fill="#FFCEA9"/>
<path d="M196.991 270.509C197.098 269.719 196.567 268.968 197.08 268.34C198.874 270.074 198.659 274.658 199.068 277.588C200.41 278.957 203.104 280.309 203.861 280.642C203.997 280.705 204.119 280.772 204.09 280.916C203.989 281.404 203.774 281.863 203.462 282.257C201.669 281.506 200.395 281.074 198.167 279.003C197.956 278.779 197.768 278.536 197.604 278.276C196.969 276.409 196.808 271.871 196.991 270.509Z" fill="#FFCEA9"/>
<path d="M191.781 269.445C191.781 269.445 193.108 271.379 194.959 271.551C195.544 270.99 195.594 268.986 194.787 268.343C194.787 268.343 195.529 267.757 196.039 267.869C196.591 268.195 197.002 268.707 197.194 269.309C197.663 270.64 197.884 272.043 197.847 273.45C197.815 275.349 197.847 281.151 197.847 281.151C197.847 281.151 197.589 282.376 195.913 283.289C194.238 284.201 192.993 284.292 191.856 284.033C190.92 283.819 190.145 283.496 189.822 282.832C189.908 281.499 190.514 278.027 190.288 276.353C190.062 274.679 189.7 273.433 189.607 272.078C189.513 270.723 189.786 270.751 190.482 270.27C190.894 269.965 191.328 269.689 191.781 269.445Z" fill="#F4F4F4"/>
<path d="M196.118 264.521C195.899 263.117 194.877 262.064 193.41 262.159C192.821 262.189 192.257 262.4 191.797 262.76C191.337 263.121 191.004 263.614 190.846 264.169C190.687 264.725 190.711 265.315 190.914 265.857C191.116 266.398 191.487 266.864 191.975 267.188C192.025 267.399 192.101 267.603 192.201 267.796C192.717 268.389 194.285 268.754 194.733 268.691C195.001 268.67 195.257 268.571 195.467 268.406C195.677 268.242 195.831 268.019 195.91 267.768C196.398 266.665 196.244 265.205 196.118 264.521Z" fill="#FFCEA9"/>
<path d="M191.986 267.189L192.118 265.974C192.118 265.974 191.096 263.412 193.5 263.907C195.078 264.233 195.473 264.374 195.953 263.338C196.434 262.303 194.741 261.369 192.725 261.629C192.032 261.7 191.392 262.023 190.931 262.534C190.469 263.045 190.221 263.706 190.235 264.388C190.292 265.146 190.5 266.69 191.986 267.189Z" fill="#4F527D"/>
<path d="M189.181 271.278C189.874 271.085 189.346 271.243 189.874 271.085C191.667 272.815 191.456 275.785 191.865 278.715C192.862 280.333 196.561 282.51 196.561 282.51C196.607 282.822 196.496 282.913 196.094 283.563C194.035 282.79 192.163 281.608 190.595 280.091C190.505 280.01 190.376 279.986 190.34 279.877C189.705 277.996 188.998 272.643 189.181 271.278Z" fill="#FFCEA9"/>
<path d="M205.641 274.896L202.954 283.889L197.052 286.195L199.205 277.434L205.641 274.896Z" fill="#F4F4F4"/>
<path d="M195.632 282.583C195.718 282.274 195.944 282.351 196.202 282.428C196.478 282.538 196.782 282.564 197.074 282.502C197.301 282.393 197.511 282.254 197.698 282.088C197.817 282.018 197.954 281.98 198.093 281.979C198.093 282.056 197.956 282.513 197.956 282.513C197.956 282.513 199.251 282.513 199.391 282.513C199.436 282.505 199.482 282.511 199.523 282.529C199.564 282.548 199.598 282.579 199.621 282.617C199.643 282.656 199.653 282.7 199.648 282.744C199.644 282.789 199.626 282.83 199.596 282.864H199.686C199.947 282.808 200.044 283.215 199.797 283.264L199.582 283.295C199.754 283.362 199.797 283.646 199.582 283.682H199.513C199.482 283.687 199.451 283.687 199.42 283.682H199.345C199.351 283.712 199.352 283.743 199.345 283.773C199.339 283.803 199.326 283.832 199.308 283.857C199.29 283.882 199.267 283.903 199.239 283.919C199.212 283.935 199.182 283.945 199.151 283.948C198.52 284.029 197.59 284.275 197.02 283.766C196.624 283.729 196.237 283.627 195.876 283.464C195.535 283.295 195.524 282.948 195.632 282.583Z" fill="#FFCEA9"/>
<path d="M202.084 281.846H202.173C202.136 281.82 202.108 281.783 202.094 281.741C202.079 281.698 202.079 281.652 202.093 281.61C202.107 281.567 202.134 281.53 202.171 281.503C202.209 281.477 202.253 281.463 202.299 281.463C202.432 281.463 203.762 281.19 203.762 281.19L203.924 280.656C203.924 280.625 204.153 280.762 204.161 280.769C204.274 280.84 204.369 280.935 204.438 281.048C204.508 281.16 204.55 281.287 204.562 281.418C204.569 281.602 204.539 281.786 204.473 281.959C204.407 282.132 204.307 282.29 204.179 282.425C203.942 282.654 203.625 282.787 203.293 282.797C203.131 282.797 202.977 282.814 202.837 282.829C202.806 282.83 202.774 282.826 202.744 282.816C202.715 282.805 202.687 282.789 202.664 282.768C202.641 282.747 202.622 282.722 202.61 282.694C202.597 282.665 202.59 282.635 202.59 282.604H202.547C202.516 282.613 202.484 282.613 202.453 282.604H202.385C202.159 282.604 202.141 282.33 202.295 282.232H202.077C201.79 282.257 201.815 281.842 202.084 281.846Z" fill="#FFCEA9"/>
<path d="M197.745 271.681C198.109 271.665 198.452 271.514 198.707 271.26C198.656 270.593 197.788 268.069 196.038 267.88C196.507 268.209 196.878 268.655 197.114 269.171C197.389 269.991 197.6 270.83 197.745 271.681Z" fill="#EDEDED"/>
<path d="M188.867 275.016C188.867 275.016 190.607 275.605 191.834 274.616C191.97 274.391 191.116 271.492 191.116 271.492C191.116 271.492 190.399 270.011 189.244 270.6C188.088 271.19 188.867 275.016 188.867 275.016Z" fill="#EDEDED"/>
<path opacity="0.4" d="M222.526 325.767C226.455 325.767 229.64 323.968 229.64 321.749C229.64 319.53 226.455 317.731 222.526 317.731C218.597 317.731 215.412 319.53 215.412 321.749C215.412 323.968 218.597 325.767 222.526 325.767Z" fill="#D6D8E5"/>
<path d="M226.63 290.869C227.257 291.043 227.608 291.715 228.154 293.154C228.608 294.459 228.829 295.831 228.809 297.209C228.633 298.565 228.06 299.62 226.674 300.718L226.012 299.531C226.012 299.531 227.37 298.359 227.508 297.004C227.586 296.243 226.674 293.678 226.674 293.608C226.674 293.537 226.63 290.869 226.63 290.869Z" fill="#FFCEA9"/>
<path d="M221.202 322.114C220.993 322.176 220.773 322.193 220.556 322.164C220.34 322.136 220.132 322.062 219.948 321.948C219.609 321.948 217.618 321.184 217.368 321.831C217.148 322.399 217.948 322.926 218.371 323.028C219.311 323.245 219.989 323.699 220.365 323.776C220.507 323.826 220.659 323.841 220.809 323.82C220.958 323.8 221.101 323.745 221.224 323.66C221.484 323.402 221.462 322.451 221.202 322.114Z" fill="#4F527D"/>
<path d="M220.358 323.62C219.981 323.543 219.295 323.089 218.364 322.868C218.009 322.786 217.392 322.402 217.332 321.948C217.247 322.47 217.959 322.933 218.364 323.028C219.304 323.246 219.981 323.7 220.358 323.776C220.5 323.826 220.652 323.841 220.802 323.821C220.951 323.8 221.094 323.745 221.217 323.66C221.273 323.597 221.315 323.522 221.339 323.442C221.201 323.544 221.04 323.613 220.87 323.644C220.699 323.675 220.524 323.667 220.358 323.62Z" fill="#4F527D"/>
<path d="M226.258 319.543C226.076 319.604 225.881 319.622 225.69 319.593C225.5 319.565 225.319 319.492 225.164 319.381C224.85 319.381 222.803 318.651 222.562 319.273C222.352 319.819 223.12 320.322 223.527 320.42C224.424 320.632 225.095 321.071 225.446 321.144C225.583 321.192 225.73 321.206 225.874 321.186C226.018 321.166 226.155 321.113 226.274 321.031C226.531 320.782 226.509 319.868 226.258 319.543Z" fill="#4F527D"/>
<path d="M225.445 320.994C225.084 320.917 224.422 320.482 223.526 320.27C223.184 320.187 222.585 319.819 222.532 319.38C222.454 319.883 223.159 320.331 223.526 320.42C224.422 320.632 225.093 321.071 225.445 321.144C225.582 321.191 225.728 321.206 225.872 321.186C226.016 321.166 226.154 321.113 226.272 321.031C226.327 320.97 226.367 320.898 226.388 320.819C226.256 320.918 226.102 320.986 225.938 321.016C225.774 321.047 225.605 321.039 225.445 320.994Z" fill="#4F527D"/>
<path d="M226.925 314.602C226.926 313.854 226.795 313.112 226.536 312.409C226.536 312.409 226.794 309.405 226.991 307.433C227.28 304.525 227.737 304.237 227.618 302.47C227.499 300.832 226.546 299.771 226.298 298.66L221.448 299.034C221.448 299.034 221.025 300.381 220.479 303.062C219.934 305.743 219.896 308.93 219.94 313.151C219.94 314.24 219.752 315.185 219.815 317.896C219.858 319.718 219.965 321.951 219.965 321.951C220.674 322.547 221.166 322.108 221.166 322.108C221.166 322.108 222.42 316.709 222.592 315.47C222.724 314.784 222.666 314.077 222.423 313.421C222.423 313.421 222.787 311.724 223.05 310.39C223.364 308.761 224.194 305.246 224.194 305.246C224.194 305.246 224.053 310.648 224.295 311.712C224.536 312.777 224.577 313.703 224.784 315.151C225.032 316.899 225.144 319.461 225.144 319.461C225.884 319.921 226.214 319.568 226.214 319.568C226.214 319.568 226.925 316.132 226.925 314.602Z" fill="#FFCEA9"/>
<path d="M226.286 298.66C226.794 299.169 227.634 300.718 227.634 303.062C227.634 305.7 227.242 305.166 227.054 308.071L226.866 310.976C226.866 310.976 222.812 312.869 219.921 311.114C219.664 310.565 220.019 304.455 220.526 302.283C221.034 300.111 221.382 299.047 221.382 299.047C221.382 299.047 225.11 300.031 226.286 298.66Z" fill="#C22E49"/>
<path d="M226.346 290.841C225.311 290.78 225.211 290.948 225.129 290.589C225.101 290.461 225.041 289.571 225.041 289.571C225.137 289.452 225.224 289.327 225.301 289.197C225.649 288.992 225.943 288.711 226.16 288.376C226.378 288.041 226.513 287.662 226.556 287.267C226.628 286.582 226.42 285.897 225.977 285.362C225.534 284.827 224.892 284.487 224.192 284.415C222.822 284.277 221.812 285.218 221.542 286.513C221.398 287.151 221.248 288.455 221.655 289.501C221.884 290.093 222.097 290.507 222.643 290.485C222.825 290.469 223.005 290.438 223.182 290.393C223.211 290.638 223.222 290.886 223.213 291.132C223.213 291.393 223.245 291.522 222.724 291.835C222.204 292.148 223.508 292.786 224.358 292.724C225.207 292.663 226.161 292.16 226.424 291.623C226.712 291.022 226.831 290.869 226.346 290.841Z" fill="#FFCEA9"/>
<path d="M227.105 295.322C227.105 295.322 228.274 295.065 228.811 294.556C228.811 294.556 228.115 292.408 227.669 291.875C227.224 291.341 226.792 294.786 226.792 294.786L227.105 295.322Z" fill="#EDEDED"/>
<path d="M225.317 290.819C225.508 291.053 225.53 291.344 224.793 291.528C224.257 291.677 223.685 291.634 223.179 291.405C222.598 291.646 222.04 291.935 221.511 292.27C220.884 294.295 221.388 294.556 221.125 296.007C221.228 296.737 221.351 298.62 221.382 299.046C222.79 300.01 225.646 299.681 226.286 298.66C226.297 298.32 226.33 297.981 226.383 297.645C227.054 295.209 227.577 294.577 227.392 292.737C227.286 291.688 227.201 291.16 226.63 290.878C226.197 290.802 225.755 290.783 225.317 290.819Z" fill="#F4F4F4"/>
<path d="M212.393 298.74C212.712 298.807 213.026 298.895 213.333 299.004C213.622 299.152 213.931 299.255 214.252 299.31C214.597 299.363 215.136 299.188 216.067 298.758C217.087 298.247 218.01 297.568 218.795 296.752C219.688 295.713 220.485 294.6 221.178 293.424C221.582 292.703 222.093 292.522 222.539 292.663C223.071 292.835 223.137 293.353 222.539 294.323C221.774 295.589 220.858 296.762 219.811 297.817C218.985 298.625 218.023 299.289 216.967 299.78C216.214 300.163 215.409 300.437 214.575 300.593C214.283 300.654 214.086 300.774 213.547 300.958C213.01 301.149 212.435 301.211 211.869 301.139C211.402 301.05 211.242 300.945 211.223 300.832C211.205 300.718 211.299 300.639 211.518 300.654C211.864 300.708 212.217 300.699 212.559 300.629C212.559 300.629 212.076 300.614 211.791 300.58C211.535 300.553 211.284 300.491 211.045 300.396C210.816 300.301 210.731 299.948 210.963 299.961C211.195 299.973 211.352 300.04 211.778 300.083C212.003 300.11 212.231 300.11 212.456 300.083C212.174 300.038 211.896 299.97 211.625 299.881C211.4 299.823 211.199 299.701 211.045 299.531C210.966 299.442 210.988 299.225 211.261 299.28C211.59 299.392 211.931 299.465 212.277 299.498C212.625 299.498 212.873 299.47 212.829 299.418C212.785 299.366 212.578 299.372 212.315 299.228C212.051 299.083 211.894 298.804 212.001 298.669C212.108 298.534 212.108 298.636 212.393 298.74Z" fill="#FFCEA9"/>
<path d="M221.978 295.494C221.163 295.379 220.41 295.005 219.833 294.43L221.131 292.669C221.131 292.669 221.862 291.767 222.827 292.276C222.827 292.276 223.555 292.353 222.827 293.844C222.58 294.411 222.296 294.962 221.978 295.494Z" fill="#EDEDED"/>
<path d="M221.291 285.749C221.343 285.446 221.513 285.176 221.767 284.994C222.02 284.813 222.335 284.736 222.646 284.78C223.099 284.482 223.646 284.353 224.188 284.415C225.42 284.54 226.226 285.335 226.599 286.531C226.782 287.131 226.904 287.748 226.963 288.372C227.333 291.056 228.33 293.184 227.399 293.982C226.467 294.78 223.915 295.286 222.849 294.786C221.783 294.286 223.727 289.66 221.617 287.089C221.122 286.479 221.075 286.053 221.291 285.749Z" fill="#4F527D"/>
<path d="M252.461 304.585C251.906 305.026 251.086 304.621 251.044 304.662C250.392 305.255 249.707 305.813 248.993 306.333C248.646 306.601 248.116 306.957 248.203 307.469C248.379 308.387 249.878 308.113 250.444 307.823C251.009 307.534 251.472 307.079 252.007 306.751C252.388 306.519 252.765 306.399 252.824 305.927C252.86 305.644 252.559 304.572 252.461 304.585Z" fill="#4F527D"/>
<path d="M252.814 305.738C252.74 306.191 252.376 306.315 251.99 306.545C251.446 306.877 250.966 307.353 250.401 307.634C249.879 307.892 248.575 308.149 248.208 307.495C248.408 308.379 249.881 308.102 250.44 307.823C250.999 307.544 251.468 307.079 252.003 306.751C252.385 306.519 252.762 306.399 252.821 305.927C252.826 305.864 252.823 305.801 252.814 305.738Z" fill="#4F527D"/>
<path d="M247.636 302.828C247.079 303.272 246.101 302.787 246.066 302.828C245.488 303.402 244.876 303.943 244.234 304.447C243.887 304.715 243.346 305.071 243.444 305.584C243.618 306.5 245.119 306.227 245.685 305.938C246.25 305.648 246.711 305.193 247.248 304.865C247.629 304.634 248.004 304.514 248.063 304.042C248.101 303.759 247.734 302.817 247.636 302.828Z" fill="#4F527D"/>
<path d="M248.048 303.917C247.974 304.37 247.61 304.494 247.224 304.724C246.68 305.056 246.2 305.532 245.635 305.813C245.113 306.071 243.808 306.328 243.442 305.674C243.642 306.558 245.115 306.281 245.674 306.002C246.233 305.723 246.702 305.258 247.237 304.93C247.618 304.698 247.995 304.578 248.055 304.106C248.06 304.043 248.057 303.98 248.048 303.917Z" fill="#4F527D"/>
<path d="M252.493 284.508C252.466 285.329 252.203 288.902 252.087 290.792C251.971 292.681 251.945 295 251.945 295C251.945 295 252.278 296.377 252.493 298.002C252.708 299.628 252.493 304.731 252.493 304.731C252.281 304.864 252.034 304.935 251.781 304.935C251.529 304.935 251.282 304.864 251.07 304.731C251.07 304.731 250.18 300.641 249.768 298.798C249.356 296.956 249.284 295.894 249.071 294.751C248.812 293.37 248.255 286.923 248.255 286.923L248.036 286.936L247.44 294.213C247.624 294.749 247.751 295.302 247.817 295.864C247.977 297.05 247.646 303.015 247.646 303.015C247.409 303.143 247.14 303.205 246.87 303.194C246.599 303.183 246.337 303.1 246.112 302.953C246.112 302.953 244.627 295.053 244.627 293.85C244.627 293.057 244.766 282.571 244.766 282.571L252.493 284.508Z" fill="#C22E49"/>
<path d="M246.067 285.061C245.826 284.859 245.674 284.606 245.308 284.349C244.988 284.121 244.754 284.008 244.561 283.705C244.368 283.403 244.379 282.226 244.304 281.166C244.214 279.918 244.449 278.277 244.688 277.616C245.175 276.276 245.023 274.035 245.346 273.278C245.668 272.52 246.617 272.686 246.315 272.304C245.962 271.853 244.585 271.573 243.978 272.602C243.37 273.631 243.384 275.892 242.952 277.46C242.733 278.217 242.711 279.017 242.818 280.621C242.893 281.743 242.912 282.841 243.243 283.918C243.333 284.212 243.324 284.533 243.427 285.112C243.531 285.691 243.675 286.384 244 286.76C244.324 287.135 244.504 287.219 244.609 287.188C244.714 287.158 244.752 287.019 244.622 286.832C244.397 286.549 244.225 286.229 244.114 285.887C244.114 285.887 244.374 286.316 244.552 286.552C244.711 286.766 244.898 286.958 245.109 287.124C245.315 287.281 245.685 287.167 245.56 286.974C245.435 286.781 245.286 286.665 245.026 286.307C244.888 286.116 244.773 285.91 244.684 285.694C244.871 285.923 245.077 286.139 245.3 286.337C245.47 286.507 245.687 286.625 245.924 286.676C246.047 286.702 246.238 286.571 246.051 286.352C245.865 286.133 245.585 285.979 245.324 285.554C245.133 285.247 245.043 285.003 245.115 285.016C245.188 285.029 245.286 285.217 245.554 285.38C245.821 285.543 246.168 285.539 246.244 285.38C246.321 285.222 246.31 285.263 246.067 285.061Z" fill="#FFCEA9"/>
<path d="M250.477 268.61C250.477 268.61 250.382 270.403 250.422 270.562C250.461 270.72 251.264 271.246 251.498 271.435C251.733 271.623 250.229 273.071 249.501 273.399C248.773 273.727 246.458 272.863 246.419 271.752C246.38 270.641 246.814 269.71 247.169 269.661C247.524 269.612 250.477 268.61 250.477 268.61Z" fill="#FFCEA9"/>
<path d="M250.68 270.873C250.68 270.873 249.351 272.803 247.495 272.994C246.909 272.43 246.857 270.42 247.666 269.777C247.666 269.777 246.923 269.189 246.412 269.303C245.865 269.628 245.458 270.137 245.267 270.734C244.794 272.067 244.571 273.474 244.61 274.886C244.641 276.788 244.61 282.607 244.61 282.607C244.61 282.607 244.871 283.836 246.55 284.752C248.229 285.668 249.474 285.755 250.612 285.496C251.552 285.281 252.328 284.958 252.653 284.291C252.567 282.957 251.96 279.478 252.186 277.801C252.412 276.123 252.775 274.871 252.87 273.511C252.964 272.151 252.688 272.183 251.993 271.701C251.576 271.394 251.138 271.117 250.68 270.873Z" fill="#EDEDED"/>
<path d="M249.568 285.949C249.866 285.779 250.076 285.537 250.517 285.331C250.905 285.149 251.174 285.071 251.442 284.78C251.709 284.488 252.045 283.304 252.332 282.189C252.609 280.933 252.665 279.641 252.496 278.367C252.238 276.844 251.527 274.738 251.323 273.863C251.12 272.988 251.387 272.619 251.784 272.267C252.249 271.853 252.941 271.978 253.388 273.189C253.972 274.868 254.364 276.606 254.557 278.369C254.662 279.681 254.544 281 254.208 282.275C253.91 283.459 253.474 284.325 252.911 285.412C252.757 285.708 252.72 285.966 252.494 286.564C252.279 287.165 251.919 287.706 251.444 288.141C251.023 288.482 250.817 288.537 250.71 288.486C250.602 288.434 250.591 288.271 250.767 288.102C251.064 287.842 251.31 287.532 251.494 287.186C251.494 287.186 251.133 287.591 250.896 287.815C250.685 288.014 250.448 288.185 250.19 288.323C249.938 288.452 249.565 288.261 249.736 288.078C249.907 287.896 250.089 287.802 250.438 287.465C250.622 287.288 250.785 287.09 250.922 286.875C250.677 287.086 250.414 287.278 250.137 287.448C249.923 287.597 249.668 287.681 249.405 287.692C249.269 287.692 249.092 287.521 249.333 287.323C249.574 287.126 249.905 287.01 250.267 286.607C250.53 286.313 250.675 286.071 250.593 286.071C250.512 286.071 250.374 286.253 250.048 286.378C249.721 286.502 249.364 286.433 249.309 286.257C249.254 286.082 249.269 286.12 249.568 285.949Z" fill="#FFCEA9"/>
<path d="M246.329 265.938C246.549 264.546 247.575 263.491 249.041 263.578C249.631 263.609 250.197 263.819 250.658 264.181C251.119 264.542 251.453 265.036 251.612 265.593C251.771 266.15 251.747 266.741 251.544 267.284C251.34 267.827 250.968 268.294 250.479 268.619C250.43 268.829 250.356 269.033 250.26 269.228C249.743 269.822 248.173 270.189 247.721 270.124C247.143 270.043 246.829 269.807 246.553 269.189C246.051 268.087 246.211 266.626 246.329 265.938Z" fill="#FFCEA9"/>
<path d="M250.477 268.61L250.341 267.396C250.341 267.396 251.356 264.823 248.96 265.32C247.377 265.646 246.987 265.786 246.5 264.748C246.014 263.71 247.715 262.777 249.732 263.032C250.426 263.103 251.067 263.427 251.529 263.939C251.991 264.451 252.24 265.114 252.226 265.796C252.172 266.564 251.968 268.111 250.477 268.61Z" fill="#4F527D"/>
<path d="M254.578 275.581C254.578 275.581 253.262 276.855 251.728 276.488C251.509 276.34 250.974 273.365 250.974 273.365C250.974 273.365 250.974 271.718 252.267 271.761C253.56 271.804 254.578 275.581 254.578 275.581Z" fill="#D5D7E2"/>
<path d="M244.703 273.115C244.703 273.115 244.019 273.08 243.736 272.686C243.789 272.021 244.661 269.49 246.413 269.301C245.937 269.627 245.558 270.071 245.317 270.588C244.999 271.362 244.703 273.115 244.703 273.115Z" fill="#D5D7E2"/>
<defs>
<linearGradient id="paint0_linear_92_30665" x1="311.565" y1="307.602" x2="311.565" y2="213.092" gradientUnits="userSpaceOnUse">
<stop stop-color="#9499C7"/>
<stop offset="1" stop-color="#4F527D"/>
</linearGradient>
<linearGradient id="paint1_linear_92_30665" x1="133.914" y1="306.465" x2="133.914" y2="211.956" gradientUnits="userSpaceOnUse">
<stop stop-color="#9499C7"/>
<stop offset="1" stop-color="#4F527D"/>
</linearGradient>
<linearGradient id="paint2_linear_92_30665" x1="221.952" y1="47.1204" x2="221.952" y2="75.181" gradientUnits="userSpaceOnUse">
<stop stop-color="#154078"/>
<stop offset="1" stop-color="#38E6E6" stop-opacity="0.4"/>
</linearGradient>
</defs>
</svg>
