<svg width="450" height="343" viewBox="0 0 450 343" fill="none" xmlns="http://www.w3.org/2000/svg">
<g opacity="0.6">
<rect width="35.6825" height="63.1791" rx="8" transform="matrix(0.870691 0.49183 -2.25171e-08 1 50.9424 96.0123)" fill="#4F527D"/>
<rect width="35.6826" height="63.1791" rx="8" transform="matrix(0.870691 0.49183 -2.25172e-08 1 48.7891 97.4164)" fill="#4F527D"/>
<rect width="35.6826" height="63.1791" rx="8" transform="matrix(0.870692 0.49183 -2.25172e-08 1 48.7891 98.8204)" fill="white"/>
<rect width="24.9778" height="1.40398" rx="0.701988" transform="matrix(0.870692 0.491829 -2.25172e-08 1 53.4482 111.631)" fill="#DAE7EB"/>
<rect width="10.7048" height="1.40397" rx="0.701986" transform="matrix(0.870693 0.491827 -2.25173e-08 1 59.6636 112.334)" fill="#DAE7EB"/>
<rect width="28.546" height="10.5298" rx="4" transform="matrix(0.870691 0.49183 -2.25172e-08 1 51.8945 119.88)" fill="white"/>
<rect width="7.1365" height="7.01988" rx="3.50994" transform="matrix(0.870692 0.491829 -2.25172e-08 1 68.9844 131.287)" fill="#9499C7"/>
<rect width="14.273" height="1.40398" rx="0.701991" transform="matrix(0.870691 0.491831 -2.25171e-08 1 53.4482 122.513)" fill="#DAE7EB"/>
<rect width="10.7048" height="0.701991" rx="0.350995" transform="matrix(0.870691 0.491831 -2.25171e-08 1 53.4482 124.619)" fill="#DAE7EB"/>
<rect width="8.92064" height="0.70199" rx="0.350995" transform="matrix(0.870691 0.49183 -2.25171e-08 1 53.4482 126.023)" fill="#DAE7EB"/>
<rect width="7.13651" height="0.701987" rx="0.350994" transform="matrix(0.870692 0.491828 -2.25172e-08 1 53.4482 129.532)" fill="#DAE7EB"/>
<rect width="28.546" height="10.5298" rx="4" transform="matrix(0.870691 0.49183 -2.25172e-08 1 51.8945 132.165)" fill="white"/>
<rect width="7.1365" height="7.01987" rx="3.50994" transform="matrix(0.870692 0.491829 -2.25172e-08 1 68.9844 143.572)" fill="#47A4DD"/>
<rect width="14.273" height="1.40398" rx="0.70199" transform="matrix(0.870691 0.49183 -2.25171e-08 1 53.4482 134.798)" fill="#DAE7EB"/>
<rect width="10.7048" height="0.701987" rx="0.350994" transform="matrix(0.870692 0.491829 -2.25172e-08 1 53.4482 136.903)" fill="#DAE7EB"/>
<rect width="8.92064" height="0.70199" rx="0.350995" transform="matrix(0.870691 0.49183 -2.25171e-08 1 53.4482 138.307)" fill="#DAE7EB"/>
<rect width="7.13651" height="0.701987" rx="0.350994" transform="matrix(0.870692 0.491828 -2.25172e-08 1 53.4482 141.817)" fill="#DAE7EB"/>
<rect width="28.5461" height="10.5299" rx="4" transform="matrix(0.870691 0.49183 -2.25171e-08 1 51.8945 144.45)" fill="white"/>
<rect width="7.13651" height="7.01989" rx="3.50994" transform="matrix(0.870692 0.491829 -2.25172e-08 1 68.9844 155.857)" fill="#63A650"/>
<rect width="14.273" height="1.40397" rx="0.701987" transform="matrix(0.870692 0.491829 -2.25172e-08 1 53.4482 147.082)" fill="#DAE7EB"/>
<rect width="10.7048" height="0.701992" rx="0.350996" transform="matrix(0.87069 0.491832 -2.2517e-08 1 53.4482 149.188)" fill="#DAE7EB"/>
<rect width="8.92064" height="0.701992" rx="0.350996" transform="matrix(0.87069 0.491832 -2.2517e-08 1 53.4482 150.592)" fill="#DAE7EB"/>
<rect width="7.1365" height="0.701983" rx="0.350991" transform="matrix(0.870694 0.491826 -2.25174e-08 1 53.4482 154.102)" fill="#DAE7EB"/>
<rect width="57.0921" height="57.0921" rx="8" transform="matrix(0.870691 -0.49183 0.870691 0.49183 0 212.192)" fill="#6D6D6D"/>
<path fill-rule="evenodd" clip-rule="evenodd" d="M6.96529 208.258C3.11834 210.431 3.11834 213.954 6.9653 216.127L42.7846 236.361C46.6316 238.534 52.8687 238.534 56.7157 236.361L92.535 216.127C96.382 213.954 96.382 210.431 92.535 208.258L84.0799 203.482L91.5248 202.259C95.8846 201.542 95.8846 200.381 91.5248 199.664L71.4941 196.373L56.7157 188.025C52.8688 185.852 46.6316 185.852 42.7846 188.025L28.0398 196.354L7.89386 199.664C3.53406 200.381 3.53407 201.542 7.89387 202.259L15.402 203.492L6.96529 208.258Z" fill="#EDEEF2"/>
<rect width="57.0503" height="57.0503" rx="8" transform="matrix(0.870691 -0.49183 0.870691 0.49183 0 200.961)" fill="white"/>
<path opacity="0.4" d="M49.4063 206.169C54.3035 206.169 58.2735 203.926 58.2735 201.159C58.2735 198.393 54.3035 196.15 49.4063 196.15C44.509 196.15 40.5391 198.393 40.5391 201.159C40.5391 203.926 44.509 206.169 49.4063 206.169Z" fill="#D6D8E5"/>
<path d="M43.0894 164.016C42.9908 164.859 41.9617 168.499 42.1823 169.746C42.4028 170.993 45.9184 173.079 45.9184 173.079L46.4061 170.944L44.4591 169.085L44.9844 165.551L43.0894 164.016Z" fill="#FFCEA9"/>
<path d="M45.8088 160.428C45.3069 160.216 44.3746 160.169 43.8511 161.007C43.3276 161.846 42.7969 164.719 42.7485 165.217C42.7485 165.217 43.4746 166.198 44.5629 166.034L45.8088 160.428Z" fill="#EDEDED"/>
<path d="M49.8242 201.009C50.5894 201.215 51.4067 201.118 52.0993 200.739C52.6461 200.754 55.6203 199.511 56.0255 200.555C56.3841 201.472 55.0914 202.319 54.403 202.484C52.9006 202.835 51.7891 203.573 51.1849 203.698C50.7367 203.791 50.1541 203.852 49.7955 203.507C49.367 203.093 49.4029 201.558 49.8242 201.009Z" fill="#4F527D"/>
<path d="M51.1843 203.445C51.7885 203.322 52.9 202.589 54.4024 202.233C54.9796 202.096 55.9729 201.478 56.0732 200.742C56.2059 201.585 55.0442 202.334 54.4024 202.485C52.9 202.836 51.7885 203.575 51.1843 203.699C50.7361 203.792 50.1534 203.853 49.7949 203.508C49.7024 203.407 49.6349 203.287 49.5977 203.157C50.1212 203.582 50.7361 203.538 51.1843 203.445Z" fill="#4F527D"/>
<path d="M44.9966 198.892C45.7615 199.099 46.5792 199.003 47.2717 198.623C47.8203 198.639 50.7928 197.395 51.1979 198.448C51.5565 199.365 50.2639 200.212 49.5754 200.377C48.0731 200.728 46.9615 201.467 46.3592 201.591C45.9092 201.684 45.3265 201.745 44.9697 201.398C44.5395 200.974 44.5771 199.439 44.9966 198.892Z" fill="#4F527D"/>
<path d="M46.3601 201.326C46.9625 201.202 48.074 200.47 49.5764 200.114C50.1536 199.977 51.1469 199.358 51.2473 198.623C51.3817 199.467 50.2182 200.216 49.5764 200.367C48.074 200.717 46.9625 201.456 46.3601 201.58C45.9101 201.673 45.3274 201.735 44.9706 201.387C44.8768 201.288 44.8091 201.168 44.7734 201.037C45.2951 201.461 45.9101 201.419 46.3601 201.326Z" fill="#4F527D"/>
<path d="M44.9376 190.986C45.0664 189.905 45.2962 188.838 45.6243 187.799C45.6243 187.799 45.4199 185.046 45.3177 182.44C45.2012 179.481 44.1524 176.876 44.9789 174.515L54.3122 176.546C54.3122 176.546 53.7475 188.344 53.622 189.772C53.5545 190.883 53.4156 191.989 53.206 193.084C52.7794 195.374 52.0873 200.822 52.0873 200.822C51.0995 201.384 49.8051 201.073 49.8051 201.073C49.8051 201.073 49.8768 194.183 49.9396 192.533C50.0167 190.517 50.0794 190.672 50.0794 190.672L49.771 185.653L49.5702 183.156C49.5702 183.156 49.3121 184.989 49.1436 186.625C48.9965 188.053 48.6452 189.344 48.2472 192C47.9065 194.304 47.3508 198.935 47.3508 198.935C46.3647 199.496 45.0201 199.032 45.0201 199.032C45.0201 199.032 44.6705 192.985 44.9376 190.986Z" fill="#C22E49"/>
<path d="M46.3006 160.477C47.0177 160.512 47.5412 160.691 47.6308 160.477C47.7067 160.118 47.7606 159.755 47.7922 159.39C47.7097 159.188 47.6398 158.972 47.6398 158.972C46.7434 158.434 46.4655 157.49 46.3472 156.392C46.1482 154.513 47.1844 152.868 49.1045 152.672C50.9098 152.496 52.2383 153.724 52.5915 155.434C52.7833 156.274 53.1634 157.865 52.6489 159.249C52.362 160.023 51.9927 160.637 51.6216 160.756C51.2645 160.746 50.9083 160.715 50.5549 160.665C50.5549 160.665 50.4599 161.191 50.3935 161.521C50.3272 161.851 50.3541 162.033 51.0353 162.445C51.7166 162.857 50.0045 163.699 48.884 163.617C47.7635 163.534 46.5085 162.873 46.1625 162.165C45.7807 161.384 45.8129 160.454 46.3006 160.477Z" fill="#FFCEA9"/>
<path d="M47.3298 160.581C47.1325 161.062 47.6327 161.649 48.9684 162.06C50.304 162.47 50.4223 161.942 50.4223 161.942C50.4223 161.942 52.3801 162.819 53.0165 163.249C53.8179 163.798 54.1729 165.384 54.2822 168.06C54.4059 171.158 54.4167 175.754 54.3127 176.547C54.3127 176.547 52.8157 178.006 50.9064 177.852C48.9971 177.697 45.7664 176.04 44.9902 174.757C45.0117 172.042 45.3362 171.6 44.8862 170.036C43.8571 166.454 43.3157 164.987 43.8105 162.607C44.2228 160.644 44.8001 160.401 45.5925 160.42C46.1741 160.444 46.754 160.497 47.3298 160.581Z" fill="#F4F4F4"/>
<path d="M57.2928 170.622C55.7205 171.009 55.3512 170.039 55.1415 169.236C54.6413 167.291 54.3723 165.535 53.9994 164.432C53.5602 163.13 53.103 162.921 52.454 162.669C51.6939 162.371 51.0413 162.999 51.2941 164.654C51.5935 166.615 51.9861 167.987 52.7283 170.311C52.9238 170.916 53.3612 171.993 54.0192 172.513C54.8295 173.154 56.0522 173.126 57.9006 172.677C58.6894 172.484 59.5535 172.023 61.0451 171.343C61.4449 171.167 61.7623 171.039 62.5242 170.688C63.2861 170.337 64.0929 169.753 64.4963 169.183C64.8997 168.613 64.9517 168.345 64.8692 168.215C64.767 168.052 64.5841 168.087 64.369 168.327C64.0586 168.733 63.6753 169.08 63.2377 169.352C63.2377 169.352 63.7343 168.85 64.0033 168.524C64.2446 168.235 64.4448 167.915 64.5985 167.573C64.7401 167.24 64.4479 166.789 64.2256 167.026C64.0033 167.263 63.8975 167.505 63.4905 167.982C63.2756 168.236 63.0307 168.463 62.7609 168.661C63.0131 168.328 63.2379 167.976 63.4332 167.608C63.6913 167.092 63.6877 166.828 63.677 166.654C63.6662 166.48 63.4152 166.273 63.1804 166.601C62.967 166.898 62.8218 167.361 62.336 167.864C61.9774 168.229 61.6708 168.44 61.6619 168.338C61.6529 168.236 61.8788 168.036 62.0079 167.612C62.137 167.187 62.0079 166.735 61.7676 166.689C61.5274 166.643 61.574 166.654 61.3804 167.05C61.1868 167.447 60.8928 167.741 60.6633 168.322C60.4643 168.832 60.3746 169.039 60.0161 169.411C59.6414 169.808 58.788 170.253 57.2928 170.622Z" fill="#FFCEA9"/>
<path d="M51.8751 162.402C52.9257 162.251 53.6679 162.714 54.1305 164.27C54.593 165.826 54.9193 167.104 54.9193 167.104C54.5035 167.691 53.8743 168.099 53.1606 168.246C51.9056 168.544 51.452 167.957 51.452 167.957C51.452 167.957 51.0935 166.326 50.8855 165.215C50.6775 164.105 50.5753 162.595 51.8751 162.402Z" fill="#EDEDED"/>
<path d="M52.5315 155.194C52.5315 155.194 54.1917 152.727 50.5971 152.223C48.0047 151.862 46.3374 153.491 46.1456 155.259C45.9663 156.949 47.0258 158.703 47.7932 159.399C48.1678 159.53 48.9746 159.606 50.0342 159.134C50.0766 158.674 50.0927 158.212 50.0826 157.75C50.0826 157.75 48.8186 155.149 52.5315 155.194Z" fill="#4F527D"/>
</g>
<rect width="110.079" height="56.2497" rx="8" transform="matrix(0.870691 -0.49183 2.25172e-08 1 314.289 148.26)" fill="#4F527D"/>
<rect width="110.08" height="56.7047" rx="8" transform="matrix(0.870684 -0.487693 2.27072e-08 1 320.039 152.375)" fill="white"/>
<rect width="0.357414" height="27.073" transform="matrix(0.870664 -0.48381 2.28881e-08 1 326.264 170.757)" fill="#E1ECEF"/>
<rect width="0.357382" height="27.073" transform="matrix(0.870664 -0.483851 2.28861e-08 1 339.333 163.374)" fill="#E1ECEF"/>
<rect width="0.357414" height="27.0731" transform="matrix(0.870664 -0.48381 2.28881e-08 1 352.403 155.991)" fill="#E1ECEF"/>
<rect width="0.357414" height="27.073" transform="matrix(0.870664 -0.483809 2.28881e-08 1 365.472 148.609)" fill="#E1ECEF"/>
<rect width="0.357414" height="27.073" transform="matrix(0.870664 -0.48381 2.28881e-08 1 378.542 141.226)" fill="#E1ECEF"/>
<path d="M326.264 195.018L334.387 181.31L338.76 183.798L345.842 171.847L352.09 168.352L360.213 154.644L365.316 157.547L368.336 152.45L374.376 155.886L378.854 148.329" stroke="#47A4DD" stroke-width="2" stroke-linecap="round" stroke-linejoin="round"/>
<path d="M326.264 195.018L334.387 185.859L338.76 185.88L345.842 177.895L352.09 174.387L360.213 165.229L365.316 165.253L368.336 161.848L374.376 161.876L378.854 156.827" stroke="#63A650" stroke-width="2" stroke-linecap="round" stroke-linejoin="round"/>
<path d="M326.264 195.018L334.387 188.75L338.76 187.197L345.842 181.733L352.09 178.213L360.213 171.945L365.316 170.133L368.336 167.803C368.336 167.803 372.017 166.496 374.376 165.658L378.854 162.203" stroke="#9499C7" stroke-width="2" stroke-linecap="round" stroke-linejoin="round"/>
<rect width="60.4008" height="4.27999" rx="2" transform="matrix(0.870691 -0.490815 2.25635e-08 1 326.261 156.284)" fill="#E1ECEF"/>
<rect width="45.3899" height="2.85391" rx="1.42695" transform="matrix(0.870691 -0.490917 2.25588e-08 1 326.261 162.632)" fill="#E1ECEF"/>
<rect width="22.8737" height="2.84976" rx="1.42488" transform="matrix(0.87069 -0.490201 2.25916e-08 1 388.188 124.14)" fill="#E1ECEF"/>
<rect width="10.0073" height="1.42435" rx="0.712176" transform="matrix(0.87069 -0.490017 2.26001e-08 1 327.82 169.863)" fill="#E1ECEF"/>
<rect width="10.0072" height="1.42436" rx="0.712179" transform="matrix(0.87069 -0.490021 2.25999e-08 1 340.89 162.48)" fill="#E1ECEF"/>
<rect width="10.0073" height="1.42435" rx="0.712173" transform="matrix(0.87069 -0.490015 2.26002e-08 1 353.959 155.097)" fill="#E1ECEF"/>
<rect width="10.0072" height="1.42435" rx="0.712176" transform="matrix(0.87069 -0.490019 2.26e-08 1 367.026 147.714)" fill="#E1ECEF"/>
<rect width="5.71841" height="1.42174" rx="0.710872" transform="matrix(0.870688 -0.489121 2.26413e-08 1 327.82 171.623)" fill="#E1ECEF"/>
<rect width="5.71847" height="1.42174" rx="0.710868" transform="matrix(0.870688 -0.489112 2.26416e-08 1 340.89 164.24)" fill="#E1ECEF"/>
<rect width="5.71853" height="1.42174" rx="0.710868" transform="matrix(0.870688 -0.489107 2.26419e-08 1 353.959 156.858)" fill="#E1ECEF"/>
<rect width="5.71841" height="1.42174" rx="0.710872" transform="matrix(0.870688 -0.489121 2.26412e-08 1 367.026 149.475)" fill="#E1ECEF"/>
<rect width="19.2997" height="1.42655" rx="0.713277" transform="matrix(0.870691 -0.490778 2.25652e-08 1 388.188 129.079)" fill="#E1ECEF"/>
<rect width="12.8664" height="1.42531" rx="0.712654" transform="matrix(0.87069 -0.490351 2.25847e-08 1 390.99 155.272)" fill="#E1ECEF"/>
<path d="M404.371 135.508C404.371 140.407 400.888 146.309 396.591 148.692C392.295 151.074 388.812 149.035 388.812 144.137C388.812 139.238 392.295 133.336 396.591 130.953C400.888 128.57 404.371 130.61 404.371 135.508ZM391.145 142.842C391.145 146.271 393.584 147.699 396.591 146.031C399.599 144.363 402.037 140.231 402.037 136.802C402.037 133.374 399.599 131.946 396.591 133.614C393.584 135.282 391.145 139.413 391.145 142.842Z" fill="#47A4DD"/>
<path d="M404.371 135.508C404.371 137.262 403.915 139.23 403.06 141.163C402.205 143.095 400.99 144.906 399.568 146.366C398.147 147.825 396.583 148.868 395.073 149.363C393.564 149.858 392.178 149.782 391.09 149.145C390.002 148.507 389.261 147.338 388.961 145.784C388.661 144.23 388.815 142.361 389.404 140.414C389.993 138.467 390.99 136.529 392.269 134.845C393.548 133.161 395.052 131.806 396.591 130.953L396.591 133.614C395.514 134.211 394.461 135.159 393.566 136.338C392.67 137.517 391.972 138.873 391.56 140.237C391.148 141.6 391.04 142.908 391.25 143.995C391.46 145.083 391.979 145.902 392.74 146.348C393.502 146.794 394.472 146.847 395.529 146.501C396.585 146.155 397.68 145.424 398.675 144.403C399.67 143.381 400.521 142.114 401.119 140.761C401.717 139.408 402.037 138.03 402.037 136.802L404.371 135.508Z" fill="#63A650"/>
<path d="M404.371 135.508C404.371 136.869 404.096 138.363 403.568 139.876C403.041 141.389 402.274 142.879 401.327 144.233C400.38 145.586 399.279 146.765 398.109 147.68C396.939 148.594 395.73 149.219 394.578 149.506L395.182 146.601C395.989 146.4 396.834 145.963 397.654 145.322C398.473 144.682 399.244 143.857 399.906 142.91C400.569 141.962 401.106 140.919 401.475 139.86C401.845 138.801 402.037 137.755 402.037 136.802L404.371 135.508Z" fill="#9499C7"/>
<rect width="57.0917" height="57.0917" rx="8" transform="matrix(0.870691 -0.49183 0.870691 0.49183 350.581 213.2)" fill="#6D6D6D"/>
<path fill-rule="evenodd" clip-rule="evenodd" d="M357.547 209.265C353.7 211.438 353.7 214.961 357.547 217.134L393.325 237.344C397.172 239.517 403.409 239.517 407.256 237.344L443.034 217.134C446.881 214.961 446.881 211.438 443.034 209.265L434.597 204.498L442.106 203.265C446.466 202.548 446.466 201.387 442.106 200.67L421.958 197.359L407.256 189.054C403.409 186.881 397.172 186.881 393.325 189.054L378.623 197.359L358.476 200.67C354.116 201.387 354.116 202.548 358.476 203.265L365.984 204.498L357.547 209.265Z" fill="#EDEEF2"/>
<rect width="57.0917" height="57.0917" rx="8" transform="matrix(0.870691 -0.49183 0.870691 0.49183 350.581 201.968)" fill="#FDFDFD"/>
<path opacity="0.4" d="M401.165 206.475C405.944 206.475 409.819 204.285 409.819 201.585C409.819 198.885 405.944 196.696 401.165 196.696C396.386 196.696 392.511 198.885 392.511 201.585C392.511 204.285 396.386 206.475 401.165 206.475Z" fill="#D6D8E5"/>
<path d="M408.319 164.35C408.419 165.194 409.449 168.844 409.228 170.094C409.007 171.343 405.495 173.435 405.495 173.435L405.02 171.293L406.97 169.435L406.443 165.888L408.319 164.35Z" fill="#FFCEA9"/>
<path d="M405.593 160.755C405.936 160.599 406.325 160.572 406.687 160.679C407.049 160.785 407.358 161.018 407.556 161.333C408.07 162.176 408.614 165.051 408.661 165.547C408.661 165.547 407.933 166.532 406.844 166.366L405.593 160.755Z" fill="#EDEDED"/>
<path d="M401.572 201.447C400.805 201.653 399.985 201.557 399.29 201.178C398.74 201.193 395.76 199.946 395.354 200.994C394.999 201.924 396.289 202.754 396.98 202.925C398.486 203.284 399.594 204.018 400.205 204.141C400.657 204.234 401.233 204.297 401.6 203.95C402.029 203.523 401.993 201.985 401.572 201.447Z" fill="#4F527D"/>
<path d="M400.204 203.877C399.6 203.752 398.485 203.018 396.979 202.661C396.401 202.525 395.404 201.907 395.304 201.167C395.17 202.012 396.332 202.764 396.979 202.915C398.485 203.274 399.592 204.008 400.204 204.131C400.656 204.224 401.232 204.287 401.599 203.94C401.692 203.839 401.76 203.717 401.797 203.586C401.573 203.752 401.312 203.865 401.036 203.915C400.759 203.966 400.474 203.953 400.204 203.877Z" fill="#4F527D"/>
<path d="M406.406 199.312C405.639 199.521 404.819 199.424 404.125 199.043C403.575 199.059 400.595 197.809 400.191 198.857C399.834 199.777 401.126 200.617 401.815 200.791C403.321 201.148 404.428 201.884 405.04 202.01C405.492 202.103 406.067 202.163 406.435 201.816C406.864 201.399 406.838 199.86 406.406 199.312Z" fill="#4F527D"/>
<path d="M405.042 201.753C404.438 201.627 403.323 200.893 401.818 200.536C401.239 200.401 400.242 199.782 400.155 199.043C400.022 199.888 401.183 200.64 401.818 200.79C403.323 201.147 404.431 201.884 405.042 202.01C405.494 202.103 406.07 202.163 406.437 201.816C406.529 201.714 406.597 201.593 406.635 201.462C406.411 201.628 406.15 201.74 405.874 201.791C405.597 201.842 405.313 201.829 405.042 201.753Z" fill="#4F527D"/>
<path d="M406.467 191.391C406.338 190.308 406.108 189.24 405.778 188.198C405.778 188.198 405.984 185.433 406.087 182.824C406.202 179.858 407.256 177.246 406.423 174.883L397.076 176.911C397.076 176.911 397.641 188.739 397.769 190.162C397.837 191.275 397.977 192.384 398.188 193.48C398.615 195.778 399.308 201.238 399.308 201.238C400.298 201.801 401.595 201.489 401.595 201.489C401.595 201.489 401.526 194.584 401.462 192.927C401.385 190.916 401.32 191.069 401.32 191.069L401.629 186.042L401.832 183.54C401.832 183.54 402.089 185.378 402.258 187.027C402.407 188.457 402.759 189.752 403.155 192.414C403.497 194.724 404.052 199.368 404.052 199.368C405.041 199.931 406.385 199.463 406.385 199.463C406.385 199.463 406.731 193.402 406.467 191.391Z" fill="#C22E49"/>
<path d="M405.099 160.803C404.387 160.838 403.855 161.016 403.765 160.803C403.691 160.442 403.637 160.078 403.603 159.712C403.686 159.511 403.758 159.294 403.758 159.294C404.652 158.754 404.945 157.809 405.042 156.708C405.243 154.822 404.202 153.188 402.278 152.987C400.466 152.804 399.138 154.048 398.783 155.752C398.591 156.597 398.21 158.188 398.727 159.579C399.012 160.353 399.384 160.971 399.754 161.087C400.113 161.077 400.471 161.047 400.826 160.996C400.826 160.996 400.924 161.519 400.988 161.854C401.052 162.188 401.029 162.356 400.345 162.784C399.662 163.211 401.373 164.041 402.499 163.96C403.624 163.88 404.875 163.206 405.23 162.505C405.623 161.713 405.59 160.78 405.099 160.803Z" fill="#FFCEA9"/>
<path d="M404.071 160.909C404.268 161.389 403.765 161.977 402.429 162.389C401.093 162.802 400.969 162.271 400.969 162.271C400.969 162.271 399.006 163.146 398.367 163.581C397.565 164.131 397.21 165.72 397.1 168.405C396.974 171.51 396.966 176.115 397.069 176.912C397.069 176.912 398.572 178.375 400.491 178.219C402.411 178.063 405.63 176.404 406.432 175.119C406.409 172.397 406.085 171.952 406.535 170.386C407.562 166.794 408.11 165.325 407.609 162.947C407.195 160.979 406.614 160.735 405.81 160.755C405.228 160.775 404.647 160.826 404.071 160.909Z" fill="#F4F4F4"/>
<path d="M394.09 171.491C395.667 171.881 396.035 170.908 396.245 170.096C396.759 168.148 397.016 166.378 397.389 165.282C397.828 163.975 398.291 163.774 398.93 163.522C399.701 163.226 400.356 163.854 400.092 165.516C399.794 167.479 399.398 168.862 398.648 171.185C398.452 171.793 398.013 172.871 397.363 173.392C396.551 174.035 395.328 174.008 393.473 173.558C392.682 173.364 391.811 172.904 390.32 172.22C389.919 172.037 389.609 171.916 388.838 171.564C388.064 171.225 387.386 170.707 386.862 170.056C386.456 169.483 386.405 169.214 386.487 169.083C386.569 168.952 386.772 168.955 387.001 169.199C387.313 169.604 387.698 169.95 388.136 170.222C388.136 170.222 387.638 169.719 387.366 169.392C387.123 169.103 386.923 168.782 386.769 168.439C386.626 168.108 386.918 167.655 387.142 167.891C387.366 168.128 387.473 168.372 387.882 168.849C388.091 169.1 388.331 169.326 388.596 169.52C388.343 169.185 388.118 168.83 387.923 168.46C387.754 168.168 387.671 167.837 387.684 167.502C387.684 167.328 387.941 167.12 388.198 167.451C388.455 167.783 388.547 168.206 389.046 168.708C389.403 169.075 389.711 169.284 389.719 169.184C389.727 169.083 389.501 168.882 389.372 168.457C389.244 168.032 389.372 167.58 389.611 167.527C389.85 167.474 389.806 167.489 389.999 167.889C390.192 168.289 390.487 168.588 390.711 169.163C390.832 169.573 391.055 169.948 391.358 170.254C391.726 170.674 392.581 171.122 394.09 171.491Z" fill="#FFCEA9"/>
<path d="M399.514 163.259C398.46 163.103 397.715 163.568 397.253 165.117C396.79 166.665 396.466 167.965 396.466 167.965C396.884 168.553 397.515 168.964 398.231 169.111C399.49 169.408 399.94 168.822 399.94 168.822C399.94 168.822 400.29 167.193 400.508 166.072C400.726 164.951 400.816 163.442 399.514 163.259Z" fill="#EDEDED"/>
<path d="M398.852 155.506C398.852 155.506 397.19 153.032 400.792 152.53C403.392 152.165 405.07 153.787 405.255 155.571C405.44 157.263 404.374 159.025 403.603 159.722C403.228 159.855 402.416 159.928 401.36 159.47C401.315 159.007 401.297 158.541 401.309 158.075C401.309 158.075 402.575 155.463 398.852 155.506Z" fill="#4F527D"/>
<path d="M407.37 166.469L397.075 175.861L396.474 193.92C396.474 193.92 399.362 195.3 402.64 194.554L403.241 187.62L404.151 193.905L404.043 194.096C405.598 193.414 406.931 192.327 407.897 190.954L407.37 166.469Z" fill="#F4F4F4"/>
<path d="M396.466 167.965L395.952 170.144C395.952 170.144 395.521 171.67 394.411 171.283C393.366 170.853 392.347 170.363 391.361 169.817L390.03 172.49L392.782 173.746C392.782 173.746 396.602 175.079 397.663 173.746C398.725 172.414 399.917 168.817 399.917 168.817L396.466 167.965Z" fill="#EDEDED"/>
<g opacity="0.6">
<rect width="57.0916" height="57.0916" rx="8" transform="matrix(0.870691 -0.49183 0.870691 0.49183 171.54 314.772)" fill="#4F527D"/>
<path fill-rule="evenodd" clip-rule="evenodd" d="M178.505 310.837C174.658 313.01 174.658 316.533 178.505 318.706L214.283 338.916C218.13 341.089 224.368 341.089 228.215 338.916L263.993 318.706C267.84 316.533 267.84 313.01 263.993 310.837L255.556 306.071L263.064 304.837C267.424 304.121 267.424 302.959 263.064 302.243L242.918 298.932L228.215 290.627C224.368 288.454 218.13 288.454 214.283 290.627L199.58 298.932L179.434 302.243C175.074 302.959 175.074 304.121 179.434 304.837L186.942 306.071L178.505 310.837Z" fill="#EDEEF2"/>
<rect width="57.0917" height="57.0917" rx="8" transform="matrix(0.870691 -0.491831 0.870691 0.491831 171.54 303.54)" fill="#FDFDFD"/>
<path opacity="0.4" d="M221.228 291.55C225.291 291.55 228.585 289.69 228.585 287.394C228.585 285.099 225.291 283.238 221.228 283.238C217.165 283.238 213.871 285.099 213.871 287.394C213.871 289.69 217.165 291.55 221.228 291.55Z" fill="#D6D8E5"/>
<path d="M220.905 248.531C221.2 248.068 223.454 247.764 224.196 249.632C224.475 250.34 224.433 252.151 224.67 253.287C224.906 254.423 225.458 255.07 225.642 255.993C225.827 256.916 225.519 258.461 223.246 258.737C220.973 259.013 219.225 258.23 218.687 257.519C218.149 256.808 218.139 255.298 218.687 254.496C219.235 253.693 219.66 253.027 219.66 251.958L220.905 248.531Z" fill="#4F527D"/>
<path d="M218.205 256.348C218.205 256.348 217.67 260.051 218.682 262.655C219.693 265.26 219.411 261.98 219.411 261.98L219.168 261.199C219.168 261.199 218.967 258.185 219.051 257.446C219.135 256.707 219.116 256.072 219.168 256.012C219.22 255.952 218.97 255.834 218.863 255.819C218.756 255.803 218.205 256.348 218.205 256.348Z" fill="#FFCEA9"/>
<path d="M222.393 248.211C222.393 248.211 220.697 247.732 219.669 248.63C219.329 248.935 219.082 249.326 218.954 249.76C218.826 250.193 218.822 250.653 218.943 251.088C219.079 251.612 219.354 252.329 219.779 252.357C220.204 252.386 222.393 248.211 222.393 248.211Z" fill="#4F527D"/>
<path d="M223.041 252.754C223.041 252.754 222.93 254.604 222.966 254.74C223.002 254.877 223.705 255.007 223.906 255.169C224.107 255.33 222.879 257.205 222.253 257.485C221.627 257.764 219.698 257.053 219.565 256.111C219.441 255.248 220.116 254.575 220.379 254.341C220.556 254.329 220.733 254.329 220.91 254.341L220.965 253.446C221.812 253.151 223.041 252.754 223.041 252.754Z" fill="#FFCEA9"/>
<path d="M223.299 254.902C223.831 254.984 224.437 255.26 224.521 255.536C224.741 256.561 224.688 257.624 224.369 258.623C223.908 259.813 223.6 260.571 223.334 261.085C223.334 261.085 221.035 262.037 219.184 260.923C219.184 260.923 219.054 259.654 219.048 258.966C217.336 257.506 218.798 255.704 220.248 254.305C220.421 254.293 220.596 254.293 220.77 254.305C220.77 254.305 219.473 255.803 220.377 256.653C222.3 256.085 222.683 255.241 223.299 254.902Z" fill="#F4F4F4"/>
<path d="M219.51 250.445C219.701 249.255 220.577 248.357 221.832 248.43C222.34 248.454 222.827 248.634 223.224 248.945C223.621 249.257 223.907 249.683 224.041 250.163C224.176 250.643 224.151 251.152 223.972 251.617C223.792 252.083 223.466 252.481 223.041 252.754C222.998 252.933 222.934 253.107 222.85 253.272C222.406 253.779 221.229 254.1 220.836 254.103C220.512 254.103 220.211 253.801 219.896 253.291C219.238 252.212 219.406 251.032 219.51 250.445Z" fill="#FFCEA9"/>
<path d="M222.217 248.453C223.096 248.621 223.819 248.862 224.059 249.706C224.221 250.289 224.435 251.397 224.231 251.863L224.108 252.202L223.041 252.754C223.041 252.754 222.545 252.348 222.7 251.168C222.693 251.008 222.642 250.852 222.551 250.718C222.484 250.606 222.433 250.485 222.402 250.359C222.276 250.039 222.03 249.778 221.715 249.63C220.92 249.195 219.769 249.569 219.601 249.728C219.819 249.252 220.199 248.865 220.676 248.633C221.153 248.4 221.698 248.336 222.217 248.453Z" fill="#4F527D"/>
<path d="M224.582 263.54C224.78 262.335 225.15 261.554 224.978 260.891C224.595 259.551 224.094 258.245 223.48 256.989C223.091 256.24 223.211 255.72 223.613 255.422C224.067 255.105 224.498 255.235 224.91 256.056C225.425 257.1 226.003 258.172 226.285 259.727C226.466 260.732 226.452 261.762 226.246 262.763C226.071 263.845 225.72 264.454 225.302 265.469C225.185 265.761 224.414 264.568 224.582 263.54Z" fill="#FFCEA9"/>
<path d="M223.816 286.011C223.371 286.363 222.678 286.119 222.645 286.151C222.129 286.587 221.587 286.993 221.024 287.369C220.745 287.582 220.314 287.867 220.392 288.28C220.531 289.012 221.731 288.787 222.185 288.562C222.639 288.337 223.005 287.966 223.433 287.705C223.741 287.518 224.039 287.423 224.082 287.046C224.111 286.817 223.894 286.002 223.816 286.011Z" fill="#4F527D"/>
<path d="M224.076 286.893C224.017 287.254 223.722 287.356 223.427 287.527C222.993 287.791 222.61 288.162 222.156 288.397C221.702 288.631 220.694 288.809 220.402 288.286C220.561 288.993 221.741 288.771 222.189 288.549C222.636 288.327 223.009 287.952 223.437 287.692C223.745 287.505 224.043 287.41 224.085 287.032C224.086 286.986 224.083 286.939 224.076 286.893Z" fill="#4F527D"/>
<path d="M220.693 285.399C220.288 285.716 219.672 285.542 219.642 285.574C219.168 285.97 218.671 286.341 218.154 286.684C217.898 286.878 217.506 287.141 217.574 287.515C217.703 288.188 218.803 287.982 219.218 287.775C219.633 287.569 219.97 287.23 220.362 286.992C220.641 286.82 220.917 286.732 220.962 286.386C220.988 286.176 220.768 285.393 220.693 285.399Z" fill="#4F527D"/>
<path d="M220.952 286.246C220.897 286.579 220.628 286.668 220.349 286.839C219.95 287.08 219.6 287.429 219.185 287.636C218.77 287.842 217.846 288.013 217.563 287.534C217.709 288.169 218.789 287.978 219.185 287.775C219.58 287.572 219.937 287.229 220.329 286.992C220.608 286.82 220.884 286.731 220.929 286.386C220.941 286.34 220.949 286.293 220.952 286.246Z" fill="#4F527D"/>
<path d="M218.298 265.158C218.496 263.658 219.06 261.478 219.06 261.478C219.595 261.724 220.173 261.865 220.763 261.894C221.626 261.889 222.486 261.806 223.334 261.647C223.611 262.12 223.914 262.579 224.242 263.02C224.683 263.62 225.539 264.924 225.335 267.236C225.202 268.737 224.339 275.117 224.339 275.117C224.674 276.19 224.852 277.304 224.868 278.426C224.79 279.758 224.61 281.082 224.33 282.388L223.817 286.011C223.817 286.011 223.133 286.493 222.647 286.151L222.708 282.607C222.65 281.741 222.562 280.463 222.504 279.644C222.413 278.315 222.18 276.202 222.099 275.672C222.018 275.142 221.855 274.222 221.774 273.188C221.693 272.154 221.294 266.907 221.294 266.907L221.239 267.89C221.239 267.89 221.184 269.476 220.951 271.456C220.717 273.435 220.627 274.311 220.627 274.311C220.848 274.707 221.004 275.136 221.087 275.58C221.129 276.005 221.625 279.387 221.327 281.088L220.724 285.431C220.572 285.533 220.397 285.599 220.214 285.623C220.03 285.646 219.844 285.627 219.67 285.567L219.31 281.176C219.07 279.504 218.561 275.964 218.483 275.504C218.31 274.577 218.208 273.638 218.178 272.696C218.058 270.796 218.104 266.659 218.298 265.158Z" fill="#FFCEA9"/>
<path d="M223.336 261.095L224.656 263.69C224.656 263.69 226.673 266.577 224.585 273.994L224.977 276.281C224.977 276.281 221.024 278.765 218.378 276.281C218.378 276.281 217.461 269.426 217.95 266.266C218.22 264.447 218.632 262.652 219.183 260.895C219.183 260.895 219.831 261.596 223.161 261.133" fill="#C22E49"/>
<path d="M225.705 257.529C225.705 257.529 224.787 258.424 223.698 258.312L223.176 256.561C223.176 256.561 222.852 255.651 223.63 255.251C224.408 254.851 225.248 255.746 225.705 257.529Z" fill="#EDEDED"/>
<path d="M220.248 254.315C220.248 254.315 219.197 253.998 218.085 256.278L218.5 256.523C219.021 255.742 219.606 255.004 220.248 254.315Z" fill="#EDEDED"/>
<path opacity="0.4" d="M192.594 307.62C197.089 307.62 200.733 305.562 200.733 303.022C200.733 300.483 197.089 298.424 192.594 298.424C188.098 298.424 184.454 300.483 184.454 303.022C184.454 305.562 188.098 307.62 192.594 307.62Z" fill="#D6D8E5"/>
<path opacity="0.4" d="M247.14 308.196C251.635 308.196 255.28 306.137 255.28 303.598C255.28 301.059 251.635 299 247.14 299C242.644 299 239 301.059 239 303.598C239 306.137 242.644 308.196 247.14 308.196Z" fill="#D6D8E5"/>
<path d="M188.76 301.868C189.316 302.31 190.134 301.906 190.173 301.949C190.826 302.538 191.51 303.095 192.221 303.616C192.58 303.883 193.108 304.237 193.007 304.75C192.835 305.662 191.339 305.381 190.772 305.101C190.205 304.82 189.746 304.36 189.212 304.048C188.831 303.816 188.458 303.697 188.397 303.226C188.347 302.928 188.648 301.857 188.76 301.868Z" fill="#4F527D"/>
<path d="M188.4 303.022C188.475 303.471 188.845 303.598 189.222 303.826C189.767 304.156 190.244 304.633 190.807 304.911C191.371 305.188 192.63 305.427 192.996 304.774C192.798 305.655 191.328 305.377 190.768 305.1C190.208 304.823 189.742 304.359 189.207 304.047C188.827 303.815 188.454 303.696 188.393 303.226C188.39 303.158 188.392 303.09 188.4 303.022Z" fill="#4F527D"/>
<path d="M193.56 300.116C194.116 300.559 195.085 300.078 195.128 300.116C195.705 300.689 196.314 301.23 196.954 301.734C197.313 301.998 197.84 302.356 197.743 302.868C197.567 303.781 196.071 303.5 195.508 303.219C194.945 302.938 194.482 302.475 193.948 302.166C193.567 301.934 193.191 301.815 193.133 301.345C193.097 301.046 193.463 300.106 193.56 300.116Z" fill="#4F527D"/>
<path d="M193.146 301.204C193.222 301.654 193.591 301.78 193.968 302.008C194.513 302.338 194.99 302.815 195.553 303.096C196.117 303.377 197.376 303.609 197.742 302.956C197.545 303.837 196.074 303.563 195.514 303.286C194.954 303.008 194.492 302.542 193.957 302.215C193.573 301.983 193.2 301.864 193.139 301.394C193.137 301.33 193.139 301.267 193.146 301.204Z" fill="#4F527D"/>
<path d="M188.711 281.833C188.74 282.654 188.998 286.22 189.116 288.105C189.235 289.99 189.26 292.317 189.26 292.317C189.26 292.317 188.926 293.689 188.711 295.307C188.496 296.925 188.711 302.022 188.711 302.022C188.924 302.158 189.174 302.23 189.428 302.23C189.683 302.23 189.932 302.158 190.146 302.022C190.146 302.022 191.036 297.94 191.445 296.101C191.854 294.261 191.929 293.201 192.141 292.064C192.399 290.685 192.955 284.251 192.955 284.251H193.177L193.773 291.513C193.589 292.049 193.463 292.601 193.396 293.163C193.235 294.346 193.568 300.298 193.568 300.298C193.805 300.427 194.074 300.49 194.345 300.479C194.616 300.467 194.879 300.383 195.104 300.235C195.104 300.235 196.585 292.352 196.585 291.155C196.585 290.358 196.449 279.899 196.449 279.899L188.711 281.833Z" fill="#C22E49"/>
<path d="M190.726 265.972C190.726 265.972 190.819 267.762 190.78 267.92C190.741 268.078 189.941 268.6 189.704 268.79C189.467 268.98 190.97 270.412 191.698 270.763C192.427 271.114 194.733 270.229 194.773 269.12C194.812 268.011 194.378 267.081 194.027 267.032C193.675 266.982 190.726 265.972 190.726 265.972Z" fill="#FFCEA9"/>
<path d="M195.73 269.292C195.838 268.502 195.307 267.751 195.82 267.123C197.614 268.857 197.399 273.441 197.808 276.372C199.149 277.74 201.843 279.092 202.6 279.425C202.737 279.488 202.859 279.555 202.83 279.699C202.729 280.187 202.514 280.646 202.202 281.04C200.408 280.289 199.135 279.857 196.907 277.786C196.696 277.562 196.508 277.319 196.344 277.059C195.709 275.192 195.547 270.654 195.73 269.292Z" fill="#FFCEA9"/>
<path d="M190.52 268.228C190.52 268.228 191.848 270.162 193.699 270.334C194.284 269.773 194.334 267.769 193.527 267.126C193.527 267.126 194.269 266.54 194.779 266.652C195.33 266.978 195.741 267.49 195.934 268.092C196.403 269.423 196.624 270.826 196.587 272.233C196.554 274.132 196.587 279.934 196.587 279.934C196.587 279.934 196.328 281.159 194.653 282.072C192.978 282.984 191.733 283.075 190.596 282.816C189.659 282.602 188.884 282.279 188.562 281.615C188.648 280.282 189.254 276.81 189.028 275.136C188.802 273.462 188.44 272.216 188.346 270.861C188.253 269.506 188.526 269.534 189.222 269.053C189.633 268.748 190.068 268.472 190.52 268.228Z" fill="#F4F4F4"/>
<path d="M194.858 263.304C194.639 261.9 193.617 260.847 192.149 260.942C191.561 260.972 190.997 261.183 190.537 261.543C190.077 261.904 189.744 262.397 189.586 262.952C189.427 263.508 189.451 264.098 189.653 264.64C189.856 265.181 190.227 265.647 190.714 265.971C190.765 266.182 190.841 266.386 190.94 266.579C191.457 267.172 193.025 267.537 193.473 267.474C193.741 267.453 193.997 267.354 194.207 267.189C194.416 267.025 194.571 266.802 194.65 266.551C195.138 265.448 194.983 263.988 194.858 263.304Z" fill="#FFCEA9"/>
<path d="M190.726 265.972L190.859 264.757C190.859 264.757 189.836 262.195 192.24 262.69C193.818 263.016 194.213 263.157 194.694 262.121C195.174 261.086 193.481 260.152 191.465 260.412C190.772 260.483 190.132 260.806 189.671 261.317C189.21 261.828 188.961 262.489 188.975 263.171C189.033 263.929 189.241 265.473 190.726 265.972Z" fill="#4F527D"/>
<path d="M187.921 270.061C188.613 269.868 188.086 270.026 188.613 269.868C190.407 271.598 190.195 274.567 190.604 277.498C191.602 279.116 195.3 281.293 195.3 281.293C195.347 281.605 195.236 281.696 194.834 282.346C192.775 281.573 190.902 280.391 189.334 278.874C189.245 278.793 189.116 278.769 189.08 278.66C188.445 276.779 187.738 271.426 187.921 270.061Z" fill="#FFCEA9"/>
<path d="M204.38 273.68L201.693 282.672L195.792 284.978L197.944 276.217L204.38 273.68Z" fill="#F4F4F4"/>
<path d="M194.371 281.366C194.458 281.057 194.684 281.134 194.942 281.211C195.218 281.321 195.522 281.347 195.814 281.285C196.04 281.176 196.251 281.037 196.438 280.871C196.557 280.801 196.693 280.763 196.832 280.762C196.832 280.839 196.696 281.296 196.696 281.296C196.696 281.296 197.991 281.296 198.131 281.296C198.176 281.288 198.222 281.294 198.263 281.312C198.304 281.331 198.338 281.362 198.36 281.4C198.383 281.439 198.393 281.483 198.388 281.527C198.384 281.572 198.365 281.613 198.336 281.647H198.425C198.687 281.591 198.784 281.998 198.536 282.047L198.321 282.078C198.493 282.145 198.536 282.429 198.321 282.465H198.253C198.222 282.47 198.191 282.47 198.16 282.465H198.084C198.091 282.495 198.091 282.526 198.085 282.556C198.079 282.586 198.066 282.615 198.048 282.64C198.03 282.665 198.006 282.686 197.979 282.702C197.952 282.718 197.922 282.728 197.891 282.731C197.259 282.812 196.33 283.058 195.76 282.549C195.364 282.512 194.977 282.41 194.615 282.247C194.275 282.078 194.264 281.731 194.371 281.366Z" fill="#FFCEA9"/>
<path d="M200.824 280.629H200.913C200.876 280.603 200.848 280.566 200.833 280.524C200.819 280.481 200.819 280.435 200.833 280.393C200.847 280.35 200.874 280.313 200.911 280.286C200.948 280.26 200.993 280.246 201.039 280.246C201.171 280.246 202.502 279.973 202.502 279.973L202.664 279.439C202.664 279.408 202.893 279.545 202.9 279.552C203.013 279.623 203.108 279.718 203.178 279.831C203.248 279.943 203.29 280.07 203.302 280.201C203.309 280.385 203.278 280.569 203.213 280.742C203.147 280.915 203.047 281.073 202.918 281.208C202.682 281.437 202.365 281.57 202.032 281.58C201.871 281.58 201.717 281.597 201.577 281.611C201.545 281.613 201.514 281.609 201.484 281.599C201.454 281.588 201.427 281.572 201.404 281.551C201.381 281.53 201.362 281.505 201.349 281.476C201.337 281.448 201.33 281.418 201.329 281.387H201.286C201.256 281.395 201.223 281.395 201.193 281.387H201.125C200.899 281.387 200.881 281.113 201.035 281.015H200.816C200.529 281.039 200.555 280.625 200.824 280.629Z" fill="#FFCEA9"/>
<path d="M196.484 270.464C196.848 270.448 197.192 270.297 197.446 270.043C197.396 269.376 196.528 266.852 194.777 266.663C195.246 266.993 195.618 267.438 195.853 267.954C196.128 268.774 196.339 269.613 196.484 270.464Z" fill="#EDEDED"/>
<path d="M187.607 273.799C187.607 273.799 189.347 274.389 190.574 273.399C190.71 273.174 189.856 270.275 189.856 270.275C189.856 270.275 189.139 268.794 187.983 269.383C186.828 269.973 187.607 273.799 187.607 273.799Z" fill="#EDEDED"/>
<path opacity="0.4" d="M221.266 324.551C225.195 324.551 228.38 322.752 228.38 320.533C228.38 318.313 225.195 316.514 221.266 316.514C217.337 316.514 214.152 318.313 214.152 320.533C214.152 322.752 217.337 324.551 221.266 324.551Z" fill="#D6D8E5"/>
<path d="M225.37 289.652C225.997 289.827 226.348 290.499 226.894 291.937C227.348 293.242 227.57 294.614 227.549 295.993C227.374 297.348 226.8 298.404 225.414 299.502L224.752 298.315C224.752 298.315 226.11 297.143 226.248 295.787C226.326 295.026 225.414 292.462 225.414 292.391C225.414 292.321 225.37 289.652 225.37 289.652Z" fill="#FFCEA9"/>
<path d="M219.942 320.897C219.733 320.959 219.513 320.976 219.297 320.948C219.08 320.919 218.873 320.845 218.688 320.731C218.349 320.731 216.359 319.968 216.108 320.615C215.888 321.182 216.688 321.71 217.111 321.811C218.052 322.029 218.729 322.483 219.105 322.56C219.247 322.609 219.4 322.624 219.549 322.604C219.699 322.584 219.841 322.528 219.964 322.443C220.224 322.185 220.202 321.234 219.942 320.897Z" fill="#4F527D"/>
<path d="M219.098 322.403C218.722 322.327 218.035 321.873 217.104 321.652C216.75 321.569 216.132 321.186 216.072 320.732C215.988 321.253 216.699 321.716 217.104 321.811C218.044 322.029 218.722 322.483 219.098 322.56C219.24 322.609 219.392 322.624 219.542 322.604C219.691 322.584 219.834 322.529 219.957 322.443C220.013 322.38 220.055 322.306 220.079 322.225C219.941 322.328 219.78 322.397 219.61 322.428C219.44 322.459 219.264 322.45 219.098 322.403Z" fill="#4F527D"/>
<path d="M224.998 318.327C224.816 318.388 224.621 318.405 224.431 318.377C224.24 318.349 224.059 318.276 223.904 318.164C223.591 318.164 221.543 317.434 221.302 318.057C221.092 318.603 221.86 319.106 222.267 319.204C223.164 319.416 223.835 319.854 224.186 319.928C224.323 319.975 224.47 319.989 224.614 319.97C224.758 319.95 224.895 319.897 225.014 319.814C225.271 319.566 225.249 318.652 224.998 318.327Z" fill="#4F527D"/>
<path d="M224.185 319.777C223.824 319.701 223.163 319.265 222.266 319.053C221.924 318.971 221.325 318.602 221.272 318.164C221.194 318.667 221.899 319.115 222.266 319.204C223.163 319.415 223.834 319.854 224.185 319.928C224.322 319.975 224.469 319.989 224.613 319.97C224.757 319.95 224.894 319.897 225.012 319.814C225.068 319.754 225.107 319.681 225.128 319.603C224.996 319.702 224.842 319.769 224.678 319.8C224.514 319.83 224.345 319.823 224.185 319.777Z" fill="#4F527D"/>
<path d="M225.665 313.385C225.666 312.638 225.535 311.896 225.277 311.192C225.277 311.192 225.534 308.189 225.731 306.217C226.02 303.309 226.477 303.02 226.358 301.253C226.239 299.615 225.286 298.554 225.038 297.444L220.188 297.818C220.188 297.818 219.765 299.164 219.219 301.845C218.674 304.526 218.636 307.713 218.68 311.934C218.68 313.023 218.492 313.968 218.555 316.68C218.599 318.502 218.705 320.735 218.705 320.735C219.414 321.33 219.906 320.891 219.906 320.891C219.906 320.891 221.16 315.493 221.333 314.253C221.464 313.568 221.406 312.86 221.163 312.204C221.163 312.204 221.527 310.508 221.79 309.174C222.104 307.545 222.935 304.029 222.935 304.029C222.935 304.029 222.794 309.431 223.035 310.496C223.276 311.56 223.317 312.486 223.524 313.934C223.772 315.683 223.885 318.244 223.885 318.244C224.625 318.704 224.954 318.351 224.954 318.351C224.954 318.351 225.665 314.916 225.665 313.385Z" fill="#FFCEA9"/>
<path d="M225.026 297.444C225.534 297.953 226.374 299.502 226.374 301.845C226.374 304.483 225.982 303.95 225.794 306.855L225.606 309.759C225.606 309.759 221.552 311.652 218.662 309.898C218.405 309.348 218.759 303.238 219.267 301.066C219.775 298.895 220.123 297.83 220.123 297.83C220.123 297.83 223.85 298.815 225.026 297.444Z" fill="#C22E49"/>
<path d="M225.086 289.624C224.052 289.563 223.951 289.732 223.87 289.373C223.842 289.244 223.782 288.355 223.782 288.355C223.877 288.236 223.964 288.111 224.042 287.98C224.389 287.775 224.683 287.494 224.901 287.16C225.118 286.825 225.254 286.445 225.296 286.051C225.369 285.366 225.161 284.681 224.718 284.146C224.275 283.611 223.632 283.27 222.932 283.198C221.562 283.06 220.553 284.002 220.283 285.296C220.139 285.934 219.988 287.238 220.396 288.284C220.625 288.876 220.838 289.29 221.384 289.269C221.566 289.253 221.746 289.222 221.923 289.177C221.952 289.422 221.962 289.669 221.954 289.916C221.954 290.177 221.985 290.305 221.465 290.618C220.945 290.931 222.249 291.569 223.098 291.508C223.948 291.447 224.901 290.943 225.165 290.407C225.453 289.805 225.572 289.652 225.086 289.624Z" fill="#FFCEA9"/>
<path d="M225.846 294.106C225.846 294.106 227.015 293.848 227.551 293.339C227.551 293.339 226.855 291.192 226.41 290.658C225.965 290.124 225.532 293.569 225.532 293.569L225.846 294.106Z" fill="#EDEDED"/>
<path d="M224.057 289.603C224.248 289.836 224.27 290.127 223.533 290.312C222.998 290.461 222.425 290.417 221.919 290.189C221.338 290.429 220.78 290.719 220.251 291.054C219.624 293.078 220.129 293.339 219.865 294.79C219.969 295.52 220.091 297.404 220.122 297.83C221.53 298.793 224.386 298.465 225.026 297.443C225.037 297.103 225.07 296.764 225.123 296.428C225.794 293.992 226.318 293.361 226.133 291.52C226.026 290.471 225.941 289.943 225.371 289.661C224.937 289.586 224.496 289.566 224.057 289.603Z" fill="#F4F4F4"/>
<path d="M211.133 297.523C211.452 297.59 211.767 297.679 212.074 297.787C212.362 297.935 212.672 298.039 212.992 298.094C213.337 298.146 213.876 297.971 214.808 297.542C215.827 297.03 216.75 296.352 217.535 295.536C218.428 294.497 219.225 293.383 219.918 292.207C220.322 291.487 220.834 291.306 221.279 291.447C221.812 291.619 221.878 292.137 221.279 293.106C220.514 294.372 219.599 295.545 218.551 296.6C217.725 297.409 216.763 298.073 215.707 298.563C214.955 298.946 214.149 299.22 213.315 299.376C213.024 299.437 212.826 299.557 212.287 299.741C211.751 299.932 211.175 299.994 210.61 299.922C210.142 299.833 209.983 299.729 209.964 299.615C209.945 299.502 210.039 299.422 210.258 299.437C210.604 299.491 210.957 299.483 211.299 299.413C211.299 299.413 210.816 299.398 210.531 299.364C210.275 299.337 210.024 299.275 209.785 299.18C209.556 299.085 209.471 298.732 209.703 298.744C209.935 298.756 210.092 298.824 210.519 298.867C210.744 298.893 210.971 298.893 211.196 298.867C210.914 298.821 210.636 298.754 210.365 298.664C210.141 298.606 209.939 298.485 209.785 298.315C209.707 298.226 209.729 298.008 210.001 298.063C210.33 298.175 210.671 298.248 211.017 298.281C211.365 298.281 211.613 298.253 211.569 298.201C211.525 298.149 211.318 298.155 211.055 298.011C210.791 297.867 210.635 297.588 210.741 297.453C210.848 297.318 210.848 297.419 211.133 297.523Z" fill="#FFCEA9"/>
<path d="M220.718 294.278C219.903 294.162 219.15 293.788 218.573 293.213L219.871 291.453C219.871 291.453 220.602 290.551 221.567 291.06C221.567 291.06 222.295 291.137 221.567 292.627C221.32 293.194 221.036 293.746 220.718 294.278Z" fill="#EDEDED"/>
<path d="M220.032 284.532C220.084 284.23 220.254 283.959 220.507 283.778C220.76 283.597 221.076 283.52 221.386 283.563C221.84 283.266 222.387 283.136 222.929 283.198C224.161 283.324 224.967 284.118 225.34 285.315C225.523 285.915 225.645 286.531 225.703 287.155C226.073 289.839 227.07 291.968 226.139 292.766C225.208 293.563 222.656 294.069 221.59 293.569C220.524 293.069 222.468 288.443 220.358 285.873C219.863 285.263 219.815 284.836 220.032 284.532Z" fill="#4F527D"/>
<path d="M251.2 303.367C250.646 303.809 249.826 303.404 249.784 303.444C249.132 304.038 248.447 304.595 247.732 305.115C247.386 305.383 246.856 305.739 246.943 306.252C247.119 307.17 248.618 306.895 249.184 306.606C249.749 306.316 250.212 305.862 250.747 305.533C251.128 305.302 251.505 305.182 251.564 304.71C251.599 304.427 251.299 303.354 251.2 303.367Z" fill="#4F527D"/>
<path d="M251.554 304.521C251.479 304.974 251.116 305.098 250.73 305.328C250.186 305.66 249.706 306.137 249.14 306.417C248.619 306.675 247.314 306.932 246.948 306.278C247.148 307.162 248.621 306.885 249.18 306.606C249.739 306.327 250.208 305.862 250.743 305.534C251.124 305.302 251.501 305.182 251.561 304.71C251.565 304.647 251.563 304.584 251.554 304.521Z" fill="#4F527D"/>
<path d="M246.376 301.611C245.819 302.055 244.841 301.57 244.806 301.611C244.228 302.185 243.616 302.726 242.973 303.23C242.627 303.498 242.086 303.854 242.184 304.367C242.357 305.283 243.859 305.01 244.425 304.721C244.99 304.431 245.45 303.977 245.988 303.648C246.369 303.417 246.744 303.297 246.803 302.825C246.84 302.542 246.474 301.6 246.376 301.611Z" fill="#4F527D"/>
<path d="M246.788 302.7C246.713 303.153 246.349 303.277 245.964 303.507C245.42 303.839 244.94 304.315 244.374 304.596C243.853 304.854 242.548 305.111 242.182 304.457C242.382 305.341 243.855 305.064 244.414 304.785C244.973 304.506 245.442 304.041 245.977 303.713C246.358 303.481 246.735 303.361 246.794 302.889C246.799 302.826 246.797 302.763 246.788 302.7Z" fill="#4F527D"/>
<path d="M251.232 283.291C251.206 284.112 250.943 287.685 250.827 289.575C250.71 291.464 250.684 293.783 250.684 293.783C250.684 293.783 251.017 295.16 251.232 296.786C251.447 298.411 251.232 303.514 251.232 303.514C251.02 303.647 250.773 303.718 250.521 303.718C250.268 303.718 250.022 303.647 249.809 303.514C249.809 303.514 248.919 299.424 248.507 297.581C248.095 295.739 248.023 294.677 247.81 293.534C247.551 292.153 246.995 285.706 246.995 285.706L246.775 285.719L246.179 292.996C246.364 293.532 246.49 294.085 246.556 294.647C246.716 295.833 246.385 301.798 246.385 301.798C246.148 301.926 245.88 301.988 245.609 301.977C245.338 301.966 245.076 301.883 244.851 301.736C244.851 301.736 243.367 293.837 243.367 292.633C243.367 291.84 243.505 281.354 243.505 281.354L251.232 283.291Z" fill="#C22E49"/>
<path d="M244.807 283.844C244.565 283.642 244.414 283.389 244.048 283.132C243.728 282.904 243.493 282.791 243.301 282.488C243.108 282.186 243.119 281.008 243.044 279.949C242.954 278.701 243.189 277.06 243.428 276.399C243.914 275.059 243.763 272.818 244.085 272.061C244.408 271.303 245.357 271.469 245.054 271.087C244.701 270.636 243.325 270.355 242.717 271.385C242.11 272.414 242.123 274.675 241.692 276.243C241.472 277 241.45 277.8 241.558 279.404C241.632 280.526 241.652 281.624 241.983 282.701C242.073 282.995 242.064 283.316 242.167 283.895C242.27 284.474 242.415 285.167 242.739 285.543C243.064 285.918 243.244 286.001 243.349 285.971C243.454 285.941 243.491 285.802 243.362 285.615C243.137 285.332 242.965 285.012 242.853 284.67C242.853 284.67 243.114 285.099 243.292 285.334C243.451 285.549 243.638 285.741 243.849 285.907C244.055 286.064 244.425 285.95 244.3 285.757C244.175 285.564 244.026 285.448 243.765 285.09C243.627 284.899 243.513 284.693 243.423 284.477C243.611 284.706 243.817 284.922 244.039 285.12C244.21 285.29 244.427 285.408 244.664 285.459C244.787 285.485 244.978 285.354 244.791 285.135C244.605 284.916 244.324 284.762 244.063 284.337C243.873 284.03 243.783 283.786 243.855 283.799C243.928 283.812 244.026 284 244.294 284.163C244.561 284.326 244.907 284.322 244.984 284.163C245.061 284.005 245.05 284.045 244.807 283.844Z" fill="#FFCEA9"/>
<path d="M249.216 267.393C249.216 267.393 249.122 269.186 249.162 269.345C249.201 269.504 250.003 270.029 250.238 270.218C250.472 270.407 248.969 271.855 248.241 272.183C247.513 272.511 245.198 271.646 245.159 270.536C245.119 269.425 245.553 268.494 245.908 268.444C246.264 268.395 249.216 267.393 249.216 267.393Z" fill="#FFCEA9"/>
<path d="M249.42 269.656C249.42 269.656 248.091 271.586 246.234 271.777C245.649 271.213 245.597 269.204 246.405 268.56C246.405 268.56 245.662 267.972 245.152 268.086C244.605 268.411 244.198 268.92 244.007 269.517C243.533 270.851 243.311 272.257 243.35 273.669C243.38 275.571 243.35 281.39 243.35 281.39C243.35 281.39 243.61 282.619 245.29 283.535C246.969 284.451 248.214 284.539 249.352 284.279C250.292 284.065 251.068 283.741 251.392 283.074C251.307 281.74 250.7 278.261 250.926 276.584C251.151 274.906 251.515 273.654 251.61 272.294C251.704 270.934 251.428 270.967 250.733 270.484C250.316 270.177 249.877 269.9 249.42 269.656Z" fill="#EDEDED"/>
<path d="M248.307 284.732C248.605 284.562 248.815 284.32 249.256 284.114C249.644 283.932 249.914 283.854 250.181 283.563C250.449 283.271 250.784 282.087 251.071 280.972C251.348 279.716 251.404 278.424 251.235 277.15C250.977 275.627 250.267 273.521 250.063 272.646C249.859 271.771 250.126 271.402 250.523 271.05C250.988 270.636 251.68 270.761 252.128 271.972C252.712 273.651 253.103 275.389 253.296 277.152C253.401 278.464 253.283 279.783 252.948 281.058C252.649 282.242 252.213 283.108 251.65 284.195C251.496 284.491 251.459 284.749 251.233 285.347C251.019 285.948 250.658 286.489 250.183 286.924C249.762 287.265 249.556 287.32 249.449 287.269C249.341 287.217 249.331 287.054 249.506 286.885C249.803 286.625 250.049 286.315 250.234 285.969C250.234 285.969 249.872 286.374 249.635 286.598C249.424 286.797 249.187 286.968 248.929 287.106C248.677 287.235 248.305 287.044 248.476 286.861C248.647 286.679 248.829 286.585 249.177 286.248C249.362 286.071 249.524 285.873 249.662 285.658C249.416 285.869 249.153 286.061 248.877 286.231C248.662 286.38 248.408 286.464 248.145 286.475C248.009 286.475 247.831 286.304 248.072 286.106C248.313 285.909 248.644 285.793 249.006 285.39C249.269 285.096 249.414 284.854 249.333 284.854C249.252 284.854 249.114 285.036 248.787 285.161C248.46 285.285 248.103 285.216 248.048 285.04C247.993 284.865 248.009 284.903 248.307 284.732Z" fill="#FFCEA9"/>
<path d="M245.069 264.721C245.288 263.329 246.314 262.274 247.781 262.362C248.371 262.392 248.937 262.602 249.398 262.964C249.859 263.325 250.193 263.819 250.352 264.376C250.51 264.933 250.487 265.524 250.283 266.067C250.08 266.61 249.708 267.077 249.219 267.402C249.169 267.612 249.096 267.816 249 268.011C248.482 268.605 246.913 268.972 246.461 268.907C245.883 268.826 245.569 268.59 245.293 267.972C244.791 266.87 244.951 265.409 245.069 264.721Z" fill="#FFCEA9"/>
<path d="M249.217 267.393L249.081 266.18C249.081 266.18 250.096 263.606 247.7 264.103C246.117 264.429 245.727 264.569 245.24 263.531C244.754 262.493 246.455 261.56 248.471 261.815C249.166 261.886 249.807 262.21 250.269 262.722C250.731 263.234 250.98 263.897 250.966 264.58C250.911 265.347 250.707 266.894 249.217 267.393Z" fill="#4F527D"/>
<path d="M253.317 274.364C253.317 274.364 252.002 275.638 250.467 275.271C250.248 275.123 249.713 272.149 249.713 272.149C249.713 272.149 249.713 270.501 251.007 270.544C252.3 270.587 253.317 274.364 253.317 274.364Z" fill="#D5D7E2"/>
<path d="M243.443 271.898C243.443 271.898 242.759 271.863 242.476 271.469C242.529 270.804 243.401 268.273 245.153 268.084C244.676 268.41 244.298 268.854 244.057 269.371C243.739 270.145 243.443 271.898 243.443 271.898Z" fill="#D5D7E2"/>
</g>
<g opacity="0.6">
<rect width="57.0921" height="57.0921" rx="8" transform="matrix(0.870691 -0.49183 0.870691 0.49183 172.375 101.307)" fill="#6D6D6D"/>
<path fill-rule="evenodd" clip-rule="evenodd" d="M179.341 97.3732C175.494 99.5462 175.494 103.069 179.341 105.242L215.16 125.476C219.007 127.649 225.244 127.649 229.091 125.476L264.911 105.242C268.758 103.069 268.758 99.5462 264.911 97.3732L256.455 92.5968L263.903 91.373C268.263 90.6565 268.263 89.495 263.903 88.7786L243.867 85.4861L229.091 77.1398C225.244 74.9668 219.007 74.9667 215.16 77.1398L200.416 85.4683L180.272 88.7786C175.912 89.495 175.912 90.6566 180.272 91.373L187.779 92.6066L179.341 97.3732Z" fill="#EDEEF2"/>
<rect width="57.0503" height="57.0503" rx="8" transform="matrix(0.870691 -0.49183 0.870691 0.49183 172.375 90.0759)" fill="white"/>
<path d="M251.691 58.5699L222.024 41.9836L192.357 58.5699L222.024 75.1561L251.691 58.5699Z" fill="url(#paint0_linear_92_29716)"/>
<path d="M251.691 58.5703L222.024 41.984L192.357 58.5703L222.024 75.1565L251.691 58.5703Z" fill="#D0566C"/>
<path d="M222.024 75.1567L192.357 58.5704V91.4838L222.024 108.07V75.1567Z" fill="#C22E49"/>
<path d="M222.023 75.1567L251.69 58.5704V91.4838L222.023 108.07V75.1567Z" fill="#C22E49"/>
<path d="M208.25 4.44274L200.303 0L192.357 4.44274L200.303 8.88549L208.25 4.44274Z" fill="#D0566C"/>
<path d="M200.303 8.88562L192.357 4.44287V13.259L200.303 17.7017V8.88562Z" fill="#C22E49"/>
<path d="M200.304 8.88562L208.25 4.44287V13.259L200.304 17.7017V8.88562Z" fill="#C22E49"/>
<path d="M247.037 43.3069L243.745 41.4659L240.452 43.3069L243.745 45.1479L247.037 43.3069Z" fill="#D0566C"/>
<path d="M243.745 45.1479L240.452 43.3069V46.9601L243.745 48.8011V45.1479Z" fill="#C22E49"/>
<path d="M243.746 45.1479L247.039 43.3069V46.9601L243.746 48.8011V45.1479Z" fill="#C22E49"/>
<path d="M227.321 28.8781L222.023 25.9163L216.726 28.8781L222.023 31.8399L227.321 28.8781Z" fill="#D0566C"/>
<path d="M222.023 31.8394L216.726 28.8776V34.7549L222.023 37.7168V31.8394Z" fill="#C22E49"/>
<path d="M222.023 31.8398L227.321 28.8779V34.7553L222.023 37.7172V31.8398Z" fill="#C22E49"/>
<path d="M243.743 14.8833L238.446 11.9215L233.148 14.8833L238.446 17.8452L243.743 14.8833Z" fill="#D0566C"/>
<path d="M238.446 17.8454L233.148 14.8835V20.7609L238.446 23.7228V17.8454Z" fill="#C22E49"/>
<path d="M238.446 17.8454L243.744 14.8835V20.7609L238.446 23.7228V17.8454Z" fill="#C22E49"/>
<path d="M216.727 41.628L208.25 36.889L199.774 41.628L208.25 46.3669L216.727 41.628Z" fill="#D0566C"/>
<path d="M208.25 46.3669L199.774 41.6279V51.0317L208.25 55.7707V46.3669Z" fill="#C22E49"/>
<path d="M208.249 46.3669L216.726 41.6279V51.0318L208.249 55.7707V46.3669Z" fill="#C22E49"/>
</g>
<defs>
<linearGradient id="paint0_linear_92_29716" x1="221.951" y1="47.1047" x2="221.951" y2="75.1561" gradientUnits="userSpaceOnUse">
<stop stop-color="#154078"/>
<stop offset="1" stop-color="#38E6E6" stop-opacity="0.4"/>
</linearGradient>
</defs>
</svg>
