<svg width="450" height="397" viewBox="0 0 450 397" fill="none" xmlns="http://www.w3.org/2000/svg">
<g opacity="0.6">
<rect width="35.8418" height="64.4585" rx="8" transform="matrix(0.866279 0.499561 -2.20563e-08 1 50.9102 144.948)" fill="#4F527D"/>
<rect width="35.8418" height="64.4585" rx="8" transform="matrix(0.866279 0.49956 -2.20564e-08 1 48.7593 146.38)" fill="#4F527D"/>
<rect width="35.8418" height="64.4585" rx="8" transform="matrix(0.866279 0.49956 -2.20564e-08 1 48.7593 147.813)" fill="white"/>
<rect width="25.0893" height="1.43242" rx="0.716209" transform="matrix(0.866278 0.499562 -2.20563e-08 1 53.416 160.883)" fill="#DAE7EB"/>
<rect width="10.7525" height="1.43241" rx="0.716207" transform="matrix(0.866278 0.499561 -2.20563e-08 1 59.6274 161.599)" fill="#DAE7EB"/>
<rect width="28.6734" height="10.7431" rx="4" transform="matrix(0.866279 0.499561 -2.20563e-08 1 51.8647 169.299)" fill="white"/>
<rect width="7.16835" height="7.16203" rx="3.58101" transform="matrix(0.86628 0.499559 -2.20564e-08 1 68.9409 180.937)" fill="#9499C7"/>
<rect width="14.3367" height="1.43241" rx="0.716204" transform="matrix(0.866279 0.49956 -2.20564e-08 1 53.416 171.984)" fill="#DAE7EB"/>
<rect width="10.7525" height="0.716206" rx="0.358103" transform="matrix(0.866279 0.49956 -2.20564e-08 1 53.416 174.133)" fill="#DAE7EB"/>
<rect width="8.96045" height="0.716206" rx="0.358103" transform="matrix(0.866279 0.49956 -2.20564e-08 1 53.416 175.566)" fill="#DAE7EB"/>
<rect width="7.16835" height="0.716199" rx="0.3581" transform="matrix(0.866281 0.499556 -2.20566e-08 1 53.416 179.146)" fill="#DAE7EB"/>
<rect width="28.6734" height="10.7431" rx="4" transform="matrix(0.866279 0.499561 -2.20563e-08 1 51.8647 181.832)" fill="white"/>
<rect width="7.16837" height="7.16208" rx="3.58104" transform="matrix(0.866278 0.499561 -2.20563e-08 1 68.9409 193.471)" fill="#47A4DD"/>
<rect width="14.3367" height="1.43241" rx="0.716207" transform="matrix(0.866279 0.499561 -2.20563e-08 1 53.416 184.518)" fill="#DAE7EB"/>
<rect width="10.7525" height="0.716201" rx="0.3581" transform="matrix(0.866281 0.499557 -2.20565e-08 1 53.416 186.667)" fill="#DAE7EB"/>
<rect width="8.96045" height="0.716206" rx="0.358103" transform="matrix(0.866279 0.49956 -2.20564e-08 1 53.416 188.099)" fill="#DAE7EB"/>
<rect width="7.16838" height="0.716209" rx="0.358105" transform="matrix(0.866278 0.499562 -2.20563e-08 1 53.416 191.68)" fill="#DAE7EB"/>
<rect width="28.6734" height="10.7431" rx="4" transform="matrix(0.866279 0.49956 -2.20564e-08 1 51.8647 194.366)" fill="white"/>
<rect width="7.16837" height="7.16208" rx="3.58104" transform="matrix(0.866278 0.499561 -2.20563e-08 1 68.9409 206.004)" fill="#63A650"/>
<rect width="14.3367" height="1.43241" rx="0.716204" transform="matrix(0.866279 0.49956 -2.20564e-08 1 53.416 197.052)" fill="#DAE7EB"/>
<rect width="10.7525" height="0.716203" rx="0.358101" transform="matrix(0.86628 0.499558 -2.20565e-08 1 53.416 199.2)" fill="#DAE7EB"/>
<rect width="8.96043" height="0.716197" rx="0.358099" transform="matrix(0.866282 0.499556 -2.20566e-08 1 53.416 200.633)" fill="#DAE7EB"/>
<rect width="7.16838" height="0.716212" rx="0.358106" transform="matrix(0.866277 0.499563 -2.20562e-08 1 53.416 204.214)" fill="#DAE7EB"/>
<rect width="57.3469" height="57.3469" rx="8" transform="matrix(0.866279 -0.49956 0.866279 0.49956 0 263.48)" fill="#4F527D"/>
<path fill-rule="evenodd" clip-rule="evenodd" d="M6.93016 259.483C3.1027 261.69 3.10271 265.269 6.93017 267.476L42.7889 288.155C46.6163 290.362 52.8219 290.362 56.6493 288.155L92.5081 267.476C96.3355 265.269 96.3355 261.69 92.5081 259.483L84.0269 254.592L91.4668 253.344C95.8242 252.613 95.8242 251.428 91.4668 250.697L71.4487 247.339L56.6493 238.804C52.8219 236.597 46.6163 236.597 42.7889 238.804L28.0231 247.319L7.88955 250.697C3.53216 251.428 3.53217 252.613 7.88956 253.344L15.3929 254.603L6.93016 259.483Z" fill="#EDEEF2"/>
<rect width="57.3049" height="57.3049" rx="8" transform="matrix(0.866279 -0.499561 0.866279 0.499561 0 252.021)" fill="white"/>
<path opacity="0.4" d="M49.3748 257.334C54.269 257.334 58.2364 255.046 58.2364 252.223C58.2364 249.401 54.269 247.112 49.3748 247.112C44.4807 247.112 40.5132 249.401 40.5132 252.223C40.5132 255.046 44.4807 257.334 49.3748 257.334Z" fill="#D6D8E5"/>
<path d="M43.0605 214.327C42.962 215.188 41.9335 218.901 42.1539 220.174C42.3743 221.446 45.8878 223.574 45.8878 223.574L46.3751 221.396L44.4293 219.499L44.9543 215.893L43.0605 214.327Z" fill="#FFCEA9"/>
<path d="M45.7791 210.668C45.2774 210.451 44.3458 210.403 43.8226 211.258C43.2994 212.114 42.7691 215.045 42.7207 215.553C42.7207 215.553 43.4463 216.554 44.5339 216.387L45.7791 210.668Z" fill="#EDEDED"/>
<path d="M49.7908 252.069C50.5555 252.28 51.3723 252.181 52.0644 251.794C52.6109 251.81 55.5833 250.541 55.9882 251.606C56.3465 252.542 55.0547 253.406 54.3667 253.574C52.8653 253.932 51.7545 254.686 51.1507 254.813C50.7027 254.908 50.1205 254.97 49.7621 254.618C49.3339 254.195 49.3697 252.63 49.7908 252.069Z" fill="#4F527D"/>
<path d="M51.1501 254.555C51.7539 254.43 52.8647 253.682 54.3661 253.319C54.9431 253.179 55.9357 252.549 56.036 251.797C56.1686 252.658 55.0076 253.422 54.3661 253.576C52.8647 253.934 51.7539 254.688 51.1501 254.815C50.7022 254.91 50.1199 254.972 49.7615 254.62C49.6691 254.517 49.6016 254.395 49.5645 254.262C50.0876 254.695 50.7022 254.65 51.1501 254.555Z" fill="#4F527D"/>
<path d="M44.9686 249.909C45.733 250.121 46.5502 250.023 47.2422 249.636C47.7905 249.652 50.7611 248.383 51.166 249.457C51.5243 250.393 50.2325 251.257 49.5445 251.425C48.0431 251.783 46.9323 252.536 46.3303 252.664C45.8806 252.758 45.2983 252.821 44.9417 252.467C44.5117 252.034 44.5493 250.468 44.9686 249.909Z" fill="#4F527D"/>
<path d="M46.3312 252.393C46.9332 252.266 48.0441 251.52 49.5455 251.157C50.1224 251.017 51.115 250.385 51.2153 249.636C51.3497 250.496 50.1869 251.261 49.5455 251.414C48.0441 251.772 46.9332 252.526 46.3312 252.653C45.8815 252.748 45.2992 252.81 44.9427 252.456C44.8489 252.354 44.7813 252.232 44.7456 252.098C45.267 252.531 45.8815 252.488 46.3312 252.393Z" fill="#4F527D"/>
<path d="M44.9096 241.844C45.0383 240.741 45.268 239.653 45.5959 238.592C45.5959 238.592 45.3916 235.784 45.2895 233.125C45.173 230.106 44.1249 227.448 44.9509 225.04L54.2783 227.112C54.2783 227.112 53.7139 239.149 53.5885 240.605C53.5211 241.739 53.3823 242.868 53.1728 243.984C52.7464 246.321 52.0548 251.88 52.0548 251.88C51.0676 252.452 49.774 252.136 49.774 252.136C49.774 252.136 49.8457 245.106 49.9084 243.422C49.9855 241.366 50.0482 241.523 50.0482 241.523L49.74 236.403L49.5393 233.855C49.5393 233.855 49.2813 235.725 49.1129 237.395C48.966 238.852 48.6148 240.169 48.2171 242.878C47.8767 245.23 47.3212 249.954 47.3212 249.954C46.3358 250.527 44.9921 250.052 44.9921 250.052C44.9921 250.052 44.6427 243.884 44.9096 241.844Z" fill="#C22E49"/>
<path d="M46.271 210.718C46.9877 210.753 47.5109 210.936 47.6004 210.718C47.6763 210.351 47.7301 209.981 47.7617 209.608C47.6793 209.402 47.6094 209.182 47.6094 209.182C46.7136 208.633 46.4359 207.67 46.3176 206.55C46.1187 204.633 47.1543 202.955 49.0732 202.754C50.8774 202.575 52.205 203.828 52.558 205.573C52.7497 206.43 53.1295 208.053 52.6153 209.465C52.3287 210.254 51.9596 210.881 51.5887 211.002C51.2318 210.992 50.8759 210.961 50.5227 210.909C50.5227 210.909 50.4277 211.446 50.3614 211.782C50.2951 212.119 50.322 212.305 51.0028 212.726C51.6837 213.146 49.9726 214.005 48.8528 213.921C47.733 213.837 46.4789 213.162 46.1331 212.439C45.7514 211.643 45.7837 210.694 46.271 210.718Z" fill="#FFCEA9"/>
<path d="M47.2996 210.823C47.1025 211.314 47.6024 211.913 48.9372 212.332C50.272 212.751 50.3902 212.212 50.3902 212.212C50.3902 212.212 52.3467 213.107 52.9828 213.545C53.7837 214.105 54.1384 215.723 54.2477 218.454C54.3713 221.614 54.3821 226.303 54.2782 227.112C54.2782 227.112 52.7821 228.601 50.874 228.443C48.9659 228.286 45.7373 226.595 44.9615 225.287C44.983 222.516 45.3073 222.065 44.8575 220.469C43.8291 216.815 43.288 215.319 43.7825 212.89C44.1946 210.888 44.7715 210.639 45.5635 210.659C46.1447 210.683 46.7242 210.738 47.2996 210.823Z" fill="#F4F4F4"/>
<path d="M57.2583 221.067C55.687 221.462 55.3179 220.473 55.1082 219.653C54.6084 217.668 54.3396 215.877 53.9669 214.751C53.528 213.424 53.0711 213.211 52.4225 212.953C51.6629 212.649 51.0107 213.289 51.2633 214.979C51.5625 216.979 51.9549 218.379 52.6966 220.75C52.8919 221.367 53.3291 222.466 53.9867 222.996C54.7965 223.651 56.0184 223.622 57.8656 223.164C58.654 222.967 59.5176 222.497 61.0082 221.802C61.4078 221.623 61.7249 221.493 62.4864 221.135C63.2478 220.777 64.0541 220.181 64.4572 219.599C64.8603 219.018 64.9123 218.744 64.8299 218.612C64.7278 218.445 64.545 218.481 64.33 218.726C64.0198 219.14 63.6367 219.494 63.1995 219.771C63.1995 219.771 63.6957 219.259 63.9645 218.927C64.2057 218.631 64.4058 218.305 64.5593 217.957C64.7009 217.617 64.4088 217.157 64.1867 217.398C63.9645 217.64 63.8588 217.887 63.4521 218.374C63.2373 218.632 62.9925 218.865 62.7229 219.066C62.975 218.727 63.1996 218.367 63.3947 217.992C63.6527 217.466 63.6492 217.196 63.6384 217.019C63.6277 216.842 63.3768 216.63 63.1421 216.965C62.9289 217.268 62.7838 217.74 62.2982 218.254C61.9399 218.626 61.6335 218.841 61.6246 218.737C61.6156 218.633 61.8414 218.429 61.9704 217.996C62.0994 217.563 61.9704 217.101 61.7303 217.055C61.4902 217.008 61.5368 217.019 61.3433 217.423C61.1498 217.828 60.8559 218.128 60.6266 218.721C60.4277 219.241 60.3381 219.453 59.9798 219.832C59.6054 220.236 58.7525 220.691 57.2583 221.067Z" fill="#FFCEA9"/>
<path d="M51.8407 212.681C52.8907 212.527 53.6324 212.999 54.0947 214.587C54.5569 216.174 54.883 217.479 54.883 217.479C54.4674 218.077 53.8386 218.494 53.1254 218.644C51.8712 218.948 51.4179 218.348 51.4179 218.348C51.4179 218.348 51.0596 216.684 50.8517 215.551C50.6439 214.419 50.5418 212.878 51.8407 212.681Z" fill="#EDEDED"/>
<path d="M52.4977 205.328C52.4977 205.328 54.1568 202.81 50.5645 202.296C47.9737 201.927 46.3075 203.59 46.1158 205.394C45.9366 207.117 46.9955 208.907 47.7623 209.617C48.1368 209.751 48.943 209.828 50.0019 209.347C50.0443 208.878 50.0604 208.406 50.0503 207.935C50.0503 207.935 48.7872 205.281 52.4977 205.328Z" fill="#4F527D"/>
</g>
<rect width="110.571" height="57.3888" rx="8" transform="matrix(0.866279 -0.499561 2.20563e-08 1 314.091 198.253)" fill="#4F527D"/>
<rect width="110.571" height="57.4136" rx="8" transform="matrix(0.866279 -0.499337 2.20663e-08 1 319.837 202.891)" fill="white"/>
<rect width="0.358976" height="27.6185" transform="matrix(0.866279 -0.499152 2.20745e-08 1 326.057 221.208)" fill="#E1ECEF"/>
<rect width="0.358976" height="27.6185" transform="matrix(0.866279 -0.499153 2.20745e-08 1 339.12 213.676)" fill="#E1ECEF"/>
<rect width="0.358976" height="27.6185" transform="matrix(0.866279 -0.499152 2.20745e-08 1 352.18 206.144)" fill="#E1ECEF"/>
<rect width="0.359011" height="27.6186" transform="matrix(0.866279 -0.499104 2.20766e-08 1 365.242 198.611)" fill="#E1ECEF"/>
<rect width="0.358906" height="27.6185" transform="matrix(0.866279 -0.499251 2.20702e-08 1 378.304 191.079)" fill="#E1ECEF"/>
<path d="M326.057 245.957L334.175 232.048L338.546 234.499L345.623 222.373L351.867 218.774L359.985 204.865L365.085 207.724L368.103 202.553L374.139 205.937L378.614 198.27" stroke="#47A4DD" stroke-width="2" stroke-linecap="round" stroke-linejoin="round"/>
<path d="M326.057 245.957L334.175 236.662L338.546 236.627L345.623 228.523L351.867 224.924L359.985 215.628L365.085 215.588L368.103 212.132L374.139 212.084L378.614 206.96" stroke="#63A650" stroke-width="2" stroke-linecap="round" stroke-linejoin="round"/>
<path d="M325.903 245.062C325.432 245.432 325.12 246.132 325.205 246.627C325.29 247.121 325.74 247.222 326.211 246.853L325.903 245.062ZM334.175 239.584L334.329 238.511C334.227 238.548 334.123 238.609 334.021 238.689L334.175 239.584ZM338.546 237.975L338.392 239.048C338.494 239.01 338.598 238.95 338.7 238.87L338.546 237.975ZM345.623 232.419L345.623 231.419C345.571 231.448 345.52 231.484 345.469 231.523L345.623 232.419ZM351.867 228.818L351.867 229.818C351.919 229.788 351.971 229.753 352.021 229.713L351.867 228.818ZM359.985 222.445L360.139 221.372C360.037 221.409 359.933 221.47 359.831 221.549L359.985 222.445ZM365.085 220.568L364.931 221.641C365.033 221.603 365.137 221.543 365.239 221.463L365.085 220.568ZM368.103 218.198L368.257 217.125C368.155 217.163 368.051 217.223 367.949 217.303L368.103 218.198ZM374.139 215.976L373.985 217.049C374.087 217.012 374.191 216.952 374.293 216.872L374.139 215.976ZM378.768 213.358C379.239 212.989 379.552 212.288 379.467 211.794C379.382 211.299 378.931 211.198 378.46 211.568L378.768 213.358ZM326.211 246.853L334.329 240.479L334.021 238.689L325.903 245.062L326.211 246.853ZM334.021 240.657L338.392 239.048L338.7 236.902L334.329 238.511L334.021 240.657ZM338.7 238.87L345.777 233.314L345.469 231.523L338.392 237.08L338.7 238.87ZM345.623 233.419L351.867 229.818L351.867 227.818L345.623 231.419L345.623 233.419ZM352.021 229.713L360.139 223.34L359.831 221.549L351.713 227.923L352.021 229.713ZM359.831 223.518L364.931 221.641L365.239 219.495L360.139 221.372L359.831 223.518ZM365.239 221.463L368.257 219.093L367.949 217.303L364.931 219.672L365.239 221.463ZM368.103 218.198C367.949 219.271 367.949 219.271 367.949 219.271C367.949 219.271 367.949 219.271 367.949 219.271C367.949 219.271 367.95 219.271 367.95 219.271C367.95 219.271 367.951 219.27 367.952 219.27C367.953 219.269 367.956 219.268 367.96 219.267C367.967 219.265 367.977 219.261 367.991 219.256C368.018 219.245 368.059 219.231 368.112 219.211C368.217 219.172 368.37 219.116 368.561 219.046C368.942 218.905 369.476 218.709 370.083 218.486C371.298 218.039 372.807 217.483 373.985 217.049L374.293 214.904C373.115 215.337 371.606 215.893 370.391 216.34C369.784 216.563 369.25 216.76 368.869 216.9C368.678 216.97 368.525 217.027 368.42 217.065C368.367 217.085 368.326 217.1 368.299 217.11C368.285 217.115 368.275 217.119 368.268 217.121C368.264 217.123 368.261 217.124 368.26 217.124C368.259 217.125 368.258 217.125 368.258 217.125C368.257 217.125 368.257 217.125 368.257 217.125C368.257 217.125 368.257 217.125 368.257 217.125C368.257 217.125 368.257 217.125 368.103 218.198ZM374.293 216.872L378.768 213.358L378.46 211.568L373.985 215.081L374.293 216.872Z" fill="#9499C7"/>
<rect width="60.6702" height="4.30748" rx="2" transform="matrix(0.866279 -0.499507 2.20587e-08 1 326.057 206.499)" fill="#E1ECEF"/>
<rect width="45.5925" height="2.87168" rx="1.43584" transform="matrix(0.866279 -0.499511 2.20586e-08 1 326.057 212.956)" fill="#E1ECEF"/>
<rect width="22.9758" height="2.87146" rx="1.43573" transform="matrix(0.866279 -0.499472 2.20603e-08 1 387.945 173.681)" fill="#E1ECEF"/>
<rect width="10.0519" height="1.4357" rx="0.717849" transform="matrix(0.866279 -0.499461 2.20608e-08 1 327.612 220.311)" fill="#E1ECEF"/>
<rect width="10.0519" height="1.4357" rx="0.717849" transform="matrix(0.866279 -0.49946 2.20608e-08 1 340.674 212.778)" fill="#E1ECEF"/>
<rect width="10.0519" height="1.4357" rx="0.71785" transform="matrix(0.866279 -0.499461 2.20608e-08 1 353.735 205.246)" fill="#E1ECEF"/>
<rect width="10.0519" height="1.4357" rx="0.717852" transform="matrix(0.866279 -0.499464 2.20607e-08 1 366.798 197.714)" fill="#E1ECEF"/>
<rect width="5.74395" height="1.43556" rx="0.717782" transform="matrix(0.866279 -0.499414 2.20629e-08 1 327.612 222.104)" fill="#E1ECEF"/>
<rect width="5.74395" height="1.43556" rx="0.717782" transform="matrix(0.866279 -0.499414 2.20629e-08 1 340.674 214.572)" fill="#E1ECEF"/>
<rect width="5.74398" height="1.43557" rx="0.717787" transform="matrix(0.866279 -0.499414 2.20629e-08 1 353.735 207.04)" fill="#E1ECEF"/>
<rect width="5.74398" height="1.43556" rx="0.717779" transform="matrix(0.866279 -0.499409 2.20631e-08 1 366.798 199.507)" fill="#E1ECEF"/>
<rect width="19.3858" height="1.43581" rx="0.717907" transform="matrix(0.866279 -0.499502 2.20589e-08 1 387.945 178.704)" fill="#E1ECEF"/>
<rect width="12.9238" height="1.43576" rx="0.71788" transform="matrix(0.866279 -0.499484 2.20598e-08 1 390.743 205.425)" fill="#E1ECEF"/>
<path d="M404.115 185.165C404.115 190.12 400.634 196.142 396.34 198.616C392.046 201.089 388.565 199.078 388.565 194.123C388.565 189.169 392.046 183.147 396.34 180.673C400.634 178.199 404.115 180.211 404.115 185.165ZM390.898 192.78C390.898 196.248 393.334 197.656 396.34 195.924C399.346 194.193 401.783 189.977 401.783 186.509C401.783 183.041 399.346 181.633 396.34 183.364C393.334 185.096 390.898 189.311 390.898 192.78Z" fill="#47A4DD"/>
<path d="M404.115 185.165C404.115 186.94 403.659 188.937 402.805 190.904C401.95 192.872 400.736 194.721 399.316 196.219C397.895 197.716 396.332 198.795 394.823 199.317C393.315 199.84 391.93 199.784 390.843 199.155C389.755 198.527 389.015 197.355 388.715 195.788C388.415 194.22 388.569 192.328 389.157 190.349C389.746 188.371 390.742 186.396 392.021 184.673C393.299 182.951 394.803 181.559 396.34 180.673L396.34 183.364C395.264 183.985 394.212 184.959 393.317 186.165C392.422 187.37 391.724 188.753 391.312 190.138C390.9 191.523 390.792 192.847 391.002 193.945C391.212 195.042 391.731 195.862 392.492 196.302C393.253 196.742 394.223 196.781 395.278 196.415C396.334 196.049 397.428 195.295 398.423 194.246C399.417 193.198 400.267 191.904 400.865 190.526C401.463 189.149 401.783 187.751 401.783 186.509L404.115 185.165Z" fill="#63A650"/>
<path d="M404.115 185.165C404.115 186.541 403.841 188.057 403.313 189.595C402.786 191.133 402.019 192.652 401.073 194.035C400.127 195.418 399.027 196.627 397.857 197.57C396.687 198.512 395.48 199.162 394.328 199.469L394.932 196.522C395.738 196.307 396.583 195.852 397.402 195.192C398.221 194.532 398.991 193.686 399.653 192.718C400.316 191.75 400.852 190.687 401.221 189.61C401.591 188.533 401.783 187.472 401.783 186.509L404.115 185.165Z" fill="#9499C7"/>
<rect width="57.3464" height="57.3464" rx="8" transform="matrix(0.866279 -0.499561 0.866279 0.499561 350.36 264.508)" fill="#6D6D6D"/>
<path fill-rule="evenodd" clip-rule="evenodd" d="M357.291 260.512C353.463 262.719 353.463 266.298 357.291 268.505L393.108 289.16C396.936 291.367 403.141 291.367 406.969 289.16L442.786 268.505C446.614 266.298 446.614 262.719 442.786 260.512L434.323 255.631L441.826 254.373C446.184 253.642 446.184 252.457 441.826 251.726L421.693 248.348L406.969 239.857C403.141 237.65 396.936 237.65 393.108 239.857L378.384 248.348L358.25 251.726C353.892 252.457 353.892 253.642 358.25 254.373L365.753 255.631L357.291 260.512Z" fill="#EDEEF2"/>
<rect width="57.3464" height="57.3464" rx="8" transform="matrix(0.866279 -0.499561 0.866279 0.499561 350.36 253.049)" fill="#FDFDFD"/>
<path opacity="0.4" d="M400.914 257.647C405.69 257.647 409.562 255.414 409.562 252.659C409.562 249.904 405.69 247.67 400.914 247.67C396.138 247.67 392.266 249.904 392.266 252.659C392.266 255.414 396.138 257.647 400.914 257.647Z" fill="#D6D8E5"/>
<path d="M408.064 214.669C408.164 215.531 409.193 219.255 408.973 220.53C408.752 221.804 405.242 223.938 405.242 223.938L404.767 221.753L406.716 219.858L406.189 216.239L408.064 214.669Z" fill="#FFCEA9"/>
<path d="M405.339 211.002C405.681 210.843 406.07 210.815 406.432 210.924C406.794 211.032 407.103 211.27 407.301 211.592C407.814 212.451 408.359 215.385 408.405 215.89C408.405 215.89 407.678 216.896 406.589 216.726L405.339 211.002Z" fill="#EDEDED"/>
<path d="M401.32 252.518C400.553 252.729 399.734 252.63 399.04 252.243C398.49 252.259 395.512 250.986 395.106 252.056C394.752 253.005 396.041 253.851 396.731 254.026C398.236 254.392 399.343 255.141 399.954 255.267C400.406 255.362 400.981 255.426 401.348 255.072C401.777 254.636 401.741 253.066 401.32 252.518Z" fill="#4F527D"/>
<path d="M399.954 254.998C399.351 254.869 398.236 254.121 396.732 253.756C396.154 253.618 395.158 252.987 395.057 252.233C394.924 253.095 396.085 253.862 396.732 254.015C398.236 254.382 399.343 255.131 399.954 255.257C400.406 255.352 400.981 255.416 401.349 255.062C401.441 254.958 401.509 254.834 401.546 254.7C401.322 254.87 401.062 254.985 400.785 255.036C400.509 255.088 400.225 255.075 399.954 254.998Z" fill="#4F527D"/>
<path d="M406.153 250.34C405.386 250.552 404.567 250.454 403.873 250.066C403.323 250.081 400.345 248.806 399.942 249.876C399.585 250.815 400.876 251.671 401.564 251.848C403.069 252.212 404.176 252.964 404.787 253.092C405.239 253.187 405.814 253.249 406.181 252.895C406.61 252.469 406.584 250.899 406.153 250.34Z" fill="#4F527D"/>
<path d="M404.788 252.83C404.185 252.702 403.07 251.953 401.565 251.589C400.988 251.451 399.991 250.82 399.904 250.066C399.771 250.927 400.931 251.694 401.565 251.848C403.07 252.212 404.177 252.964 404.788 253.092C405.24 253.187 405.815 253.249 406.182 252.895C406.274 252.79 406.342 252.667 406.38 252.533C406.156 252.702 405.895 252.818 405.619 252.869C405.343 252.921 405.058 252.908 404.788 252.83Z" fill="#4F527D"/>
<path d="M406.213 242.259C406.084 241.154 405.854 240.064 405.525 239.001C405.525 239.001 405.73 236.18 405.833 233.518C405.948 230.491 407.001 227.827 406.169 225.416L396.828 227.485C396.828 227.485 397.393 239.553 397.521 241.004C397.588 242.141 397.728 243.271 397.939 244.39C398.366 246.734 399.059 252.305 399.059 252.305C400.048 252.879 401.344 252.561 401.344 252.561C401.344 252.561 401.275 245.516 401.211 243.826C401.134 241.774 401.07 241.93 401.07 241.93L401.378 236.801L401.581 234.249C401.581 234.249 401.837 236.124 402.007 237.806C402.156 239.265 402.508 240.586 402.903 243.302C403.244 245.659 403.799 250.397 403.799 250.397C404.788 250.971 406.131 250.494 406.131 250.494C406.131 250.494 406.477 244.31 406.213 242.259Z" fill="#C22E49"/>
<path d="M404.845 211.05C404.134 211.086 403.602 211.268 403.512 211.05C403.438 210.683 403.384 210.311 403.351 209.937C403.433 209.732 403.505 209.512 403.505 209.512C404.398 208.96 404.691 207.996 404.789 206.872C404.989 204.949 403.949 203.282 402.026 203.077C400.215 202.889 398.888 204.159 398.534 205.898C398.341 206.76 397.961 208.383 398.477 209.801C398.762 210.591 399.134 211.222 399.504 211.34C399.863 211.33 400.22 211.299 400.575 211.248C400.575 211.248 400.672 211.781 400.737 212.122C400.801 212.464 400.778 212.635 400.095 213.071C399.412 213.507 401.122 214.354 402.247 214.272C403.371 214.19 404.622 213.502 404.976 212.787C405.369 211.979 405.336 211.027 404.845 211.05Z" fill="#FFCEA9"/>
<path d="M403.816 211.158C404.014 211.648 403.511 212.248 402.175 212.669C400.84 213.089 400.717 212.548 400.717 212.548C400.717 212.548 398.755 213.441 398.116 213.884C397.315 214.446 396.96 216.067 396.85 218.806C396.724 221.974 396.716 226.672 396.819 227.485C396.819 227.485 398.321 228.978 400.239 228.819C402.157 228.66 405.375 226.967 406.176 225.657C406.153 222.879 405.829 222.425 406.279 220.827C407.306 217.162 407.853 215.664 407.352 213.238C406.939 211.23 406.358 210.981 405.555 211.002C404.973 211.022 404.392 211.074 403.816 211.158Z" fill="#F4F4F4"/>
<path d="M393.843 221.956C395.42 222.353 395.787 221.361 395.997 220.532C396.511 218.545 396.768 216.739 397.14 215.621C397.579 214.287 398.041 214.082 398.681 213.826C399.451 213.523 400.106 214.164 399.841 215.859C399.544 217.862 399.148 219.273 398.398 221.643C398.203 222.264 397.764 223.364 397.114 223.895C396.303 224.551 395.081 224.523 393.227 224.064C392.436 223.867 391.565 223.397 390.076 222.7C389.676 222.512 389.365 222.389 388.595 222.03C387.822 221.684 387.144 221.156 386.62 220.491C386.214 219.907 386.163 219.632 386.245 219.499C386.327 219.365 386.53 219.368 386.759 219.617C387.071 220.03 387.456 220.384 387.894 220.661C387.894 220.661 387.395 220.148 387.123 219.814C386.881 219.519 386.681 219.192 386.528 218.842C386.384 218.504 386.676 218.042 386.9 218.283C387.123 218.524 387.231 218.773 387.639 219.26C387.849 219.517 388.088 219.747 388.353 219.945C388.101 219.603 387.876 219.241 387.68 218.863C387.511 218.566 387.429 218.227 387.442 217.886C387.442 217.709 387.698 217.496 387.955 217.834C388.212 218.173 388.304 218.604 388.803 219.117C389.159 219.491 389.468 219.704 389.475 219.601C389.483 219.499 389.257 219.294 389.129 218.86C389 218.427 389.129 217.965 389.367 217.911C389.606 217.857 389.563 217.873 389.755 218.281C389.948 218.688 390.243 218.994 390.466 219.581C390.588 219.999 390.81 220.381 391.114 220.694C391.481 221.122 392.336 221.579 393.843 221.956Z" fill="#FFCEA9"/>
<path d="M399.265 213.556C398.212 213.397 397.467 213.872 397.005 215.452C396.543 217.031 396.219 218.357 396.219 218.357C396.636 218.958 397.267 219.376 397.983 219.527C399.242 219.83 399.691 219.232 399.691 219.232C399.691 219.232 400.04 217.57 400.258 216.426C400.477 215.282 400.566 213.743 399.265 213.556Z" fill="#EDEDED"/>
<path d="M398.604 205.646C398.604 205.646 396.943 203.123 400.543 202.61C403.141 202.238 404.818 203.892 405.003 205.713C405.188 207.439 404.122 209.237 403.352 209.948C402.977 210.083 402.165 210.158 401.11 209.691C401.065 209.218 401.048 208.743 401.059 208.268C401.059 208.268 402.325 205.603 398.604 205.646Z" fill="#4F527D"/>
<path d="M407.116 216.831L396.827 226.413L396.227 244.839C396.227 244.839 399.113 246.247 402.389 245.485L402.99 238.411L403.899 244.823L403.791 245.018C405.345 244.323 406.678 243.214 407.643 241.812L407.116 216.831Z" fill="#F4F4F4"/>
<path d="M396.219 218.357L395.705 220.581C395.705 220.581 395.274 222.138 394.165 221.743C393.12 221.304 392.103 220.805 391.117 220.248L389.787 222.974L392.537 224.256C392.537 224.256 396.355 225.616 397.415 224.256C398.476 222.897 399.667 219.227 399.667 219.227L396.219 218.357Z" fill="#EDEDED"/>
<g opacity="0.6">
<rect width="57.3465" height="57.3465" rx="8" transform="matrix(0.866279 -0.49956 0.866279 0.49956 171.432 368.137)" fill="#4F527D"/>
<path fill-rule="evenodd" clip-rule="evenodd" d="M178.362 364.14C174.535 366.347 174.535 369.926 178.362 372.133L214.18 392.788C218.007 394.995 224.213 394.995 228.04 392.788L263.858 372.133C267.685 369.926 267.685 366.347 263.858 364.14L255.395 359.26L262.897 358.001C267.254 357.27 267.254 356.085 262.897 355.354L242.765 351.977L228.04 343.485C224.213 341.278 218.007 341.278 214.18 343.485L199.456 351.976L179.321 355.354C174.963 356.085 174.963 357.27 179.321 358.001L186.825 359.26L178.362 364.14Z" fill="#EDEEF2"/>
<rect width="57.3465" height="57.3465" rx="8" transform="matrix(0.866279 -0.49956 0.866279 0.49956 171.432 356.678)" fill="#FDFDFD"/>
<path opacity="0.4" d="M221.091 344.445C225.152 344.445 228.444 342.546 228.444 340.204C228.444 337.863 225.152 335.964 221.091 335.964C217.03 335.964 213.738 337.863 213.738 340.204C213.738 342.546 217.03 344.445 221.091 344.445Z" fill="#D6D8E5"/>
<path d="M220.767 300.555C221.062 300.082 223.314 299.771 224.056 301.678C224.335 302.4 224.293 304.248 224.529 305.407C224.766 306.565 225.317 307.226 225.502 308.168C225.686 309.109 225.378 310.686 223.107 310.967C220.835 311.249 219.089 310.449 218.551 309.724C218.013 308.999 218.003 307.459 218.551 306.64C219.098 305.821 219.523 305.141 219.523 304.05L220.767 300.555Z" fill="#4F527D"/>
<path d="M218.071 308.53C218.071 308.53 217.536 312.307 218.547 314.965C219.558 317.622 219.276 314.275 219.276 314.275L219.033 313.479C219.033 313.479 218.832 310.404 218.917 309.65C219.001 308.896 218.982 308.248 219.033 308.187C219.085 308.125 218.836 308.006 218.729 307.989C218.622 307.973 218.071 308.53 218.071 308.53Z" fill="#FFCEA9"/>
<path d="M222.255 300.228C222.255 300.228 220.56 299.739 219.533 300.655C219.194 300.967 218.947 301.365 218.819 301.808C218.691 302.25 218.687 302.719 218.807 303.164C218.943 303.698 219.219 304.429 219.643 304.458C220.068 304.487 222.255 300.228 222.255 300.228Z" fill="#4F527D"/>
<path d="M222.902 304.863C222.902 304.863 222.792 306.75 222.828 306.889C222.863 307.028 223.567 307.161 223.767 307.326C223.968 307.491 222.74 309.404 222.115 309.689C221.489 309.974 219.561 309.249 219.428 308.287C219.305 307.407 219.979 306.721 220.242 306.481C220.419 306.469 220.596 306.469 220.773 306.481L220.828 305.568C221.674 305.267 222.902 304.863 222.902 304.863Z" fill="#FFCEA9"/>
<path d="M223.162 307.054C223.693 307.138 224.299 307.42 224.383 307.701C224.603 308.747 224.55 309.831 224.231 310.851C223.771 312.065 223.463 312.838 223.197 313.362C223.197 313.362 220.9 314.333 219.05 313.197C219.05 313.197 218.92 311.903 218.913 311.2C217.202 309.711 218.664 307.873 220.112 306.446C220.286 306.433 220.461 306.433 220.634 306.446C220.634 306.446 219.338 307.973 220.242 308.841C222.164 308.261 222.546 307.4 223.162 307.054Z" fill="#F4F4F4"/>
<path d="M219.374 302.506C219.565 301.293 220.44 300.377 221.694 300.451C222.202 300.475 222.689 300.659 223.086 300.977C223.482 301.294 223.768 301.729 223.902 302.219C224.037 302.708 224.012 303.228 223.833 303.703C223.653 304.178 223.328 304.584 222.903 304.863C222.86 305.045 222.795 305.222 222.712 305.39C222.268 305.908 221.091 306.235 220.699 306.238C220.375 306.238 220.074 305.931 219.759 305.41C219.102 304.309 219.27 303.105 219.374 302.506Z" fill="#FFCEA9"/>
<path d="M222.079 300.474C222.957 300.645 223.68 300.891 223.92 301.752C224.082 302.348 224.296 303.478 224.091 303.953L223.968 304.3L222.902 304.863C222.902 304.863 222.406 304.449 222.562 303.244C222.555 303.081 222.503 302.922 222.413 302.785C222.345 302.671 222.295 302.548 222.264 302.419C222.138 302.093 221.892 301.827 221.577 301.675C220.783 301.231 219.632 301.613 219.464 301.775C219.682 301.29 220.062 300.895 220.539 300.657C221.015 300.42 221.56 300.355 222.079 300.474Z" fill="#4F527D"/>
<path d="M224.445 315.868C224.643 314.638 225.012 313.841 224.841 313.165C224.458 311.797 223.957 310.465 223.343 309.184C222.955 308.42 223.075 307.889 223.476 307.585C223.93 307.261 224.361 307.394 224.773 308.232C225.288 309.297 225.865 310.391 226.147 311.977C226.327 313.003 226.314 314.054 226.108 315.075C225.933 316.178 225.583 316.8 225.165 317.836C225.048 318.133 224.277 316.916 224.445 315.868Z" fill="#FFCEA9"/>
<path d="M223.677 338.793C223.233 339.153 222.539 338.903 222.507 338.936C221.991 339.38 221.45 339.795 220.887 340.179C220.608 340.396 220.177 340.687 220.255 341.108C220.394 341.855 221.593 341.626 222.047 341.396C222.501 341.166 222.867 340.787 223.294 340.522C223.602 340.331 223.9 340.234 223.943 339.849C223.972 339.616 223.755 338.784 223.677 338.793Z" fill="#4F527D"/>
<path d="M223.936 339.693C223.878 340.062 223.583 340.166 223.288 340.341C222.854 340.609 222.471 340.988 222.018 341.227C221.564 341.467 220.556 341.648 220.265 341.114C220.423 341.836 221.603 341.609 222.05 341.383C222.497 341.156 222.87 340.774 223.298 340.509C223.606 340.318 223.904 340.221 223.946 339.836C223.946 339.788 223.943 339.74 223.936 339.693Z" fill="#C22E49"/>
<path d="M220.557 338.169C220.152 338.492 219.537 338.314 219.507 338.347C219.033 338.751 218.536 339.13 218.02 339.48C217.764 339.677 217.372 339.946 217.44 340.328C217.57 341.014 218.668 340.803 219.083 340.593C219.498 340.383 219.835 340.036 220.227 339.794C220.505 339.619 220.781 339.528 220.826 339.175C220.852 338.962 220.632 338.162 220.557 338.169Z" fill="#4F527D"/>
<path d="M220.816 339.033C220.761 339.373 220.492 339.463 220.213 339.638C219.815 339.884 219.465 340.24 219.05 340.451C218.635 340.661 217.712 340.836 217.43 340.347C217.576 340.994 218.655 340.8 219.05 340.593C219.445 340.386 219.802 340.036 220.194 339.794C220.473 339.619 220.748 339.528 220.793 339.175C220.805 339.129 220.813 339.081 220.816 339.033Z" fill="#4F527D"/>
<path d="M218.162 317.518C218.359 315.987 218.923 313.764 218.923 313.764C219.457 314.014 220.035 314.158 220.624 314.188C221.487 314.182 222.347 314.098 223.194 313.935C223.471 314.419 223.774 314.886 224.101 315.337C224.542 315.949 225.398 317.279 225.193 319.638C225.061 321.169 224.199 327.678 224.199 327.678C224.533 328.773 224.711 329.91 224.727 331.054C224.649 332.413 224.469 333.765 224.189 335.097L223.677 338.793C223.677 338.793 222.993 339.285 222.507 338.936L222.569 335.32C222.51 334.437 222.423 333.132 222.364 332.297C222.274 330.941 222.04 328.785 221.959 328.245C221.878 327.704 221.716 326.766 221.635 325.711C221.554 324.655 221.156 319.302 221.156 319.302L221.101 320.305C221.101 320.305 221.046 321.924 220.812 323.943C220.579 325.963 220.488 326.856 220.488 326.856C220.71 327.261 220.865 327.698 220.948 328.151C220.99 328.585 221.486 332.035 221.188 333.77L220.585 338.201C220.433 338.306 220.259 338.373 220.076 338.397C219.893 338.421 219.706 338.402 219.532 338.34L219.173 333.861C218.933 332.155 218.424 328.543 218.346 328.073C218.173 327.127 218.071 326.17 218.042 325.209C217.922 323.27 217.967 319.049 218.162 317.518Z" fill="#FFCEA9"/>
<path d="M223.198 313.372L224.517 316.02C224.517 316.02 226.532 318.965 224.445 326.533L224.837 328.866C224.837 328.866 220.887 331.401 218.243 328.866C218.243 328.866 217.326 321.872 217.815 318.648C218.085 316.793 218.496 314.961 219.047 313.168C219.047 313.168 219.695 313.884 223.023 313.411" fill="#C22E49"/>
<path d="M225.567 309.734C225.567 309.734 224.65 310.647 223.561 310.534L223.039 308.747C223.039 308.747 222.715 307.818 223.493 307.41C224.271 307.002 225.11 307.915 225.567 309.734Z" fill="#EDEDED"/>
<path d="M220.112 306.455C220.112 306.455 219.062 306.132 217.951 308.458L218.366 308.708C218.886 307.911 219.47 307.158 220.112 306.455Z" fill="#EDEDED"/>
<path opacity="0.4" d="M192.474 360.84C196.967 360.84 200.609 358.74 200.609 356.149C200.609 353.558 196.967 351.458 192.474 351.458C187.981 351.458 184.339 353.558 184.339 356.149C184.339 358.74 187.981 360.84 192.474 360.84Z" fill="#D6D8E5"/>
<path d="M188.641 354.971C189.197 355.422 190.014 355.011 190.054 355.054C190.706 355.655 191.39 356.223 192.101 356.755C192.459 357.027 192.986 357.388 192.886 357.911C192.714 358.842 191.219 358.556 190.652 358.269C190.086 357.983 189.627 357.514 189.093 357.195C188.713 356.959 188.34 356.837 188.279 356.357C188.229 356.053 188.53 354.96 188.641 354.971Z" fill="#4F527D"/>
<path d="M188.283 356.149C188.359 356.608 188.728 356.737 189.104 356.969C189.649 357.306 190.126 357.793 190.689 358.076C191.252 358.359 192.51 358.602 192.876 357.936C192.679 358.835 191.209 358.552 190.65 358.269C190.09 357.986 189.624 357.514 189.09 357.195C188.71 356.959 188.337 356.837 188.276 356.357C188.273 356.288 188.275 356.218 188.283 356.149Z" fill="#4F527D"/>
<path d="M193.439 353.184C193.995 353.635 194.963 353.145 195.006 353.184C195.582 353.769 196.191 354.32 196.83 354.835C197.189 355.104 197.716 355.469 197.619 355.992C197.444 356.923 195.949 356.636 195.386 356.35C194.823 356.063 194.36 355.591 193.826 355.275C193.446 355.039 193.07 354.917 193.012 354.438C192.976 354.133 193.342 353.173 193.439 353.184Z" fill="#4F527D"/>
<path d="M193.026 354.294C193.101 354.753 193.471 354.881 193.847 355.114C194.392 355.451 194.869 355.938 195.432 356.224C195.995 356.511 197.253 356.747 197.619 356.081C197.422 356.98 195.952 356.701 195.392 356.418C194.833 356.135 194.371 355.659 193.836 355.326C193.453 355.089 193.08 354.967 193.019 354.488C193.017 354.423 193.019 354.358 193.026 354.294Z" fill="#4F527D"/>
<path d="M188.594 334.531C188.623 335.369 188.881 339.007 188.999 340.93C189.118 342.853 189.143 345.227 189.143 345.227C189.143 345.227 188.809 346.627 188.594 348.278C188.379 349.929 188.594 355.129 188.594 355.129C188.808 355.267 189.057 355.341 189.311 355.341C189.566 355.341 189.815 355.267 190.028 355.129C190.028 355.129 190.917 350.964 191.326 349.088C191.735 347.211 191.81 346.13 192.022 344.969C192.28 343.562 192.835 336.998 192.835 336.998H193.058L193.653 344.407C193.469 344.954 193.343 345.518 193.276 346.09C193.115 347.297 193.448 353.37 193.448 353.37C193.685 353.502 193.954 353.566 194.225 353.554C194.496 353.543 194.758 353.457 194.983 353.306C194.983 353.306 196.464 345.263 196.464 344.042C196.464 343.229 196.327 332.558 196.327 332.558L188.594 334.531Z" fill="#C22E49"/>
<path d="M190.605 318.348C190.605 318.348 190.699 320.175 190.659 320.336C190.62 320.497 189.82 321.03 189.584 321.224C189.347 321.417 190.849 322.878 191.577 323.236C192.305 323.594 194.61 322.692 194.649 321.56C194.689 320.429 194.255 319.48 193.904 319.43C193.552 319.38 190.605 318.348 190.605 318.348Z" fill="#FFCEA9"/>
<path d="M195.611 321.736C195.718 320.93 195.188 320.164 195.7 319.523C197.493 321.292 197.278 325.969 197.687 328.959C199.027 330.355 201.72 331.734 202.476 332.074C202.613 332.139 202.734 332.207 202.706 332.353C202.604 332.851 202.39 333.319 202.078 333.721C200.286 332.955 199.013 332.515 196.787 330.402C196.576 330.173 196.387 329.925 196.224 329.661C195.589 327.755 195.428 323.125 195.611 321.736Z" fill="#FFCEA9"/>
<path d="M190.402 320.651C190.402 320.651 191.729 322.624 193.579 322.799C194.163 322.226 194.213 320.182 193.407 319.526C193.407 319.526 194.149 318.928 194.658 319.043C195.209 319.375 195.62 319.897 195.812 320.511C196.281 321.869 196.502 323.301 196.465 324.737C196.433 326.674 196.465 332.593 196.465 332.593C196.465 332.593 196.207 333.843 194.532 334.774C192.858 335.705 191.614 335.798 190.478 335.533C189.542 335.315 188.767 334.986 188.445 334.309C188.531 332.948 189.137 329.406 188.911 327.698C188.685 325.99 188.323 324.719 188.23 323.337C188.136 321.954 188.409 321.983 189.104 321.492C189.516 321.181 189.95 320.899 190.402 320.651Z" fill="#F4F4F4"/>
<path d="M194.736 315.627C194.518 314.194 193.496 313.12 192.029 313.217C191.441 313.248 190.878 313.462 190.418 313.83C189.958 314.198 189.626 314.701 189.467 315.268C189.309 315.835 189.333 316.437 189.535 316.989C189.737 317.542 190.108 318.017 190.595 318.348C190.646 318.563 190.722 318.771 190.821 318.968C191.338 319.573 192.904 319.945 193.352 319.881C193.62 319.86 193.876 319.759 194.085 319.591C194.295 319.423 194.449 319.196 194.528 318.939C195.016 317.815 194.862 316.325 194.736 315.627Z" fill="#FFCEA9"/>
<path d="M190.607 318.348L190.739 317.109C190.739 317.109 189.717 314.495 192.12 315C193.697 315.333 194.091 315.476 194.572 314.42C195.052 313.363 193.36 312.411 191.345 312.676C190.653 312.748 190.013 313.078 189.552 313.599C189.091 314.12 188.843 314.795 188.857 315.491C188.914 316.264 189.122 317.84 190.607 318.348Z" fill="#4F527D"/>
<path d="M187.806 322.52C188.498 322.323 187.971 322.484 188.498 322.323C190.291 324.089 190.079 327.118 190.488 330.108C191.485 331.759 195.181 333.979 195.181 333.979C195.228 334.298 195.116 334.391 194.715 335.054C192.657 334.266 190.786 333.06 189.219 331.512C189.129 331.43 189 331.405 188.964 331.294C188.33 329.374 187.623 323.913 187.806 322.52Z" fill="#FFCEA9"/>
<path d="M204.254 326.212L201.569 335.387L195.671 337.739L197.823 328.801L204.254 326.212Z" fill="#F4F4F4"/>
<path d="M194.253 334.055C194.339 333.739 194.565 333.818 194.823 333.897C195.1 334.009 195.403 334.035 195.695 333.972C195.921 333.861 196.131 333.719 196.318 333.55C196.437 333.478 196.574 333.439 196.713 333.439C196.713 333.517 196.576 333.983 196.576 333.983C196.576 333.983 197.871 333.983 198.011 333.983C198.055 333.975 198.101 333.981 198.142 334C198.183 334.019 198.217 334.05 198.24 334.09C198.262 334.129 198.272 334.174 198.267 334.219C198.263 334.264 198.245 334.307 198.215 334.341H198.305C198.566 334.284 198.663 334.699 198.416 334.749L198.201 334.781C198.373 334.849 198.416 335.14 198.201 335.175H198.132C198.102 335.181 198.07 335.181 198.039 335.175H197.964C197.971 335.206 197.971 335.238 197.965 335.269C197.958 335.299 197.946 335.329 197.927 335.354C197.909 335.38 197.886 335.401 197.859 335.417C197.832 335.433 197.802 335.444 197.77 335.448C197.139 335.53 196.211 335.781 195.641 335.261C195.245 335.223 194.858 335.119 194.497 334.953C194.156 334.781 194.146 334.427 194.253 334.055Z" fill="#FFCEA9"/>
<path d="M200.698 333.302H200.788C200.75 333.276 200.722 333.238 200.708 333.195C200.693 333.152 200.693 333.105 200.707 333.061C200.721 333.018 200.748 332.98 200.786 332.953C200.823 332.926 200.867 332.912 200.913 332.912C201.046 332.912 202.376 332.633 202.376 332.633L202.537 332.089C202.537 332.056 202.766 332.196 202.773 332.203C202.886 332.276 202.981 332.373 203.051 332.488C203.121 332.603 203.163 332.732 203.175 332.866C203.182 333.054 203.151 333.241 203.085 333.417C203.02 333.594 202.92 333.755 202.791 333.893C202.555 334.127 202.239 334.263 201.906 334.273C201.745 334.273 201.591 334.291 201.451 334.305C201.419 334.307 201.388 334.302 201.358 334.292C201.328 334.281 201.301 334.265 201.278 334.243C201.255 334.222 201.236 334.196 201.223 334.167C201.211 334.138 201.204 334.107 201.203 334.076H201.16C201.13 334.084 201.098 334.084 201.067 334.076H200.999C200.773 334.076 200.755 333.796 200.909 333.696H200.691C200.404 333.721 200.429 333.299 200.698 333.302Z" fill="#FFCEA9"/>
<path d="M196.363 322.932C196.727 322.915 197.07 322.762 197.324 322.502C197.274 321.822 196.406 319.247 194.657 319.054C195.126 319.39 195.497 319.845 195.732 320.371C196.007 321.208 196.218 322.064 196.363 322.932Z" fill="#EDEDED"/>
<path d="M187.491 326.334C187.491 326.334 189.23 326.935 190.456 325.926C190.592 325.696 189.739 322.738 189.739 322.738C189.739 322.738 189.022 321.227 187.868 321.829C186.713 322.431 187.491 326.334 187.491 326.334Z" fill="#EDEDED"/>
<path opacity="0.4" d="M221.129 378.113C225.056 378.113 228.239 376.278 228.239 374.013C228.239 371.749 225.056 369.914 221.129 369.914C217.203 369.914 214.02 371.749 214.02 374.013C214.02 376.278 217.203 378.113 221.129 378.113Z" fill="#D6D8E5"/>
<path d="M225.23 342.508C225.857 342.686 226.208 343.372 226.753 344.839C227.207 346.171 227.428 347.57 227.408 348.977C227.232 350.36 226.659 351.437 225.274 352.557L224.613 351.346C224.613 351.346 225.97 350.15 226.107 348.767C226.186 347.991 225.274 345.375 225.274 345.303C225.274 345.231 225.23 342.508 225.23 342.508Z" fill="#FFCEA9"/>
<path d="M219.807 374.386C219.598 374.449 219.378 374.467 219.162 374.438C218.946 374.408 218.738 374.333 218.554 374.217C218.215 374.217 216.226 373.437 215.975 374.098C215.756 374.677 216.555 375.215 216.978 375.318C217.918 375.541 218.594 376.004 218.97 376.082C219.112 376.132 219.265 376.148 219.414 376.127C219.564 376.107 219.706 376.05 219.829 375.963C220.089 375.7 220.067 374.73 219.807 374.386Z" fill="#4F527D"/>
<path d="M218.965 375.922C218.589 375.844 217.902 375.381 216.972 375.156C216.618 375.071 216.001 374.68 215.941 374.217C215.856 374.749 216.568 375.221 216.972 375.318C217.912 375.541 218.589 376.004 218.965 376.082C219.107 376.133 219.259 376.148 219.408 376.127C219.558 376.107 219.7 376.05 219.823 375.963C219.879 375.899 219.921 375.823 219.945 375.741C219.807 375.845 219.647 375.916 219.476 375.947C219.306 375.979 219.131 375.97 218.965 375.922Z" fill="#4F527D"/>
<path d="M224.858 371.763C224.676 371.826 224.481 371.843 224.291 371.814C224.101 371.786 223.92 371.711 223.765 371.597C223.451 371.597 221.405 370.853 221.164 371.488C220.954 372.045 221.722 372.558 222.129 372.658C223.025 372.874 223.696 373.322 224.047 373.397C224.184 373.445 224.33 373.46 224.474 373.44C224.618 373.419 224.755 373.365 224.874 373.281C225.131 373.028 225.109 372.095 224.858 371.763Z" fill="#4F527D"/>
<path d="M224.046 373.243C223.686 373.165 223.025 372.721 222.129 372.505C221.787 372.42 221.189 372.045 221.135 371.597C221.057 372.111 221.762 372.567 222.129 372.658C223.025 372.874 223.695 373.322 224.046 373.397C224.183 373.445 224.33 373.46 224.474 373.439C224.618 373.419 224.755 373.365 224.873 373.281C224.929 373.219 224.968 373.145 224.989 373.065C224.857 373.166 224.703 373.235 224.539 373.266C224.375 373.297 224.206 373.289 224.046 373.243Z" fill="#4F527D"/>
<path d="M225.525 366.721C225.526 365.959 225.395 365.202 225.137 364.484C225.137 364.484 225.394 361.42 225.591 359.408C225.879 356.441 226.337 356.147 226.218 354.344C226.099 352.673 225.146 351.59 224.899 350.457L220.051 350.839C220.051 350.839 219.628 352.213 219.083 354.948C218.538 357.683 218.501 360.935 218.544 365.241C218.544 366.352 218.356 367.316 218.419 370.083C218.463 371.942 218.569 374.22 218.569 374.22C219.278 374.827 219.769 374.38 219.769 374.38C219.769 374.38 221.023 368.871 221.195 367.607C221.327 366.908 221.268 366.186 221.026 365.517C221.026 365.517 221.389 363.786 221.653 362.424C221.966 360.763 222.796 357.176 222.796 357.176C222.796 357.176 222.655 362.687 222.896 363.773C223.138 364.859 223.178 365.804 223.385 367.282C223.633 369.065 223.746 371.679 223.746 371.679C224.485 372.148 224.814 371.788 224.814 371.788C224.814 371.788 225.525 368.283 225.525 366.721Z" fill="#FFCEA9"/>
<path d="M224.886 350.457C225.394 350.976 226.234 352.557 226.234 354.948C226.234 357.639 225.842 357.095 225.654 360.059L225.466 363.022C225.466 363.022 221.415 364.953 218.526 363.163C218.269 362.603 218.623 356.369 219.131 354.153C219.638 351.937 219.986 350.851 219.986 350.851C219.986 350.851 223.711 351.856 224.886 350.457Z" fill="#C22E49"/>
<path d="M224.946 342.48C223.912 342.417 223.812 342.589 223.731 342.223C223.703 342.092 223.643 341.184 223.643 341.184C223.738 341.063 223.825 340.935 223.903 340.802C224.25 340.593 224.544 340.307 224.761 339.965C224.979 339.623 225.114 339.236 225.156 338.834C225.229 338.135 225.021 337.436 224.578 336.89C224.135 336.344 223.493 335.996 222.794 335.923C221.425 335.782 220.416 336.743 220.146 338.064C220.002 338.715 219.852 340.045 220.259 341.112C220.488 341.716 220.701 342.139 221.246 342.117C221.428 342.1 221.608 342.069 221.785 342.023C221.814 342.273 221.825 342.525 221.816 342.777C221.816 343.043 221.848 343.174 221.327 343.494C220.807 343.813 222.111 344.464 222.96 344.401C223.809 344.339 224.762 343.825 225.025 343.278C225.313 342.664 225.432 342.508 224.946 342.48Z" fill="#FFCEA9"/>
<path d="M225.707 347.052C225.707 347.052 226.876 346.789 227.412 346.27C227.412 346.27 226.716 344.079 226.271 343.534C225.826 342.99 225.394 346.504 225.394 346.504L225.707 347.052Z" fill="#EDEDED"/>
<path d="M223.918 342.458C224.109 342.696 224.131 342.993 223.394 343.181C222.859 343.333 222.286 343.288 221.781 343.055C221.2 343.301 220.643 343.596 220.114 343.938C219.487 346.003 219.992 346.269 219.729 347.75C219.832 348.495 219.954 350.416 219.985 350.851C221.392 351.834 224.247 351.499 224.886 350.457C224.897 350.11 224.93 349.764 224.983 349.421C225.653 346.936 226.177 346.291 225.992 344.414C225.885 343.343 225.801 342.805 225.231 342.517C224.797 342.44 224.356 342.42 223.918 342.458Z" fill="#F4F4F4"/>
<path d="M211.003 350.538C211.322 350.607 211.636 350.697 211.943 350.807C212.231 350.959 212.54 351.064 212.861 351.12C213.205 351.174 213.744 350.995 214.675 350.557C215.694 350.035 216.616 349.343 217.401 348.51C218.293 347.45 219.09 346.314 219.782 345.115C220.186 344.379 220.697 344.195 221.142 344.339C221.675 344.514 221.74 345.043 221.142 346.032C220.378 347.324 219.463 348.52 218.416 349.596C217.59 350.421 216.629 351.099 215.574 351.599C214.822 351.99 214.016 352.269 213.184 352.428C212.892 352.491 212.695 352.613 212.156 352.801C211.62 352.996 211.045 353.059 210.48 352.986C210.013 352.895 209.853 352.788 209.834 352.673C209.815 352.557 209.909 352.475 210.129 352.491C210.474 352.546 210.826 352.537 211.169 352.466C211.169 352.466 210.686 352.45 210.401 352.416C210.145 352.388 209.894 352.325 209.655 352.228C209.427 352.131 209.342 351.771 209.574 351.784C209.806 351.796 209.963 351.865 210.389 351.909C210.613 351.936 210.841 351.936 211.065 351.909C210.784 351.863 210.506 351.794 210.235 351.702C210.011 351.643 209.809 351.519 209.655 351.346C209.577 351.255 209.599 351.033 209.872 351.089C210.2 351.203 210.541 351.278 210.887 351.311C211.235 351.311 211.482 351.283 211.438 351.23C211.394 351.177 211.188 351.183 210.924 351.036C210.661 350.889 210.505 350.604 210.611 350.466C210.718 350.329 210.718 350.432 211.003 350.538Z" fill="#FFCEA9"/>
<path d="M220.582 347.227C219.768 347.109 219.015 346.728 218.438 346.141L219.736 344.345C219.736 344.345 220.466 343.425 221.431 343.944C221.431 343.944 222.158 344.022 221.431 345.543C221.183 346.122 220.9 346.684 220.582 347.227Z" fill="#EDEDED"/>
<path d="M219.895 337.285C219.946 336.976 220.117 336.699 220.37 336.515C220.623 336.33 220.938 336.251 221.248 336.296C221.701 335.992 222.248 335.86 222.79 335.923C224.021 336.051 224.826 336.862 225.199 338.083C225.382 338.695 225.504 339.324 225.563 339.96C225.932 342.699 226.929 344.871 225.998 345.684C225.068 346.498 222.517 347.014 221.452 346.504C220.386 345.994 222.329 341.275 220.22 338.652C219.725 338.029 219.678 337.594 219.895 337.285Z" fill="#4F527D"/>
<path d="M251.042 356.501C250.488 356.952 249.668 356.538 249.627 356.58C248.975 357.185 248.29 357.754 247.576 358.284C247.23 358.558 246.7 358.921 246.787 359.444C246.963 360.381 248.461 360.1 249.026 359.805C249.592 359.51 250.054 359.046 250.588 358.711C250.97 358.475 251.346 358.352 251.406 357.871C251.441 357.582 251.141 356.488 251.042 356.501Z" fill="#4F527D"/>
<path d="M251.399 357.678C251.324 358.14 250.96 358.267 250.575 358.501C250.032 358.84 249.552 359.326 248.987 359.613C248.465 359.875 247.162 360.138 246.796 359.47C246.995 360.372 248.467 360.09 249.026 359.805C249.585 359.521 250.054 359.046 250.588 358.711C250.969 358.475 251.346 358.352 251.405 357.871C251.41 357.807 251.408 357.742 251.399 357.678Z" fill="#4F527D"/>
<path d="M246.223 354.709C245.667 355.162 244.689 354.667 244.654 354.709C244.077 355.295 243.465 355.846 242.823 356.361C242.477 356.634 241.936 356.998 242.034 357.521C242.207 358.455 243.708 358.177 244.273 357.882C244.838 357.586 245.299 357.122 245.835 356.788C246.216 356.551 246.591 356.429 246.65 355.947C246.687 355.658 246.322 354.698 246.223 354.709Z" fill="#4F527D"/>
<path d="M246.633 355.82C246.559 356.282 246.195 356.409 245.81 356.643C245.266 356.982 244.787 357.468 244.221 357.755C243.7 358.017 242.397 358.28 242.031 357.612C242.23 358.514 243.702 358.232 244.261 357.947C244.82 357.663 245.288 357.188 245.823 356.853C246.204 356.617 246.581 356.494 246.64 356.013C246.645 355.949 246.643 355.884 246.633 355.82Z" fill="#4F527D"/>
<path d="M251.075 336.017C251.049 336.855 250.786 340.501 250.67 342.429C250.554 344.356 250.528 346.722 250.528 346.722C250.528 346.722 250.861 348.127 251.075 349.785C251.29 351.444 251.075 356.65 251.075 356.65C250.863 356.786 250.616 356.858 250.364 356.858C250.112 356.858 249.866 356.786 249.653 356.65C249.653 356.65 248.764 352.477 248.352 350.597C247.94 348.718 247.868 347.634 247.656 346.468C247.397 345.059 246.841 338.481 246.841 338.481L246.621 338.494L246.026 345.919C246.21 346.466 246.336 347.03 246.402 347.604C246.562 348.814 246.232 354.899 246.232 354.899C245.995 355.03 245.726 355.093 245.456 355.082C245.185 355.071 244.923 354.986 244.698 354.836C244.698 354.836 243.215 346.777 243.215 345.549C243.215 344.739 243.353 334.041 243.353 334.041L251.075 336.017Z" fill="#C22E49"/>
<path d="M244.654 336.582C244.413 336.376 244.261 336.118 243.896 335.855C243.576 335.623 243.341 335.507 243.149 335.199C242.956 334.89 242.967 333.689 242.892 332.608C242.802 331.335 243.037 329.661 243.276 328.987C243.762 327.619 243.611 325.332 243.933 324.56C244.255 323.787 245.203 323.956 244.901 323.566C244.548 323.107 243.173 322.82 242.566 323.871C241.959 324.921 241.972 327.227 241.541 328.827C241.321 329.599 241.3 330.415 241.407 332.052C241.481 333.197 241.501 334.317 241.832 335.415C241.922 335.715 241.913 336.044 242.016 336.634C242.119 337.225 242.263 337.932 242.588 338.315C242.912 338.698 243.092 338.783 243.197 338.752C243.302 338.722 243.339 338.58 243.21 338.389C242.985 338.1 242.813 337.773 242.702 337.424C242.702 337.424 242.962 337.862 243.14 338.103C243.299 338.321 243.486 338.517 243.696 338.687C243.902 338.847 244.272 338.731 244.148 338.534C244.023 338.337 243.874 338.219 243.613 337.853C243.475 337.659 243.36 337.448 243.271 337.227C243.459 337.462 243.665 337.681 243.887 337.884C244.057 338.057 244.274 338.177 244.511 338.23C244.634 338.256 244.824 338.122 244.638 337.899C244.452 337.676 244.172 337.518 243.911 337.085C243.72 336.772 243.631 336.523 243.703 336.536C243.775 336.549 243.874 336.742 244.141 336.908C244.408 337.074 244.754 337.07 244.831 336.908C244.908 336.746 244.897 336.787 244.654 336.582Z" fill="#FFCEA9"/>
<path d="M249.061 319.798C249.061 319.798 248.966 321.628 249.006 321.79C249.045 321.952 249.847 322.488 250.081 322.68C250.316 322.873 248.813 324.35 248.086 324.685C247.358 325.019 245.045 324.138 245.005 323.004C244.966 321.871 245.4 320.921 245.755 320.871C246.11 320.82 249.061 319.798 249.061 319.798Z" fill="#FFCEA9"/>
<path d="M249.265 322.107C249.265 322.107 247.938 324.076 246.082 324.271C245.497 323.696 245.445 321.645 246.253 320.989C246.253 320.989 245.51 320.389 245 320.505C244.454 320.837 244.047 321.356 243.856 321.965C243.383 323.326 243.16 324.761 243.199 326.201C243.23 328.142 243.199 334.079 243.199 334.079C243.199 334.079 243.46 335.332 245.138 336.267C246.816 337.201 248.06 337.291 249.197 337.026C250.137 336.807 250.913 336.477 251.237 335.796C251.152 334.435 250.545 330.886 250.77 329.175C250.996 327.464 251.36 326.186 251.454 324.798C251.548 323.411 251.272 323.444 250.578 322.952C250.161 322.638 249.723 322.356 249.265 322.107Z" fill="#EDEDED"/>
<path d="M248.152 337.488C248.45 337.315 248.66 337.068 249.1 336.857C249.488 336.671 249.758 336.593 250.025 336.295C250.292 335.998 250.627 334.79 250.914 333.652C251.191 332.371 251.247 331.052 251.079 329.752C250.82 328.199 250.11 326.05 249.907 325.157C249.703 324.264 249.97 323.888 250.367 323.529C250.831 323.107 251.523 323.234 251.97 324.47C252.554 326.183 252.945 327.955 253.138 329.755C253.243 331.093 253.125 332.439 252.79 333.739C252.492 334.947 252.056 335.831 251.493 336.941C251.339 337.243 251.302 337.505 251.076 338.116C250.862 338.729 250.502 339.28 250.027 339.724C249.606 340.072 249.401 340.129 249.293 340.076C249.186 340.024 249.175 339.857 249.35 339.685C249.647 339.419 249.893 339.103 250.077 338.75C250.077 338.75 249.716 339.164 249.479 339.391C249.269 339.595 249.031 339.77 248.774 339.91C248.522 340.041 248.15 339.847 248.32 339.661C248.491 339.475 248.673 339.378 249.022 339.035C249.206 338.854 249.369 338.652 249.506 338.433C249.26 338.648 248.998 338.844 248.721 339.017C248.507 339.169 248.253 339.256 247.99 339.267C247.854 339.267 247.676 339.092 247.917 338.89C248.158 338.689 248.489 338.571 248.851 338.159C249.114 337.86 249.258 337.612 249.177 337.612C249.096 337.612 248.958 337.798 248.632 337.925C248.305 338.052 247.948 337.982 247.893 337.803C247.839 337.623 247.854 337.663 248.152 337.488Z" fill="#FFCEA9"/>
<path d="M244.914 317.072C245.133 315.652 246.158 314.575 247.624 314.665C248.214 314.696 248.779 314.91 249.24 315.279C249.701 315.648 250.034 316.152 250.193 316.72C250.352 317.288 250.328 317.892 250.125 318.446C249.922 319 249.55 319.476 249.061 319.807C249.011 320.022 248.938 320.23 248.842 320.429C248.325 321.035 246.756 321.409 246.305 321.343C245.727 321.26 245.413 321.019 245.137 320.389C244.636 319.264 244.796 317.774 244.914 317.072Z" fill="#FFCEA9"/>
<path d="M249.061 319.798L248.925 318.56C248.925 318.56 249.939 315.934 247.545 316.442C245.963 316.774 245.573 316.917 245.087 315.857C244.6 314.798 246.301 313.847 248.316 314.107C249.01 314.18 249.651 314.51 250.113 315.032C250.574 315.554 250.823 316.231 250.809 316.927C250.754 317.711 250.551 319.288 249.061 319.798Z" fill="#4F527D"/>
<path d="M253.16 326.91C253.16 326.91 251.846 328.21 250.312 327.836C250.093 327.685 249.559 324.65 249.559 324.65C249.559 324.65 249.559 322.969 250.851 323.013C252.144 323.057 253.16 326.91 253.16 326.91Z" fill="#D5D7E2"/>
<path d="M243.291 324.394C243.291 324.394 242.608 324.359 242.325 323.956C242.378 323.278 243.25 320.695 245 320.503C244.524 320.835 244.146 321.288 243.905 321.816C243.587 322.606 243.291 324.394 243.291 324.394Z" fill="#D5D7E2"/>
</g>
<g opacity="0.6">
<rect width="57.3469" height="57.3469" rx="8" transform="matrix(0.866279 -0.499561 0.866279 0.499561 172.269 150.349)" fill="#6D6D6D"/>
<path fill-rule="evenodd" clip-rule="evenodd" d="M179.199 146.353C175.371 148.56 175.371 152.139 179.199 154.346L215.057 175.025C218.885 177.232 225.09 177.232 228.918 175.025L264.777 154.346C268.604 152.139 268.604 148.56 264.777 146.353L256.295 141.462L263.735 140.214C268.093 139.483 268.093 138.298 263.735 137.567L243.717 134.208L228.918 125.674C225.09 123.467 218.885 123.467 215.057 125.674L200.292 134.189L180.158 137.567C175.801 138.298 175.801 139.483 180.158 140.214L187.662 141.473L179.199 146.353Z" fill="#EDEEF2"/>
<rect width="57.3049" height="57.3049" rx="8" transform="matrix(0.866279 -0.499561 0.866279 0.499561 172.269 138.89)" fill="white"/>
<path d="M251.534 110.307L221.886 97.6372L192.237 110.307L221.886 122.977L251.534 110.307Z" fill="url(#paint0_linear_16_2)"/>
<path d="M251.534 106.747L221.886 89.8245L192.237 106.747L221.886 123.669L251.534 106.747Z" fill="#D0566C"/>
<path d="M221.886 123.669L192.237 106.747V140.327L221.886 157.249V123.669Z" fill="#C22E49"/>
<path d="M221.885 123.669L251.534 106.747V140.327L221.885 157.249V123.669Z" fill="#C22E49"/>
<path d="M208.12 51.5229L200.179 46.9902L192.237 51.5229L200.179 56.0557L208.12 51.5229Z" fill="#D0566C"/>
<path d="M200.179 56.0557L192.237 51.5229V60.5176L200.179 65.0503V56.0557Z" fill="#C22E49"/>
<path d="M200.179 56.0557L208.121 51.5229V60.5176L200.179 65.0503V56.0557Z" fill="#C22E49"/>
<path d="M246.883 91.1738L243.592 89.2955L240.301 91.1738L243.592 93.0521L246.883 91.1738Z" fill="#D0566C"/>
<path d="M243.592 93.0521L240.301 91.1738V94.901L243.592 96.7793V93.0521Z" fill="#C22E49"/>
<path d="M243.592 93.0521L246.883 91.1738V94.901L243.592 96.7793V93.0521Z" fill="#C22E49"/>
<path d="M227.18 76.4528L221.885 73.431L216.591 76.4528L221.885 79.4746L227.18 76.4528Z" fill="#D0566C"/>
<path d="M221.885 79.4747L216.591 76.4529V82.4493L221.885 85.4711V79.4747Z" fill="#C22E49"/>
<path d="M221.886 79.4747L227.18 76.4529V82.4493L221.886 85.4711V79.4747Z" fill="#C22E49"/>
<path d="M243.593 62.1749L238.299 59.1531L233.004 62.1749L238.299 65.1967L243.593 62.1749Z" fill="#D0566C"/>
<path d="M238.299 65.1967L233.004 62.1749V68.1713L238.299 71.1931V65.1967Z" fill="#C22E49"/>
<path d="M238.298 65.1967L243.592 62.1749V68.1713L238.298 71.1931V65.1967Z" fill="#C22E49"/>
<path d="M216.59 89.4609L208.119 84.626L199.648 89.4609L208.119 94.2958L216.59 89.4609Z" fill="#D0566C"/>
<path d="M208.119 94.2957L199.648 89.4608V99.0551L208.119 103.89V94.2957Z" fill="#C22E49"/>
<path d="M208.119 94.2957L216.59 89.4608V99.0551L208.119 103.89V94.2957Z" fill="#C22E49"/>
</g>
<defs>
<linearGradient id="paint0_linear_16_2" x1="221.886" y1="105.845" x2="221.886" y2="122.977" gradientUnits="userSpaceOnUse">
<stop stop-color="#154078"/>
<stop offset="1" stop-color="#38E6E6" stop-opacity="0.4"/>
</linearGradient>
</defs>
</svg>
