<svg width="220" height="24" viewBox="0 0 220 24" fill="none" xmlns="http://www.w3.org/2000/svg">
<path d="M5.66902 3.92725H5.15998C4.53741 3.92725 4.03271 4.43194 4.03271 5.05451V22.6147C4.03271 23.2373 4.53741 23.742 5.15998 23.742H5.66902C6.2916 23.742 6.79629 23.2373 6.79629 22.6147V5.05451C6.79629 4.43194 6.2916 3.92725 5.66902 3.92725Z" fill="white"/>
<path d="M1.63631 0H1.12727C0.504694 0 0 0.504694 0 1.12727V22.6147C0 23.2372 0.504694 23.7419 1.12727 23.7419H1.63631C2.25888 23.7419 2.76357 23.2372 2.76357 22.6147V1.12727C2.76357 0.504694 2.25888 0 1.63631 0Z" fill="white"/>
<path d="M21.8013 3.92725H21.2923C20.6697 3.92725 20.165 4.43194 20.165 5.05451V22.6147C20.165 23.2373 20.6697 23.742 21.2923 23.742H21.8013C22.4239 23.742 22.9286 23.2373 22.9286 22.6147V5.05451C22.9286 4.43194 22.4239 3.92725 21.8013 3.92725Z" fill="white"/>
<path d="M25.8341 0H25.325C24.7024 0 24.1978 0.504694 24.1978 1.12727V22.6147C24.1978 23.2372 24.7024 23.7419 25.325 23.7419H25.8341C26.4566 23.7419 26.9613 23.2372 26.9613 22.6147V1.12727C26.9613 0.504694 26.4566 0 25.8341 0Z" fill="white"/>
<path d="M13.7354 11.7841H13.2264C12.6038 11.7841 12.0991 12.2888 12.0991 12.9114V22.6147C12.0991 23.2372 12.6038 23.7419 13.2264 23.7419H13.7354C14.358 23.7419 14.8627 23.2372 14.8627 22.6147V12.9114C14.8627 12.2888 14.358 11.7841 13.7354 11.7841Z" fill="white"/>
<path d="M17.7681 7.88196H17.2591C16.6365 7.88196 16.1318 8.38665 16.1318 9.00922V22.6011C16.1318 23.2237 16.6365 23.7284 17.2591 23.7284H17.7681C18.3907 23.7284 18.8954 23.2237 18.8954 22.6011V9.00922C18.8954 8.38665 18.3907 7.88196 17.7681 7.88196Z" fill="white"/>
<path d="M9.70223 7.88196H9.19318C8.57061 7.88196 8.06592 8.38665 8.06592 9.00922V22.6011C8.06592 23.2237 8.57061 23.7284 9.19318 23.7284H9.70223C10.3248 23.7284 10.8295 23.2237 10.8295 22.6011V9.00922C10.8295 8.38665 10.3248 7.88196 9.70223 7.88196Z" fill="white"/>
<path d="M36.5477 23.7283C36.3968 23.7283 36.2724 23.6793 36.1745 23.5812C36.076 23.4833 36.0273 23.3589 36.0273 23.2076V8.42509C36.0273 8.25932 36.076 8.12727 36.1745 8.02904C36.2724 7.93115 36.3968 7.8819 36.5477 7.8819H37.6797C37.861 7.8819 37.9967 7.92707 38.0877 8.01768C38.178 8.10829 38.2305 8.1838 38.2456 8.24414L43.0447 17.3899L47.8666 8.24414C47.897 8.1838 47.9538 8.10836 48.0365 8.01768C48.1193 7.927 48.2519 7.8819 48.4326 7.8819H49.5424C49.7079 7.8819 49.8399 7.93115 49.9385 8.02904C50.0364 8.12727 50.0856 8.25925 50.0856 8.42509V23.2075C50.0856 23.3588 50.0364 23.4832 49.9385 23.5811C49.84 23.6793 49.7079 23.7283 49.5424 23.7283H48.4326C48.2817 23.7283 48.1572 23.6793 48.0593 23.5811C47.9608 23.4832 47.9122 23.3588 47.9122 23.2075V12.0699L44.1319 19.4496C44.0712 19.6009 43.9809 19.7177 43.8602 19.8008C43.7389 19.8838 43.5886 19.9252 43.4074 19.9252H42.7056C42.5091 19.9252 42.3544 19.8838 42.2414 19.8008C42.1283 19.7177 42.0335 19.6008 41.9584 19.4496L38.178 12.0699V23.2075C38.178 23.3588 38.1288 23.4832 38.0309 23.5811C37.9324 23.6793 37.8079 23.7283 37.6576 23.7283H36.5478L36.5477 23.7283Z" fill="white"/>
<path d="M59.6837 23.9548C58.4008 23.9548 57.2986 23.7317 56.3784 23.2868C55.4581 22.8418 54.7488 22.1549 54.2504 21.2267C53.7527 20.2985 53.4729 19.1328 53.4129 17.7294C53.3977 17.0655 53.3901 16.4276 53.3901 15.8164C53.3901 15.205 53.3977 14.5677 53.4129 13.9035C53.4729 12.5152 53.764 11.3568 54.2845 10.4286C54.805 9.50043 55.5295 8.80656 56.458 8.3458C57.3859 7.88567 58.4615 7.6554 59.6837 7.6554C60.921 7.6554 62.0043 7.8856 62.9322 8.3458C63.8601 8.80656 64.5883 9.50043 65.117 10.4286C65.6451 11.3568 65.9319 12.5152 65.9767 13.9035C66.007 14.5677 66.0221 15.205 66.0221 15.8164C66.0221 16.4275 66.007 17.0655 65.9767 17.7294C65.9319 19.1328 65.6564 20.2985 65.1505 21.2267C64.6446 22.1549 63.9321 22.8418 63.0112 23.2868C62.0909 23.7317 60.9817 23.9548 59.6838 23.9548H59.6837ZM59.6837 22.0305C60.8459 22.0305 61.7927 21.6834 62.5248 20.9892C63.2562 20.2951 63.6529 19.1708 63.7129 17.616C63.7432 16.937 63.7583 16.3297 63.7583 15.7938C63.7583 15.2581 63.7432 14.6584 63.7129 13.9943C63.6825 12.9527 63.4906 12.1079 63.1362 11.4585C62.7813 10.8098 62.3094 10.3345 61.7214 10.0326C61.1327 9.73071 60.4531 9.57976 59.6838 9.57976C58.9441 9.57976 58.2803 9.73071 57.6916 10.0326C57.1029 10.3345 56.6311 10.8098 56.2767 11.4585C55.9218 12.1079 55.7222 12.9527 55.6767 13.9943C55.6615 14.6584 55.654 15.2581 55.654 15.7938C55.654 16.3297 55.6615 16.937 55.6767 17.616C55.7367 19.1708 56.1372 20.2951 56.8768 20.9892C57.6158 21.6834 58.5519 22.0305 59.6837 22.0305Z" fill="white"/>
<path d="M69.8471 23.7283C69.681 23.7283 69.5528 23.6793 69.4624 23.5812C69.3721 23.4833 69.3267 23.3589 69.3267 23.2076V8.42509C69.3267 8.25932 69.3721 8.12727 69.4624 8.02904C69.5528 7.93115 69.681 7.8819 69.8471 7.8819H76.0504C77.1823 7.8819 78.1064 8.06693 78.8233 8.43645C79.5402 8.8066 80.0682 9.30809 80.408 9.94197C80.7472 10.5758 80.9172 11.2854 80.9172 12.0699C80.9172 12.6889 80.8155 13.2208 80.6114 13.6658C80.408 14.1111 80.1548 14.4733 79.8535 14.7525C79.551 15.0321 79.2572 15.2471 78.9705 15.3978C79.5592 15.6845 80.0834 16.1526 80.5439 16.8012C81.0038 17.4502 81.2343 18.235 81.2343 19.1557C81.2343 19.9856 81.0455 20.748 80.6684 21.4419C80.2907 22.1364 79.7291 22.6909 78.9819 23.1059C78.2347 23.5212 77.31 23.7283 76.2084 23.7283H69.8473H69.8471ZM71.545 14.5826H75.7106C76.6763 14.5826 77.4084 14.3603 77.9061 13.915C78.4045 13.47 78.6533 12.8624 78.6533 12.0924C78.6533 11.3224 78.4045 10.7344 77.9061 10.3267C77.4084 9.91925 76.6763 9.71557 75.7106 9.71557H71.545V14.5826ZM71.545 21.8947H75.9146C76.8948 21.8947 77.6497 21.6307 78.1783 21.1023C78.7063 20.5743 78.9704 19.9253 78.9704 19.1557C78.9704 18.3557 78.7063 17.6953 78.1783 17.1748C77.6497 16.6541 76.8948 16.3938 75.9146 16.3938H71.545V21.8947Z" fill="white"/>
<path d="M84.9692 23.7283C84.8031 23.7283 84.6748 23.6793 84.5845 23.5812C84.4942 23.4833 84.4487 23.3589 84.4487 23.2076V8.40265C84.4487 8.25197 84.4942 8.12727 84.5845 8.02904C84.6748 7.93115 84.8031 7.8819 84.9692 7.8819H86.1693C86.3196 7.8819 86.4447 7.93115 86.5425 8.02904C86.6404 8.12727 86.6897 8.25204 86.6897 8.40265V23.2075C86.6897 23.3588 86.6404 23.4832 86.5425 23.5811C86.4447 23.6793 86.3195 23.7283 86.1693 23.7283H84.9692V23.7283Z" fill="white"/>
<path d="M91.1489 23.7283C90.9828 23.7283 90.8545 23.6793 90.7642 23.5812C90.6739 23.4833 90.6284 23.3589 90.6284 23.2076V8.40265C90.6284 8.25197 90.6739 8.12727 90.7642 8.02904C90.8545 7.93115 90.9828 7.8819 91.1489 7.8819H92.349C92.4993 7.8819 92.6206 7.93115 92.7109 8.02904C92.8018 8.12727 92.8467 8.25204 92.8467 8.40265V21.7589H100.385C100.551 21.7589 100.68 21.8081 100.77 21.906C100.861 22.0042 100.906 22.1362 100.906 22.3021V23.2075C100.906 23.3588 100.861 23.4832 100.77 23.5811C100.68 23.6793 100.551 23.7283 100.385 23.7283H91.1488L91.1489 23.7283Z" fill="white"/>
<path d="M103.894 23.7283C103.727 23.7283 103.599 23.6793 103.509 23.5812C103.418 23.4833 103.373 23.3589 103.373 23.2076V8.42509C103.373 8.25932 103.418 8.12727 103.509 8.02904C103.599 7.93115 103.727 7.8819 103.894 7.8819H113.243C113.409 7.8819 113.537 7.93115 113.628 8.02904C113.719 8.12727 113.764 8.25925 113.764 8.42509V9.28537C113.764 9.45177 113.719 9.57972 113.628 9.67034C113.537 9.76067 113.409 9.80612 113.243 9.80612H105.546V14.7638H112.745C112.911 14.7638 113.04 14.8128 113.13 14.911C113.22 15.0091 113.266 15.1412 113.266 15.307V16.1446C113.266 16.2955 113.22 16.4203 113.13 16.5182C113.04 16.6164 112.911 16.6653 112.745 16.6653H105.546V21.804H113.424C113.59 21.804 113.719 21.8494 113.809 21.9397C113.9 22.0304 113.945 22.1589 113.945 22.3247V23.2074C113.945 23.3587 113.9 23.4832 113.809 23.581C113.719 23.6793 113.59 23.7282 113.424 23.7282H103.893L103.894 23.7283Z" fill="white"/>
<path d="M126.057 23.7283C125.906 23.7283 125.781 23.6793 125.683 23.5812C125.585 23.4833 125.536 23.3589 125.536 23.2076V9.8968H121.189C121.038 9.8968 120.914 9.84782 120.816 9.74966C120.718 9.65142 120.669 9.527 120.669 9.37605V8.42509C120.669 8.25932 120.718 8.12727 120.816 8.02904C120.914 7.93115 121.038 7.8819 121.189 7.8819H132.101C132.267 7.8819 132.399 7.93115 132.497 8.02904C132.595 8.12727 132.644 8.25925 132.644 8.42509V9.37605C132.644 9.527 132.595 9.65142 132.497 9.74966C132.399 9.84789 132.267 9.8968 132.101 9.8968H127.777V23.2075C127.777 23.3588 127.728 23.4832 127.63 23.5811C127.532 23.6793 127.4 23.7283 127.234 23.7283H126.057L126.057 23.7283Z" fill="white"/>
<path d="M140.522 23.9548C139.239 23.9548 138.137 23.7317 137.217 23.2868C136.296 22.8418 135.587 22.1549 135.089 21.2267C134.591 20.2985 134.311 19.1328 134.251 17.7294C134.236 17.0655 134.229 16.4276 134.229 15.8164C134.229 15.205 134.236 14.5677 134.251 13.9035C134.311 12.5152 134.602 11.3568 135.123 10.4286C135.643 9.50043 136.368 8.80656 137.296 8.3458C138.224 7.88567 139.3 7.6554 140.522 7.6554C141.759 7.6554 142.843 7.8856 143.771 8.3458C144.698 8.80656 145.427 9.50043 145.955 10.4286C146.483 11.3568 146.77 12.5152 146.815 13.9035C146.845 14.5677 146.861 15.205 146.861 15.8164C146.861 16.4275 146.845 17.0655 146.815 17.7294C146.77 19.1328 146.495 20.2985 145.989 21.2267C145.483 22.1549 144.77 22.8418 143.85 23.2868C142.929 23.7317 141.82 23.9548 140.522 23.9548H140.522ZM140.522 22.0305C141.684 22.0305 142.631 21.6834 143.363 20.9892C144.095 20.2951 144.491 19.1708 144.551 17.616C144.582 16.937 144.597 16.3297 144.597 15.7938C144.597 15.2581 144.582 14.6584 144.551 13.9943C144.521 12.9527 144.329 12.1079 143.975 11.4585C143.62 10.8098 143.148 10.3345 142.56 10.0326C141.971 9.73071 141.291 9.57976 140.522 9.57976C139.782 9.57976 139.119 9.73071 138.53 10.0326C137.941 10.3345 137.469 10.8098 137.115 11.4585C136.76 12.1079 136.561 12.9527 136.515 13.9943C136.5 14.6584 136.492 15.2581 136.492 15.7938C136.492 16.3297 136.5 16.937 136.515 17.616C136.575 19.1708 136.976 20.2951 137.715 20.9892C138.454 21.6834 139.39 22.0305 140.522 22.0305Z" fill="white"/>
<path d="M155.847 23.9548C154.564 23.9548 153.462 23.7317 152.542 23.2868C151.622 22.8418 150.912 22.1549 150.414 21.2267C149.916 20.2985 149.636 19.1328 149.576 17.7294C149.561 17.0655 149.554 16.4276 149.554 15.8164C149.554 15.205 149.561 14.5677 149.576 13.9035C149.636 12.5152 149.928 11.3568 150.448 10.4286C150.969 9.50043 151.693 8.80656 152.622 8.3458C153.549 7.88567 154.625 7.6554 155.847 7.6554C157.085 7.6554 158.168 7.8856 159.096 8.3458C160.024 8.80656 160.752 9.50043 161.281 10.4286C161.809 11.3568 162.095 12.5152 162.14 13.9035C162.171 14.5677 162.186 15.205 162.186 15.8164C162.186 16.4275 162.171 17.0655 162.14 17.7294C162.095 19.1328 161.82 20.2985 161.314 21.2267C160.808 22.1549 160.096 22.8418 159.175 23.2868C158.254 23.7317 157.145 23.9548 155.847 23.9548H155.847ZM155.847 22.0305C157.009 22.0305 157.956 21.6834 158.688 20.9892C159.42 20.2951 159.816 19.1708 159.876 17.616C159.907 16.937 159.922 16.3297 159.922 15.7938C159.922 15.2581 159.907 14.6584 159.876 13.9943C159.846 12.9527 159.654 12.1079 159.3 11.4585C158.945 10.8098 158.473 10.3345 157.885 10.0326C157.296 9.73071 156.617 9.57976 155.847 9.57976C155.108 9.57976 154.444 9.73071 153.855 10.0326C153.266 10.3345 152.795 10.8098 152.44 11.4585C152.085 12.1079 151.886 12.9527 151.84 13.9943C151.825 14.6584 151.818 15.2581 151.818 15.7938C151.818 16.3297 151.825 16.937 151.84 17.616C151.9 19.1708 152.301 20.2951 153.04 20.9892C153.779 21.6834 154.715 22.0305 155.847 22.0305Z" fill="white"/>
<path d="M166.011 23.7283C165.845 23.7283 165.716 23.6793 165.626 23.5812C165.536 23.4833 165.49 23.3589 165.49 23.2076V8.40265C165.49 8.25197 165.536 8.12727 165.626 8.02904C165.716 7.93115 165.845 7.8819 166.011 7.8819H167.211C167.361 7.8819 167.482 7.93115 167.573 8.02904C167.664 8.12727 167.708 8.25204 167.708 8.40265V21.7589H175.247C175.413 21.7589 175.541 21.8081 175.632 21.906C175.723 22.0042 175.767 22.1362 175.767 22.3021V23.2075C175.767 23.3588 175.723 23.4832 175.632 23.5811C175.541 23.6793 175.413 23.7283 175.247 23.7283H166.011L166.011 23.7283Z" fill="white"/>
<path d="M178.755 23.7283C178.589 23.7283 178.461 23.6793 178.371 23.5812C178.28 23.4833 178.235 23.3589 178.235 23.2076V8.42509C178.235 8.25932 178.28 8.12727 178.371 8.02904C178.461 7.93115 178.589 7.8819 178.755 7.8819H184.959C186.091 7.8819 187.015 8.06693 187.731 8.43645C188.448 8.8066 188.976 9.30809 189.316 9.94197C189.655 10.5758 189.825 11.2854 189.825 12.0699C189.825 12.6889 189.724 13.2208 189.52 13.6658C189.316 14.1111 189.063 14.4733 188.762 14.7525C188.459 15.0321 188.165 15.2471 187.879 15.3978C188.467 15.6845 188.992 16.1526 189.452 16.8012C189.912 17.4502 190.143 18.235 190.143 19.1557C190.143 19.9856 189.954 20.748 189.577 21.4419C189.199 22.1364 188.637 22.6909 187.89 23.1059C187.143 23.5212 186.218 23.7283 185.117 23.7283H178.755H178.755ZM180.453 14.5826H184.619C185.585 14.5826 186.317 14.3603 186.814 13.915C187.313 13.47 187.562 12.8624 187.562 12.0924C187.562 11.3224 187.313 10.7344 186.814 10.3267C186.317 9.91925 185.585 9.71557 184.619 9.71557H180.453V14.5826ZM180.453 21.8947H184.823C185.803 21.8947 186.558 21.6307 187.087 21.1023C187.615 20.5743 187.879 19.9253 187.879 19.1557C187.879 18.3557 187.615 17.6953 187.087 17.1748C186.558 16.6541 185.803 16.3938 184.823 16.3938H180.453V21.8947Z" fill="white"/>
<path d="M199.039 23.9548C197.756 23.9548 196.654 23.7317 195.734 23.2868C194.814 22.8418 194.104 22.1549 193.606 21.2267C193.108 20.2985 192.828 19.1328 192.768 17.7294C192.753 17.0655 192.746 16.4276 192.746 15.8164C192.746 15.205 192.753 14.5677 192.768 13.9035C192.828 12.5152 193.12 11.3568 193.64 10.4286C194.16 9.50043 194.885 8.80656 195.813 8.3458C196.741 7.88567 197.817 7.6554 199.039 7.6554C200.277 7.6554 201.36 7.8856 202.288 8.3458C203.216 8.80656 203.944 9.50043 204.473 10.4286C205.001 11.3568 205.287 12.5152 205.332 13.9035C205.363 14.5677 205.378 15.205 205.378 15.8164C205.378 16.4275 205.362 17.0655 205.332 17.7294C205.287 19.1328 205.012 20.2985 204.506 21.2267C204 22.1549 203.288 22.8418 202.367 23.2868C201.446 23.7317 200.337 23.9548 199.039 23.9548H199.039ZM199.039 22.0305C200.201 22.0305 201.148 21.6834 201.88 20.9892C202.612 20.2951 203.008 19.1708 203.068 17.616C203.099 16.937 203.114 16.3297 203.114 15.7938C203.114 15.2581 203.099 14.6584 203.068 13.9943C203.038 12.9527 202.846 12.1079 202.492 11.4585C202.137 10.8098 201.665 10.3345 201.077 10.0326C200.488 9.73071 199.809 9.57976 199.039 9.57976C198.3 9.57976 197.636 9.73071 197.047 10.0326C196.458 10.3345 195.987 10.8098 195.632 11.4585C195.277 12.1079 195.078 12.9527 195.032 13.9943C195.017 14.6584 195.009 15.2581 195.009 15.7938C195.009 16.3297 195.017 16.937 195.032 17.616C195.092 19.1708 195.493 20.2951 196.232 20.9892C196.971 21.6834 197.907 22.0305 199.039 22.0305Z" fill="white"/>
<path d="M207.21 23.7284C207.089 23.7284 206.98 23.6832 206.882 23.5926C206.783 23.502 206.735 23.3965 206.735 23.2755C206.735 23.2155 206.746 23.159 206.769 23.1059C206.792 23.0532 206.81 23.0118 206.826 22.9815L212.01 15.6694L207.075 8.62889C207.029 8.53855 207.006 8.44032 207.006 8.33488C207.006 8.21427 207.052 8.10841 207.142 8.0178C207.233 7.92719 207.339 7.88202 207.459 7.88202H208.817C208.968 7.88202 209.09 7.9161 209.18 7.98399C209.27 8.05189 209.353 8.14631 209.429 8.26699L213.413 13.9264L217.375 8.26699C217.435 8.14638 217.514 8.05189 217.612 7.98399C217.71 7.9161 217.827 7.88202 217.963 7.88202H219.254C219.374 7.88202 219.48 7.92719 219.57 8.0178C219.661 8.10841 219.706 8.21427 219.706 8.33488C219.706 8.44039 219.676 8.53855 219.616 8.62889L214.749 15.6921L219.91 22.9814C219.94 23.0118 219.962 23.0531 219.978 23.1059C219.993 23.1589 220 23.2155 220 23.2754C220 23.3964 219.955 23.5019 219.864 23.5925C219.774 23.6831 219.661 23.7283 219.525 23.7283H218.145C218.008 23.7283 217.891 23.6908 217.793 23.6152C217.695 23.5397 217.608 23.4567 217.533 23.3661L213.323 17.4802L209.134 23.3661C209.059 23.4567 208.976 23.5397 208.885 23.6152C208.795 23.6908 208.674 23.7283 208.524 23.7283H207.21V23.7284Z" fill="white"/>
</svg>
