<svg width="346" height="38" viewBox="0 0 346 38" fill="none" xmlns="http://www.w3.org/2000/svg">
<path d="M8.89713 6.16333H8.09824C7.12117 6.16333 6.3291 6.9554 6.3291 7.93247V35.4915C6.3291 36.4686 7.12117 37.2606 8.09824 37.2606H8.89713C9.8742 37.2606 10.6663 36.4686 10.6663 35.4915V7.93247C10.6663 6.9554 9.8742 6.16333 8.89713 6.16333Z" fill="url(#paint0_linear_10_34392)"/>
<path d="M2.56803 0H1.76914C0.792069 0 0 0.792069 0 1.76914V35.4915C0 36.4686 0.792069 37.2607 1.76914 37.2607H2.56803C3.5451 37.2607 4.33717 36.4686 4.33717 35.4915V1.76914C4.33717 0.792069 3.5451 0 2.56803 0Z" fill="url(#paint1_linear_10_34392)"/>
<path d="M34.2145 6.16333H33.4156C32.4386 6.16333 31.6465 6.9554 31.6465 7.93247V35.4915C31.6465 36.4686 32.4386 37.2606 33.4156 37.2606H34.2145C35.1916 37.2606 35.9837 36.4686 35.9837 35.4915V7.93247C35.9837 6.9554 35.1916 6.16333 34.2145 6.16333Z" fill="url(#paint2_linear_10_34392)"/>
<path d="M40.5441 0H39.7452C38.7681 0 37.9761 0.792069 37.9761 1.76914V35.4915C37.9761 36.4686 38.7681 37.2607 39.7452 37.2607H40.5441C41.5212 37.2607 42.3132 36.4686 42.3132 35.4915V1.76914C42.3132 0.792069 41.5212 0 40.5441 0Z" fill="url(#paint3_linear_10_34392)"/>
<path d="M21.5558 18.4941H20.7569C19.7799 18.4941 18.9878 19.2862 18.9878 20.2633V35.4916C18.9878 36.4687 19.7799 37.2608 20.7569 37.2608H21.5558C22.5329 37.2608 23.325 36.4687 23.325 35.4916V20.2633C23.325 19.2862 22.5329 18.4941 21.5558 18.4941Z" fill="url(#paint4_linear_10_34392)"/>
<path d="M27.8854 12.3701H27.0865C26.1095 12.3701 25.3174 13.1622 25.3174 14.1393V35.4704C25.3174 36.4475 26.1095 37.2396 27.0865 37.2396H27.8854C28.8625 37.2396 29.6545 36.4475 29.6545 35.4704V14.1393C29.6545 13.1622 28.8625 12.3701 27.8854 12.3701Z" fill="url(#paint5_linear_10_34392)"/>
<path d="M15.2267 12.3701H14.4278C13.4508 12.3701 12.6587 13.1622 12.6587 14.1393V35.4704C12.6587 36.4475 13.4508 37.2396 14.4278 37.2396H15.2267C16.2038 37.2396 16.9959 36.4475 16.9959 35.4704V14.1393C16.9959 13.1622 16.2038 12.3701 15.2267 12.3701Z" fill="url(#paint6_linear_10_34392)"/>
<path d="M57.3577 37.2396C57.1208 37.2396 56.9256 37.1627 56.7719 37.0086C56.6173 36.855 56.541 36.6597 56.541 36.4223V13.2226C56.541 12.9624 56.6173 12.7552 56.7719 12.601C56.9256 12.4474 57.1208 12.3701 57.3577 12.3701H59.1342C59.4187 12.3701 59.6318 12.441 59.7745 12.5832C59.9163 12.7254 59.9986 12.8439 60.0223 12.9386L67.5541 27.292L75.1216 12.9386C75.1692 12.8439 75.2584 12.7255 75.3883 12.5832C75.5182 12.4409 75.7263 12.3701 76.0099 12.3701H77.7516C78.0114 12.3701 78.2185 12.4474 78.3732 12.601C78.5268 12.7552 78.6041 12.9623 78.6041 13.2226V36.4222C78.6041 36.6596 78.5268 36.8549 78.3732 37.0085C78.2186 37.1627 78.0114 37.2395 77.7516 37.2395H76.0099C75.773 37.2395 75.5777 37.1626 75.4241 37.0085C75.2695 36.8549 75.1932 36.6596 75.1932 36.4222V18.9428L69.2603 30.5245C69.1651 30.762 69.0234 30.9453 68.834 31.0756C68.6436 31.206 68.4077 31.2709 68.1233 31.2709H67.0219C66.7136 31.2709 66.4708 31.206 66.2933 31.0756C66.1159 30.9453 65.9672 30.7619 65.8492 30.5245L59.9163 18.9428V36.4222C59.9163 36.6596 59.839 36.8549 59.6854 37.0085C59.5308 37.1627 59.3354 37.2395 59.0996 37.2395H57.3579L57.3577 37.2396Z" fill="#292C4F"/>
<path d="M93.6677 37.5949C91.6543 37.5949 89.9246 37.2449 88.4803 36.5466C87.036 35.8483 85.9228 34.7702 85.1407 33.3135C84.3595 31.8569 83.9203 30.0274 83.8262 27.8248C83.8024 26.7829 83.7905 25.7818 83.7905 24.8226C83.7905 23.863 83.8024 22.8629 83.8262 21.8205C83.9203 19.6417 84.3773 17.8236 85.1941 16.3669C86.011 14.9103 87.148 13.8213 88.6052 13.0982C90.0614 12.376 91.7496 12.0146 93.6677 12.0146C95.6096 12.0146 97.3097 12.3759 98.7659 13.0982C100.222 13.8213 101.365 14.9103 102.195 16.3669C103.023 17.8236 103.474 19.6417 103.544 21.8205C103.592 22.8628 103.615 23.863 103.615 24.8226C103.615 25.7817 103.591 26.7829 103.544 27.8248C103.474 30.0274 103.041 31.8569 102.247 33.3135C101.453 34.7702 100.335 35.8483 98.8898 36.5466C97.4456 37.2449 95.7048 37.5949 93.6678 37.5949H93.6677ZM93.6677 34.5749C95.4916 34.5749 96.9776 34.0302 98.1265 32.9408C99.2744 31.8514 99.8969 30.087 99.9911 27.6469C100.039 26.5813 100.062 25.6281 100.062 24.7871C100.062 23.9464 100.039 23.0052 99.9911 21.9629C99.9435 20.3282 99.6422 19.0024 99.0861 17.9833C98.529 16.9652 97.7885 16.2193 96.8656 15.7455C95.9417 15.2717 94.8751 15.0347 93.6678 15.0347C92.5069 15.0347 91.4652 15.2717 90.5412 15.7455C89.6173 16.2193 88.8769 16.9652 88.3208 17.9833C87.7637 19.0024 87.4505 20.3282 87.379 21.9629C87.3552 23.0052 87.3434 23.9464 87.3434 24.7871C87.3434 25.6281 87.3552 26.5813 87.379 27.6469C87.4732 30.087 88.1017 31.8514 89.2624 32.9408C90.4223 34.0302 91.8913 34.5749 93.6677 34.5749Z" fill="#292C4F"/>
<path d="M109.619 37.2396C109.358 37.2396 109.157 37.1627 109.015 37.0086C108.873 36.855 108.802 36.6597 108.802 36.4223V13.2226C108.802 12.9624 108.873 12.7552 109.015 12.601C109.157 12.4474 109.358 12.3701 109.619 12.3701H119.354C121.13 12.3701 122.581 12.6605 123.706 13.2404C124.831 13.8213 125.66 14.6084 126.193 15.6032C126.725 16.5979 126.992 17.7117 126.992 18.9428C126.992 19.9143 126.832 20.7489 126.512 21.4474C126.193 22.1462 125.795 22.7148 125.323 23.1529C124.848 23.5916 124.387 23.9291 123.937 24.1656C124.861 24.6156 125.683 25.3502 126.406 26.3682C127.128 27.3867 127.49 28.6184 127.49 30.0632C127.49 31.3657 127.193 32.5622 126.602 33.6512C126.009 34.7411 125.127 35.6114 123.955 36.2627C122.782 36.9145 121.331 37.2396 119.602 37.2396H109.619H109.619ZM112.283 22.8862H118.821C120.336 22.8862 121.485 22.5373 122.266 21.8385C123.049 21.1401 123.439 20.1865 123.439 18.9781C123.439 17.7696 123.049 16.8468 122.266 16.2069C121.485 15.5675 120.336 15.2479 118.821 15.2479H112.283V22.8862ZM112.283 34.3619H119.141C120.679 34.3619 121.864 33.9476 122.694 33.1183C123.522 32.2896 123.937 31.271 123.937 30.0632C123.937 28.8078 123.522 27.7713 122.694 26.9545C121.864 26.1372 120.679 25.7288 119.141 25.7288H112.283V34.3619Z" fill="#292C4F"/>
<path d="M133.351 37.2396C133.09 37.2396 132.889 37.1627 132.747 37.0086C132.606 36.855 132.534 36.6597 132.534 36.4223V13.1874C132.534 12.9509 132.606 12.7552 132.747 12.601C132.889 12.4474 133.09 12.3701 133.351 12.3701H135.234C135.47 12.3701 135.667 12.4474 135.82 12.601C135.974 12.7552 136.051 12.951 136.051 13.1874V36.4222C136.051 36.6596 135.974 36.8549 135.82 37.0085C135.667 37.1627 135.47 37.2395 135.234 37.2395H133.351V37.2396Z" fill="#292C4F"/>
<path d="M143.049 37.2396C142.789 37.2396 142.587 37.1627 142.446 37.0086C142.304 36.855 142.232 36.6597 142.232 36.4223V13.1874C142.232 12.9509 142.304 12.7552 142.446 12.601C142.587 12.4474 142.789 12.3701 143.049 12.3701H144.933C145.169 12.3701 145.359 12.4474 145.501 12.601C145.643 12.7552 145.714 12.951 145.714 13.1874V34.1487H157.545C157.805 34.1487 158.007 34.226 158.148 34.3796C158.291 34.5338 158.362 34.7409 158.362 35.0012V36.4222C158.362 36.6596 158.291 36.8549 158.148 37.0085C158.007 37.1627 157.805 37.2395 157.545 37.2395H143.049L143.049 37.2396Z" fill="#292C4F"/>
<path d="M163.051 37.2396C162.79 37.2396 162.589 37.1627 162.447 37.0086C162.305 36.855 162.234 36.6597 162.234 36.4223V13.2226C162.234 12.9624 162.305 12.7552 162.447 12.601C162.589 12.4474 162.79 12.3701 163.051 12.3701H177.724C177.984 12.3701 178.186 12.4474 178.328 12.601C178.47 12.7552 178.542 12.9623 178.542 13.2226V14.5727C178.542 14.8339 178.47 15.0347 178.328 15.1769C178.186 15.3187 177.984 15.39 177.724 15.39H165.645V23.1706H176.943C177.202 23.1706 177.405 23.2475 177.546 23.4016C177.688 23.5556 177.759 23.7628 177.759 24.0231V25.3376C177.759 25.5745 177.688 25.7703 177.546 25.9239C177.405 26.0781 177.202 26.1549 176.943 26.1549H165.645V34.2195H178.008C178.269 34.2195 178.47 34.2908 178.612 34.4326C178.755 34.5748 178.825 34.7766 178.825 35.0367V36.4221C178.825 36.6595 178.755 36.8548 178.612 37.0084C178.47 37.1626 178.269 37.2393 178.008 37.2393H163.051L163.051 37.2396Z" fill="#292C4F"/>
<path d="M197.833 37.2396C197.596 37.2396 197.401 37.1627 197.247 37.0086C197.093 36.855 197.016 36.6597 197.016 36.4223V15.5323H190.194C189.957 15.5323 189.762 15.4555 189.608 15.3014C189.454 15.1472 189.377 14.952 189.377 14.715V13.2226C189.377 12.9624 189.454 12.7552 189.608 12.601C189.762 12.4474 189.957 12.3701 190.194 12.3701H207.319C207.579 12.3701 207.786 12.4474 207.94 12.601C208.095 12.7552 208.171 12.9623 208.171 13.2226V14.715C208.171 14.952 208.095 15.1472 207.94 15.3014C207.787 15.4556 207.579 15.5323 207.319 15.5323H200.533V36.4222C200.533 36.6596 200.456 36.8549 200.302 37.0085C200.148 37.1627 199.941 37.2395 199.681 37.2395H197.833L197.833 37.2396Z" fill="#292C4F"/>
<path d="M220.535 37.5949C218.522 37.5949 216.792 37.2449 215.348 36.5466C213.904 35.8483 212.79 34.7702 212.008 33.3135C211.227 31.8569 210.788 30.0274 210.694 27.8248C210.67 26.7829 210.658 25.7818 210.658 24.8226C210.658 23.863 210.67 22.8629 210.694 21.8205C210.788 19.6417 211.245 17.8236 212.062 16.3669C212.879 14.9103 214.016 13.8213 215.473 13.0982C216.929 12.376 218.617 12.0146 220.535 12.0146C222.477 12.0146 224.177 12.3759 225.634 13.0982C227.09 13.8213 228.233 14.9103 229.062 16.3669C229.891 17.8236 230.341 19.6417 230.412 21.8205C230.459 22.8628 230.483 23.863 230.483 24.8226C230.483 25.7817 230.459 26.7829 230.412 27.8248C230.341 30.0274 229.909 31.8569 229.115 33.3135C228.321 34.7702 227.203 35.8483 225.758 36.5466C224.313 37.2449 222.572 37.5949 220.535 37.5949H220.535ZM220.535 34.5749C222.359 34.5749 223.845 34.0302 224.994 32.9408C226.142 31.8514 226.765 30.087 226.859 27.6469C226.906 26.5813 226.93 25.6281 226.93 24.7871C226.93 23.9464 226.906 23.0052 226.859 21.9629C226.811 20.3282 226.51 19.0024 225.954 17.9833C225.397 16.9652 224.656 16.2193 223.733 15.7455C222.809 15.2717 221.743 15.0347 220.535 15.0347C219.375 15.0347 218.333 15.2717 217.409 15.7455C216.485 16.2193 215.745 16.9652 215.188 17.9833C214.631 19.0024 214.318 20.3282 214.247 21.9629C214.223 23.0052 214.211 23.9464 214.211 24.7871C214.211 25.6281 214.223 26.5813 214.247 27.6469C214.341 30.087 214.969 31.8514 216.13 32.9408C217.29 34.0302 218.759 34.5749 220.535 34.5749Z" fill="#292C4F"/>
<path d="M244.587 37.5949C242.574 37.5949 240.844 37.2449 239.4 36.5466C237.955 35.8483 236.842 34.7702 236.06 33.3135C235.279 31.8569 234.84 30.0274 234.746 27.8248C234.722 26.7829 234.71 25.7818 234.71 24.8226C234.71 23.863 234.722 22.8629 234.746 21.8205C234.84 19.6417 235.297 17.8236 236.114 16.3669C236.93 14.9103 238.067 13.8213 239.525 13.0982C240.981 12.376 242.669 12.0146 244.587 12.0146C246.529 12.0146 248.229 12.3759 249.685 13.0982C251.142 13.8213 252.284 14.9103 253.114 16.3669C253.943 17.8236 254.393 19.6417 254.463 21.8205C254.511 22.8628 254.535 23.863 254.535 24.8226C254.535 25.7817 254.511 26.7829 254.463 27.8248C254.393 30.0274 253.961 31.8569 253.167 33.3135C252.373 34.7702 251.255 35.8483 249.809 36.5466C248.365 37.2449 246.624 37.5949 244.587 37.5949H244.587ZM244.587 34.5749C246.411 34.5749 247.897 34.0302 249.046 32.9408C250.194 31.8514 250.816 30.087 250.911 27.6469C250.958 26.5813 250.982 25.6281 250.982 24.7871C250.982 23.9464 250.958 23.0052 250.911 21.9629C250.863 20.3282 250.562 19.0024 250.006 17.9833C249.448 16.9652 248.708 16.2193 247.785 15.7455C246.861 15.2717 245.795 15.0347 244.587 15.0347C243.426 15.0347 242.385 15.2717 241.461 15.7455C240.537 16.2193 239.796 16.9652 239.24 17.9833C238.683 19.0024 238.37 20.3282 238.298 21.9629C238.275 23.0052 238.263 23.9464 238.263 24.7871C238.263 25.6281 238.275 26.5813 238.298 27.6469C238.393 30.087 239.021 31.8514 240.182 32.9408C241.342 34.0302 242.811 34.5749 244.587 34.5749Z" fill="#292C4F"/>
<path d="M260.538 37.2396C260.277 37.2396 260.076 37.1627 259.934 37.0086C259.793 36.855 259.721 36.6597 259.721 36.4223V13.1874C259.721 12.9509 259.793 12.7552 259.934 12.601C260.076 12.4474 260.277 12.3701 260.538 12.3701H262.421C262.657 12.3701 262.848 12.4474 262.989 12.601C263.132 12.7552 263.202 12.951 263.202 13.1874V34.1487H275.033C275.294 34.1487 275.495 34.226 275.637 34.3796C275.78 34.5338 275.85 34.7409 275.85 35.0012V36.4222C275.85 36.6596 275.78 36.8549 275.637 37.0085C275.495 37.1627 275.294 37.2395 275.033 37.2395H260.538L260.538 37.2396Z" fill="#292C4F"/>
<path d="M280.539 37.2396C280.278 37.2396 280.077 37.1627 279.935 37.0086C279.793 36.855 279.722 36.6597 279.722 36.4223V13.2226C279.722 12.9624 279.793 12.7552 279.935 12.601C280.077 12.4474 280.278 12.3701 280.539 12.3701H290.274C292.051 12.3701 293.501 12.6605 294.626 13.2404C295.751 13.8213 296.58 14.6084 297.113 15.6032C297.646 16.5979 297.912 17.7117 297.912 18.9428C297.912 19.9143 297.753 20.7489 297.433 21.4474C297.113 22.1462 296.716 22.7148 296.243 23.1529C295.768 23.5916 295.307 23.9291 294.857 24.1656C295.781 24.6156 296.604 25.3502 297.327 26.3682C298.048 27.3867 298.41 28.6184 298.41 30.0632C298.41 31.3657 298.114 32.5622 297.522 33.6512C296.929 34.7411 296.048 35.6114 294.875 36.2627C293.702 36.9145 292.251 37.2396 290.522 37.2396H280.539H280.539ZM283.204 22.8862H289.741C291.257 22.8862 292.406 22.5373 293.187 21.8385C293.969 21.1401 294.36 20.1865 294.36 18.9781C294.36 17.7696 293.969 16.8468 293.187 16.2069C292.406 15.5675 291.257 15.2479 289.741 15.2479H283.204V22.8862ZM283.204 34.3619H290.061C291.6 34.3619 292.784 33.9476 293.614 33.1183C294.443 32.2896 294.857 31.271 294.857 30.0632C294.857 28.8078 294.443 27.7713 293.614 26.9545C292.784 26.1372 291.6 25.7288 290.061 25.7288H283.204V34.3619Z" fill="#292C4F"/>
<path d="M312.372 37.5949C310.359 37.5949 308.629 37.2449 307.185 36.5466C305.741 35.8483 304.627 34.7702 303.845 33.3135C303.064 31.8569 302.625 30.0274 302.531 27.8248C302.507 26.7829 302.495 25.7818 302.495 24.8226C302.495 23.863 302.507 22.8629 302.531 21.8205C302.625 19.6417 303.082 17.8236 303.899 16.3669C304.716 14.9103 305.853 13.8213 307.31 13.0982C308.766 12.376 310.454 12.0146 312.372 12.0146C314.314 12.0146 316.014 12.3759 317.47 13.0982C318.927 13.8213 320.07 14.9103 320.899 16.3669C321.728 17.8236 322.178 19.6417 322.249 21.8205C322.296 22.8628 322.32 23.863 322.32 24.8226C322.32 25.7817 322.296 26.7829 322.249 27.8248C322.178 30.0274 321.746 31.8569 320.952 33.3135C320.158 34.7702 319.04 35.8483 317.594 36.5466C316.15 37.2449 314.409 37.5949 312.372 37.5949H312.372ZM312.372 34.5749C314.196 34.5749 315.682 34.0302 316.831 32.9408C317.979 31.8514 318.602 30.087 318.696 27.6469C318.743 26.5813 318.767 25.6281 318.767 24.7871C318.767 23.9464 318.743 23.0052 318.696 21.9629C318.648 20.3282 318.347 19.0024 317.791 17.9833C317.234 16.9652 316.493 16.2193 315.57 15.7455C314.646 15.2717 313.58 15.0347 312.372 15.0347C311.212 15.0347 310.17 15.2717 309.246 15.7455C308.322 16.2193 307.582 16.9652 307.025 17.9833C306.468 19.0024 306.155 20.3282 306.084 21.9629C306.06 23.0052 306.048 23.9464 306.048 24.7871C306.048 25.6281 306.06 26.5813 306.084 27.6469C306.178 30.087 306.806 31.8514 307.967 32.9408C309.127 34.0302 310.596 34.5749 312.372 34.5749Z" fill="#292C4F"/>
<path d="M325.197 37.2397C325.006 37.2397 324.835 37.1688 324.681 37.0266C324.527 36.8844 324.45 36.7188 324.45 36.529C324.45 36.4348 324.468 36.3461 324.504 36.2628C324.539 36.1801 324.568 36.1151 324.593 36.0676L332.728 24.5919L324.983 13.5425C324.912 13.4007 324.876 13.2466 324.876 13.0811C324.876 12.8918 324.948 12.7257 325.089 12.5835C325.232 12.4412 325.398 12.3704 325.587 12.3704H327.718C327.955 12.3704 328.146 12.4239 328.287 12.5304C328.429 12.637 328.559 12.7851 328.678 12.9745L334.931 21.8564L341.148 12.9745C341.242 12.7852 341.367 12.637 341.521 12.5304C341.675 12.4239 341.859 12.3704 342.072 12.3704H344.097C344.287 12.3704 344.452 12.4412 344.594 12.5835C344.737 12.7257 344.807 12.8918 344.807 13.0811C344.807 13.2467 344.759 13.4007 344.665 13.5425L337.027 24.6275L345.127 36.0675C345.175 36.1151 345.21 36.18 345.234 36.2627C345.257 36.346 345.269 36.4347 345.269 36.5289C345.269 36.7187 345.199 36.8843 345.056 37.0265C344.914 37.1687 344.737 37.2396 344.524 37.2396H342.357C342.143 37.2396 341.959 37.1807 341.805 37.0622C341.651 36.9437 341.515 36.8133 341.397 36.6711L334.789 27.4338L328.216 36.6711C328.097 36.8133 327.967 36.9437 327.825 37.0622C327.684 37.1807 327.493 37.2396 327.257 37.2396H325.197V37.2397Z" fill="#292C4F"/>
<defs>
<linearGradient id="paint0_linear_10_34392" x1="-2.99463" y1="21.712" x2="45.5295" y2="21.712" gradientUnits="userSpaceOnUse">
<stop stop-color="#D31E4B"/>
<stop offset="0.0478" stop-color="#CF2452"/>
<stop offset="0.1179" stop-color="#C53765"/>
<stop offset="0.2015" stop-color="#B55685"/>
<stop offset="0.295" stop-color="#9F80B2"/>
<stop offset="0.3415" stop-color="#9398CB"/>
<stop offset="0.4104" stop-color="#7E99CE"/>
<stop offset="0.5515" stop-color="#489ED5"/>
<stop offset="0.6529" stop-color="#1FA2DC"/>
<stop offset="0.7131" stop-color="#2BA3B4"/>
<stop offset="0.7932" stop-color="#39A685"/>
<stop offset="0.8643" stop-color="#43A763"/>
<stop offset="0.9229" stop-color="#49A84E"/>
<stop offset="0.9617" stop-color="#4CA947"/>
</linearGradient>
<linearGradient id="paint1_linear_10_34392" x1="-3.05261" y1="18.6304" x2="45.4663" y2="18.6304" gradientUnits="userSpaceOnUse">
<stop stop-color="#D31E4B"/>
<stop offset="0.0473" stop-color="#CF2452"/>
<stop offset="0.1165" stop-color="#C53765"/>
<stop offset="0.1992" stop-color="#B55685"/>
<stop offset="0.2916" stop-color="#9F80B2"/>
<stop offset="0.3375" stop-color="#9398CB"/>
<stop offset="0.4078" stop-color="#7E99CE"/>
<stop offset="0.5519" stop-color="#489ED5"/>
<stop offset="0.6554" stop-color="#1FA2DC"/>
<stop offset="0.715" stop-color="#2BA3B4"/>
<stop offset="0.7946" stop-color="#39A685"/>
<stop offset="0.8651" stop-color="#43A763"/>
<stop offset="0.9232" stop-color="#49A84E"/>
<stop offset="0.9617" stop-color="#4CA947"/>
</linearGradient>
<linearGradient id="paint2_linear_10_34392" x1="-1.22431" y1="21.712" x2="43.8907" y2="21.712" gradientUnits="userSpaceOnUse">
<stop stop-color="#D31E4B"/>
<stop offset="0.05" stop-color="#CF2452"/>
<stop offset="0.1233" stop-color="#C53765"/>
<stop offset="0.2108" stop-color="#B55685"/>
<stop offset="0.3086" stop-color="#9F80B2"/>
<stop offset="0.3572" stop-color="#9398CB"/>
<stop offset="0.4238" stop-color="#7E99CE"/>
<stop offset="0.5605" stop-color="#489ED5"/>
<stop offset="0.6587" stop-color="#1FA2DC"/>
<stop offset="0.7177" stop-color="#2BA3B4"/>
<stop offset="0.7964" stop-color="#39A685"/>
<stop offset="0.8661" stop-color="#43A763"/>
<stop offset="0.9236" stop-color="#49A84E"/>
<stop offset="0.9617" stop-color="#4CA947"/>
</linearGradient>
<linearGradient id="paint3_linear_10_34392" x1="-1.22401" y1="18.6304" x2="43.8909" y2="18.6304" gradientUnits="userSpaceOnUse">
<stop stop-color="#D31E4B"/>
<stop offset="0.05" stop-color="#CF2452"/>
<stop offset="0.1233" stop-color="#C53765"/>
<stop offset="0.2108" stop-color="#B55685"/>
<stop offset="0.3086" stop-color="#9F80B2"/>
<stop offset="0.3572" stop-color="#9398CB"/>
<stop offset="0.4238" stop-color="#7E99CE"/>
<stop offset="0.5605" stop-color="#489ED5"/>
<stop offset="0.6587" stop-color="#1FA2DC"/>
<stop offset="0.7177" stop-color="#2BA3B4"/>
<stop offset="0.7964" stop-color="#39A685"/>
<stop offset="0.8661" stop-color="#43A763"/>
<stop offset="0.9236" stop-color="#49A84E"/>
<stop offset="0.9617" stop-color="#4CA947"/>
</linearGradient>
<linearGradient id="paint4_linear_10_34392" x1="-2.76425" y1="27.8775" x2="45.5554" y2="27.8775" gradientUnits="userSpaceOnUse">
<stop stop-color="#D31E4B"/>
<stop offset="0.0472" stop-color="#CF2452"/>
<stop offset="0.1164" stop-color="#C53765"/>
<stop offset="0.199" stop-color="#B55685"/>
<stop offset="0.2913" stop-color="#9F80B2"/>
<stop offset="0.3372" stop-color="#9398CB"/>
<stop offset="0.4065" stop-color="#7E99CE"/>
<stop offset="0.5485" stop-color="#489ED5"/>
<stop offset="0.6505" stop-color="#1FA2DC"/>
<stop offset="0.7111" stop-color="#2BA3B4"/>
<stop offset="0.7919" stop-color="#39A685"/>
<stop offset="0.8636" stop-color="#43A763"/>
<stop offset="0.9226" stop-color="#49A84E"/>
<stop offset="0.9617" stop-color="#4CA947"/>
</linearGradient>
<linearGradient id="paint5_linear_10_34392" x1="-1.22412" y1="24.8048" x2="43.8908" y2="24.8048" gradientUnits="userSpaceOnUse">
<stop stop-color="#D31E4B"/>
<stop offset="0.05" stop-color="#CF2452"/>
<stop offset="0.1233" stop-color="#C53765"/>
<stop offset="0.2108" stop-color="#B55685"/>
<stop offset="0.3086" stop-color="#9F80B2"/>
<stop offset="0.3572" stop-color="#9398CB"/>
<stop offset="0.4238" stop-color="#7E99CE"/>
<stop offset="0.5605" stop-color="#489ED5"/>
<stop offset="0.6587" stop-color="#1FA2DC"/>
<stop offset="0.7177" stop-color="#2BA3B4"/>
<stop offset="0.7964" stop-color="#39A685"/>
<stop offset="0.8661" stop-color="#43A763"/>
<stop offset="0.9236" stop-color="#49A84E"/>
<stop offset="0.9617" stop-color="#4CA947"/>
</linearGradient>
<linearGradient id="paint6_linear_10_34392" x1="-2.87159" y1="24.8048" x2="45.4814" y2="24.8048" gradientUnits="userSpaceOnUse">
<stop stop-color="#D31E4B"/>
<stop offset="0.0472" stop-color="#CF2452"/>
<stop offset="0.1163" stop-color="#C53765"/>
<stop offset="0.1988" stop-color="#B55685"/>
<stop offset="0.291" stop-color="#9F80B2"/>
<stop offset="0.3369" stop-color="#9398CB"/>
<stop offset="0.4062" stop-color="#7E99CE"/>
<stop offset="0.5482" stop-color="#489ED5"/>
<stop offset="0.6503" stop-color="#1FA2DC"/>
<stop offset="0.7109" stop-color="#2BA3B4"/>
<stop offset="0.7918" stop-color="#39A685"/>
<stop offset="0.8635" stop-color="#43A763"/>
<stop offset="0.9225" stop-color="#49A84E"/>
<stop offset="0.9617" stop-color="#4CA947"/>
</linearGradient>
</defs>
</svg>
