<svg width="319" height="61" viewBox="0 0 319 61" fill="none" xmlns="http://www.w3.org/2000/svg">
<path d="M84.1932 21.4835C84.1028 21.6893 83.9571 21.8659 83.7723 21.9938C83.5996 22.097 83.4011 22.1492 83.2 22.1444C82.9346 22.1304 82.6783 22.0436 82.4591 21.8935C82.1842 21.7262 81.8586 21.5368 81.4824 21.3254C81.0625 21.0972 80.6229 20.9071 80.1691 20.7573C79.5945 20.5779 78.9946 20.4932 78.3928 20.5063C77.8483 20.4947 77.3052 20.568 76.7832 20.7236C76.363 20.8527 75.972 21.0625 75.6323 21.3415C75.3305 21.5858 75.091 21.8983 74.9335 22.2533C74.778 22.6355 74.7007 23.045 74.7063 23.4577C74.6892 23.9652 74.8575 24.4617 75.1797 24.8543C75.5267 25.2526 75.9505 25.5769 76.4258 25.8077C76.9949 26.0897 77.5861 26.3247 78.1935 26.5103C78.8563 26.7167 79.5297 26.9376 80.2136 27.1731C80.902 27.4142 81.5764 27.6935 82.2337 28.0096C82.8796 28.3103 83.4758 28.708 84.0015 29.1889C84.5307 29.6812 84.9545 30.2758 85.247 30.9368C85.5824 31.7297 85.7439 32.5853 85.7205 33.4459C85.7276 34.4757 85.5392 35.4974 85.1651 36.4569C84.805 37.3762 84.253 38.2082 83.546 38.8974C82.8023 39.628 81.9159 40.1974 80.9422 40.57C79.8172 40.9883 78.6238 41.1925 77.4237 41.1722C76.6693 41.1741 75.9165 41.1013 75.1764 40.9549C74.451 40.8093 73.7408 40.5965 73.055 40.3191C72.391 40.052 71.7544 39.7213 71.1542 39.3315C70.5847 38.9638 70.0569 38.5352 69.5801 38.0533L70.8678 35.9371C70.9902 35.7842 71.1384 35.654 71.3057 35.5522C71.4777 35.4464 71.6761 35.3913 71.8781 35.3931C72.2028 35.4107 72.5143 35.5275 72.7705 35.7278C73.0905 35.951 73.4666 36.199 73.8986 36.472C74.3837 36.7696 74.8969 37.0189 75.4306 37.2163C76.1115 37.456 76.8304 37.5695 77.552 37.551C78.6027 37.6113 79.6398 37.2905 80.4731 36.6477C80.828 36.325 81.1058 35.9268 81.2861 35.4823C81.4664 35.0378 81.5445 34.5585 81.5146 34.0798C81.537 33.5331 81.3698 32.9954 81.0412 32.5578C80.7009 32.1418 80.2762 31.8029 79.7951 31.5636C79.2303 31.2786 78.638 31.0517 78.0274 30.8861C77.3646 30.7021 76.6939 30.4986 76.0153 30.2754C75.329 30.0553 74.657 29.7926 74.0033 29.4891C73.3524 29.1901 72.7551 28.7861 72.2355 28.2932C71.7016 27.7657 71.2825 27.1336 71.0046 26.4364C70.6659 25.5655 70.5049 24.6356 70.5312 23.7015C70.534 22.8197 70.716 21.9477 71.0659 21.1383C71.4158 20.3289 71.9265 19.599 72.5669 18.9928C73.2795 18.3305 74.1142 17.8133 75.0244 17.4698C76.0842 17.0692 77.2103 16.8729 78.3431 16.8913C79.6706 16.8759 80.9902 17.0968 82.2403 17.5437C83.3679 17.944 84.4019 18.5702 85.2792 19.3839L84.1932 21.4835Z" fill="#3C4A63"/>
<path d="M102.363 40.8866H100.528C100.215 40.9004 99.9036 40.8402 99.6186 40.7109C99.494 40.634 99.3859 40.533 99.3006 40.4138C99.2154 40.2947 99.1546 40.1597 99.122 40.0169L98.7598 38.821C98.3591 39.1828 97.9375 39.5208 97.4972 39.8332C97.0955 40.1163 96.6674 40.3599 96.219 40.5609C95.7685 40.7608 95.2971 40.9094 94.8134 41.004C94.2587 41.1102 93.6947 41.1606 93.1299 41.1545C92.4599 41.1617 91.7928 41.0659 91.1519 40.8705C90.5803 40.7031 90.05 40.4182 89.5949 40.034C89.1507 39.6406 88.8019 39.1513 88.5746 38.6033C88.321 37.971 88.1975 37.2941 88.2115 36.613C88.2188 35.9532 88.3926 35.3059 88.7167 34.7311C89.1267 34.0397 89.7061 33.4641 90.4002 33.0585C91.3696 32.4814 92.4241 32.0609 93.5247 31.8125C95.1122 31.4523 96.7375 31.2866 98.365 31.3192V30.2815C98.4355 29.3863 98.1816 28.4957 97.6497 27.7723C97.385 27.4875 97.0605 27.2647 96.6995 27.1201C96.3385 26.9755 95.95 26.9125 95.5619 26.9358C94.992 26.9161 94.4229 26.9924 93.8784 27.1616C93.4807 27.2972 93.0972 27.4717 92.7337 27.6824L91.8341 28.2031C91.5558 28.3557 91.2426 28.4335 90.9252 28.429C90.6731 28.4363 90.4253 28.363 90.2179 28.2197C90.021 28.0796 89.8568 27.8985 89.7364 27.689L89.004 26.4344C90.9236 24.6755 93.4464 23.7225 96.0495 23.7728C96.9566 23.7576 97.8577 23.9226 98.7007 24.2581C99.4479 24.558 100.122 25.0143 100.679 25.5965C101.229 26.1881 101.648 26.8892 101.91 27.654C102.198 28.499 102.34 29.3871 102.33 30.28L102.363 40.8866ZM94.4418 38.3774C94.8299 38.3786 95.217 38.3391 95.5969 38.2596C95.9433 38.1856 96.2796 38.0705 96.5987 37.9168C96.9197 37.7609 97.2242 37.5731 97.5076 37.3563C97.8063 37.1142 98.0876 36.8514 98.3494 36.5699V33.7526C97.3514 33.7384 96.3541 33.8139 95.3697 33.9784C94.7056 34.0853 94.0578 34.2762 93.4419 34.5465C93.0268 34.7254 92.6687 35.0148 92.4065 35.3831C92.206 35.6823 92.1004 36.035 92.1035 36.3952C92.0761 36.6845 92.1201 36.9761 92.2316 37.2445C92.3431 37.5128 92.5188 37.7497 92.7431 37.9343C93.2361 38.249 93.8165 38.3982 94.4001 38.3604L94.4418 38.3774Z" fill="#3C4A63"/>
<path d="M112.359 23.7689C113.047 23.7634 113.733 23.8363 114.404 23.9862C115.014 24.1217 115.603 24.3383 116.156 24.63H121.03V26.1355C121.042 26.3522 120.97 26.5652 120.828 26.7292C120.64 26.8962 120.404 26.9987 120.154 27.0218L118.639 27.2978C118.751 27.5906 118.835 27.8929 118.892 28.201C118.955 28.5318 118.987 28.8679 118.986 29.2047C118.997 29.9866 118.824 30.7601 118.481 31.4629C118.145 32.1152 117.67 32.6859 117.09 33.1351C116.464 33.6238 115.754 33.993 114.994 34.2239C114.141 34.4872 113.252 34.617 112.359 34.6088C111.732 34.6089 111.106 34.5473 110.491 34.4247C109.963 34.7425 109.7 35.0993 109.7 35.4951C109.7 35.6524 109.744 35.8065 109.828 35.9396C109.912 36.0728 110.031 36.1796 110.173 36.2478C110.564 36.4279 110.982 36.5411 111.411 36.5825C111.989 36.6529 112.571 36.6864 113.153 36.6829C113.805 36.6829 114.47 36.7108 115.148 36.7667C115.819 36.8187 116.485 36.9136 117.143 37.0507C117.755 37.1738 118.344 37.394 118.886 37.7031C119.406 38.0134 119.835 38.454 120.132 38.9813C120.469 39.5799 120.633 40.2605 120.606 40.947C120.601 41.7079 120.408 42.4558 120.045 43.1243C119.65 43.8548 119.105 44.4934 118.445 44.9976C117.672 45.5823 116.803 46.0293 115.878 46.3189C114.756 46.6703 113.585 46.8397 112.41 46.8207C111.276 46.8406 110.145 46.717 109.043 46.4529C108.209 46.2541 107.413 45.9202 106.687 45.4644C106.117 45.0931 105.643 44.5913 105.305 44.0006C105.005 43.4939 104.845 42.9168 104.841 42.328C104.82 41.5989 105.079 40.8895 105.565 40.3457C106.122 39.7633 106.813 39.3247 107.577 39.0675C107.169 38.8492 106.822 38.5331 106.567 38.1476C106.296 37.6995 106.165 37.1815 106.188 36.6587C106.192 36.3939 106.238 36.1313 106.324 35.8809C106.416 35.5835 106.552 35.3015 106.728 35.0444C106.922 34.768 107.151 34.5179 107.409 34.3001C107.707 34.0486 108.035 33.835 108.386 33.6643C107.564 33.2368 106.868 32.6026 106.366 31.8241C105.864 31.0166 105.61 30.0802 105.634 29.1299C105.619 28.3641 105.784 27.6055 106.114 26.9144C106.444 26.2233 106.931 25.6188 107.536 25.1489C108.171 24.6555 108.894 24.2861 109.666 24.06C110.544 23.8295 111.452 23.7313 112.359 23.7689ZM116.829 41.6003C116.838 41.4483 116.816 41.2961 116.766 41.1525C116.715 41.0089 116.637 40.8768 116.535 40.7638C116.3 40.5308 116.011 40.3611 115.693 40.2705C115.304 40.1429 114.904 40.056 114.497 40.011C114.014 39.9536 113.528 39.9256 113.041 39.9272H111.459C110.928 39.9277 110.4 39.8659 109.884 39.7431C109.467 39.9739 109.098 40.2836 108.798 40.6549C108.522 40.9886 108.373 41.4095 108.378 41.8427C108.375 42.136 108.451 42.4245 108.596 42.6792C108.769 42.9589 109.013 43.1877 109.304 43.342C109.699 43.5531 110.125 43.6999 110.566 43.7771C111.191 43.8913 111.825 43.9445 112.46 43.9362C113.118 43.9453 113.775 43.8864 114.421 43.7605C114.898 43.6704 115.358 43.5067 115.785 43.2753C116.105 43.1025 116.375 42.8487 116.567 42.5391C116.738 42.2558 116.829 41.9312 116.829 41.6003ZM112.359 32.0656C112.809 32.0735 113.256 32.0027 113.681 31.8563C114.03 31.7355 114.348 31.5418 114.616 31.2882C114.863 31.054 115.055 30.7685 115.18 30.4517C115.311 30.0955 115.376 29.7186 115.373 29.3392C115.392 28.9763 115.335 28.6134 115.206 28.2737C115.077 27.934 114.879 27.6247 114.624 27.3655C113.969 26.8915 113.181 26.6363 112.372 26.6363C111.564 26.6363 110.776 26.8915 110.121 27.3655C109.866 27.6247 109.668 27.934 109.539 28.2737C109.41 28.6134 109.353 28.9763 109.372 29.3392C109.369 29.7136 109.435 30.0854 109.565 30.4365C109.691 30.7522 109.884 31.0373 110.129 31.2731C110.396 31.5326 110.718 31.7297 111.071 31.8502C111.485 31.9945 111.921 32.0673 112.359 32.0656Z" fill="#3C4A63"/>
<path d="M130.756 23.7952C131.761 23.7849 132.759 23.9579 133.702 24.3055C134.577 24.6252 135.372 25.1302 136.034 25.7859C136.701 26.4681 137.217 27.2832 137.549 28.1781C137.928 29.2138 138.113 30.3103 138.096 31.413C138.113 31.6665 138.113 31.9208 138.096 32.1743C138.079 32.3419 138.027 32.5042 137.945 32.651C137.878 32.7597 137.778 32.8446 137.66 32.8934C137.512 32.9478 137.355 32.9734 137.197 32.9687H126.673C126.666 34.3654 127.166 35.7173 128.079 36.7741C128.508 37.1841 129.015 37.503 129.571 37.7114C130.127 37.9199 130.719 38.0136 131.311 37.987C131.881 37.9973 132.448 37.9211 132.995 37.7611C133.427 37.6269 133.846 37.4561 134.249 37.2508L135.192 36.7405C135.429 36.5981 135.698 36.5203 135.975 36.5146C136.124 36.5096 136.272 36.5442 136.404 36.615C136.527 36.6826 136.634 36.7769 136.716 36.891L137.902 38.3629C137.466 38.876 136.955 39.3213 136.387 39.6842C135.835 40.0291 135.245 40.3098 134.628 40.5207C134.022 40.7327 133.396 40.884 132.76 40.9724C132.149 41.0593 131.533 41.104 130.916 41.1063C129.795 41.115 128.682 40.9164 127.633 40.5207C126.638 40.1444 125.736 39.5568 124.99 38.7984C124.211 37.9919 123.609 37.0321 123.222 35.9801C122.769 34.7321 122.548 33.4115 122.572 32.0839C122.567 30.9797 122.76 29.8836 123.14 28.8471C123.493 27.8681 124.039 26.9698 124.745 26.2054C125.456 25.4438 126.315 24.8369 127.271 24.4225C128.375 23.97 129.563 23.7562 130.756 23.7952ZM130.84 26.6973C130.332 26.6688 129.824 26.7431 129.345 26.9155C128.866 27.0879 128.427 27.3551 128.054 27.7009C127.333 28.483 126.884 29.4778 126.776 30.5363H134.436C134.438 30.0318 134.364 29.5299 134.217 29.0473C134.084 28.5998 133.861 28.1843 133.561 27.8264C133.255 27.4669 132.872 27.181 132.441 26.9898C131.934 26.7796 131.388 26.68 130.84 26.6977L130.84 26.6973Z" fill="#3C4A63"/>
<path d="M142.849 40.887V17.676H149.583C150.749 17.6558 151.912 17.7879 153.043 18.0689C153.918 18.2841 154.74 18.677 155.457 19.2232C156.084 19.7145 156.576 20.3561 156.888 21.0884C157.217 21.8835 157.378 22.7376 157.362 23.5976C157.364 24.2031 157.255 24.8039 157.042 25.3705C156.822 25.9453 156.505 26.478 156.105 26.9451C155.678 27.4426 155.171 27.8665 154.607 28.1997C153.98 28.5804 153.3 28.8632 152.588 29.0381C154.146 29.1979 155.615 29.8346 156.797 30.8613C157.293 31.342 157.681 31.9222 157.936 32.5637C158.192 33.2052 158.309 33.8935 158.279 34.5833C158.293 35.4975 158.112 36.4041 157.749 37.243C157.403 38.0042 156.884 38.6743 156.234 39.2001C155.5 39.7788 154.659 40.2054 153.759 40.4547C152.663 40.762 151.529 40.9085 150.392 40.8898L142.849 40.887ZM144.533 28.5339H149.583C150.523 28.5563 151.46 28.4177 152.353 28.124C153.047 27.8939 153.688 27.5271 154.238 27.045C154.707 26.6253 155.076 26.105 155.316 25.523C155.544 24.9656 155.661 24.369 155.661 23.7666C155.706 23.0984 155.594 22.429 155.334 21.8119C155.074 21.1947 154.673 20.6469 154.164 20.2121C153.17 19.4092 151.632 19.0077 149.549 19.0077H144.499L144.533 28.5339ZM144.533 29.7648V39.5405H150.424C152.083 39.6606 153.731 39.1928 155.079 38.2192C155.606 37.7603 156.02 37.1872 156.292 36.5436C156.563 35.9001 156.684 35.203 156.645 34.5057C156.655 33.8245 156.511 33.1497 156.224 32.532C155.943 31.9446 155.528 31.4317 155.012 31.035C154.43 30.5976 153.77 30.2762 153.067 30.0882C152.211 29.8592 151.328 29.7495 150.441 29.762L144.533 29.7648Z" fill="#3C4A63"/>
<path d="M166.116 18.9113C166.117 19.1027 166.073 19.2917 165.989 19.4633C165.908 19.6306 165.8 19.7832 165.669 19.915C165.535 20.0463 165.378 20.1514 165.206 20.2246C165.028 20.2998 164.838 20.3386 164.646 20.3386C164.453 20.3386 164.263 20.2998 164.086 20.2246C163.913 20.1515 163.756 20.0465 163.623 19.915C163.493 19.7845 163.387 19.6315 163.311 19.4633C163.233 19.2898 163.194 19.1015 163.195 18.9113C163.196 18.7159 163.236 18.5226 163.313 18.3432C163.46 17.9929 163.738 17.7137 164.088 17.5649C164.265 17.4896 164.455 17.4508 164.648 17.4508C164.84 17.4508 165.03 17.4896 165.207 17.5649C165.38 17.6383 165.537 17.7433 165.67 17.8745C165.805 18.0099 165.913 18.1685 165.99 18.3427C166.074 18.5207 166.117 18.7148 166.116 18.9113ZM165.426 24.5403V40.8909H163.858V24.5734L165.426 24.5403Z" fill="#3C4A63"/>
<path d="M177.659 24.3031C178.744 24.2855 179.821 24.4904 180.824 24.9053C181.725 25.2778 182.53 25.8501 183.178 26.5788C183.841 27.354 184.34 28.256 184.643 29.23C185.314 31.4924 185.314 33.9009 184.643 36.1633C184.338 37.141 183.837 38.046 183.17 38.823C182.524 39.5532 181.718 40.1251 180.816 40.4941C178.782 41.2811 176.528 41.2811 174.494 40.4941C173.588 40.124 172.778 39.5519 172.127 38.8215C171.463 38.0499 170.965 37.1503 170.662 36.1784C169.99 33.9163 169.99 31.5073 170.662 29.2452C170.963 28.2704 171.462 27.368 172.127 26.594C172.78 25.866 173.589 25.2944 174.494 24.9214C175.495 24.501 176.573 24.2906 177.659 24.3031ZM177.659 39.8678C178.526 39.8809 179.387 39.7099 180.184 39.366C180.904 39.043 181.534 38.5491 182.019 37.9273C182.531 37.2553 182.903 36.4874 183.113 35.669C183.612 33.7405 183.632 31.7192 183.172 29.7811C182.962 28.9576 182.59 28.1842 182.078 27.5063C181.593 26.88 180.963 26.3809 180.243 26.0519C178.598 25.3781 176.754 25.3781 175.108 26.0519C174.388 26.3813 173.758 26.8807 173.273 27.5072C172.754 28.1846 172.374 28.9576 172.153 29.782C171.658 31.722 171.658 33.7551 172.153 35.6951C172.368 36.5131 172.743 37.2806 173.256 37.9533C173.742 38.5749 174.371 39.0687 175.091 39.392C175.902 39.7367 176.778 39.9027 177.659 39.8787V39.8678Z" fill="#3C4A63"/>
<path d="M189.423 40.8948V24.5774H190.265C190.325 24.5705 190.386 24.5757 190.444 24.5928C190.501 24.6099 190.555 24.6384 190.602 24.6768C190.648 24.715 190.686 24.7622 190.714 24.8156C190.741 24.869 190.758 24.9274 190.762 24.9874L190.913 27.4463C191.634 26.5296 192.523 25.7578 193.531 25.1715C194.558 24.5938 195.721 24.304 196.898 24.3326C197.713 24.3169 198.522 24.4617 199.28 24.7587C199.933 25.0273 200.51 25.4496 200.964 25.9896C201.434 26.5573 201.783 27.2146 201.991 27.9216C202.232 28.7529 202.349 29.6154 202.336 30.481V40.8948H200.77V30.4653C200.846 29.1771 200.471 27.9028 199.71 26.8607C199.308 26.4085 198.807 26.0554 198.247 25.8291C197.686 25.6027 197.08 25.5092 196.477 25.5559C195.418 25.5529 194.378 25.8422 193.472 26.392C192.507 26.9825 191.667 27.7552 190.997 28.6668V40.8948H189.423Z" fill="#3C4A63"/>
<path d="M213.642 24.3031C214.521 24.294 215.393 24.4559 216.209 24.7799C216.984 25.0896 217.681 25.5633 218.255 26.1684C218.857 26.8137 219.319 27.577 219.611 28.4101C219.951 29.3911 220.116 30.4244 220.099 31.4627C220.114 31.6345 220.076 31.8069 219.989 31.956C219.947 32.0024 219.895 32.0386 219.836 32.0618C219.778 32.085 219.715 32.0946 219.653 32.09H207.8V32.3986C207.782 33.4901 207.927 34.5781 208.229 35.6269C208.475 36.4817 208.89 37.2782 209.45 37.9689C209.967 38.589 210.625 39.0761 211.369 39.3892C212.17 39.7181 213.029 39.8803 213.894 39.8659C214.619 39.8799 215.342 39.7898 216.041 39.5984C216.568 39.4472 217.079 39.2425 217.564 38.9877C217.906 38.807 218.235 38.6029 218.549 38.377C218.698 38.2415 218.882 38.149 219.079 38.1095C219.144 38.1072 219.208 38.1213 219.265 38.1505C219.322 38.1798 219.371 38.2232 219.407 38.2767L219.837 38.8036C219.536 39.1633 219.181 39.4737 218.784 39.7234C218.327 40.0183 217.839 40.2623 217.328 40.4511C216.781 40.6591 216.218 40.8214 215.645 40.9363C215.038 41.0574 214.42 41.119 213.801 41.1205C212.748 41.1328 211.703 40.9336 210.729 40.5349C209.819 40.1634 209.005 39.5917 208.346 38.8623C207.622 38.0592 207.074 37.1134 206.737 36.0857C206.359 34.8916 206.177 33.6442 206.199 32.392C206.188 31.2925 206.359 30.1989 206.706 29.1552C207.012 28.2139 207.505 27.3436 208.154 26.5959C208.8 25.8749 209.595 25.304 210.485 24.9233C211.482 24.4965 212.558 24.2851 213.642 24.3031ZM213.642 25.4658C212.867 25.4533 212.096 25.5866 211.37 25.8588C210.716 26.1085 210.122 26.4936 209.627 26.9888C209.124 27.5009 208.722 28.1022 208.44 28.7618C208.126 29.4999 207.925 30.2809 207.842 31.0787H218.659C218.67 30.2807 218.548 29.4863 218.297 28.7287C218.081 28.0767 217.734 27.476 217.277 26.9638C216.837 26.4841 216.298 26.1071 215.696 25.8597C215.052 25.5985 214.362 25.4677 213.667 25.4748L213.642 25.4658Z" fill="#3C4A63"/>
<path d="M228.967 41.1537C228.495 41.1825 228.022 41.1159 227.577 40.9578C227.132 40.7998 226.723 40.5535 226.374 40.2338C226.039 39.8467 225.784 39.3965 225.625 38.9096C225.466 38.4227 225.406 37.909 225.448 37.3985V26.2414H223.091C222.984 26.2442 222.88 26.2086 222.797 26.141C222.758 26.1066 222.727 26.0641 222.707 26.0163C222.686 25.9686 222.677 25.9169 222.678 25.865V25.2543L225.482 25.0535L225.877 19.2011C225.89 19.1024 225.934 19.0106 226.004 18.9398C226.04 18.9008 226.085 18.8702 226.134 18.8499C226.183 18.8297 226.236 18.8203 226.29 18.8224H227.022V25.0535H232.191V26.2163H227.022V37.3062C227.015 37.6982 227.075 38.0885 227.199 38.4604C227.293 38.7722 227.457 39.0583 227.679 39.2969C227.879 39.5032 228.123 39.6607 228.394 39.7571C228.681 39.8584 228.983 39.9093 229.287 39.9076C229.637 39.915 229.985 39.8554 230.313 39.732C230.572 39.631 230.82 39.5049 231.054 39.3556C231.234 39.2417 231.405 39.116 231.568 38.9793C231.65 38.8885 231.759 38.8268 231.879 38.8036C231.933 38.8104 231.984 38.829 232.029 38.8579C232.074 38.8868 232.112 38.9253 232.14 38.9707L232.57 39.6567C232.124 40.1339 231.582 40.5103 230.979 40.7607C230.343 41.0292 229.658 41.163 228.967 41.1537Z" fill="#3C4A63"/>
<path d="M234.115 24.5753H235.361C235.498 24.5706 235.632 24.6151 235.74 24.7008C235.831 24.7694 235.901 24.862 235.942 24.9683L240.083 37.8496C240.157 38.0856 240.22 38.3253 240.269 38.5678L240.404 39.2538C240.462 39.028 240.522 38.7936 240.589 38.5678C240.656 38.342 240.731 38.0996 240.816 37.8487L245.226 24.8594C245.248 24.754 245.306 24.6598 245.391 24.5938C245.476 24.5282 245.582 24.4947 245.689 24.4991H246.304C246.414 24.4935 246.523 24.527 246.61 24.5938C246.698 24.6595 246.76 24.7543 246.784 24.8613L251.127 37.8496C251.285 38.3187 251.417 38.7962 251.522 39.2798C251.567 39.0513 251.615 38.82 251.665 38.5858C251.719 38.3391 251.79 38.096 251.875 37.8582L256.034 24.9768C256.067 24.8559 256.142 24.7506 256.245 24.679C256.348 24.6074 256.473 24.5739 256.599 24.5843H257.752L252.196 40.8928H251.043C250.866 40.8928 250.74 40.7759 250.664 40.55L246.187 27.2767C246.131 27.1151 246.08 26.9507 246.036 26.7834C245.991 26.6161 245.951 26.4517 245.918 26.2901C245.884 26.4517 245.847 26.6161 245.808 26.7834C245.769 26.9502 245.722 27.1148 245.666 27.2767L241.112 40.5325C241.098 40.6272 241.051 40.7137 240.978 40.7763C240.906 40.8392 240.813 40.8743 240.717 40.8753H239.612L234.115 24.5753Z" fill="#3C4A63"/>
<path d="M267.191 24.3031C268.276 24.2854 269.354 24.4904 270.357 24.9053C271.259 25.2773 272.064 25.8492 272.713 26.5779C273.376 27.353 273.875 28.2551 274.178 29.2291C274.849 31.4914 274.849 33.9 274.178 36.1623C273.874 37.1335 273.375 38.0327 272.713 38.8055C272.067 39.5365 271.26 40.1089 270.357 40.4781C268.323 41.265 266.069 41.265 264.035 40.4781C263.129 40.1079 262.319 39.5359 261.668 38.8055C261.004 38.0338 260.506 37.1342 260.203 36.1623C259.531 33.9002 259.531 31.4913 260.203 29.2291C260.505 28.2543 261.003 27.3519 261.668 26.5779C262.321 25.8499 263.13 25.2783 264.035 24.9053C265.035 24.4916 266.109 24.2866 267.191 24.3031ZM267.191 39.8678C268.059 39.8809 268.92 39.7099 269.716 39.366C270.438 39.0471 271.071 38.5568 271.56 37.9377C272.072 37.2657 272.444 36.4978 272.654 35.6795C273.138 33.7381 273.138 31.7077 272.654 29.7664C272.444 28.9429 272.072 28.1696 271.56 27.4916C271.075 26.8649 270.446 26.3655 269.725 26.0363C268.08 25.3625 266.236 25.3625 264.59 26.0363C263.87 26.3655 263.24 26.8645 262.755 27.4907C262.252 28.1772 261.889 28.9559 261.686 29.7825C261.191 31.7225 261.191 33.7556 261.686 35.6955C261.901 36.5136 262.276 37.2811 262.789 37.9538C263.275 38.5752 263.904 39.0688 264.624 39.392C265.435 39.7367 266.31 39.9027 267.191 39.8787V39.8678Z" fill="#3C4A63"/>
<path d="M278.957 40.8886V24.5711H279.799C279.943 24.5585 280.087 24.6002 280.203 24.688C280.298 24.7962 280.349 24.9367 280.345 25.081L280.479 28.527C280.918 27.3324 281.644 26.264 282.593 25.4162C283.509 24.6488 284.675 24.2466 285.869 24.2871C286.331 24.2842 286.792 24.3376 287.242 24.4461C287.653 24.5493 288.051 24.7016 288.425 24.8997L288.207 25.9786C288.203 26.0172 288.191 26.0546 288.172 26.0885C288.153 26.1225 288.128 26.1524 288.097 26.1765C288.067 26.2006 288.032 26.2185 287.994 26.2291C287.957 26.2397 287.917 26.2427 287.879 26.238C287.783 26.2305 287.689 26.208 287.601 26.1713L287.146 26.0207C286.929 25.9571 286.707 25.9068 286.483 25.8702C286.183 25.8235 285.879 25.8012 285.575 25.8034C285.011 25.7822 284.448 25.8742 283.921 26.0739C283.393 26.2736 282.911 26.577 282.502 26.9662C281.6 27.9103 280.936 29.0562 280.567 30.3085V40.8886H278.957Z" fill="#3C4A63"/>
<path d="M293.965 17.0175V31.57H294.722C294.871 31.5704 295.019 31.5478 295.16 31.5032C295.333 31.4359 295.489 31.33 295.615 31.1936L302.206 24.9795C302.317 24.8676 302.441 24.7694 302.576 24.6869C302.725 24.604 302.894 24.5635 303.064 24.57H304.453L297.206 31.4095L296.894 31.7106C296.796 31.8025 296.685 31.8812 296.566 31.9449C296.73 32.024 296.881 32.1285 297.012 32.2546L297.391 32.6475L304.966 40.885H303.593C303.45 40.8871 303.309 40.8556 303.18 40.7932C303.044 40.7213 302.921 40.6251 302.819 40.5091L295.968 33.1256C295.823 32.9615 295.649 32.8254 295.454 32.7242C295.223 32.6399 294.976 32.6029 294.73 32.6153H293.99V40.8528H292.424V17.0175H293.965Z" fill="#3C4A63"/>
<path d="M317.69 26.5991C317.659 26.6687 317.608 26.7276 317.544 26.7678C317.479 26.8081 317.404 26.828 317.328 26.8249C317.153 26.8033 316.988 26.7305 316.854 26.6156C316.611 26.4476 316.358 26.2939 316.097 26.1555C315.729 25.9638 315.342 25.8096 314.944 25.6953C314.395 25.5455 313.828 25.4754 313.26 25.487C312.708 25.4797 312.159 25.5645 311.635 25.7379C311.181 25.888 310.757 26.1173 310.383 26.4154C310.035 26.6805 309.748 27.0169 309.541 27.402C309.352 27.7692 309.255 28.1767 309.257 28.5898C309.239 29.0486 309.379 29.4998 309.653 29.868C309.941 30.2138 310.295 30.4982 310.695 30.7046C311.161 30.959 311.652 31.1663 312.159 31.3233L313.843 31.8503C314.404 32.0232 314.965 32.2184 315.526 32.4359C316.05 32.6483 316.542 32.9296 316.991 33.2724C317.415 33.5835 317.77 33.9795 318.033 34.4351C318.309 34.9484 318.445 35.5252 318.428 36.1077C318.434 36.7873 318.303 37.4611 318.042 38.0885C317.788 38.6934 317.406 39.2358 316.922 39.6778C316.395 40.1468 315.78 40.5076 315.114 40.7397C314.33 41.0132 313.503 41.1462 312.673 41.1326C311.65 41.1569 310.632 40.969 309.685 40.5806C308.864 40.2244 308.105 39.7397 307.437 39.1447L307.816 38.5842C307.862 38.5047 307.925 38.4362 308.001 38.3835C308.085 38.3351 308.182 38.3119 308.279 38.3167C308.479 38.342 308.666 38.4333 308.809 38.5762C309.075 38.7869 309.356 38.9768 309.651 39.1443C310.048 39.3759 310.469 39.5662 310.905 39.7124C311.506 39.9016 312.135 39.9893 312.765 39.9718C313.389 39.9847 314.01 39.8886 314.6 39.6878C315.089 39.5208 315.539 39.2561 315.922 38.9099C316.285 38.5928 316.572 38.1991 316.763 37.7571C316.945 37.3111 317.036 36.8336 317.033 36.352C317.052 35.8667 316.913 35.3883 316.637 34.9886C316.358 34.6127 316.003 34.2994 315.595 34.0687C315.132 33.8014 314.641 33.5855 314.131 33.4249L312.447 32.8979C311.884 32.7243 311.323 32.5317 310.762 32.3199C310.24 32.126 309.747 31.8614 309.297 31.5335C308.874 31.2246 308.52 30.8316 308.256 30.3793C307.979 29.8662 307.842 29.2895 307.858 28.7067C307.857 28.1279 307.987 27.5563 308.237 27.0341C308.474 26.488 308.824 25.9979 309.263 25.5954C309.761 25.1716 310.331 24.8427 310.947 24.6254C311.676 24.3754 312.443 24.2533 313.213 24.2646C314.121 24.2495 315.025 24.3968 315.881 24.6997C316.672 24.9979 317.398 25.447 318.018 26.0219L317.69 26.5991Z" fill="#3C4A63"/>
<path d="M14.8181 34.8859L14.3376 35.6803C14.478 35.7653 14.6384 35.8115 14.8025 35.8143C14.9666 35.817 15.1284 35.7763 15.2716 35.6961C15.4148 35.6159 15.5342 35.4993 15.6176 35.3579C15.701 35.2166 15.7455 35.0557 15.7465 34.8916L14.8181 34.8859ZM14.9128 18.9364L15.8412 18.9416C15.8421 18.7772 15.7994 18.6154 15.7174 18.473C15.6354 18.3305 15.517 18.2123 15.3744 18.1306L14.9128 18.9364ZM0.928381 10.9242L1.38997 10.1193C1.24874 10.0384 1.08872 9.99603 0.925944 9.99646C0.763171 9.99689 0.603372 10.0401 0.462571 10.1218C0.32177 10.2034 0.204916 10.3207 0.123728 10.4618C0.0425395 10.6029 -0.000129274 10.7628 2.94206e-07 10.9256L0.928381 10.9242ZM0.953473 26.4974H0.0250917C0.0251315 26.6572 0.0664204 26.8143 0.144963 26.9534C0.223505 27.0926 0.336641 27.2091 0.473422 27.2918L0.953473 26.4974ZM15.746 34.8912L15.8407 18.9416L13.9839 18.9307L13.8893 34.8803L15.746 34.8912ZM15.372 18.132L1.38997 10.1189L0.466795 11.7285L14.4484 19.7421L15.372 18.132ZM2.94206e-07 10.9256L0.0250917 26.4988L1.88185 26.496L1.85676 10.9227L2.94206e-07 10.9256ZM0.473422 27.2918L14.3371 35.6803L15.2982 34.092L1.434 25.703L0.473422 27.2918Z" fill="#679EC1"/>
<path d="M14.4544 34.0834C14.2398 34.204 14.0819 34.405 14.0154 34.6421C13.949 34.8792 13.9794 35.133 14.1001 35.3477C14.2207 35.5623 14.4217 35.7202 14.6588 35.7867C14.8959 35.8531 15.1497 35.8227 15.3643 35.702L14.4544 34.0834ZM27.1066 28.0345L27.5625 28.8431C27.7727 28.72 27.926 28.5193 27.9896 28.2843C28.0532 28.0492 28.0218 27.7986 27.9024 27.5864C27.7829 27.3743 27.5848 27.2175 27.3509 27.15C27.117 27.0825 26.8658 27.1095 26.6517 27.2254L27.1066 28.0345ZM22.5092 29.5589C22.403 29.6188 22.3095 29.699 22.2342 29.795C22.1589 29.8909 22.1033 30.0008 22.0705 30.1183C22.0377 30.2358 22.0283 30.3586 22.043 30.4797C22.0576 30.6008 22.096 30.7178 22.1558 30.8241C22.2157 30.9304 22.2959 31.0238 22.3919 31.0991C22.4879 31.1744 22.5978 31.23 22.7152 31.2628C22.8327 31.2957 22.9555 31.305 23.0766 31.2904C23.1977 31.2757 23.3148 31.2374 23.421 31.1775L22.5092 29.5589ZM15.3643 35.702L27.5616 28.8435L26.6517 27.2254L14.4544 34.0834L15.3643 35.702ZM26.6507 27.2278L22.5097 29.5594L23.421 31.1775L27.5625 28.8435L26.6507 27.2278Z" fill="#679EC1"/>
<path d="M28.7825 59.258L28.3015 60.0524C28.4419 60.1374 28.6023 60.1837 28.7664 60.1866C28.9305 60.1894 29.0924 60.1487 29.2357 60.0686C29.3789 59.9885 29.4984 59.8718 29.5818 59.7305C29.6653 59.5892 29.7098 59.4283 29.7109 59.2641L28.7825 59.258ZM28.8833 43.3084L29.8117 43.3141C29.8127 43.1496 29.7701 42.9878 29.6881 42.8452C29.606 42.7026 29.4876 42.5844 29.3449 42.5026L28.8833 43.3084ZM14.8927 35.2962L15.3543 34.4914C15.2131 34.4104 15.053 34.368 14.8902 34.3685C14.7274 34.3689 14.5675 34.4122 14.4267 34.4939C14.2859 34.5757 14.1691 34.693 14.0879 34.8341C14.0068 34.9753 13.9641 35.1353 13.9644 35.2981L14.8927 35.2962ZM14.9264 50.8694H13.998C13.9983 51.0287 14.0397 51.1853 14.118 51.324C14.1964 51.4627 14.3091 51.5789 14.4454 51.6614L14.9264 50.8694ZM29.7104 59.2641L29.8112 43.3145L27.9545 43.3027L27.8536 59.2523L29.7104 59.2641ZM29.3444 42.505L15.3543 34.4904L14.4316 36.1001L28.4217 44.1142L29.3444 42.505ZM13.9644 35.2981L13.998 50.8713L15.8547 50.8675L15.8211 35.2943L13.9644 35.2981ZM14.4454 51.6633L28.301 60.0524L29.263 58.465L15.4073 50.075L14.4454 51.6633Z" fill="#679EC1"/>
<path d="M45.681 35.4904L46.6089 35.5126C46.6129 35.3485 46.5733 35.1863 46.4941 35.0425C46.4149 34.8987 46.299 34.7784 46.1582 34.694C46.0174 34.6096 45.8567 34.5641 45.6925 34.562C45.5284 34.5599 45.3666 34.6014 45.2237 34.6823L45.681 35.4904ZM31.7331 43.3857L31.2757 42.5775C31.1327 42.6585 31.0136 42.7761 30.9309 42.9181C30.8481 43.0602 30.8046 43.2217 30.8047 43.3861L31.7331 43.3857ZM31.7416 59.4167H30.8132C30.8132 59.5795 30.856 59.7395 30.9374 59.8806C31.0187 60.0217 31.1358 60.1389 31.2768 60.2204C31.4177 60.302 31.5777 60.345 31.7405 60.3452C31.9034 60.3454 32.0634 60.3027 32.2046 60.2215L31.7416 59.4167ZM45.2938 51.6156L45.7573 52.4204C45.8954 52.341 46.0107 52.2273 46.0921 52.0903C46.1736 51.9533 46.2183 51.7977 46.2222 51.6383L45.2938 51.6156ZM45.2237 34.6823L31.2757 42.5775L32.1904 44.1933L46.1384 36.2985L45.2237 34.6823ZM30.8047 43.3861L30.8132 59.419H32.67L32.6614 43.3852L30.8047 43.3861ZM32.2046 60.2215L45.7573 52.42L44.8308 50.8103L31.2781 58.6142L32.2046 60.2215ZM46.2222 51.6379L46.6094 35.5126L44.7531 35.4681L44.3659 51.5934L46.2222 51.6379Z" fill="#6DB56D"/>
<path d="M45.2076 35.9085C45.42 36.033 45.6732 36.068 45.9115 36.0058C46.1498 35.9436 46.3535 35.7893 46.478 35.5768C46.6025 35.3644 46.6375 35.1112 46.5753 34.8729C46.5131 34.6347 46.3588 34.4309 46.1464 34.3064L45.2076 35.9085ZM33.6059 28.0312L34.0751 27.2302C33.8626 27.1057 33.6094 27.0707 33.3712 27.1329C33.1329 27.1951 32.9291 27.3493 32.8046 27.5618C32.6802 27.7742 32.6452 28.0274 32.7074 28.2657C32.7695 28.5039 32.9238 28.7077 33.1363 28.8322L33.6059 28.0312ZM37.2361 31.2329C37.4484 31.3538 37.6997 31.3861 37.9357 31.323C38.1716 31.2598 38.3731 31.1061 38.4966 30.8954C38.62 30.6846 38.6554 30.4337 38.5951 30.197C38.5348 29.9603 38.3837 29.7569 38.1744 29.6309L37.2361 31.2329ZM46.1464 34.3059L34.0756 27.2302L33.1363 28.8322L45.2076 35.9085L46.1464 34.3059ZM33.1368 28.8322L37.2361 31.2325L38.1744 29.6304L34.0751 27.2302L33.1368 28.8322Z" fill="#6DB56D"/>
<path d="M59.9291 11.2899L60.857 11.3122C60.8609 11.1481 60.8212 10.986 60.7421 10.8422C60.6629 10.6985 60.5471 10.5783 60.4063 10.4939C60.2656 10.4095 60.105 10.3639 59.9409 10.3618C59.7768 10.3597 59.6151 10.4011 59.4722 10.4818L59.9291 11.2899ZM45.9811 19.1767L45.5262 18.3685C45.3826 18.4492 45.2631 18.5666 45.1799 18.7087C45.0968 18.8508 45.0529 19.0125 45.0527 19.1771L45.9811 19.1767ZM45.9896 35.2162H45.0613C45.0612 35.3791 45.104 35.5392 45.1854 35.6804C45.2668 35.8215 45.3839 35.9388 45.5249 36.0203C45.666 36.1019 45.826 36.1449 45.9889 36.145C46.1519 36.1451 46.3119 36.1024 46.4531 36.021L45.9896 35.2162ZM59.5418 27.4047L60.0053 28.2096C60.1433 28.13 60.2585 28.0163 60.3399 27.8793C60.4212 27.7423 60.4659 27.5867 60.4697 27.4275L59.5418 27.4047ZM59.4722 10.4818L45.5262 18.3685L46.4399 19.9848L60.3859 12.0981L59.4722 10.4818ZM45.0527 19.1771L45.0613 35.2186H46.918L46.9095 19.1762L45.0527 19.1771ZM46.4531 36.021L60.0058 28.2096L59.0783 26.5999L45.5262 34.4138L46.4531 36.021ZM60.4702 27.4289L60.8575 11.3122L59.0012 11.2677L58.6139 27.3844L60.4702 27.4289Z" fill="#6DB56D"/>
<path d="M30.8409 8.8142L30.3982 7.99802C30.2534 8.07659 30.1321 8.19227 30.0468 8.33318C29.9615 8.4741 29.9152 8.63519 29.9127 8.7999C29.9102 8.96462 29.9516 9.12704 30.0326 9.27049C30.1136 9.41393 30.2313 9.53325 30.3736 9.61618L30.8409 8.8142ZM44.688 16.8766L44.2207 17.679C44.3618 17.7612 44.522 17.8047 44.6853 17.8052C44.8485 17.8057 45.009 17.7632 45.1505 17.6819L44.688 16.8766ZM58.6615 8.84734L59.1241 9.65216C59.2656 9.57079 59.3831 9.45354 59.4649 9.31224C59.5466 9.17094 59.5897 9.01058 59.5897 8.84734C59.5897 8.6841 59.5466 8.52374 59.4649 8.38245C59.3831 8.24115 59.2656 8.1239 59.1241 8.04253L58.6615 8.84734ZM45.0838 1.08606L45.5444 0.281242C45.4072 0.202815 45.2521 0.160737 45.0941 0.158998C44.936 0.157258 44.7801 0.195913 44.6411 0.2713L45.0838 1.08606ZM30.3736 9.61618L44.2207 17.679L45.1567 16.0741L31.3081 8.01175L30.3736 9.61618ZM45.1505 17.6814L59.1226 9.65263L58.1976 8.043L44.2255 16.0718L45.1505 17.6814ZM59.1226 8.04158L45.5444 0.280295L44.6231 1.88993L58.2009 9.65121L59.1226 8.04158ZM44.6411 0.26988L30.3982 7.99802L31.2854 9.62991L45.5264 1.90224L44.6411 0.26988Z" fill="#EB8231"/>
<path d="M31.4295 8.99465C31.4306 8.87274 31.4077 8.75179 31.3621 8.63873C31.3165 8.52567 31.249 8.42269 31.1636 8.33569C30.9911 8.15999 30.7559 8.06001 30.5096 8.05775C30.3877 8.05663 30.2668 8.07954 30.1537 8.12516C30.0406 8.17078 29.9377 8.23823 29.8507 8.32364C29.675 8.49615 29.575 8.73139 29.5727 8.97761L31.4295 8.99465ZM30.3747 22.9114L29.4463 22.9033C29.4441 23.1495 29.5398 23.3866 29.7124 23.5622C29.8849 23.7379 30.1202 23.8378 30.3664 23.84C30.6126 23.8422 30.8497 23.7465 31.0253 23.5739C31.201 23.4014 31.3009 23.1661 31.3031 22.9199L30.3747 22.9114ZM31.3452 18.1942C31.3474 17.948 31.2517 17.711 31.0792 17.5353C30.9066 17.3596 30.6713 17.2597 30.4251 17.2575C30.1789 17.2553 29.9419 17.351 29.7662 17.5236C29.5906 17.6961 29.4907 17.9314 29.4885 18.1776L31.3452 18.1942ZM29.5727 8.97761L29.4463 22.9033L31.3031 22.9204L31.4295 8.99465L29.5727 8.97761ZM31.3031 22.9199L31.3452 18.1947L29.4885 18.1781L29.4463 22.9033L31.3031 22.9199Z" fill="#EB8231"/>
<path d="M2.60814 8.65526L2.16549 7.83908C2.02061 7.91766 1.89925 8.03338 1.81389 8.17437C1.72853 8.31536 1.68225 8.47654 1.67979 8.64133C1.67733 8.80613 1.71879 8.96861 1.79991 9.11209C1.88102 9.25556 1.99887 9.37486 2.14134 9.45772L2.60814 8.65526ZM16.4638 16.7176L15.997 17.5201C16.138 17.6021 16.2982 17.6455 16.4613 17.6459C16.6245 17.6463 16.7849 17.6038 16.9263 17.5225L16.4638 16.7176ZM30.4373 8.6884L30.8999 9.49322C31.0414 9.41185 31.1589 9.2946 31.2407 9.1533C31.3224 9.012 31.3655 8.85165 31.3655 8.6884C31.3655 8.52516 31.3224 8.36481 31.2407 8.22351C31.1589 8.08221 31.0414 7.96496 30.8999 7.88359L30.4373 8.6884ZM16.851 0.927119L17.3117 0.122301C17.1744 0.0438735 17.0194 0.00179609 16.8613 5.62389e-05C16.7033 -0.00168361 16.5474 0.0369718 16.4084 0.112359L16.851 0.927119ZM2.14134 9.45772L15.9965 17.5201L16.9306 15.9152L3.07493 7.85281L2.14134 9.45772ZM16.924 17.5225L30.8994 9.4937L29.9743 7.88406L16.0013 15.9128L16.924 17.5225ZM30.8975 7.88264L17.3112 0.120881L16.3904 1.73336L29.9776 9.49464L30.8975 7.88264ZM16.4084 0.110939L2.16549 7.83908L3.05268 9.47097L17.2937 1.7433L16.4084 0.110939Z" fill="#EB8231"/>
</svg>
