<svg width="93" height="43" viewBox="0 0 93 43" fill="none" xmlns="http://www.w3.org/2000/svg">
<ellipse cx="9.19222" cy="10.7188" rx="7.014" ry="7" fill="#C22E49" fill-opacity="0.2"/>
<ellipse cx="58.2899" cy="9.71875" rx="7.014" ry="7" fill="#C22E49" fill-opacity="0.2"/>
<ellipse cx="34.242" cy="32.7188" rx="7.014" ry="7" fill="#C22E49" fill-opacity="0.2"/>
<path d="M17.2751 10.6082C17.2751 14.9033 13.7854 18.3903 9.47444 18.3903C5.16346 18.3903 1.67383 14.9033 1.67383 10.6082C1.67383 6.31314 5.16346 2.82617 9.47444 2.82617C13.7854 2.82617 17.2751 6.31314 17.2751 10.6082Z" stroke="#C22E49" stroke-width="3"/>
<path d="M15.2041 16.2188L28.2301 27.2188" stroke="#C22E49" stroke-width="3" stroke-linecap="round" stroke-linejoin="round"/>
<path d="M51.9918 14.5854L39.3696 26.5195" stroke="#C22E49" stroke-width="3" stroke-linecap="round" stroke-linejoin="round"/>
<path d="M65.3041 15.0503L77.9263 26.9843" stroke="#C22E49" stroke-width="3" stroke-linecap="round" stroke-linejoin="round"/>
<path d="M42.5202 33.1512C42.5202 37.4463 39.0306 40.9332 34.7196 40.9332C30.4086 40.9332 26.9189 37.4463 26.9189 33.1512C26.9189 28.8561 30.4086 25.3691 34.7196 25.3691C39.0306 25.3691 42.5202 28.8561 42.5202 33.1512Z" stroke="#C22E49" stroke-width="3"/>
<path d="M66.4357 9.28205C66.4357 13.5771 62.9461 17.0641 58.6351 17.0641C54.3241 17.0641 50.8345 13.5771 50.8345 9.28205C50.8345 4.98697 54.3241 1.5 58.6351 1.5C62.9461 1.5 66.4357 4.98697 66.4357 9.28205Z" stroke="#C22E49" stroke-width="3"/>
<ellipse cx="84.1073" cy="33.1777" rx="7.014" ry="7" fill="#C22E49" fill-opacity="0.2"/>
<path d="M91.423 33.0008C91.423 37.2959 87.9334 40.7829 83.6224 40.7829C79.3114 40.7829 75.8218 37.2959 75.8218 33.0008C75.8218 28.7057 79.3114 25.2188 83.6224 25.2188C87.9334 25.2188 91.423 28.7057 91.423 33.0008Z" stroke="#C22E49" stroke-width="3"/>
</svg>
